<svg xmlns="http://www.w3.org/2000/svg" viewBox="0 0 800 600"><defs><style>.cls-1{fill:#f9f2ff;}.cls-2{fill:none;}.cls-2,.cls-3,.cls-5{stroke:#7c5cd1;stroke-miterlimit:10;stroke-width:12px;}.cls-3,.cls-6{fill:#fff;}.cls-4{fill:#ff645c;}.cls-5{fill:#bf9de0;}</style></defs><title>Shubox-Assets</title><g id="Layer_2" data-name="Layer 2"><rect class="cls-1" width="800" height="600"/></g><g id="Layer_1" data-name="Layer 1"><path class="cls-2" d="M260.86,544.86c59.49,148.34,85.91,287.06,120.61,533.75"/><path class="cls-3" d="M249.42,516.24c1.3,12.86-.74,26.57-7.3,41.42a33.95,33.95,0,0,0,39.53-14.39C267.07,536.12,256.69,526.93,249.42,516.24Z"/><path class="cls-3" d="M312.44,327.09c29,79.58-10.41,187.18-57.49,204.31s-146.41-40-175.37-119.56,4.61-164.86,64-186.47S283.47,247.51,312.44,327.09Z"/><path class="cls-4" d="M134.91,390.53c.74,1.72,2.67,2.78,5.29,1.82,2.34-.85,3.58-2.57,3-4.39-.39-1.23-1.37-2.09-4.44-1.91l-3.65.28c-6.71.35-9.08-2.82-10-5.3-1.79-4.92,1.19-9.75,6.45-11.67s10.45-.22,12.36,5l-5.84,2.13c-.67-1.85-2.35-2.67-4.69-1.82-2,.74-3.15,2.41-2.56,4,.27.73,1,1.94,4,1.69l3.63-.16c7.36-.53,9.65,2.88,10.56,5.53,1.89,5.49-2.09,9.86-7,11.63-6,2.18-11.27.08-13.06-4.84l5.89-2.14Z"/><path class="cls-4" d="M160.54,390.35l-5.55,2-10.45-28.72,5.55-2,4.75,13c-.05-2.57,2.25-4.57,4-5.21,4.92-1.79,8.64.55,10.69,6.2l3.69,10.13-5.55,2-3.63-10a3.79,3.79,0,1,0-7.07,2.68Z"/><path class="cls-4" d="M182.3,361.37l5.55-2,6.77,18.6-5.55,2-.92-2.53a6.05,6.05,0,0,1-3.74,4.72c-4.19,1.52-8.29.1-10.22-5.21l-4.06-11.15,5.55-2,3.61,9.93c1.08,3,3.39,3,4.66,2.5,1.7-.62,3-2.2,2-5l-3.58-9.83Z"/><path class="cls-4" d="M198.71,376.46l-10.45-28.72,5.5-2,4.52,12.41c.3-2,2.19-3.83,4.48-4.66,4.77-1.74,10.39.52,12.57,6.51s-.73,11.18-5.5,12.92c-2.29.83-4.88.67-6.45-.74l.83,2.29Zm8.16-8.48a4.77,4.77,0,0,0-3.26-9,4.48,4.48,0,0,0-2.67,6A4.63,4.63,0,0,0,206.87,368Z"/><path class="cls-4" d="M217.2,359.09a10.28,10.28,0,1,1,13.17,6.18A10,10,0,0,1,217.2,359.09ZM231.07,354a4.48,4.48,0,1,0-2.68,5.83A4.38,4.38,0,0,0,231.07,354Z"/><polygon class="cls-4" points="234.29 342.44 240.77 340.09 245.03 343.17 246.32 338.07 252.75 335.73 249.66 346.5 260.63 353.92 254.21 356.26 248.19 352 246.27 359.15 239.85 361.49 243.53 348.73 234.29 342.44"/><path class="cls-2" d="M538.9,452.35C479.41,600.7,429.59,833.59,381.46,1081.18"/><line class="cls-2" x1="381.46" y1="396.32" x2="381.46" y2="1081.18"/><path class="cls-3" d="M550.58,422.28c-7.27,10.69-17.65,19.88-32.22,27a33.95,33.95,0,0,0,39.53,14.39C551.32,448.85,549.28,435.14,550.58,422.28Z"/><path class="cls-3" d="M720.43,317.89c-29,79.58-128.29,136.7-175.37,119.56S458.6,312.71,487.56,233.13s109.5-123.32,168.88-101.71S749.39,238.31,720.43,317.89Z"/><path class="cls-4" d="M548.2,254c-.54,1.79.26,3.84,2.88,4.8,2.34.85,4.4.33,5.1-1.45.49-1.2.3-2.48-2.18-4.32l-3-2.13c-5.36-4-5.14-8-4.24-10.47,1.79-4.92,7.18-6.7,12.44-4.79s8.15,6.55,6.23,11.81l-5.84-2.13c.67-1.85-.08-3.56-2.42-4.41-2-.74-4-.17-4.55,1.43-.27.73-.45,2.15,2,3.86l2.89,2.21c6,4.33,5.54,8.41,4.53,11-2.08,5.42-7.94,6.21-12.81,4.44-6-2.18-8.69-7.19-6.9-12.1l5.89,2.14Z"/><path class="cls-4" d="M567.94,270.36l-5.55-2,10.45-28.72,5.55,2-4.75,13c1.61-2,4.66-2.05,6.41-1.41,4.92,1.79,6.26,6,4.21,11.62L580.58,275,575,273l3.63-10a3.79,3.79,0,1,0-7.14-2.49Z"/><path class="cls-4" d="M603.24,262.15l5.55,2L602,282.77l-5.55-2,.92-2.53a6.05,6.05,0,0,1-5.9,1.22c-4.19-1.52-6.41-5.26-4.48-10.56l4.06-11.15,5.55,2L593,269.67c-1.08,3,.7,4.44,2,4.91,1.7.62,3.71.25,4.74-2.57l3.58-9.83Z"/><path class="cls-4" d="M606.11,284.25l10.45-28.72,5.5,2-4.52,12.41c1.55-1.37,4.14-1.53,6.43-.69,4.77,1.74,7.62,7.08,5.45,13.06s-7.74,8.1-12.52,6.36c-2.29-.83-4.17-2.62-4.46-4.71l-.83,2.29Zm11.7-1.25a4.77,4.77,0,0,0,3.26-9,4.48,4.48,0,0,0-5.9,2.87A4.63,4.63,0,0,0,617.82,283Z"/><path class="cls-4" d="M631.44,282.83a10.28,10.28,0,1,1,6.11,13.2A10,10,0,0,1,631.44,282.83Zm13.88,5.05a4.48,4.48,0,1,0-5.8,2.74A4.38,4.38,0,0,0,645.32,287.88Z"/><polygon class="cls-4" points="655.24 281.07 661.71 283.43 663 288.53 667.26 285.45 673.69 287.79 664.41 294.06 668.04 306.79 661.62 304.45 659.74 297.32 653.68 301.57 647.25 299.23 658.27 291.82 655.24 281.07"/><path class="cls-5" d="M381.46,358.34c-3.18,12.53-9.79,24.71-21,36.43a33.95,33.95,0,0,0,42.06,0C391.25,383.06,384.64,370.87,381.46,358.34Z"/><path class="cls-5" d="M505.37,202.16c0,84.69-73.8,172.33-123.91,172.33S257.56,286.84,257.56,202.16,318.28,48.82,381.46,48.82,505.37,117.47,505.37,202.16Z"/><path class="cls-6" d="M319.27,198.07c.1,1.87,1.55,3.52,4.35,3.52,2.49,0,4.25-1.19,4.3-3.11.05-1.3-.57-2.44-3.52-3.32l-3.52-1c-6.42-2-7.56-5.75-7.56-8.39,0-5.23,4.46-8.76,10.05-8.76s9.9,3.37,9.9,9H327c0-2-1.3-3.32-3.78-3.32-2.18,0-3.78,1.19-3.78,2.9,0,.78.31,2.18,3.16,3l3.47,1.09c7.1,2,8.08,6,8,8.81-.1,5.8-5.34,8.55-10.52,8.55-6.37,0-10.62-3.78-10.62-9h6.27Z"/><path class="cls-6" d="M343.41,206.67H337.5V176.1h5.91V190c.83-2.44,3.68-3.52,5.54-3.52,5.23,0,7.93,3.47,7.93,9.48v10.78H351V196.1a3.79,3.79,0,1,0-7.56.1Z"/><path class="cls-6" d="M373.77,186.87h5.91v19.79h-5.91V204a6.05,6.05,0,0,1-5.13,3.16c-4.46,0-7.82-2.75-7.82-8.39V186.87h5.91v10.57c0,3.16,2.18,3.94,3.52,3.94,1.81,0,3.57-1,3.57-4V186.87Z"/><path class="cls-6" d="M384,206.67V176.1h5.85v13.21c1-1.81,3.37-2.85,5.8-2.85,5.08,0,9.58,4,9.58,10.41,0,6.22-4.51,10.26-9.58,10.26-2.44,0-4.82-1-5.8-2.9v2.44Zm10.57-5.18a4.77,4.77,0,0,0,0-9.53,4.48,4.48,0,0,0-4.56,4.71A4.63,4.63,0,0,0,394.6,201.48Z"/><path class="cls-6" d="M407.34,196.67A10.28,10.28,0,1,1,417.6,207,10,10,0,0,1,407.34,196.67Zm14.77,0a4.48,4.48,0,1,0-4.51,4.56A4.38,4.38,0,0,0,422.11,196.67Z"/><polygon class="cls-6" points="429.1 186.87 435.99 186.87 438.95 191.23 441.9 186.87 448.74 186.87 442.16 195.94 449.93 206.67 443.09 206.67 438.89 200.6 434.65 206.67 427.81 206.67 435.63 195.94 429.1 186.87"/></g></svg>