<svg xmlns="http://www.w3.org/2000/svg" viewBox="0 0 800 600"><defs><style>.cls-1{fill:#f9f2ff;}.cls-2{fill:#fff;}.cls-3,.cls-4{fill:none;stroke-miterlimit:10;stroke-width:12px;}.cls-3{stroke:#7c5cd1;}.cls-4{stroke:#ff645c;}</style></defs><title>picture-scale</title><g id="Layer_2" data-name="Layer 2"><rect class="cls-1" width="800" height="600"/></g><g id="Layer_1" data-name="Layer 1"><circle class="cls-2" cx="436.44" cy="255.94" r="18.02"/><path class="cls-2" d="M290.52,208.1V371.9h219V208.1Zm214.37,155-59.77-57.67L416.28,334.3,355,274.83,293.44,336.1V212.69H504.89Z"/><circle class="cls-3" cx="438.03" cy="253.23" r="18.39"/><polyline class="cls-3" points="511.16 366.05 447.49 302.97 376.6 373.58"/><polyline class="cls-3" points="416.5 333.97 355.03 272.5 288.84 338.47"/><rect class="cls-3" x="289.68" y="207.26" width="220.64" height="165.48"/><line class="cls-4" x1="589" y1="136.45" x2="538.19" y2="187.25"/><polyline class="cls-4" points="545.89 136.45 589 136.45 589 179.56"/><line class="cls-4" x1="589" y1="443.55" x2="538.19" y2="392.75"/><polyline class="cls-4" points="589 400.44 589 443.55 545.89 443.55"/><line class="cls-4" x1="211" y1="136.45" x2="261.81" y2="187.25"/><polyline class="cls-4" points="254.11 136.45 211 136.45 211 179.56"/><line class="cls-4" x1="211" y1="443.55" x2="261.81" y2="392.75"/><polyline class="cls-4" points="211 400.44 211 443.55 254.11 443.55"/></g></svg>