<svg xmlns="http://www.w3.org/2000/svg" viewBox="0 0 800 600"><defs><style>.cls-1{fill:#f9f2ff;}.cls-2{fill:#323233;}.cls-3{fill:#ff645c;}.cls-4{fill:#fff;}.cls-5{fill:#bf9de0;}.cls-6{fill:#c99ef2;}.cls-7{fill:#7c5cd1;}</style></defs><title>Asset 8</title><g id="Layer_2" data-name="Layer 2"><g id="Bg"><rect class="cls-1" width="800" height="600"/></g><g id="Content"><path class="cls-2" d="M287.93,600c-6.68-19.16-13.82-38.21-21.51-57.37l-11.14,4.47c7.06,17.59,13.73,35,20.12,52.91Z"/><rect class="cls-2" x="375.46" y="396.32" width="12" height="203.68"/><path class="cls-2" d="M496,600c15.52-54.3,31.64-103.47,48.47-145.42l-11.14-4.47c-16.62,41.44-33.13,91-49.88,149.88Z"/><path class="cls-3" d="M249.42,516.24c1.3,12.86-.74,26.57-7.3,41.42a33.95,33.95,0,0,0,39.53-14.39C267.07,536.12,256.69,526.93,249.42,516.24Z"/><path class="cls-2" d="M252.86,565.35a40.94,40.94,0,0,1-12.61-2L234,561.3l2.68-6.06c5.86-13.27,8.09-25.83,6.82-38.39l-2.38-23.54,13.31,19.56c7.11,10.44,16.89,18.63,29.91,25l6,2.92-3.51,5.63a40.3,40.3,0,0,1-21.39,16.89A39.53,39.53,0,0,1,252.86,565.35Zm-2.51-12.11a27.61,27.61,0,0,0,22.13-8.07,90.8,90.8,0,0,1-17.19-12.81A90.84,90.84,0,0,1,250.35,553.25Z"/><path class="cls-3" d="M312.44,327.09c29,79.58-10.41,187.18-57.49,204.31s-146.41-40-175.37-119.56,4.61-164.86,64-186.47S283.47,247.51,312.44,327.09Z"/><path class="cls-2" d="M236.06,540.39c-22.81,0-51.17-9.65-78.84-27.45-39.19-25.21-69.55-61.31-83.28-99-14.25-39.14-14.65-81.42-1.14-119.05,13.15-36.62,38.19-64,68.72-75.11s67.31-6.24,100.92,13.36C277,253.25,303.83,285.9,318.07,325c13.73,37.74,13.69,84.9-.14,129.4-13,42-36.4,73.67-60.94,82.6A61.25,61.25,0,0,1,236.06,540.39Zm-60.34-314.5A87.82,87.82,0,0,0,145.61,231C118.45,240.9,96,265.65,84.08,298.9c-12.56,35-12.17,74.38,1.13,110.89,12.85,35.32,41.47,69.24,78.5,93.05,33.92,21.81,68.09,30.59,89.18,22.92s41.63-36.37,53.59-74.88c13.06-42,13.17-86.42.32-121.74-13.29-36.51-38.3-66.94-70.42-85.67C216.46,231.86,195.46,225.89,175.72,225.89Z"/><path class="cls-4" d="M134.91,390.53c.74,1.72,2.67,2.78,5.29,1.82,2.34-.85,3.58-2.57,3-4.39-.39-1.23-1.37-2.09-4.44-1.91l-3.65.28c-6.71.35-9.08-2.82-10-5.3-1.79-4.92,1.19-9.75,6.45-11.67s10.45-.22,12.36,5l-5.84,2.13c-.67-1.85-2.35-2.67-4.69-1.82-2,.74-3.15,2.41-2.56,4,.27.73,1,1.94,4,1.69l3.63-.16c7.36-.53,9.65,2.88,10.56,5.53,1.89,5.49-2.09,9.86-7,11.63-6,2.18-11.27.08-13.06-4.84l5.89-2.14Z"/><path class="cls-4" d="M160.54,390.35l-5.55,2-10.45-28.72,5.55-2,4.75,13c-.05-2.57,2.25-4.57,4-5.21,4.92-1.79,8.64.55,10.69,6.2l3.69,10.13-5.55,2-3.63-10a3.79,3.79,0,1,0-7.07,2.68Z"/><path class="cls-4" d="M182.3,361.37l5.55-2,6.77,18.6-5.55,2-.92-2.53a6.05,6.05,0,0,1-3.74,4.72c-4.19,1.52-8.29.1-10.22-5.21l-4.06-11.15,5.55-2,3.61,9.93c1.08,3,3.39,3,4.66,2.5,1.7-.62,3-2.2,2-5l-3.58-9.83Z"/><path class="cls-4" d="M198.71,376.46l-10.45-28.72,5.5-2,4.52,12.41c.3-2,2.19-3.83,4.48-4.66,4.77-1.74,10.39.52,12.57,6.51s-.73,11.18-5.5,12.92c-2.29.83-4.88.67-6.45-.74l.83,2.29Zm8.16-8.48a4.77,4.77,0,0,0-3.26-9,4.48,4.48,0,0,0-2.67,6A4.63,4.63,0,0,0,206.87,368Z"/><path class="cls-4" d="M217.2,359.09a10.28,10.28,0,1,1,13.17,6.18A10,10,0,0,1,217.2,359.09ZM231.07,354a4.48,4.48,0,1,0-2.68,5.83A4.38,4.38,0,0,0,231.07,354Z"/><polygon class="cls-4" points="234.29 342.44 240.77 340.09 245.03 343.17 246.32 338.07 252.75 335.73 249.66 346.5 260.63 353.92 254.21 356.26 248.19 352 246.27 359.15 239.85 361.49 243.53 348.73 234.29 342.44"/><path class="cls-5" d="M550.58,422.28c-7.27,10.69-17.65,19.88-32.22,27a33.95,33.95,0,0,0,39.53,14.39C551.32,448.85,549.28,435.14,550.58,422.28Z"/><path class="cls-2" d="M547.13,471.4a39.48,39.48,0,0,1-14.63-2.8,40.43,40.43,0,0,1-19.24-16.12l-3.5-5.63,5.95-2.92c13-6.4,22.8-14.58,29.91-25l13.31-19.57-2.38,23.54c-1.27,12.57,1,25.13,6.82,38.4l2.68,6.07-6.3,2.06A41,41,0,0,1,547.13,471.4ZM527.5,451.23a27.62,27.62,0,0,0,22.14,8,90.88,90.88,0,0,1-4.93-20.86A90.83,90.83,0,0,1,527.5,451.23Z"/><path class="cls-6" d="M720.43,317.89c-29,79.58-128.29,136.7-175.37,119.56S458.6,312.71,487.56,233.13s109.5-123.32,168.88-101.71S749.39,238.31,720.43,317.89Z"/><path class="cls-2" d="M563.94,446.43A61.23,61.23,0,0,1,543,443.08c-24.54-8.93-47.9-40.58-60.94-82.6-13.82-44.5-13.87-91.67-.13-129.4,14.25-39.14,41.11-71.79,75.65-91.93,33.61-19.6,70.4-24.47,100.92-13.37s55.57,38.48,68.72,75.11c13.51,37.63,13.1,79.91-1.14,119.05-13.73,37.74-44.09,73.83-83.28,99C615.11,436.78,586.75,446.43,563.94,446.43Zm60.34-314.5c-19.74,0-40.74,6-60.66,17.58-32.12,18.73-57.13,49.16-70.42,85.67-12.85,35.32-12.74,79.69.32,121.74,12,38.51,32.49,67.21,53.59,74.88s55.27-1.1,89.18-22.92c37-23.82,65.64-57.73,78.5-93.05h0c13.29-36.51,13.69-75.9,1.13-110.89-11.94-33.26-34.37-58-61.53-67.89A87.83,87.83,0,0,0,624.28,131.93Z"/><path class="cls-4" d="M548.2,254c-.54,1.79.26,3.84,2.88,4.8,2.34.85,4.4.33,5.1-1.45.49-1.2.3-2.48-2.18-4.32l-3-2.13c-5.36-4-5.14-8-4.24-10.47,1.79-4.92,7.18-6.7,12.44-4.79s8.15,6.55,6.23,11.81l-5.84-2.13c.67-1.85-.08-3.56-2.42-4.41-2-.74-4-.17-4.55,1.43-.27.73-.45,2.15,2,3.86l2.89,2.21c6,4.33,5.54,8.41,4.53,11-2.08,5.42-7.94,6.21-12.81,4.44-6-2.18-8.69-7.19-6.9-12.1l5.89,2.14Z"/><path class="cls-4" d="M567.94,270.36l-5.55-2,10.45-28.72,5.55,2-4.75,13c1.61-2,4.66-2.05,6.41-1.41,4.92,1.79,6.26,6,4.21,11.62L580.58,275,575,273l3.63-10a3.79,3.79,0,1,0-7.14-2.49Z"/><path class="cls-4" d="M603.24,262.15l5.55,2L602,282.77l-5.55-2,.92-2.53a6.05,6.05,0,0,1-5.9,1.22c-4.19-1.52-6.41-5.26-4.48-10.56l4.06-11.15,5.55,2L593,269.67c-1.08,3,.7,4.44,2,4.91,1.7.62,3.71.25,4.74-2.57l3.58-9.83Z"/><path class="cls-4" d="M606.11,284.25l10.45-28.72,5.5,2-4.52,12.41c1.55-1.37,4.14-1.53,6.43-.69,4.77,1.74,7.62,7.08,5.45,13.06s-7.74,8.1-12.52,6.36c-2.29-.83-4.17-2.62-4.46-4.71l-.83,2.29Zm11.7-1.25a4.77,4.77,0,0,0,3.26-9,4.48,4.48,0,0,0-5.9,2.87A4.63,4.63,0,0,0,617.82,283Z"/><path class="cls-4" d="M631.44,282.83a10.28,10.28,0,1,1,6.11,13.2A10,10,0,0,1,631.44,282.83Zm13.88,5.05a4.48,4.48,0,1,0-5.8,2.74A4.38,4.38,0,0,0,645.32,287.88Z"/><polygon class="cls-4" points="655.24 281.07 661.71 283.43 663 288.53 667.26 285.45 673.69 287.79 664.41 294.06 668.04 306.79 661.62 304.45 659.74 297.32 653.68 301.57 647.25 299.23 658.27 291.82 655.24 281.07"/><path class="cls-7" d="M381.46,358.34c-3.18,12.53-9.79,24.71-21,36.43a33.95,33.95,0,0,0,42.06,0C391.25,383.06,384.64,370.87,381.46,358.34Z"/><path class="cls-2" d="M381.48,408.07l-1.15,0a40.44,40.44,0,0,1-23.59-8.56l-5.21-4.09,4.59-4.78c10-10.46,16.44-21.5,19.54-33.75l5.82-22.94,5.82,22.94c3.1,12.24,9.5,23.28,19.54,33.75l4.59,4.78-5.22,4.09A40.34,40.34,0,0,1,381.48,408.07Zm-11.8-14.63a27.62,27.62,0,0,0,23.56,0,90.86,90.86,0,0,1-11.77-17.92A90.88,90.88,0,0,1,369.68,393.44Z"/><path class="cls-7" d="M505.37,202.16c0,84.69-73.8,172.33-123.91,172.33S257.56,286.84,257.56,202.16,318.28,48.82,381.46,48.82,505.37,117.47,505.37,202.16Z"/><path class="cls-2" d="M381.46,380.48c-26.12,0-58.89-21.75-85.52-56.77-28.21-37.09-44.39-81.4-44.39-121.55,0-41.65,14.08-81.52,39.64-112.26C316.08,60,349,42.82,381.46,42.82S446.84,60,471.72,89.89c25.57,30.74,39.64,70.61,39.64,112.26,0,40.16-16.18,84.46-44.39,121.55C440.35,358.73,407.58,380.48,381.46,380.48Zm0-325.67c-28.9,0-58.44,15.58-81,42.75-23.78,28.59-36.87,65.73-36.87,104.59,0,37.59,15.29,79.24,41.94,114.29,24.41,32.1,53.52,52,76,52s51.56-19.94,76-52c26.65-35,41.94-76.7,41.94-114.29,0-38.86-13.09-76-36.87-104.59C439.9,70.4,410.37,54.82,381.46,54.82Z"/><path class="cls-4" d="M319.27,198.07c.1,1.87,1.55,3.52,4.35,3.52,2.49,0,4.25-1.19,4.3-3.11.05-1.3-.57-2.44-3.52-3.32l-3.52-1c-6.42-2-7.56-5.75-7.56-8.39,0-5.23,4.46-8.76,10.05-8.76s9.9,3.37,9.9,9H327c0-2-1.3-3.32-3.78-3.32-2.18,0-3.78,1.19-3.78,2.9,0,.78.31,2.18,3.16,3l3.47,1.09c7.1,2,8.08,6,8,8.81-.1,5.8-5.34,8.55-10.52,8.55-6.37,0-10.62-3.78-10.62-9h6.27Z"/><path class="cls-4" d="M343.41,206.67H337.5V176.1h5.91V190c.83-2.44,3.68-3.52,5.54-3.52,5.23,0,7.93,3.47,7.93,9.48v10.78H351V196.1a3.79,3.79,0,1,0-7.56.1Z"/><path class="cls-4" d="M373.77,186.87h5.91v19.79h-5.91V204a6.05,6.05,0,0,1-5.13,3.16c-4.46,0-7.82-2.75-7.82-8.39V186.87h5.91v10.57c0,3.16,2.18,3.94,3.52,3.94,1.81,0,3.57-1,3.57-4V186.87Z"/><path class="cls-4" d="M384,206.67V176.1h5.85v13.21c1-1.81,3.37-2.85,5.8-2.85,5.08,0,9.58,4,9.58,10.41,0,6.22-4.51,10.26-9.58,10.26-2.44,0-4.82-1-5.8-2.9v2.44Zm10.57-5.18a4.77,4.77,0,0,0,0-9.53,4.48,4.48,0,0,0-4.56,4.71A4.63,4.63,0,0,0,394.6,201.48Z"/><path class="cls-4" d="M407.34,196.67A10.28,10.28,0,1,1,417.6,207,10,10,0,0,1,407.34,196.67Zm14.77,0a4.48,4.48,0,1,0-4.51,4.56A4.38,4.38,0,0,0,422.11,196.67Z"/><polygon class="cls-4" points="429.1 186.87 435.99 186.87 438.95 191.23 441.9 186.87 448.74 186.87 442.16 195.94 449.93 206.67 443.09 206.67 438.89 200.6 434.65 206.67 427.81 206.67 435.63 195.94 429.1 186.87"/></g></g></svg>