<svg xmlns="http://www.w3.org/2000/svg" viewBox="0 0 481 250"><title>feature-exif</title><g id="5d68b0e9-23c0-4efd-887b-baf3ffb7793b" data-name="Layer 2"><g id="8cf03598-002c-447b-bb65-f6e3f806bbc0" data-name="Content"><rect width="481" height="250" fill="#fff"/><path d="M281,132.5c-4.12-4.27-7.78-8.36-11.05-12.27H185v68.48l34.17-34,34,33,16-16,33.17,32V152.32A279.28,279.28,0,0,1,281,132.5Zm-16.65,21.73a10,10,0,1,1,10-10A10,10,0,0,1,264.34,154.23Z" fill="#f9f2ff"/><path d="M264.33,132.73a11.5,11.5,0,1,0,11.5,11.5A11.51,11.51,0,0,0,264.33,132.73Zm0,20a8.5,8.5,0,1,1,8.5-8.5A8.51,8.51,0,0,1,264.33,152.73Z" fill="#7c5cd1"/><path d="M365.44,46.9a2.2,2.2,0,0,0-.54-3.06l-6-4.17a2.2,2.2,0,0,0-3.06.54L311.94,103a2.17,2.17,0,0,0-.27.54c-9.2,5.59-24.7,9.85-44.75,7.18h0a4,4,0,0,0-3.17.77,2.25,2.25,0,0,0-.79,1.63,2.51,2.51,0,0,0,.73,1.79q1.68,2.18,3.47,4.36H183.65v68.86l-.06.06.06.06v21h120v-6l.06-.06-.06-.06V155.38q1.49,1.23,3,2.44a5,5,0,0,0,3.36,1.24l.49,0a3,3,0,0,0,2.27-1.26c7.7-11.8,10.63-29.24,8.22-47.62a2.18,2.18,0,0,0,.51-.51Zm-50.62,60.76.14.1c-.61,16.08-8.79,30.09-20.85,35.4q-6.3-5.75-12-11.69-2.22-2.3-4.35-4.63C293.66,126.48,307.94,119.07,314.82,107.66Zm-3.15-.66c-6.91,10.59-21,17.21-36.47,16.84V124c-3.06-3.45-6-6.91-8.64-10.36C283.61,115.92,300.17,113.38,311.68,107Zm-125,99.23v-16.9l32.54-32.5,31.31,31.31-18.09,18.09Zm114,0h-64l32.83-32.83,31.17,30.94Zm0-6.12-31.18-30.94L252.62,186l-33.43-33.43-32.54,32.5V122.23h83c3.21,3.79,6.64,7.57,10.25,11.31a279.87,279.87,0,0,0,20.74,19.34ZM310.33,156a2.09,2.09,0,0,1-1.62-.39l-.12-.11q-6.22-5-12.05-10.19c12-5.91,20.13-19.68,21.31-35.56l.11.08C321.62,135.81,313.28,151.47,310.33,156Zm9.17-48.76L314.86,104l43-61.44,4.64,3.25Z" fill="#7c5cd1"/><polygon points="287.48 68.82 266.1 68.82 281.22 53.7 279.1 51.58 263.98 66.7 263.98 45.32 260.98 45.32 260.98 66.7 245.87 51.58 243.75 53.7 258.86 68.82 237.48 68.82 237.48 71.82 258.86 71.82 243.75 86.94 245.87 89.06 260.98 73.94 260.98 95.32 263.98 95.32 263.98 73.94 279.1 89.06 281.22 86.94 266.1 71.82 287.48 71.82 287.48 68.82" fill="#ff645c"/><polygon points="367.35 129.69 355.97 129.69 364.02 121.64 361.9 119.52 353.85 127.57 353.85 116.19 350.85 116.19 350.85 127.57 342.81 119.52 340.68 121.64 348.73 129.69 337.35 129.69 337.35 132.69 348.73 132.69 340.68 140.74 342.81 142.86 350.85 134.81 350.85 146.19 353.85 146.19 353.85 134.81 361.9 142.86 364.02 140.74 355.97 132.69 367.35 132.69 367.35 129.69" fill="#ff645c"/></g></g></svg>