<svg xmlns="http://www.w3.org/2000/svg" viewBox="0 0 68.22 70"><defs><style>.red{fill:#ff645c;}.black{fill:#323233;}</style></defs><title>Asset 8</title><g id="Layer_2" data-name="Layer 2"><g id="Content"><rect class="red" x="24.11" y="37.68" width="20" height="3.5" transform="translate(-17.89 35.67) rotate(-45)"/><polygon class="red" points="42.93 44.36 39.43 44.36 39.43 34.11 29.18 34.11 29.18 30.61 42.93 30.61 42.93 44.36"/><path class="black" d="M34.12,70H33.8A84.11,84.11,0,0,1,8.93,66.15l-1.22-.38L0,8.3l4-.53L11.34,62.7A80.12,80.12,0,0,0,33.82,66h.3a80.13,80.13,0,0,0,22.76-3.3c2.55-19.09,7.35-54.93,7.35-54.93l4,.53s-5,37.49-7.52,56.21l-.17,1.26-1.22.38A84.14,84.14,0,0,1,34.12,70Z"/><path class="black" d="M34.11,16.07C28.41,16.07,0,15.68,0,8S28.41,0,34.11,0,68.22.39,68.22,8,39.8,16.07,34.11,16.07ZM4.3,8c2.22,1.54,12.27,4,29.81,4S61.7,9.58,63.92,8C61.7,6.49,51.65,4,34.11,4S6.51,6.49,4.3,8Z"/></g></g></svg>
