<svg xmlns="http://www.w3.org/2000/svg" viewBox="0 0 480 300"><defs><style>.cls-1{fill:#f2f0ed;}.cls-2{fill:#8264d1;}.cls-3{fill:#323233;}.cls-4{fill:#fff;}.cls-5{fill:#c99ef2;}.cls-6{fill:#f2e3ff;}.cls-7{fill:#ff645c;}</style></defs><title>feature-upload</title><g id="Bg"><polygon class="cls-1" points="289.59 60.43 298.23 69.07 306.88 60.43 289.59 60.43"/><polygon class="cls-1" points="282.67 226.25 291.32 234.89 299.96 226.25 282.67 226.25"/><polygon class="cls-1" points="0.47 233.59 9.11 242.23 17.76 233.59 0.47 233.59"/><polygon class="cls-1" points="403.8 253.67 395.15 245.03 386.51 253.67 403.8 253.67"/><polygon class="cls-1" points="133.73 204.39 125.09 195.75 116.44 204.39 133.73 204.39"/><polygon class="cls-1" points="26.11 116.77 17.46 108.12 8.82 116.77 26.11 116.77"/><polygon class="cls-1" points="467.38 72.76 458.73 64.11 450.09 72.76 467.38 72.76"/><polygon class="cls-1" points="141.51 20.14 132.87 11.49 124.23 20.14 141.51 20.14"/><circle class="cls-1" cx="344.1" cy="100.65" r="4"/><circle class="cls-1" cx="427.44" cy="138.64" r="4"/><circle class="cls-1" cx="475.71" cy="35.83" r="4"/><circle class="cls-1" cx="356.19" cy="28.86" r="4"/><circle class="cls-1" cx="354.06" cy="164.53" r="4"/><circle class="cls-1" cx="467.48" cy="184.15" r="4"/><circle class="cls-1" cx="360.19" cy="236.96" r="4"/><circle class="cls-1" cx="227.85" cy="234.89" r="4"/><circle class="cls-1" cx="107.17" cy="225.84" r="4"/><circle class="cls-1" cx="404.71" cy="290.19" r="4"/><circle class="cls-1" cx="211.97" cy="68.95" r="4"/><circle class="cls-1" cx="274.52" cy="41.7" r="4"/><circle class="cls-1" cx="125.72" cy="91.53" r="4"/><circle class="cls-1" cx="64.01" cy="130.52" r="4"/><path class="cls-1" d="M368.19,186.66l8.84,8.84H359.35l8.84-8.84m0-4.95L350.9,199h34.57l-17.29-17.29Z"/><path class="cls-1" d="M237.2,38.82,246,47.66H228.36l8.84-8.84m0-4.95L219.91,51.16h34.57L237.2,33.87Z"/><path class="cls-1" d="M81.3,186.45l8.84,8.84H72.46l8.84-8.84m0-4.95L64,198.79H98.59L81.3,181.5Z"/><path class="cls-1" d="M381.47,107.9l-8.84-8.84h17.67l-8.84,8.84m0,4.95,17.29-17.29H364.19l17.29,17.29Z"/><path class="cls-1" d="M93.28,86.45l-8.84-8.84h17.67l-8.84,8.84m0,4.95,17.29-17.29H76L93.28,91.4Z"/><path class="cls-1" d="M239,264.54l-8.84-8.84h17.67L239,264.54m0,4.95,17.29-17.29H221.76L239,269.49Z"/><path class="cls-1" d="M21.41,290.88,12.58,282H30.25l-8.84,8.84m0,4.95L38.7,278.54H4.13l17.29,17.29Z"/><path class="cls-1" d="M460.73,162.08l-8.84-8.84h17.67l-8.84,8.84m0,4.95L478,149.75H443.44L460.73,167Z"/><path class="cls-1" d="M334.06,15.19l-8.84-8.84H342.9l-8.84,8.84m0,4.95L351.35,2.85H316.77l17.29,17.29Z"/><path class="cls-1" d="M181.21,112.7a1.69,1.69,0,1,1-1.69,1.69,1.69,1.69,0,0,1,1.69-1.69m0-3.5a5.19,5.19,0,1,0,5.19,5.19,5.19,5.19,0,0,0-5.19-5.19Z"/><path class="cls-1" d="M132.87,144.45a1.69,1.69,0,1,1-1.69,1.69,1.69,1.69,0,0,1,1.69-1.69m0-3.5a5.19,5.19,0,1,0,5.19,5.19,5.19,5.19,0,0,0-5.19-5.19Z"/><path class="cls-1" d="M10.84,162.84a1.69,1.69,0,1,1-1.69,1.69,1.69,1.69,0,0,1,1.69-1.69m0-3.5A5.19,5.19,0,1,0,16,164.53a5.19,5.19,0,0,0-5.19-5.19Z"/><path class="cls-1" d="M325.56,39.33A1.69,1.69,0,1,1,323.87,41a1.69,1.69,0,0,1,1.69-1.69m0-3.5A5.19,5.19,0,1,0,330.74,41a5.19,5.19,0,0,0-5.19-5.19Z"/><path class="cls-1" d="M266.78,63.07a1.69,1.69,0,1,1-1.69,1.69,1.69,1.69,0,0,1,1.69-1.69m0-3.5A5.19,5.19,0,1,0,272,64.75a5.19,5.19,0,0,0-5.19-5.19Z"/><path class="cls-1" d="M165.44,8.94a1.69,1.69,0,1,1-1.69,1.69,1.69,1.69,0,0,1,1.69-1.69m0-3.5a5.19,5.19,0,1,0,5.19,5.19,5.19,5.19,0,0,0-5.19-5.19Z"/><path class="cls-1" d="M93.94,49.47a1.69,1.69,0,1,1-1.69,1.69,1.69,1.69,0,0,1,1.69-1.69m0-3.5a5.19,5.19,0,1,0,5.19,5.19A5.19,5.19,0,0,0,93.94,46Z"/><path class="cls-1" d="M409.65,46.67A1.69,1.69,0,1,1,408,48.35a1.69,1.69,0,0,1,1.69-1.69m0-3.5a5.19,5.19,0,1,0,5.19,5.19,5.19,5.19,0,0,0-5.19-5.19Z"/><path class="cls-1" d="M376.78,153.67a1.69,1.69,0,1,1-1.69,1.69,1.69,1.69,0,0,1,1.69-1.69m0-3.5a5.19,5.19,0,1,0,5.19,5.19,5.19,5.19,0,0,0-5.19-5.19Z"/><path class="cls-1" d="M443.21,176.29a1.69,1.69,0,1,1-1.69,1.69,1.69,1.69,0,0,1,1.69-1.69m0-3.5a5.19,5.19,0,1,0,5.19,5.19,5.19,5.19,0,0,0-5.19-5.19Z"/><path class="cls-1" d="M473.61,128.83a1.69,1.69,0,1,1-1.69,1.69,1.69,1.69,0,0,1,1.69-1.69m0-3.5a5.19,5.19,0,1,0,5.19,5.19,5.19,5.19,0,0,0-5.19-5.19Z"/><path class="cls-1" d="M443.44,93.88a1.69,1.69,0,1,1-1.69,1.69,1.69,1.69,0,0,1,1.69-1.69m0-3.5a5.19,5.19,0,1,0,5.19,5.19,5.19,5.19,0,0,0-5.19-5.19Z"/><path class="cls-1" d="M414.07,230.09a1.69,1.69,0,1,1-1.69,1.69,1.69,1.69,0,0,1,1.69-1.69m0-3.5a5.19,5.19,0,1,0,5.19,5.19,5.19,5.19,0,0,0-5.19-5.19Z"/><path class="cls-1" d="M308.28,207.66a1.69,1.69,0,1,1-1.69,1.69,1.69,1.69,0,0,1,1.69-1.69m0-3.5a5.19,5.19,0,1,0,5.19,5.19,5.19,5.19,0,0,0-5.19-5.19Z"/><path class="cls-1" d="M334.06,273.7a1.69,1.69,0,1,1-1.69,1.69,1.69,1.69,0,0,1,1.69-1.69m0-3.5a5.19,5.19,0,1,0,5.19,5.19,5.19,5.19,0,0,0-5.19-5.19Z"/><path class="cls-1" d="M274.52,271a1.69,1.69,0,1,1-1.69,1.69,1.69,1.69,0,0,1,1.69-1.69m0-3.5a5.19,5.19,0,1,0,5.19,5.19,5.19,5.19,0,0,0-5.19-5.19Z"/><path class="cls-1" d="M160.25,276.52a1.69,1.69,0,1,1-1.69,1.69,1.69,1.69,0,0,1,1.69-1.69m0-3.5a5.19,5.19,0,1,0,5.19,5.19,5.19,5.19,0,0,0-5.19-5.19Z"/><path class="cls-1" d="M46,224.91a1.69,1.69,0,1,1-1.69,1.69A1.69,1.69,0,0,1,46,224.91m0-3.5a5.19,5.19,0,1,0,5.19,5.19A5.19,5.19,0,0,0,46,221.41Z"/><path class="cls-1" d="M454.83,260.62a1.69,1.69,0,1,1-1.69,1.69,1.69,1.69,0,0,1,1.69-1.69m0-3.5a5.19,5.19,0,1,0,5.19,5.19,5.19,5.19,0,0,0-5.19-5.19Z"/><path class="cls-1" d="M318.66,81.52a6.87,6.87,0,1,1-6.87,6.87,6.88,6.88,0,0,1,6.87-6.87m0-3.5A10.37,10.37,0,1,0,329,88.39,10.37,10.37,0,0,0,318.66,78Z"/><path class="cls-1" d="M329,240a6.87,6.87,0,1,1-6.87,6.87A6.88,6.88,0,0,1,329,240m0-3.5a10.37,10.37,0,1,0,10.37,10.37A10.37,10.37,0,0,0,329,236.49Z"/><path class="cls-1" d="M423.44,70.72a6.87,6.87,0,1,1-6.87,6.87,6.88,6.88,0,0,1,6.87-6.87m0-3.5a10.37,10.37,0,1,0,10.37,10.37,10.37,10.37,0,0,0-10.37-10.37Z"/><path class="cls-1" d="M256.41,4.62a6.87,6.87,0,1,1-6.87,6.87,6.88,6.88,0,0,1,6.87-6.87m0-3.5a10.37,10.37,0,1,0,10.37,10.37A10.37,10.37,0,0,0,256.41,1.12Z"/><path class="cls-1" d="M125.72,47.51a6.87,6.87,0,1,1-6.87,6.87,6.88,6.88,0,0,1,6.87-6.87m0-3.5a10.37,10.37,0,1,0,10.37,10.37A10.37,10.37,0,0,0,125.72,44Z"/><path class="cls-1" d="M26.11,73.16A6.87,6.87,0,1,1,19.23,80a6.88,6.88,0,0,1,6.87-6.87m0-3.5A10.37,10.37,0,1,0,36.48,80,10.37,10.37,0,0,0,26.11,69.66Z"/><path class="cls-1" d="M114.71,164.89a6.87,6.87,0,1,1-6.87,6.87,6.88,6.88,0,0,1,6.87-6.87m0-3.5a10.37,10.37,0,1,0,10.37,10.37,10.37,10.37,0,0,0-10.37-10.37Z"/><path class="cls-1" d="M65.17,253.72a6.87,6.87,0,1,1-6.87,6.87,6.88,6.88,0,0,1,6.87-6.87m0-3.5a10.37,10.37,0,1,0,10.37,10.37,10.37,10.37,0,0,0-10.37-10.37Z"/><path class="cls-1" d="M436.77,202.43a6.87,6.87,0,1,1-6.87,6.87,6.88,6.88,0,0,1,6.87-6.87m0-3.5a10.37,10.37,0,1,0,10.37,10.37,10.37,10.37,0,0,0-10.37-10.37Z"/><path class="cls-1" d="M380.76,34.79V14.13h13.74V34.79H380.76m-3.5,3.5H398V10.63H377.26V38.29Z"/><path class="cls-1" d="M93.65,26.15V5.49H107.4V26.15H93.65m-3.5,3.5H110.9V2H90.15V29.65Z"/><path class="cls-1" d="M31.33,157.56V136.9H45.08v20.66H31.33m-3.5,3.5H48.58V133.4H27.83v27.66Z"/><path class="cls-1" d="M254.31,231V210.29h13.74V231H254.31m-3.5,3.5h20.74V206.79H250.81v27.66Z"/><path class="cls-1" d="M151,77.51h20.66V91.25H151V77.51m-3.5-3.5V94.75h27.66V74Z"/><path class="cls-1" d="M398.55,163.87h20.66v13.74H398.55V163.87m-3.5-3.5v20.74h27.66V160.37Z"/><path class="cls-1" d="M292.83,281.17h20.66v13.74H292.83V281.17m-3.5-3.5v20.74H317V277.67Z"/><path class="cls-1" d="M127.73,240h20.66v13.74H127.73V240m-3.5-3.5v20.74h27.66V236.49Z"/><rect class="cls-1" x="403.19" y="196.2" width="6.91" height="10.37"/><rect class="cls-1" x="72.53" y="285" width="6.91" height="10.37"/><rect class="cls-1" x="413.34" y="2.83" width="6.91" height="10.37"/><rect class="cls-1" x="22.1" y="41.57" width="6.91" height="10.37"/><rect class="cls-1" x="411.7" y="104.85" width="10.37" height="6.91"/><rect class="cls-1" x="46.01" y="176.46" width="6.91" height="10.37"/><rect class="cls-1" x="97.34" y="106.31" width="10.37" height="6.91"/><rect class="cls-1" x="216.57" y="8.04" width="10.37" height="6.91"/><polygon class="cls-1" points="198.87 52.63 192.59 52.63 197.03 48.19 194.56 45.72 190.12 50.16 190.12 43.88 186.62 43.88 186.62 50.16 182.18 45.72 179.71 48.19 184.14 52.63 177.87 52.63 177.87 56.13 184.14 56.13 179.71 60.57 182.18 63.04 186.62 58.6 186.62 64.88 190.12 64.88 190.12 58.6 194.56 63.04 197.03 60.57 192.59 56.13 198.87 56.13 198.87 52.63"/><polygon class="cls-1" points="68.91 100.19 62.64 100.19 67.07 95.76 64.6 93.28 60.16 97.72 60.16 91.44 56.66 91.44 56.66 97.72 52.23 93.28 49.75 95.76 54.19 100.19 47.91 100.19 47.91 103.69 54.19 103.69 49.75 108.13 52.23 110.6 56.66 106.17 56.66 112.44 60.16 112.44 60.16 106.17 64.6 110.6 67.07 108.13 62.64 103.69 68.91 103.69 68.91 100.19"/><polygon class="cls-1" points="409.26 132.08 402.99 132.08 407.42 127.64 404.95 125.17 400.51 129.6 400.51 123.33 397.01 123.33 397.01 129.6 392.57 125.17 390.1 127.64 394.54 132.08 388.26 132.08 388.26 135.58 394.54 135.58 390.1 140.02 392.57 142.49 397.01 138.05 397.01 144.33 400.51 144.33 400.51 138.05 404.95 142.49 407.42 140.02 402.99 135.58 409.26 135.58 409.26 132.08"/><polygon class="cls-1" points="451.76 40.76 445.48 40.76 449.92 36.33 447.44 33.85 443.01 38.29 443.01 32.01 439.51 32.01 439.51 38.29 435.07 33.85 432.6 36.33 437.03 40.76 430.76 40.76 430.76 44.26 437.03 44.26 432.6 48.7 435.07 51.17 439.51 46.74 439.51 53.01 443.01 53.01 443.01 46.74 447.44 51.17 449.92 48.7 445.48 44.26 451.76 44.26 451.76 40.76"/><polygon class="cls-1" points="434.9 267.37 428.62 267.37 433.06 262.93 430.58 260.45 426.15 264.89 426.15 258.62 422.65 258.62 422.65 264.89 418.21 260.45 415.74 262.93 420.17 267.37 413.9 267.37 413.9 270.87 420.17 270.87 415.74 275.3 418.21 277.78 422.65 273.34 422.65 279.62 426.15 279.62 426.15 273.34 430.58 277.78 433.06 275.3 428.62 270.87 434.9 270.87 434.9 267.37"/><polygon class="cls-1" points="111.03 259.09 104.75 259.09 109.19 254.66 106.71 252.18 102.28 256.62 102.28 250.34 98.78 250.34 98.78 256.62 94.34 252.18 91.86 254.66 96.3 259.09 90.03 259.09 90.03 262.59 96.3 262.59 91.86 267.03 94.34 269.5 98.78 265.07 98.78 271.34 102.28 271.34 102.28 265.07 106.71 269.5 109.19 267.03 104.75 262.59 111.03 262.59 111.03 259.09"/><rect class="cls-1" x="385.28" y="65.47" width="13.83" height="3.5"/><rect class="cls-1" x="390.44" y="60.3" width="3.5" height="13.83"/><rect class="cls-1" x="144.95" y="34.08" width="13.83" height="3.5"/><rect class="cls-1" x="150.12" y="28.91" width="3.5" height="13.83"/><rect class="cls-1" x="465.33" y="209.1" width="13.83" height="3.5"/><rect class="cls-1" x="470.49" y="203.94" width="3.5" height="13.83"/><rect class="cls-1" x="292.21" y="251.92" width="13.83" height="3.5"/><rect class="cls-1" x="297.37" y="246.76" width="3.5" height="13.83"/><rect class="cls-1" x="67.47" y="220.09" width="13.83" height="3.5"/><rect class="cls-1" x="72.63" y="214.93" width="3.5" height="13.83"/><polygon class="cls-1" points="205 89.42 202.52 86.94 198.87 90.6 195.22 86.94 192.74 89.42 196.39 93.07 192.74 96.72 195.22 99.2 198.87 95.55 202.52 99.2 205 96.72 201.34 93.07 205 89.42"/><polygon class="cls-1" points="65.18 64.78 62.71 62.31 59.05 65.96 55.4 62.31 52.93 64.78 56.58 68.44 52.93 72.09 55.4 74.56 59.05 70.91 62.71 74.56 65.18 72.09 61.53 68.44 65.18 64.78"/><polygon class="cls-1" points="35.14 251.16 32.66 248.68 29.01 252.33 25.36 248.68 22.89 251.16 26.54 254.81 22.89 258.46 25.36 260.94 29.01 257.28 32.66 260.94 35.14 258.46 31.49 254.81 35.14 251.16"/><polygon class="cls-1" points="75.29 156.71 72.82 154.24 69.17 157.89 65.51 154.24 63.04 156.71 66.69 160.37 63.04 164.02 65.51 166.49 69.17 162.84 72.82 166.49 75.29 164.02 71.64 160.37 75.29 156.71"/><polygon class="cls-1" points="391.4 218.75 388.93 216.28 385.28 219.93 381.63 216.28 379.15 218.75 382.8 222.4 379.15 226.06 381.63 228.53 385.28 224.88 388.93 228.53 391.4 226.06 387.75 222.4 391.4 218.75"/><polygon class="cls-1" points="259.83 288.23 257.35 285.76 253.7 289.41 250.05 285.76 247.57 288.23 251.23 291.88 247.57 295.54 250.05 298.01 253.7 294.36 257.35 298.01 259.83 295.54 256.18 291.88 259.83 288.23"/><polygon class="cls-1" points="476.12 95.39 473.64 92.92 469.99 96.57 466.34 92.92 463.87 95.39 467.52 99.05 463.87 102.7 466.34 105.17 469.99 101.52 473.64 105.17 476.12 102.7 472.47 99.05 476.12 95.39"/><polygon class="cls-1" points="311.38 20.81 308.9 18.33 305.25 21.98 301.6 18.33 299.12 20.81 302.78 24.46 299.12 28.11 301.6 30.59 305.25 26.93 308.9 30.59 311.38 28.11 307.73 24.46 311.38 20.81"/><path class="cls-1" d="M144.44,113.74l-4.14,4.14-8.21-8.21L114.71,127h43Zm-21.27,9.79,8.92-8.92,5.74,5.73-3.18,3.18Zm21.27-4.85,4.85,4.85h-9.7Z"/><path class="cls-1" d="M460.24,232.75l-4.14,4.14-8.21-8.21L430.51,246h43ZM439,242.54l8.92-8.92,5.74,5.73-3.18,3.18Zm21.27-4.85,4.85,4.85h-9.7Z"/><path class="cls-1" d="M216.18,280.79,212,284.93l-8.21-8.21-17.37,17.36h43Zm-21.27,9.79,8.92-8.92,5.74,5.73-3.18,3.18Zm21.27-4.85,4.85,4.85h-9.7Z"/><path class="cls-1" d="M463,6.61l-4.14,4.14-8.21-8.21L433.31,19.9h43ZM441.76,16.4l8.92-8.92,5.74,5.73-3.18,3.18ZM463,11.56l4.85,4.85h-9.7Z"/><polygon class="cls-1" points="442.48 113.46 442.48 116.96 448.25 116.96 439.93 125.29 442.4 127.76 450.73 119.43 450.73 125.21 454.23 125.21 454.23 113.46 442.48 113.46"/><polygon class="cls-1" points="119.58 278.47 119.58 281.97 125.36 281.97 117.03 290.29 119.51 292.77 127.83 284.44 127.83 290.22 131.34 290.22 131.34 278.47 119.58 278.47"/><polygon class="cls-1" points="343.67 210.09 340.17 210.09 340.17 215.87 331.84 207.54 329.37 210.02 337.69 218.34 331.92 218.34 331.92 221.84 343.67 221.84 343.67 210.09"/><polygon class="cls-1" points="99.09 135.39 95.59 135.39 95.59 141.17 87.26 132.84 84.79 135.32 93.11 143.64 87.34 143.64 87.34 147.14 99.09 147.14 99.09 135.39"/><polygon class="cls-1" points="355.11 133.06 358.61 133.06 358.61 127.28 366.93 135.61 369.41 133.13 361.08 124.81 366.86 124.81 366.86 121.31 355.11 121.31 355.11 133.06"/><polygon class="cls-1" points="190.21 28.29 193.71 28.29 193.71 22.51 202.03 30.84 204.51 28.36 196.18 20.04 201.96 20.04 201.96 16.54 190.21 16.54 190.21 28.29"/><polygon class="cls-1" points="469.67 297.34 469.67 293.84 463.89 293.84 472.22 285.51 469.75 283.04 461.42 291.36 461.42 285.59 457.92 285.59 457.92 297.34 469.67 297.34"/><polygon class="cls-1" points="19.11 22.97 19.11 19.47 13.34 19.47 21.66 11.14 19.19 8.66 10.86 16.99 10.86 11.22 7.36 11.22 7.36 22.97 19.11 22.97"/><path class="cls-1" d="M354.66,46.75a18,18,0,1,0,18,18A18,18,0,0,0,354.66,46.75ZM348,77.08a6.67,6.67,0,0,1,13.25,0,14,14,0,0,1-13.25,0Zm2.84-13.68a3.78,3.78,0,1,1,3.78,3.78A3.79,3.79,0,0,1,350.88,63.4Zm13.88,11a10.71,10.71,0,0,0-4.49-5.63,7.78,7.78,0,1,0-11.21,0,10.71,10.71,0,0,0-4.49,5.63,14,14,0,1,1,20.19,0Z"/><path class="cls-1" d="M56.38,12.08a18,18,0,1,0,18,18A18,18,0,0,0,56.38,12.08ZM49.76,42.41a6.67,6.67,0,0,1,13.25,0,14,14,0,0,1-13.25,0ZM52.6,28.73a3.78,3.78,0,1,1,3.78,3.78A3.79,3.79,0,0,1,52.6,28.73Zm13.88,11A10.71,10.71,0,0,0,62,34.12a7.78,7.78,0,1,0-11.21,0,10.71,10.71,0,0,0-4.49,5.63,14,14,0,1,1,20.19,0Z"/><path class="cls-1" d="M370.66,263.05a18,18,0,1,0,18,18A18,18,0,0,0,370.66,263.05ZM364,293.38a6.67,6.67,0,0,1,13.25,0,14,14,0,0,1-13.25,0Zm2.84-13.68a3.78,3.78,0,1,1,3.78,3.78A3.79,3.79,0,0,1,366.88,279.7Zm13.88,11a10.71,10.71,0,0,0-4.49-5.63,7.78,7.78,0,1,0-11.21,0,10.71,10.71,0,0,0-4.49,5.63,14,14,0,1,1,20.19,0Z"/><path class="cls-1" d="M186.39,227.64a18,18,0,1,0,18,18A18,18,0,0,0,186.39,227.64ZM179.77,258A6.67,6.67,0,0,1,193,258a14,14,0,0,1-13.25,0Zm2.84-13.68a3.78,3.78,0,1,1,3.78,3.78A3.79,3.79,0,0,1,182.61,244.29Zm13.88,11a10.71,10.71,0,0,0-4.49-5.63,7.78,7.78,0,1,0-11.21,0,10.71,10.71,0,0,0-4.49,5.63,14,14,0,1,1,20.19,0Z"/><path class="cls-1" d="M19.1,180.93a18,18,0,1,0,18,18A18,18,0,0,0,19.1,180.93Zm-6.62,30.33a6.67,6.67,0,0,1,13.25,0,14,14,0,0,1-13.25,0Zm2.84-13.68a3.78,3.78,0,1,1,3.78,3.78A3.79,3.79,0,0,1,15.31,197.58Zm13.88,11A10.71,10.71,0,0,0,24.7,203a7.78,7.78,0,1,0-11.21,0A10.71,10.71,0,0,0,9,208.61a14,14,0,1,1,20.19,0Z"/></g><g id="Content"><rect class="cls-2" x="149.34" y="160.48" width="72" height="54"/><path class="cls-3" d="M217.34,164.48v46h-64v-46h64m4-4h-72v54h72v-54Z"/><rect class="cls-2" x="157.34" y="152.48" width="72" height="54"/><path class="cls-3" d="M225.34,156.48v46h-64v-46h64m4-4h-72v54h72v-54Z"/><rect class="cls-4" x="166.59" y="145.35" width="70" height="52.01"/><path class="cls-5" d="M167.34,146.29V186l19.8-19.7,19.7,19.12,9.27-9.27,19.22,18.55V146.29Zm46,19.7a5.8,5.8,0,1,1,5.8-5.8A5.8,5.8,0,0,1,213.33,166Z"/><path class="cls-6" d="M264.6,123.06l8.21,61.31a89.69,89.69,0,0,0,53.63,0c2.73-20.42,8.21-61.32,8.21-61.32Z"/><ellipse class="cls-5" cx="299.63" cy="123.06" rx="35.03" ry="6.58"/><path class="cls-3" d="M336.66,123.06c0-8.34-33.24-8.58-37-8.58s-37,.24-37,8.58c0,.09,0,.17,0,.26h0L271,185.91l1.22.38a91.63,91.63,0,0,0,27.08,4.19h.34A91.59,91.59,0,0,0,327,186.29l1.22-.38.17-1.26c2.73-20.42,8.21-61.31,8.21-61.31h0C336.63,123.24,336.66,123.15,336.66,123.06Zm-37-4.58c19.81,0,30.81,2.88,32.83,4.58-2,1.7-13,4.58-32.83,4.58s-30.81-2.88-32.83-4.58C268.82,121.36,279.82,118.48,299.63,118.48Zm25,64.36a87.69,87.69,0,0,1-50,0l-7.39-55.17c9.27,3.83,29.48,4,32.39,4s23.12-.15,32.39-4C330.53,138.82,326.82,166.52,324.64,182.84Z"/><path class="cls-4" d="M288.21,158.3v5.08l12.06,4.39,12.21-4.45V148.17l-12.21-4.45-12.06,4.39Z"/><path class="cls-3" d="M300.27,141.6l-14.06,5.12v18.06l14.06,5.12,14.21-5.17V146.77Zm7,6.81-7,2.55-7-2.55,7-2.55Zm-17.07,3.14,8.14,3v10.42l-8.14-3Zm12.14,13.33V154.46l8.14-3v10.42Z"/><path class="cls-3" d="M213.75,167.49a8,8,0,1,0-8-8A8,8,0,0,0,213.75,167.49Zm0-12a4,4,0,1,1-4,4A4,4,0,0,1,213.75,155.49Z"/><path class="cls-3" d="M165.34,144.49v54h72v-54Zm68,4v40.8L216.83,172.9,206.72,183l-20.06-20.06-17.33,17.3V148.49Zm-16.5,30.06,16.06,15.94h-32Zm-47.5,7.36,17.32-17.3,17.23,17.23-8.65,8.65h-25.9Z"/><path class="cls-7" d="M284,79.81v12.9a43.67,43.67,0,0,0-73.71,35.94l4-.41a39.66,39.66,0,0,1,67.17-32.44H268v4h20v-20Z"/></g></svg>