<svg xmlns="http://www.w3.org/2000/svg" viewBox="0 0 480 300"><defs><style>.cls-1{fill:#f2f0ed;}.cls-2{fill:#fff;}.cls-3{fill:#c99ef2;}.cls-4{fill:#323233;}.cls-5{fill:#ff645c;}</style></defs><title>feature-orientation</title><g id="Bg"><polygon class="cls-1" points="309.96 127.04 301.31 118.4 292.67 127.04 309.96 127.04"/><polygon class="cls-1" points="478.67 247.92 470.02 239.28 461.38 247.92 478.67 247.92"/><polygon class="cls-1" points="242.69 26.51 234.04 17.87 225.4 26.51 242.69 26.51"/><polygon class="cls-1" points="44.84 135.85 36.19 127.21 27.55 135.85 44.84 135.85"/><polygon class="cls-1" points="102.39 233.95 111.04 242.59 119.68 233.95 102.39 233.95"/><polygon class="cls-1" points="456.38 78.23 465.02 86.88 473.67 78.23 456.38 78.23"/><polygon class="cls-1" points="64.76 7.37 73.4 16.01 82.05 7.37 64.76 7.37"/><polygon class="cls-1" points="387.9 1.19 396.55 9.83 405.19 1.19 387.9 1.19"/><circle class="cls-1" cx="194.55" cy="99.29" r="4"/><circle class="cls-1" cx="154.06" cy="36.76" r="4"/><circle class="cls-1" cx="216.53" cy="7.46" r="4"/><circle class="cls-1" cx="138.59" cy="191.08" r="4"/><circle class="cls-1" cx="69.4" cy="208.6" r="4"/><circle class="cls-1" cx="12.06" cy="262.57" r="4"/><circle class="cls-1" cx="18.53" cy="165.76" r="4"/><circle class="cls-1" cx="84.54" cy="97.4" r="4"/><circle class="cls-1" cx="32.24" cy="78.23" r="4"/><circle class="cls-1" cx="4" cy="6.09" r="4"/><circle class="cls-1" cx="269.04" cy="76.18" r="4"/><circle class="cls-1" cx="364.41" cy="139.08" r="4"/><circle class="cls-1" cx="349.21" cy="42.63" r="4"/><circle class="cls-1" cx="435.06" cy="161.37" r="4"/><circle class="cls-1" cx="477.04" cy="215.25" r="4"/><circle class="cls-1" cx="435.79" cy="74.23" r="4"/><circle class="cls-1" cx="244.58" cy="258.33" r="4"/><circle class="cls-1" cx="86.54" cy="295.44" r="4"/><circle class="cls-1" cx="355.81" cy="273.83" r="4"/><circle class="cls-1" cx="288.62" cy="295.44" r="4"/><circle class="cls-1" cx="446.16" cy="261.75" r="4"/><circle class="cls-1" cx="475.66" cy="294.58" r="4"/><path class="cls-1" d="M175.63,88.42l-8.84,8.84L158,88.42h17.67m8.45-3.5H149.51l17.29,17.29,17.29-17.29Z"/><path class="cls-1" d="M30.12,98.19,21.29,107l-8.84-8.84H30.12m8.45-3.5H4L21.29,112,38.57,94.69Z"/><path class="cls-1" d="M449.31,284.19,440.48,293l-8.84-8.84h17.67m8.45-3.5H423.19L440.48,298l17.29-17.29Z"/><path class="cls-1" d="M175.12,269l-8.84,8.84L157.44,269h17.67m8.45-3.5H149l17.29,17.29,17.29-17.29Z"/><path class="cls-1" d="M430.8,136.77,422,145.61l-8.84-8.84H430.8m8.45-3.5H404.67L422,150.56l17.29-17.29Z"/><path class="cls-1" d="M382.62,21l-8.84,8.84L364.94,21h17.67m8.45-3.5H356.49L373.78,34.8l17.29-17.29Z"/><path class="cls-1" d="M111,159.67l8.84,8.84H102.2l8.84-8.84m0-4.95L93.75,172h34.57L111,154.73Z"/><path class="cls-1" d="M366.31,212.22l8.84,8.84H357.47l8.84-8.84m0-4.95L349,224.56H383.6l-17.29-17.29Z"/><path class="cls-1" d="M461.72,47.64l8.84,8.84H452.88l8.84-8.84m0-4.95L444.43,60H479L461.72,42.69Z"/><path class="cls-1" d="M196.55,69.31A1.69,1.69,0,1,1,194.86,71a1.69,1.69,0,0,1,1.69-1.69m0-3.5A5.19,5.19,0,1,0,201.74,71a5.19,5.19,0,0,0-5.19-5.19Z"/><path class="cls-1" d="M143.69,106.84a1.69,1.69,0,1,1-1.69,1.69,1.69,1.69,0,0,1,1.69-1.69m0-3.5a5.19,5.19,0,1,0,5.19,5.19,5.19,5.19,0,0,0-5.19-5.19Z"/><path class="cls-1" d="M184.08,20.5a1.69,1.69,0,1,1-1.69,1.69,1.69,1.69,0,0,1,1.69-1.69m0-3.5a5.19,5.19,0,1,0,5.19,5.19A5.19,5.19,0,0,0,184.08,17Z"/><path class="cls-1" d="M93.72,24.82A1.69,1.69,0,1,1,92,26.51a1.69,1.69,0,0,1,1.69-1.69m0-3.5a5.19,5.19,0,1,0,5.19,5.19,5.19,5.19,0,0,0-5.19-5.19Z"/><path class="cls-1" d="M73.4,180.39a1.69,1.69,0,1,1-1.69,1.69,1.69,1.69,0,0,1,1.69-1.69m0-3.5a5.19,5.19,0,1,0,5.19,5.19,5.19,5.19,0,0,0-5.19-5.19Z"/><path class="cls-1" d="M53.45,108.31A1.69,1.69,0,1,1,51.77,110a1.69,1.69,0,0,1,1.69-1.69m0-3.5A5.19,5.19,0,1,0,58.64,110a5.19,5.19,0,0,0-5.19-5.19Z"/><path class="cls-1" d="M43.08,53.48a1.69,1.69,0,1,1-1.69,1.69,1.69,1.69,0,0,1,1.69-1.69m0-3.5a5.19,5.19,0,1,0,5.19,5.19A5.19,5.19,0,0,0,43.08,50Z"/><path class="cls-1" d="M292.62,64.12a1.69,1.69,0,1,1-1.69,1.69,1.69,1.69,0,0,1,1.69-1.69m0-3.5a5.19,5.19,0,1,0,5.19,5.19,5.19,5.19,0,0,0-5.19-5.19Z"/><path class="cls-1" d="M339.54,202.92a1.69,1.69,0,1,1-1.69,1.69,1.69,1.69,0,0,1,1.69-1.69m0-3.5a5.19,5.19,0,1,0,5.19,5.19,5.19,5.19,0,0,0-5.19-5.19Z"/><path class="cls-1" d="M397.79,233.4a1.69,1.69,0,1,1-1.69,1.69,1.69,1.69,0,0,1,1.69-1.69m0-3.5a5.19,5.19,0,1,0,5.19,5.19,5.19,5.19,0,0,0-5.19-5.19Z"/><path class="cls-1" d="M475.66,108.62A1.69,1.69,0,1,1,474,110.3a1.69,1.69,0,0,1,1.69-1.69m0-3.5a5.19,5.19,0,1,0,5.19,5.19,5.19,5.19,0,0,0-5.19-5.19Z"/><path class="cls-1" d="M184.08,241.13a1.69,1.69,0,1,1-1.69,1.69,1.69,1.69,0,0,1,1.69-1.69m0-3.5a5.19,5.19,0,1,0,5.19,5.19,5.19,5.19,0,0,0-5.19-5.19Z"/><path class="cls-1" d="M446.16,200.23a1.69,1.69,0,1,1-1.69,1.69,1.69,1.69,0,0,1,1.69-1.69m0-3.5a5.19,5.19,0,1,0,5.19,5.19,5.19,5.19,0,0,0-5.19-5.19Z"/><path class="cls-1" d="M475.66,266.07a1.69,1.69,0,1,1-1.69,1.69,1.69,1.69,0,0,1,1.69-1.69m0-3.5a5.19,5.19,0,1,0,5.19,5.19,5.19,5.19,0,0,0-5.19-5.19Z"/><path class="cls-1" d="M394.95,147.37a1.69,1.69,0,1,1-1.69,1.69,1.69,1.69,0,0,1,1.69-1.69m0-3.5a5.19,5.19,0,1,0,5.19,5.19,5.19,5.19,0,0,0-5.19-5.19Z"/><path class="cls-1" d="M365.27,62a1.69,1.69,0,1,1-1.69,1.69A1.69,1.69,0,0,1,365.27,62m0-3.5a5.19,5.19,0,1,0,5.19,5.19,5.19,5.19,0,0,0-5.19-5.19Z"/><path class="cls-1" d="M439.06,37.94a1.69,1.69,0,1,1-1.69,1.69,1.69,1.69,0,0,1,1.69-1.69m0-3.5a5.19,5.19,0,1,0,5.19,5.19,5.19,5.19,0,0,0-5.19-5.19Z"/><path class="cls-1" d="M368.6,291.75a1.69,1.69,0,1,1-1.69,1.69,1.69,1.69,0,0,1,1.69-1.69m0-3.5a5.19,5.19,0,1,0,5.19,5.19,5.19,5.19,0,0,0-5.19-5.19Z"/><path class="cls-1" d="M148.87,292.9a1.69,1.69,0,1,1-1.69,1.69,1.69,1.69,0,0,1,1.69-1.69m0-3.5a5.19,5.19,0,1,0,5.19,5.19,5.19,5.19,0,0,0-5.19-5.19Z"/><path class="cls-1" d="M48.27,283.69a1.69,1.69,0,1,1-1.69,1.69,1.69,1.69,0,0,1,1.69-1.69m0-3.5a5.19,5.19,0,1,0,5.19,5.19,5.19,5.19,0,0,0-5.19-5.19Z"/><path class="cls-1" d="M289.15,88.42a6.87,6.87,0,1,1-6.87,6.87,6.88,6.88,0,0,1,6.87-6.87m0-3.5a10.37,10.37,0,1,0,10.37,10.37,10.37,10.37,0,0,0-10.37-10.37Z"/><path class="cls-1" d="M204.92,31.76A6.87,6.87,0,1,1,198,38.63a6.88,6.88,0,0,1,6.87-6.87m0-3.5a10.37,10.37,0,1,0,10.37,10.37,10.37,10.37,0,0,0-10.37-10.37Z"/><path class="cls-1" d="M337.65,244.5a6.87,6.87,0,1,1-6.87,6.87,6.88,6.88,0,0,1,6.87-6.87m0-3.5A10.37,10.37,0,1,0,348,251.38,10.37,10.37,0,0,0,337.65,241Z"/><path class="cls-1" d="M226.94,281.46a6.87,6.87,0,1,1-6.87,6.87,6.88,6.88,0,0,1,6.87-6.87m0-3.5a10.37,10.37,0,1,0,10.37,10.37A10.37,10.37,0,0,0,226.94,278Z"/><path class="cls-1" d="M77.16,235.72a6.87,6.87,0,1,1-6.87,6.87,6.88,6.88,0,0,1,6.87-6.87m0-3.5a10.37,10.37,0,1,0,10.37,10.37,10.37,10.37,0,0,0-10.37-10.37Z"/><path class="cls-1" d="M446.16,223a6.87,6.87,0,1,1-6.87,6.87,6.88,6.88,0,0,1,6.87-6.87m0-3.5a10.37,10.37,0,1,0,10.37,10.37,10.37,10.37,0,0,0-10.37-10.37Z"/><path class="cls-1" d="M423.19,99.44a6.87,6.87,0,1,1-6.87,6.87,6.88,6.88,0,0,1,6.87-6.87m0-3.5a10.37,10.37,0,1,0,10.37,10.37,10.37,10.37,0,0,0-10.37-10.37Z"/><path class="cls-1" d="M418.5,16.64a6.87,6.87,0,1,1-6.87,6.87,6.88,6.88,0,0,1,6.87-6.87m0-3.5a10.37,10.37,0,1,0,10.37,10.37A10.37,10.37,0,0,0,418.5,13.14Z"/><path class="cls-1" d="M138.5,138.46a6.87,6.87,0,1,1-6.87,6.87,6.88,6.88,0,0,1,6.87-6.87m0-3.5a10.37,10.37,0,1,0,10.37,10.37A10.37,10.37,0,0,0,138.5,135Z"/><path class="cls-1" d="M61,72a6.87,6.87,0,1,1-6.87,6.87A6.88,6.88,0,0,1,61,72m0-3.5A10.37,10.37,0,1,0,71.37,78.83,10.37,10.37,0,0,0,61,68.46Z"/><path class="cls-1" d="M126.61,75.68V89.43H105.95V75.68h20.66m3.5-3.5H102.45V92.93h27.66V72.18Z"/><path class="cls-1" d="M405.28,268.13v13.74H384.62V268.13h20.66m3.5-3.5H381.12v20.74h27.66V264.63Z"/><path class="cls-1" d="M477.35,156.5v13.74H456.69V156.5h20.66m3.5-3.5H453.19v20.74h27.66V153Z"/><path class="cls-1" d="M24.2,282.46v13.74H3.54V282.46H24.2m3.5-3.5H0v20.74H27.7V279Z"/><path class="cls-1" d="M223.52,253.73H209.77V233.07h13.74v20.66m3.5,3.5V229.57H206.27v27.66Z"/><path class="cls-1" d="M402.94,75.68V89.43H382.28V75.68h20.66m3.5-3.5H378.78V92.93h27.66V72.18Z"/><path class="cls-1" d="M357.49,161.77v20.66H343.75V161.77h13.74m3.5-3.5H340.25v27.66H361V158.27Z"/><path class="cls-1" d="M277.74,9.59V30.25H264V9.59h13.74m3.5-3.5H260.49V33.75h20.74V6.09Z"/><path class="cls-1" d="M52,157.92v20.66H38.21V157.92H52m3.5-3.5H34.71v27.66H55.45V154.42Z"/><path class="cls-1" d="M39.78,15.32V36H26V15.32H39.78m3.5-3.5H22.53V39.47H43.28V11.82Z"/><rect class="cls-1" x="304.27" y="230.99" width="6.91" height="10.37"/><rect class="cls-1" x="180.62" y="288.25" width="6.91" height="10.37"/><rect class="cls-1" x="143.69" y="60.62" width="6.91" height="10.37"/><rect class="cls-1" x="426.36" y="178.73" width="6.91" height="10.37"/><rect class="cls-1" x="415.04" y="53.06" width="6.91" height="10.37"/><rect class="cls-1" x="416.77" y="246.19" width="10.37" height="6.91"/><rect class="cls-1" x="470.48" y="22.19" width="10.37" height="6.91"/><rect class="cls-1" x="48.27" y="257.75" width="10.37" height="6.91"/><rect class="cls-1" x="161.61" width="10.37" height="6.91"/><rect class="cls-1" x="2.88" y="63.66" width="10.37" height="6.91"/><polygon class="cls-1" points="366.31 106.15 360.03 106.15 364.47 101.71 362 99.23 357.56 103.67 357.56 97.4 354.06 97.4 354.06 103.67 349.62 99.23 347.15 101.71 351.58 106.15 345.31 106.15 345.31 109.65 351.58 109.65 347.15 114.08 349.62 116.56 354.06 112.12 354.06 118.4 357.56 118.4 357.56 112.12 362 116.56 364.47 114.08 360.03 109.65 366.31 109.65 366.31 106.15"/><polygon class="cls-1" points="461.69 9.94 455.42 9.94 459.85 5.5 457.38 3.03 452.94 7.46 452.94 1.19 449.44 1.19 449.44 7.46 445 3.03 442.53 5.5 446.97 9.94 440.69 9.94 440.69 13.44 446.97 13.44 442.53 17.88 445 20.35 449.44 15.91 449.44 22.19 452.94 22.19 452.94 15.91 457.38 20.35 459.85 17.88 455.42 13.44 461.69 13.44 461.69 9.94"/><polygon class="cls-1" points="133.69 43.19 127.42 43.19 131.85 38.75 129.38 36.27 124.94 40.71 124.94 34.44 121.44 34.44 121.44 40.71 117 36.27 114.53 38.75 118.97 43.19 112.69 43.19 112.69 46.69 118.97 46.69 114.53 51.12 117 53.6 121.44 49.16 121.44 55.44 124.94 55.44 124.94 49.16 129.38 53.6 131.85 51.12 127.42 46.69 133.69 46.69 133.69 43.19"/><polygon class="cls-1" points="110.11 200.17 103.83 200.17 108.27 195.73 105.8 193.25 101.36 197.69 101.36 191.42 97.86 191.42 97.86 197.69 93.42 193.25 90.95 195.73 95.39 200.17 89.11 200.17 89.11 203.67 95.39 203.67 90.95 208.1 93.42 210.58 97.86 206.14 97.86 212.42 101.36 212.42 101.36 206.14 105.8 210.58 108.27 208.1 103.83 203.67 110.11 203.67 110.11 200.17"/><polygon class="cls-1" points="332.87 286.58 326.6 286.58 331.03 282.14 328.56 279.67 324.12 284.11 324.12 277.83 320.62 277.83 320.62 284.11 316.18 279.67 313.71 282.14 318.15 286.58 311.87 286.58 311.87 290.08 318.15 290.08 313.71 294.52 316.18 297 320.62 292.56 320.62 298.83 324.12 298.83 324.12 292.56 328.56 297 331.03 294.52 326.6 290.08 332.87 290.08 332.87 286.58"/><polygon class="cls-1" points="329.29 99.86 324.12 99.86 324.12 94.69 320.62 94.69 320.62 99.86 315.46 99.86 315.46 103.36 320.62 103.36 320.62 108.52 324.12 108.52 324.12 103.36 329.29 103.36 329.29 99.86"/><polygon class="cls-1" points="401.73 44.88 396.57 44.88 396.57 39.72 393.07 39.72 393.07 44.88 387.9 44.88 387.9 48.38 393.07 48.38 393.07 53.55 396.57 53.55 396.57 48.38 401.73 48.38 401.73 44.88"/><polygon class="cls-1" points="137.02 214.84 131.86 214.84 131.86 209.67 128.36 209.67 128.36 214.84 123.19 214.84 123.19 218.34 128.36 218.34 128.36 223.5 131.86 223.5 131.86 218.34 137.02 218.34 137.02 214.84"/><polygon class="cls-1" points="97.45 56.5 92.29 56.5 92.29 51.34 88.79 51.34 88.79 56.5 83.62 56.5 83.62 60 88.79 60 88.79 65.16 92.29 65.16 92.29 60 97.45 60 97.45 56.5"/><polygon class="cls-1" points="182.16 50.51 176.99 50.51 176.99 45.34 173.49 45.34 173.49 50.51 168.33 50.51 168.33 54.01 173.49 54.01 173.49 59.17 176.99 59.17 176.99 54.01 182.16 54.01 182.16 50.51"/><polygon class="cls-1" points="36.19 243.5 31.03 243.5 31.03 238.34 27.53 238.34 27.53 243.5 22.36 243.5 22.36 247 27.53 247 27.53 252.16 31.03 252.16 31.03 247 36.19 247 36.19 243.5"/><polygon class="cls-1" points="271.15 239.25 265.99 239.25 265.99 234.09 262.49 234.09 262.49 239.25 257.32 239.25 257.32 242.75 262.49 242.75 262.49 247.92 265.99 247.92 265.99 242.75 271.15 242.75 271.15 239.25"/><polygon class="cls-1" points="426.68 211.5 421.52 211.5 421.52 206.34 418.02 206.34 418.02 211.5 412.85 211.5 412.85 215 418.02 215 418.02 220.16 421.52 220.16 421.52 215 426.68 215 426.68 211.5"/><polygon class="cls-1" points="458.26 98.72 453.1 98.72 453.1 93.56 449.6 93.56 449.6 98.72 444.43 98.72 444.43 102.22 449.6 102.22 449.6 107.39 453.1 107.39 453.1 102.22 458.26 102.22 458.26 98.72"/><polygon class="cls-1" points="125.4 118.27 122.93 115.79 119.28 119.44 115.63 115.79 113.15 118.27 116.8 121.92 113.15 125.57 115.63 128.04 119.28 124.39 122.93 128.04 125.4 125.57 121.75 121.92 125.4 118.27"/><polygon class="cls-1" points="375.72 241.6 373.25 239.12 369.6 242.78 365.94 239.12 363.47 241.6 367.12 245.25 363.47 248.9 365.94 251.38 369.6 247.72 373.25 251.38 375.72 248.9 372.07 245.25 375.72 241.6"/><polygon class="cls-1" points="208.32 271.35 205.85 268.88 202.19 272.53 198.54 268.88 196.07 271.35 199.72 275.01 196.07 278.66 198.54 281.13 202.19 277.48 205.85 281.13 208.32 278.66 204.67 275.01 208.32 271.35"/><polygon class="cls-1" points="14.19 139.35 11.71 136.88 8.06 140.53 4.41 136.88 1.94 139.35 5.59 143 1.94 146.65 4.41 149.13 8.06 145.48 11.71 149.13 14.19 146.65 10.54 143 14.19 139.35"/><polygon class="cls-1" points="81.66 272.63 79.18 270.16 75.53 273.81 71.88 270.16 69.4 272.63 73.06 276.28 69.4 279.94 71.88 282.41 75.53 278.76 79.18 282.41 81.66 279.94 78 276.28 81.66 272.63"/><polygon class="cls-1" points="394.95 114.74 392.47 112.27 388.82 115.92 385.17 112.27 382.69 114.74 386.35 118.4 382.69 122.05 385.17 124.52 388.82 120.87 392.47 124.52 394.95 122.05 391.3 118.4 394.95 114.74"/><polygon class="cls-1" points="345.66 3.66 343.19 1.19 339.54 4.84 335.88 1.19 333.41 3.66 337.06 7.32 333.41 10.97 335.88 13.44 339.54 9.79 343.19 13.44 345.66 10.97 342.01 7.32 345.66 3.66"/><polygon class="cls-1" points="473.15 188.41 470.67 185.93 467.02 189.59 463.37 185.93 460.89 188.41 464.55 192.06 460.89 195.71 463.37 198.19 467.02 194.53 470.67 198.19 473.15 195.71 469.5 192.06 473.15 188.41"/><polygon class="cls-1" points="260.83 47.68 258.36 45.21 254.71 48.86 251.05 45.21 248.58 47.68 252.23 51.34 248.58 54.99 251.05 57.46 254.71 53.81 258.36 57.46 260.83 54.99 257.18 51.34 260.83 47.68"/><path class="cls-1" d="M300.88,253.71l-4.14,4.14-8.21-8.21L271.15,267h43Zm-21.27,9.79,8.92-8.91,5.74,5.73-3.18,3.18Zm21.27-4.85,4.85,4.85H296Z"/><path class="cls-1" d="M46.46,214.25l-4.14,4.14-8.21-8.21L16.73,227.54h43ZM25.18,224l8.92-8.91,5.74,5.73L36.66,224Zm21.27-4.85L51.31,224h-9.7Z"/><path class="cls-1" d="M337.5,66.38l-4.14,4.14-8.21-8.21L307.77,79.68h43Zm-21.27,9.79,8.92-8.91L330.88,73l-3.18,3.18Zm21.27-4.85,4.85,4.85h-9.7Z"/><path class="cls-1" d="M140.76,8.53l-4.14,4.14-8.21-8.21L111,21.82h43Zm-21.27,9.79,8.92-8.91,5.74,5.73L131,18.32Zm21.27-4.85,4.85,4.85h-9.7Z"/><polygon class="cls-1" points="338.08 126.93 338.08 132.71 329.75 124.38 327.28 126.85 335.61 135.18 329.83 135.18 329.83 138.68 341.58 138.68 341.58 126.93 338.08 126.93"/><polygon class="cls-1" points="69.05 34.03 69.05 39.81 60.73 31.48 58.25 33.96 66.58 42.28 60.8 42.28 60.8 45.78 72.55 45.78 72.55 34.03 69.05 34.03"/><polygon class="cls-1" points="230 65.97 224.22 65.97 232.55 57.64 230.07 55.16 221.75 63.49 221.75 57.72 218.25 57.72 218.25 69.47 230 69.47 230 65.97"/><polygon class="cls-1" points="16.66 201.57 10.89 201.57 19.21 193.24 16.74 190.77 8.41 199.09 8.41 193.32 4.91 193.32 4.91 205.07 16.66 205.07 16.66 201.57"/><polygon class="cls-1" points="137.99 241.6 143.76 241.6 135.44 249.93 137.91 252.4 146.24 244.07 146.24 249.85 149.74 249.85 149.74 238.1 137.99 238.1 137.99 241.6"/><polygon class="cls-1" points="255.43 288.03 255.43 282.26 263.76 290.58 266.23 288.11 257.91 279.78 263.68 279.78 263.68 276.28 251.93 276.28 251.93 288.03 255.43 288.03"/><polygon class="cls-1" points="457.73 136.47 457.73 130.69 466.05 139.02 468.53 136.54 460.2 128.22 465.98 128.22 465.98 124.72 454.23 124.72 454.23 136.47 457.73 136.47"/><path class="cls-1" d="M80.72,117.08a18,18,0,1,0,18,18A18,18,0,0,0,80.72,117.08Zm-6.63,30.33a6.67,6.67,0,0,1,13.25,0,14,14,0,0,1-13.25,0Zm2.84-13.68a3.78,3.78,0,1,1,3.78,3.78A3.79,3.79,0,0,1,76.93,133.73Zm13.88,11a10.71,10.71,0,0,0-4.49-5.63,7.78,7.78,0,1,0-11.21,0,10.71,10.71,0,0,0-4.49,5.63,14,14,0,1,1,20.19,0Z"/><path class="cls-1" d="M311.87,13.58a18,18,0,1,0,18,18A18,18,0,0,0,311.87,13.58Zm-6.63,30.33a6.67,6.67,0,0,1,13.25,0,14,14,0,0,1-13.25,0Zm2.84-13.68A3.78,3.78,0,1,1,311.87,34,3.79,3.79,0,0,1,308.09,30.23Zm13.88,11a10.71,10.71,0,0,0-4.49-5.63,7.78,7.78,0,1,0-11.21,0,10.71,10.71,0,0,0-4.49,5.63,14,14,0,1,1,20.19,0Z"/><path class="cls-1" d="M116.6,254.94a18,18,0,1,0,18,18A18,18,0,0,0,116.6,254.94ZM110,285.27a6.67,6.67,0,0,1,13.25,0,14,14,0,0,1-13.25,0Zm2.84-13.68a3.78,3.78,0,1,1,3.78,3.78A3.79,3.79,0,0,1,112.81,271.59Zm13.88,11A10.71,10.71,0,0,0,122.2,277,7.78,7.78,0,1,0,111,277a10.71,10.71,0,0,0-4.49,5.63,14,14,0,1,1,20.19,0Z"/><path class="cls-1" d="M393.72,165.92a18,18,0,1,0,18,18A18,18,0,0,0,393.72,165.92Zm-6.63,30.33a6.67,6.67,0,0,1,13.25,0,14,14,0,0,1-13.25,0Zm2.84-13.68a3.78,3.78,0,1,1,3.78,3.78A3.79,3.79,0,0,1,389.94,182.57Zm13.88,11a10.71,10.71,0,0,0-4.49-5.63,7.78,7.78,0,1,0-11.21,0,10.71,10.71,0,0,0-4.49,5.63,14,14,0,1,1,20.19,0Z"/></g><g id="Content"><rect class="cls-2" x="227.3" y="147.23" width="93.33" height="69.35"/><path class="cls-3" d="M228.3,148.49v52.92l26.4-26.27L281,200.63l12.36-12.36L319,213V148.49Zm61.32,26.27a7.73,7.73,0,1,1,7.73-7.73A7.73,7.73,0,0,1,289.61,174.76Z"/><path class="cls-4" d="M290.18,176.08a10,10,0,1,0-10-10A10,10,0,0,0,290.18,176.08Zm0-16a6,6,0,1,1-6,6A6,6,0,0,1,290.18,160.08Z"/><path class="cls-4" d="M225.63,146.08v72h96v-72Zm92,4v58L294.29,184.9l-13.48,13.48-26.74-26.74L229.63,196v-46Zm-88,51.61,24.43-24.4L278,201.21l-12.72,12.72.15.15H229.63Zm41.14,12.39,23.53-23.53,23,22.83.33-.33v1Z"/><rect class="cls-2" x="149.36" y="135.07" width="93.33" height="69.35" transform="translate(26.28 365.76) rotate(-90)"/><path class="cls-3" d="M162.6,215.41h52.92L189.25,189l25.5-26.27-12.36-12.36,24.73-25.63H162.6Zm26.27-61.32a7.73,7.73,0,1,1-7.73-7.73A7.73,7.73,0,0,1,188.88,154.09Z"/><path class="cls-4" d="M190.19,153.53a10,10,0,1,0-10,10A10,10,0,0,0,190.19,153.53Zm-10,6a6,6,0,1,1,6-6A6,6,0,0,1,180.19,159.53Z"/><path class="cls-4" d="M160.19,122.08v96h72v-96Zm68,50.86-23.53-23.53,22.83-23-.33-.33h1Zm-64-46.86h58L199,149.42l13.48,13.48-26.74,26.74,24.4,24.44h-46Zm51.61,88-24.4-24.43,23.92-23.92L228,178.45l.15-.15v35.78Z"/><path class="cls-5" d="M272.24,116,260.67,119a26,26,0,1,0-48.16-13.6h4a22,22,0,1,1,39.8,12.89l-3.67-13.7-3.86,1L254,125l19.32-5.18Z"/></g></svg>