<svg xmlns="http://www.w3.org/2000/svg" viewBox="0 0 98.58 85.5"><defs><style>.black{fill:#323233;}.red{fill:#ff645c;}</style></defs><title>Asset 7</title><g id="Layer_2" data-name="Layer 2"><g id="Content"><path class="black" d="M77.29,64.75h-56v-44h56Zm-52-4h48v-36h-48Z"/><rect class="red" x="79.93" y="7" width="19.8" height="3.5" transform="translate(20.12 66.08) rotate(-45)"/><polygon class="red" points="98.58 13.63 95.08 13.63 95.08 3.5 84.95 3.5 84.95 0 98.58 0 98.58 13.63"/><rect class="red" x="7" y="-1.15" width="3.5" height="19.8" transform="translate(-3.62 8.75) rotate(-45)"/><polygon class="red" points="3.5 13.63 0 13.63 0 0 13.63 0 13.63 3.5 3.5 3.5 3.5 13.63"/><rect class="red" x="-1.15" y="75" width="19.8" height="3.5" transform="translate(-51.71 28.67) rotate(-45)"/><polygon class="red" points="13.63 85.5 0 85.5 0 71.87 3.5 71.87 3.5 82 13.63 82 13.63 85.5"/><rect class="red" x="88.08" y="66.85" width="3.5" height="19.8" transform="translate(-27.96 86) rotate(-45)"/><polygon class="red" points="98.58 85.5 84.95 85.5 84.95 82 95.08 82 95.08 71.87 98.58 71.87 98.58 85.5"/></g></g></svg>
