<svg xmlns="http://www.w3.org/2000/svg" viewBox="0 0 800 600"><defs><style>.cls-1{fill:#f9f2ff;}.cls-2{fill:#fff;}.cls-3{fill:#c99ef2;}.cls-4{fill:#323233;}</style></defs><title>doc-markdown</title><g id="Bg"><rect class="cls-1" width="800" height="600"/></g><g id="Content"><polygon class="cls-2" points="494.8 434.09 298 434.09 298 165.91 446.88 165.91 494.8 219.95 494.8 434.09"/><polyline class="cls-3" points="495.04 219.95 445.97 219.95 445.97 170.91"/><path class="cls-4" d="M451.41,161.95h-159V440.09H504V214.51Zm.56,17.52,34.49,34.48H452ZM304.39,428.09V173.95H440v52h52V428.09Z"/><path class="cls-4" d="M430.63,292.31v-12H416.09V254.36h-12v25.95H388.71V254.36h-12v25.95H362.17v12h14.54v15.38H362.17v12h14.54v25.95h12V319.69h15.38v25.95h12V319.69h14.54v-12H416.09V292.31Zm-26.54,15.38H388.71V292.31h15.38Z"/></g></svg>