<svg xmlns="http://www.w3.org/2000/svg" viewBox="0 0 800 600"><defs><style>.cls-1{fill:#f9f2ff;}.cls-2{fill:#fff;}.cls-3{fill:#7c5cd1;}.cls-4{fill:none;stroke:#323233;stroke-miterlimit:10;stroke-width:12px;}.cls-5{fill:#c99ef2;}.cls-6{fill:#323233;}</style></defs><title>doc</title><g id="Bg"><rect class="cls-1" x="2" width="800" height="600"/></g><g id="Content"><polygon class="cls-2" points="496.8 434.09 300 434.09 300 165.91 448.88 165.91 496.8 219.95 496.8 434.09"/><rect class="cls-3" x="362.64" y="264.37" width="75.11" height="4"/><rect class="cls-3" x="362.64" y="301.9" width="75.11" height="4"/><rect class="cls-3" x="362.64" y="339.43" width="75.11" height="4"/><rect class="cls-4" x="362.64" y="264.37" width="75.11" height="4"/><rect class="cls-4" x="362.64" y="301.9" width="75.11" height="4"/><rect class="cls-4" x="362.64" y="339.43" width="75.11" height="4"/><polyline class="cls-5" points="497.04 219.95 447.97 219.95 447.97 170.91"/><path class="cls-6" d="M453.41,161.95h-159V440.09H506V214.51Zm.56,17.52,34.49,34.48H454ZM306.39,428.09V173.95H442v52h52V428.09Z"/></g></svg>