<svg xmlns="http://www.w3.org/2000/svg" viewBox="0 0 800 600"><defs><style>.cls-1{fill:#f9f2ff;}.cls-2{fill:#c99ef2;}.cls-3{fill:#fff;}.cls-4{fill:#7c5cd1;}.cls-5{fill:#323233;}</style></defs><title>shubox</title><g id="Bg"><rect class="cls-1" width="800" height="600"/></g><g id="Content"><rect class="cls-2" x="291.94" y="282.66" width="215.93" height="92.34"/><polygon class="cls-3" points="337.9 319.56 379.23 278.02 296.57 278.02 337.9 319.56"/><polygon class="cls-3" points="389.31 330.24 437.13 282.76 341.03 282.76 389.31 330.24"/><path class="cls-4" d="M419.76,225a19.56,19.56,0,0,1,.2,3.43c0,12.1-8.87,21.77-20,21.77s-20-9.68-20-21.77c0-1.21.2-2.22.2-3.43H275v57.66H525V225Z"/><path class="cls-5" d="M531,219H412.67l1.17,7a14.08,14.08,0,0,1,.12,2.44c0,8.7-6.26,15.77-14,15.77s-14-7.08-14-15.77c0-.33,0-.72.08-1.17.06-.61.13-1.38.13-2.26v-6H269v69.66h16.94V381H513.86V288.66H531ZM355.69,288.76h66.89l-33.28,33Zm-6.24,10.69-11.54,11.6-22.28-22.39h22.85ZM501.86,369H297.94V288.66h.76l39.21,39.4,20.1-20.2,31.33,30.81,50.37-50h62.16ZM519,276.66H281V231h93.15c1.22,14.11,12.35,25.2,25.85,25.2s24.63-11.09,25.85-25.2H519Z"/></g></svg>