<svg xmlns="http://www.w3.org/2000/svg" viewBox="0 0 800 600"><defs><style>.cls-1{fill:#f9f2ff;}.cls-2{fill:#fff;}.cls-3{fill:#c99ef2;}.cls-4{fill:#323233;}.cls-5{fill:#ff645c;}</style></defs><title>transform</title><g id="Bg"><rect class="cls-1" width="800" height="600"/></g><g id="Content"><path class="cls-2" d="M288.32,372.61V337.36l65-64.72,64.72,62.82L448.54,305l63.13,60.91v6.7ZM439.38,271.72a19,19,0,1,1,19-19A19,19,0,0,1,439.38,271.72Z"/><path class="cls-3" d="M288.32,207V337.36l65-64.72,64.72,62.82L448.54,305l63.13,60.91V207Zm151.05,64.72a19,19,0,1,1,19-19A19,19,0,0,1,439.38,271.72Z"/><path class="cls-4" d="M438,278a24.22,24.22,0,1,0-24.22-24.22A24.24,24.24,0,0,0,438,278Zm0-36.43a12.22,12.22,0,1,1-12.22,12.22A12.23,12.23,0,0,1,438,241.54Z"/><path class="cls-4" d="M285,202.22v176h230.6v-176Zm218.6,12V350.34l-56.26-55.74-30.75,30.63-60.84-60.84L297,322.94V214.22Zm-56.24,97.29,55.17,54.67H392.45ZM297,339.89l58.74-58.55,52.35,52.35-32.62,32.49H297Z"/><rect class="cls-5" x="527.67" y="155.85" width="71.85" height="12" transform="translate(50.61 445.9) rotate(-45)"/><polygon class="cls-5" points="595 179.56 583 179.56 583 142.45 545.89 142.45 545.89 130.45 595 130.45 595 179.56"/><rect class="cls-5" x="557.6" y="382.23" width="12" height="71.85" transform="translate(-130.6 521) rotate(-45)"/><polygon class="cls-5" points="595 449.55 545.89 449.55 545.89 437.55 583 437.55 583 400.44 595 400.44 595 449.55"/><rect class="cls-5" x="230.4" y="125.92" width="12" height="71.85" transform="translate(-45.2 214.57) rotate(-45)"/><polygon class="cls-5" points="217 179.56 205 179.56 205 130.45 254.11 130.45 254.11 142.45 217 142.45 217 179.56"/><rect class="cls-5" x="200.48" y="412.15" width="71.85" height="12" transform="translate(-226.44 289.64) rotate(-45)"/><polygon class="cls-5" points="254.11 449.55 205 449.55 205 400.44 217 400.44 217 437.55 254.11 437.55 254.11 449.55"/></g></svg>