<svg xmlns="http://www.w3.org/2000/svg" viewBox="0 0 480.13 300.53"><defs><style>.cls-1{fill:#f2f0ed;}.cls-2{fill:#c99ef2;}.cls-3,.cls-5{fill:none;stroke-miterlimit:10;stroke-width:4px;}.cls-3{stroke:#ff645c;}.cls-4{fill:#323233;}.cls-5{stroke:#323233;}.cls-6{fill:#8264d1;}</style></defs><title>Asset 3</title><g id="Layer_2" data-name="Layer 2"><g id="Layer_2-2" data-name="Layer 2"><polygon class="cls-1" points="250.06 114.03 258.71 122.67 267.35 114.03 250.06 114.03"/><polygon class="cls-1" points="443.62 112.03 452.27 120.67 460.91 112.03 443.62 112.03"/><polygon class="cls-1" points="4.1 261.21 12.74 269.85 21.39 261.21 4.1 261.21"/><polygon class="cls-1" points="221.55 40.59 230.19 49.23 238.83 40.59 221.55 40.59"/><polygon class="cls-1" points="62.64 6.86 71.28 15.5 79.93 6.86 62.64 6.86"/><polygon class="cls-1" points="154.43 285.57 163.07 294.22 171.71 285.57 154.43 285.57"/><polygon class="cls-1" points="97.99 109.71 106.63 118.35 115.27 109.71 97.99 109.71"/><polygon class="cls-1" points="459.24 240.81 450.6 232.17 441.95 240.81 459.24 240.81"/><polygon class="cls-1" points="378.82 189.67 370.18 181.03 361.54 189.67 378.82 189.67"/><polygon class="cls-1" points="17.29 99.08 8.64 90.43 0 99.08 17.29 99.08"/><polygon class="cls-1" points="333.29 300.53 324.64 291.88 316 300.53 333.29 300.53"/><polygon class="cls-1" points="370.18 30.23 361.54 21.59 352.89 30.23 370.18 30.23"/><polygon class="cls-1" points="248.04 234.16 239.39 225.52 230.75 234.16 248.04 234.16"/><polygon class="cls-1" points="111.27 213.67 102.63 205.03 93.99 213.67 111.27 213.67"/><circle class="cls-1" cx="215.82" cy="128.46" r="4"/><circle class="cls-1" cx="106.63" cy="61.36" r="4"/><circle class="cls-1" cx="56.66" cy="29.87" r="4"/><circle class="cls-1" cx="36.6" cy="111.77" r="4"/><circle class="cls-1" cx="191.97" cy="203.37" r="4"/><circle class="cls-1" cx="4.1" cy="237.63" r="4"/><circle class="cls-1" cx="75.28" cy="188.01" r="4"/><circle class="cls-1" cx="289.3" cy="246.65" r="4"/><circle class="cls-1" cx="342.8" cy="101.21" r="4"/><circle class="cls-1" cx="376.14" cy="212.85" r="4"/><circle class="cls-1" cx="443.62" cy="258.62" r="4"/><circle class="cls-1" cx="472.52" cy="68.43" r="4"/><circle class="cls-1" cx="346.8" cy="49.97" r="4"/><circle class="cls-1" cx="273.89" cy="8.02" r="4"/><circle class="cls-1" cx="206.76" cy="33.87" r="4"/><path class="cls-1" d="M387.75,119.31l-8.84,8.84-8.84-8.84h17.67m8.45-3.5H361.63l17.29,17.29,17.29-17.29Z"/><path class="cls-1" d="M471.68,38.86l-8.84,8.84L454,38.86h17.67m8.45-3.5H445.55l17.29,17.29,17.29-17.29Z"/><path class="cls-1" d="M217.91,4l-8.84,8.84L200.23,4h17.67M226.36.5H191.78l17.29,17.29L226.36.5Z"/><path class="cls-1" d="M47.55,80.22l-8.84,8.84-8.84-8.84H47.55M56,76.72H21.42L38.71,94,56,76.72Z"/><path class="cls-1" d="M340.25,256.27l-8.84,8.84-8.84-8.84h17.67m8.45-3.5H314.12l17.29,17.29,17.29-17.29Z"/><path class="cls-1" d="M139.16,229.75l-8.84,8.84-8.84-8.84h17.67m8.45-3.5H113l17.29,17.29,17.29-17.29Z"/><path class="cls-1" d="M222.73,177.42l8.84,8.84H213.89l8.84-8.84m0-4.95-17.29,17.29H240l-17.29-17.29Z"/><path class="cls-1" d="M413.59,259.95l8.84,8.84H404.75l8.84-8.84m0-4.95-17.29,17.29h34.57L413.59,255Z"/><path class="cls-1" d="M272.76,286.89l8.84,8.84H263.92l8.84-8.84m0-4.95-17.29,17.29H290l-17.29-17.29Z"/><path class="cls-1" d="M301.89,8.66l8.84,8.84H293.05l8.84-8.84m0-4.95L284.6,21h34.57L301.89,3.71Z"/><path class="cls-1" d="M180.36,70.41l8.84,8.84H171.52l8.84-8.84m0-4.95L163.07,82.75h34.57L180.36,65.46Z"/><path class="cls-1" d="M254,92.17a1.69,1.69,0,1,1-1.69,1.69A1.69,1.69,0,0,1,254,92.17m0-3.5a5.19,5.19,0,1,0,5.19,5.19A5.19,5.19,0,0,0,254,88.67Z"/><path class="cls-1" d="M198,53.7a1.69,1.69,0,1,1-1.69,1.69A1.69,1.69,0,0,1,198,53.7m0-3.5a5.19,5.19,0,1,0,5.19,5.19A5.19,5.19,0,0,0,198,50.2Z"/><path class="cls-1" d="M87,80.07a1.69,1.69,0,1,1-1.69,1.69A1.69,1.69,0,0,1,87,80.07m0-3.5a5.19,5.19,0,1,0,5.19,5.19A5.19,5.19,0,0,0,87,76.57Z"/><path class="cls-1" d="M15.8,60.86a1.69,1.69,0,1,1-1.69,1.69,1.69,1.69,0,0,1,1.69-1.69m0-3.5A5.19,5.19,0,1,0,21,62.55a5.19,5.19,0,0,0-5.19-5.19Z"/><path class="cls-1" d="M106.63,8.94a1.69,1.69,0,1,1-1.69,1.69,1.69,1.69,0,0,1,1.69-1.69m0-3.5a5.19,5.19,0,1,0,5.19,5.19,5.19,5.19,0,0,0-5.19-5.19Z"/><path class="cls-1" d="M364.08,141a1.69,1.69,0,1,1-1.69,1.69,1.69,1.69,0,0,1,1.69-1.69m0-3.5a5.19,5.19,0,1,0,5.19,5.19,5.19,5.19,0,0,0-5.19-5.19Z"/><path class="cls-1" d="M420.69,106.62a1.69,1.69,0,1,1-1.69,1.69,1.69,1.69,0,0,1,1.69-1.69m0-3.5a5.19,5.19,0,1,0,5.19,5.19,5.19,5.19,0,0,0-5.19-5.19Z"/><path class="cls-1" d="M377.45,5.49a1.69,1.69,0,1,1-1.69,1.69,1.69,1.69,0,0,1,1.69-1.69m0-3.5a5.19,5.19,0,1,0,5.19,5.19A5.19,5.19,0,0,0,377.45,2Z"/><path class="cls-1" d="M321.18,55.67a1.69,1.69,0,1,1-1.69,1.69,1.69,1.69,0,0,1,1.69-1.69m0-3.5a5.19,5.19,0,1,0,5.19,5.19,5.19,5.19,0,0,0-5.19-5.19Z"/><path class="cls-1" d="M456.24,190.66a1.69,1.69,0,1,1-1.69,1.69,1.69,1.69,0,0,1,1.69-1.69m0-3.5a5.19,5.19,0,1,0,5.19,5.19,5.19,5.19,0,0,0-5.19-5.19Z"/><path class="cls-1" d="M474.24,250.51a1.69,1.69,0,1,1-1.69,1.69,1.69,1.69,0,0,1,1.69-1.69m0-3.5a5.19,5.19,0,1,0,5.19,5.19,5.19,5.19,0,0,0-5.19-5.19Z"/><path class="cls-1" d="M382.27,283.72a1.69,1.69,0,1,1-1.69,1.69,1.69,1.69,0,0,1,1.69-1.69m0-3.5a5.19,5.19,0,1,0,5.19,5.19,5.19,5.19,0,0,0-5.19-5.19Z"/><path class="cls-1" d="M258.71,181.48a1.69,1.69,0,1,1-1.69,1.69,1.69,1.69,0,0,1,1.69-1.69m0-3.5a5.19,5.19,0,1,0,5.19,5.19,5.19,5.19,0,0,0-5.19-5.19Z"/><path class="cls-1" d="M271.79,230.75a1.69,1.69,0,1,1-1.69,1.69,1.69,1.69,0,0,1,1.69-1.69m0-3.5a5.19,5.19,0,1,0,5.19,5.19,5.19,5.19,0,0,0-5.19-5.19Z"/><path class="cls-1" d="M163.07,235.68a1.69,1.69,0,1,1-1.69,1.69,1.69,1.69,0,0,1,1.69-1.69m0-3.5a5.19,5.19,0,1,0,5.19,5.19,5.19,5.19,0,0,0-5.19-5.19Z"/><path class="cls-1" d="M28.78,277a1.69,1.69,0,1,1-1.69,1.69A1.69,1.69,0,0,1,28.78,277m0-3.5A5.19,5.19,0,1,0,34,278.7a5.19,5.19,0,0,0-5.19-5.19Z"/><path class="cls-1" d="M63.81,137a1.69,1.69,0,1,1-1.69,1.69A1.69,1.69,0,0,1,63.81,137m0-3.5A5.19,5.19,0,1,0,69,138.64a5.19,5.19,0,0,0-5.19-5.19Z"/><path class="cls-1" d="M192.43,293.39a1.69,1.69,0,1,1-1.69,1.69,1.69,1.69,0,0,1,1.69-1.69m0-3.5a5.19,5.19,0,1,0,5.19,5.19,5.19,5.19,0,0,0-5.19-5.19Z"/><path class="cls-1" d="M227.94,102.9a6.87,6.87,0,1,1-6.87,6.87,6.88,6.88,0,0,1,6.87-6.87m0-3.5a10.37,10.37,0,1,0,10.37,10.37A10.37,10.37,0,0,0,227.94,99.4Z"/><path class="cls-1" d="M256.43,50.49a6.87,6.87,0,1,1-6.87,6.87,6.88,6.88,0,0,1,6.87-6.87m0-3.5A10.37,10.37,0,1,0,266.8,57.36,10.37,10.37,0,0,0,256.43,47Z"/><path class="cls-1" d="M115.39,80.66a6.87,6.87,0,1,1-6.87,6.87,6.88,6.88,0,0,1,6.87-6.87m0-3.5a10.37,10.37,0,1,0,10.37,10.37,10.37,10.37,0,0,0-10.37-10.37Z"/><path class="cls-1" d="M419.32,221.81a6.87,6.87,0,1,1-6.87,6.87,6.88,6.88,0,0,1,6.87-6.87m0-3.5a10.37,10.37,0,1,0,10.37,10.37,10.37,10.37,0,0,0-10.37-10.37Z"/><path class="cls-1" d="M397.28,81.52a6.87,6.87,0,1,1-6.87,6.87,6.88,6.88,0,0,1,6.87-6.87m0-3.5a10.37,10.37,0,1,0,10.37,10.37A10.37,10.37,0,0,0,397.28,78Z"/><path class="cls-1" d="M344.7,3.76a6.87,6.87,0,1,1-6.87,6.87,6.88,6.88,0,0,1,6.87-6.87m0-3.5a10.37,10.37,0,1,0,10.37,10.37A10.37,10.37,0,0,0,344.7.26Z"/><path class="cls-1" d="M468.34,5.21a6.87,6.87,0,1,1-6.87,6.87,6.88,6.88,0,0,1,6.87-6.87m0-3.5a10.37,10.37,0,1,0,10.37,10.37A10.37,10.37,0,0,0,468.34,1.71Z"/><path class="cls-1" d="M192,227.58a6.87,6.87,0,1,1-6.87,6.87,6.88,6.88,0,0,1,6.87-6.87m0-3.5a10.37,10.37,0,1,0,10.37,10.37A10.37,10.37,0,0,0,192,224.08Z"/><path class="cls-1" d="M305.57,269.85a6.87,6.87,0,1,1-6.87,6.87,6.88,6.88,0,0,1,6.87-6.87m0-3.5a10.37,10.37,0,1,0,10.37,10.37,10.37,10.37,0,0,0-10.37-10.37Z"/><path class="cls-1" d="M101.44,174.16A6.87,6.87,0,1,1,94.57,181a6.88,6.88,0,0,1,6.87-6.87m0-3.5A10.37,10.37,0,1,0,111.82,181a10.37,10.37,0,0,0-10.37-10.37Z"/><path class="cls-1" d="M17.29,121.58a6.87,6.87,0,1,1-6.87,6.87,6.88,6.88,0,0,1,6.87-6.87m0-3.5a10.37,10.37,0,1,0,10.37,10.37,10.37,10.37,0,0,0-10.37-10.37Z"/><path class="cls-1" d="M97.39,282.38a6.87,6.87,0,1,1-6.87,6.87,6.88,6.88,0,0,1,6.87-6.87m0-3.5a10.37,10.37,0,1,0,10.37,10.37,10.37,10.37,0,0,0-10.37-10.37Z"/><path class="cls-1" d="M171.39,191.52v20.66H157.65V191.52h13.74m3.5-3.5H154.15v27.66h20.74V188Z"/><path class="cls-1" d="M50.37,186.38V207H36.63V186.38H50.37m3.5-3.5H33.13v27.66H53.87V182.88Z"/><path class="cls-1" d="M437.21,130.62v20.66H423.46V130.62h13.74m3.5-3.5H420v27.66h20.74V127.12Z"/><path class="cls-1" d="M476.39,275.86v20.66H462.65V275.86h13.74m3.5-3.5H459.15V300h20.74V272.36Z"/><path class="cls-1" d="M386.32,44.05V64.71H372.58V44.05h13.74m3.5-3.5H369.08V68.21h20.74V40.55Z"/><path class="cls-1" d="M251.2,252.72v20.66H237.46V252.72H251.2m3.5-3.5H234v27.66H254.7V249.22Z"/><path class="cls-1" d="M183.14,15.58V36.24H169.39V15.58h13.74m3.5-3.5H165.89V39.74h20.74V12.08Z"/><path class="cls-1" d="M322.87,106.73H302.21V93h20.66v13.74m3.5,3.5V89.48H298.71v20.74Z"/><path class="cls-1" d="M79.1,115.18H58.44V101.44H79.1v13.74m3.5,3.5V97.94H54.94v20.74Z"/><path class="cls-1" d="M390.47,250.17H369.81V236.43h20.66v13.74m3.5,3.5V232.93H366.31v20.74Z"/><path class="cls-1" d="M71.93,290.26H51.27V276.52H71.93v13.74m3.5,3.5V273H47.77v20.74Z"/><rect class="cls-1" x="307.08" y="188.35" width="6.91" height="10.37"/><rect class="cls-1" x="270.44" y="258.46" width="6.91" height="10.37"/><rect class="cls-1" x="212.36" y="243.3" width="6.91" height="10.37"/><rect class="cls-1" x="17.53" y="216.59" width="6.91" height="10.37"/><rect class="cls-1" x="402.03" y="53.27" width="6.91" height="10.37"/><rect class="cls-1" x="430.88" y="199.9" width="6.91" height="10.37"/><rect class="cls-1" x="139.83" y="90.38" width="6.91" height="10.37"/><rect class="cls-1" x="38.81" y="140.28" width="6.91" height="10.37"/><rect class="cls-1" x="19.02" y="33.16" width="6.91" height="10.37"/><rect class="cls-1" x="274.12" y="95.94" width="10.37" height="6.91"/><rect class="cls-1" x="296.71" y="34.54" width="6.91" height="10.37"/><rect class="cls-1" x="120.92" y="20.23" width="10.37" height="6.91"/><rect class="cls-1" x="393.51" y="137.5" width="10.37" height="6.91"/><rect class="cls-1" x="433.48" y="7.17" width="10.37" height="6.91"/><rect class="cls-1" x="108.58" y="250.22" width="10.37" height="6.91"/><rect class="cls-1" x="358.89" y="266.74" width="10.37" height="6.91"/><polygon class="cls-1" points="295.51 202.19 289.24 202.19 293.68 197.75 291.2 195.28 286.76 199.72 286.76 193.44 283.26 193.44 283.26 199.71 278.83 195.28 276.35 197.75 280.79 202.19 274.51 202.19 274.51 205.69 280.79 205.69 276.35 210.13 278.83 212.6 283.26 208.16 283.26 214.44 286.76 214.44 286.76 208.16 291.2 212.6 293.68 210.13 289.24 205.69 295.51 205.69 295.51 202.19"/><polygon class="cls-1" points="95.32 251.02 89.04 251.02 93.48 246.58 91 244.1 86.57 248.54 86.57 242.27 83.07 242.27 83.07 248.54 78.63 244.1 76.16 246.58 80.59 251.02 74.32 251.02 74.32 254.52 80.59 254.52 76.16 258.95 78.63 261.43 83.07 256.99 83.07 263.27 86.57 263.27 86.57 256.99 91 261.43 93.48 258.95 89.04 254.52 95.32 254.52 95.32 251.02"/><polygon class="cls-1" points="478.84 164.1 472.57 164.1 477 159.67 474.53 157.19 470.09 161.63 470.09 155.35 466.59 155.35 466.59 161.63 462.16 157.19 459.68 159.67 464.12 164.1 457.84 164.1 457.84 167.6 464.12 167.6 459.68 172.04 462.16 174.52 466.59 170.08 466.59 176.35 470.09 176.35 470.09 170.08 474.53 174.52 477 172.04 472.57 167.6 478.84 167.6 478.84 164.1"/><polygon class="cls-1" points="412.53 23.11 406.26 23.11 410.7 18.67 408.22 16.19 403.78 20.63 403.78 14.36 400.28 14.36 400.28 20.63 395.85 16.19 393.37 18.67 397.81 23.11 391.53 23.11 391.53 26.61 397.81 26.61 393.37 31.04 395.85 33.52 400.28 29.08 400.28 35.36 403.78 35.36 403.78 29.08 408.22 33.52 410.7 31.04 406.26 26.61 412.53 26.61 412.53 23.11"/><polygon class="cls-1" points="234.32 73.11 228.04 73.11 232.48 68.67 230.01 66.2 225.57 70.64 225.57 64.36 222.07 64.36 222.07 70.64 217.63 66.2 215.16 68.67 219.59 73.11 213.32 73.11 213.32 76.61 219.59 76.61 215.16 81.05 217.63 83.52 222.07 79.08 222.07 85.36 225.57 85.36 225.57 79.08 230.01 83.52 232.48 81.05 228.04 76.61 234.32 76.61 234.32 73.11"/><polygon class="cls-1" points="21.35 8.75 15.08 8.75 19.51 4.31 17.04 1.84 12.6 6.28 12.6 0 9.1 0 9.1 6.28 4.67 1.84 2.19 4.31 6.63 8.75 0.35 8.75 0.35 12.25 6.63 12.25 2.19 16.69 4.67 19.16 9.1 14.72 9.1 21 12.6 21 12.6 14.72 17.04 19.16 19.51 16.69 15.08 12.25 21.35 12.25 21.35 8.75"/><polygon class="cls-1" points="256.43 204.1 251.26 204.1 251.26 198.93 247.76 198.93 247.76 204.1 242.6 204.1 242.6 207.6 247.76 207.6 247.76 212.76 251.26 212.76 251.26 207.6 256.43 207.6 256.43 204.1"/><polygon class="cls-1" points="351.61 283.87 346.45 283.87 346.45 278.7 342.95 278.7 342.95 283.87 337.78 283.87 337.78 287.37 342.95 287.37 342.95 292.53 346.45 292.53 346.45 287.37 351.61 287.37 351.61 283.87"/><polygon class="cls-1" points="150.2 263.78 145.03 263.78 145.03 258.62 141.53 258.62 141.53 263.78 136.37 263.78 136.37 267.28 141.53 267.28 141.53 272.45 145.03 272.45 145.03 267.28 150.2 267.28 150.2 263.78"/><polygon class="cls-1" points="475.26 215.1 470.09 215.1 470.09 209.94 466.59 209.94 466.59 215.1 461.43 215.1 461.43 218.6 466.59 218.6 466.59 223.77 470.09 223.77 470.09 218.6 475.26 218.6 475.26 215.1"/><polygon class="cls-1" points="336.57 35.95 331.4 35.95 331.4 30.79 327.9 30.79 327.9 35.95 322.74 35.95 322.74 39.45 327.9 39.45 327.9 44.62 331.4 44.62 331.4 39.45 336.57 39.45 336.57 35.95"/><polygon class="cls-1" points="373.23 91.17 368.06 91.17 368.06 86 364.56 86 364.56 91.17 359.4 91.17 359.4 94.67 364.56 94.67 364.56 99.83 368.06 99.83 368.06 94.67 373.23 94.67 373.23 91.17"/><polygon class="cls-1" points="154.53 6.29 149.36 6.29 149.36 1.12 145.86 1.12 145.86 6.29 140.69 6.29 140.69 9.79 145.86 9.79 145.86 14.95 149.36 14.95 149.36 9.79 154.53 9.79 154.53 6.29"/><polygon class="cls-1" points="99.56 132.89 94.39 132.89 94.39 127.72 90.89 127.72 90.89 132.89 85.73 132.89 85.73 136.39 90.89 136.39 90.89 141.55 94.39 141.55 94.39 136.39 99.56 136.39 99.56 132.89"/><polygon class="cls-1" points="81.23 216.02 76.07 216.02 76.07 210.85 72.57 210.85 72.57 216.02 67.4 216.02 67.4 219.52 72.57 219.52 72.57 224.68 76.07 224.68 76.07 219.52 81.23 219.52 81.23 216.02"/><polygon class="cls-1" points="45.81 15.66 40.65 15.66 40.65 10.5 37.15 10.5 37.15 15.66 31.98 15.66 31.98 19.16 37.15 19.16 37.15 24.33 40.65 24.33 40.65 19.16 45.81 19.16 45.81 15.66"/><polygon class="cls-1" points="388.39 157.74 385.92 155.26 382.27 158.91 378.62 155.26 376.14 157.74 379.79 161.39 376.14 165.04 378.62 167.52 382.27 163.86 385.92 167.52 388.39 165.04 384.74 161.39 388.39 157.74"/><polygon class="cls-1" points="413.78 290.7 411.3 288.23 407.65 291.88 404 288.23 401.52 290.7 405.18 294.36 401.52 298.01 404 300.48 407.65 296.83 411.3 300.48 413.78 298.01 410.13 294.36 413.78 290.7"/><polygon class="cls-1" points="225.4 281.75 222.93 279.27 219.28 282.93 215.62 279.27 213.15 281.75 216.8 285.4 213.15 289.05 215.62 291.53 219.28 287.88 222.93 291.53 225.4 289.05 221.75 285.4 225.4 281.75"/><polygon class="cls-1" points="471.87 132.06 469.39 129.58 465.74 133.23 462.09 129.58 459.62 132.06 463.27 135.71 459.62 139.36 462.09 141.83 465.74 138.18 469.39 141.83 471.87 139.36 468.22 135.71 471.87 132.06"/><polygon class="cls-1" points="273.48 27.13 271 24.66 267.35 28.31 263.7 24.66 261.22 27.13 264.88 30.79 261.22 34.44 263.7 36.91 267.35 33.26 271 36.91 273.48 34.44 269.82 30.79 273.48 27.13"/><polygon class="cls-1" points="434.99 30.43 432.52 27.95 428.86 31.61 425.21 27.95 422.74 30.43 426.39 34.08 422.74 37.73 425.21 40.21 428.86 36.55 432.52 40.21 434.99 37.73 431.34 34.08 434.99 30.43"/><polygon class="cls-1" points="138.36 198.96 135.88 196.49 132.23 200.14 128.58 196.49 126.1 198.96 129.75 202.61 126.1 206.26 128.58 208.74 132.23 205.09 135.88 208.74 138.36 206.26 134.7 202.61 138.36 198.96"/><polygon class="cls-1" points="14.77 289.12 12.3 286.64 8.64 290.29 4.99 286.64 2.52 289.12 6.17 292.77 2.52 296.42 4.99 298.9 8.64 295.24 12.3 298.9 14.77 296.42 11.12 292.77 14.77 289.12"/><polygon class="cls-1" points="208.22 96.18 205.75 93.71 202.1 97.36 198.44 93.71 195.97 96.18 199.62 99.83 195.97 103.49 198.44 105.96 202.1 102.31 205.75 105.96 208.22 103.49 204.57 99.83 208.22 96.18"/><polygon class="cls-1" points="82.97 55.91 80.49 53.44 76.84 57.09 73.19 53.44 70.71 55.91 74.36 59.57 70.71 63.22 73.19 65.69 76.84 62.04 80.49 65.69 82.97 63.22 79.31 59.57 82.97 55.91"/><path class="cls-1" d="M303.52,62.52l-4.14,4.14-8.21-8.21L273.79,75.81h43Zm-21.27,9.79,8.92-8.92,5.74,5.73-3.18,3.18Zm21.27-4.85,4.85,4.85h-9.7Z"/><path class="cls-1" d="M425.36,168.14l-4.14,4.14L413,164.07l-17.37,17.36h43Zm-21.27,9.79L413,169l5.74,5.73-3.18,3.18Zm21.27-4.85,4.85,4.85h-9.7Z"/><path class="cls-1" d="M98.5,27.22l-4.14,4.14-8.21-8.21L68.77,40.51h43ZM77.23,37l8.92-8.92,5.74,5.73L88.7,37ZM98.5,32.17,103.35,37h-9.7Z"/><path class="cls-1" d="M190,258.44l-4.14,4.14-8.21-8.21-17.37,17.36h43Zm-21.27,9.79,8.92-8.92,5.74,5.73-3.18,3.18ZM190,263.39l4.85,4.85h-9.7Z"/><path class="cls-1" d="M29.84,158.5l-4.14,4.14-8.21-8.21L.12,171.8h43ZM8.57,168.3l8.92-8.92,5.74,5.73L20,168.3Zm21.27-4.85,4.85,4.85H25Z"/><polygon class="cls-1" points="399.28 195.46 399.28 198.96 405.06 198.96 396.73 207.29 399.2 209.76 407.53 201.44 407.53 207.21 411.03 207.21 411.03 195.46 399.28 195.46"/><polygon class="cls-1" points="75.27 154.24 75.27 157.74 81.04 157.74 72.72 166.06 75.19 168.54 83.52 160.21 83.52 165.99 87.02 165.99 87.02 154.24 75.27 154.24"/><polygon class="cls-1" points="238 11.18 238 14.68 243.78 14.68 235.45 23.01 237.92 25.48 246.25 17.16 246.25 22.93 249.75 22.93 249.75 11.18 238 11.18"/><polygon class="cls-1" points="180.26 112.99 171.94 104.66 177.71 104.66 177.71 101.16 165.96 101.16 165.96 112.91 169.46 112.91 169.46 107.14 177.79 115.46 180.26 112.99"/><polygon class="cls-1" points="479.67 98.22 471.34 89.89 477.12 89.89 477.12 86.39 465.37 86.39 465.37 98.14 468.87 98.14 468.87 92.37 477.19 100.69 479.67 98.22"/><polygon class="cls-1" points="135.22 294.86 126.89 286.54 132.67 286.54 132.67 283.04 120.92 283.04 120.92 294.79 124.42 294.79 124.42 289.01 132.74 297.34 135.22 294.86"/><polygon class="cls-1" points="310.55 229.56 310.55 235.34 302.23 227.01 299.75 229.49 308.08 237.81 302.3 237.81 302.3 241.31 314.05 241.31 314.05 229.56 310.55 229.56"/><polygon class="cls-1" points="49.51 49.78 49.51 55.56 41.18 47.23 38.71 49.7 47.03 58.03 41.26 58.03 41.26 61.53 53.01 61.53 53.01 49.78 49.51 49.78"/><polygon class="cls-1" points="226.43 208.09 223.95 205.61 215.62 213.94 215.62 208.16 212.12 208.16 212.12 219.91 223.87 219.91 223.87 216.41 218.1 216.41 226.43 208.09"/><polygon class="cls-1" points="355.1 68.08 352.63 65.61 344.3 73.93 344.3 68.16 340.8 68.16 340.8 79.91 352.55 79.91 352.55 76.41 346.77 76.41 355.1 68.08"/><polygon class="cls-1" points="17.77 190.79 15.29 188.31 6.97 196.64 6.97 190.86 3.47 190.86 3.47 202.61 15.22 202.61 15.22 199.11 9.44 199.11 17.77 190.79"/><polygon class="cls-1" points="445.81 284.57 443.34 282.1 435.01 290.43 435.01 284.65 431.51 284.65 431.51 296.4 443.26 296.4 443.26 292.9 437.49 292.9 445.81 284.57"/><path class="cls-1" d="M340.8,196.44a18,18,0,1,0,18,18A18,18,0,0,0,340.8,196.44Zm-6.62,30.33a6.67,6.67,0,0,1,13.25,0,14,14,0,0,1-13.25,0ZM337,213.09a3.78,3.78,0,1,1,3.78,3.78A3.79,3.79,0,0,1,337,213.09Zm13.88,11a10.71,10.71,0,0,0-4.49-5.63,7.78,7.78,0,1,0-11.21,0,10.71,10.71,0,0,0-4.49,5.63,14,14,0,1,1,20.19,0Z"/><path class="cls-1" d="M436.51,55a18,18,0,1,0,18,18A18,18,0,0,0,436.51,55Zm-6.62,30.33a6.67,6.67,0,0,1,13.25,0,14,14,0,0,1-13.25,0Zm2.84-13.68a3.78,3.78,0,1,1,3.78,3.78A3.79,3.79,0,0,1,432.73,71.6Zm13.88,11A10.71,10.71,0,0,0,442.11,77a7.78,7.78,0,1,0-11.21,0,10.71,10.71,0,0,0-4.49,5.63,14,14,0,1,1,20.19,0Z"/><path class="cls-1" d="M142.25,38.34a18,18,0,1,0,18,18A18,18,0,0,0,142.25,38.34Zm-6.62,30.33a6.67,6.67,0,0,1,13.25,0,14,14,0,0,1-13.25,0ZM138.47,55a3.78,3.78,0,1,1,3.78,3.78A3.79,3.79,0,0,1,138.47,55Zm13.88,11a10.71,10.71,0,0,0-4.49-5.63,7.78,7.78,0,1,0-11.21,0A10.71,10.71,0,0,0,132.15,66a14,14,0,1,1,20.19,0Z"/><path class="cls-1" d="M45.81,226.83a18,18,0,1,0,18,18A18,18,0,0,0,45.81,226.83Zm-6.62,30.33a6.67,6.67,0,0,1,13.25,0,14,14,0,0,1-13.25,0ZM42,243.48a3.78,3.78,0,1,1,3.78,3.78A3.79,3.79,0,0,1,42,243.48Zm13.88,11a10.71,10.71,0,0,0-4.49-5.63,7.78,7.78,0,1,0-11.21,0,10.71,10.71,0,0,0-4.49,5.63,14,14,0,1,1,20.19,0Z"/></g><g id="Layer_1-2" data-name="Layer 1"><rect class="cls-2" x="276.3" y="125.06" width="66.57" height="15.89"/><line class="cls-3" x1="254.39" y1="150.39" x2="224.39" y2="150.39"/><polyline class="cls-3" points="241.67 137.66 254.39 150.39 241.67 163.12"/><circle class="cls-4" cx="283.3" cy="133.51" r="2"/><circle class="cls-4" cx="289.3" cy="133.51" r="2"/><circle class="cls-4" cx="295.3" cy="133.51" r="2"/><path class="cls-4" d="M341.89,127.39v46h-64v-46h64m4-4h-72v54h72v-54Z"/><line class="cls-5" x1="276.3" y1="141.01" x2="343.48" y2="141.01"/><path class="cls-6" d="M133.93,158.16a7.59,7.59,0,0,0,1.88.23c1.21,0,1.68-.92,1.68-2V141.62h3.13v14.75c0,2.69-1.3,5-4.82,5a12.48,12.48,0,0,1-2.15-.36Z"/><path class="cls-6" d="M146.42,152a2,2,0,0,0,2.2,1.77c1.26,0,2.13-.6,2.15-1.56,0-.66-.28-1.24-1.77-1.66l-1.77-.49c-3.24-1-3.79-2.9-3.79-4.22,0-2.62,2.24-4.39,5.05-4.39s5,1.68,5,4.5h-3.11c0-1-.66-1.66-1.9-1.66-1.09,0-1.9.6-1.9,1.47,0,.38.15,1.09,1.58,1.49l1.75.55c3.56,1,4.07,3,4,4.43,0,2.92-2.69,4.31-5.29,4.31-3.2,0-5.33-1.9-5.33-4.54Z"/><path class="cls-6" d="M163.06,141.45a7.54,7.54,0,1,1-7.44,7.54A7.46,7.46,0,0,1,163.06,141.45Zm0,12a4.45,4.45,0,1,0-4.33-4.43A4.37,4.37,0,0,0,163.06,153.42Z"/><path class="cls-6" d="M184.13,156.3h-2.79l-5.12-8.89v8.89h-3.11V141.62H176l5,8.78v-8.78h3.13Z"/><path class="cls-4" d="M113,148c3.36,0,6.38-1.57,6.38-5.86v-6.73c0-7.19,3.65-10.79,10.44-10.79h.75v4.35h-.75c-4.29,0-5.68,1.86-5.68,6.09v8.29a6.86,6.86,0,0,1-6,7.13,6.86,6.86,0,0,1,6,7.13v8.18c0,4.23,1.39,6.09,5.68,6.09h.75v4.35h-.75c-6.79,0-10.44-3.6-10.44-10.79V158.8c0-4.29-3-5.86-6.38-5.86Z"/><path class="cls-4" d="M206.76,152.94c-3.36,0-6.38,1.57-6.38,5.86v6.61c0,7.19-3.65,10.79-10.44,10.79h-.75v-4.35h.75c4.29,0,5.68-1.86,5.68-6.09v-8.18a6.86,6.86,0,0,1,6-7.13,6.86,6.86,0,0,1-6-7.13V135c0-4.23-1.39-6.09-5.68-6.09h-.75v-4.35h.75c6.79,0,10.44,3.6,10.44,10.79v6.73c0,4.29,3,5.86,6.38,5.86Z"/></g></g></svg>