<svg xmlns="http://www.w3.org/2000/svg" width="480.93" height="300.36" viewBox="0 0 480.93 300.36"><title>feature-gif</title><path d="M338.7,137.57v38.21l19.5-18.37,20.37,19,9.34-9.63,18.71,17.69V137.57Zm46.12,18.77a6,6,0,1,1,6-6A6,6,0,0,1,384.83,156.35Z" fill="#f9f2ff"/><path d="M166.46,137.57v38.21L186,157.41l20.37,19,5.49-5.66a6,6,0,1,1,6-2l16.59,15.69V137.57Z" fill="#f9f2ff"/><path d="M236.41,135.35h-72v54h72Zm-4,4v40.91l-12-12a7.92,7.92,0,0,0,.75-3.34,8,8,0,1,0-12.84,6.37l-2.55,2.55-20.06-20.06-17.33,17.33V139.35Zm-21.18,29.08a4,4,0,1,1,6-3.49s0,.05,0,.08l-1.27-1.27Zm-42.82,8.36,17.33-17.33L203,176.69l-8.65,8.65h-25.9Zm47.5-7.38,15.94,15.94H200Z" fill="#7c5cd1"/><path d="M252.33,103.43v38.21l19.5-18.37,20.37,19,9.34-9.63,18.71,17.69V103.43Zm46.86,28.75a6,6,0,1,1,6-6A6,6,0,0,1,299.19,132.18Z" fill="#f9f2ff"/><path d="M80.46,137.57v38.21L100,157.41l20.37,19,9.34-9.63,18.71,17.69V137.57Z" fill="#f9f2ff"/><polygon points="387.02 246.94 395.67 255.58 404.31 246.94 387.02 246.94" fill="#f2f0ed"/><polygon points="235.77 19.01 244.41 27.66 253.06 19.01 235.77 19.01" fill="#f2f0ed"/><polygon points="428.71 2.84 437.36 11.48 446 2.84 428.71 2.84" fill="#f2f0ed"/><polygon points="191.77 110.63 200.41 119.27 209.06 110.63 191.77 110.63" fill="#f2f0ed"/><polygon points="25.04 18.39 33.68 27.04 42.33 18.39 25.04 18.39" fill="#f2f0ed"/><polygon points="292.45 253.42 283.81 244.78 275.16 253.42 292.45 253.42" fill="#f2f0ed"/><polygon points="65.27 146.09 56.62 137.45 47.98 146.09 65.27 146.09" fill="#f2f0ed"/><polygon points="477.19 113.39 468.54 104.74 459.9 113.39 477.19 113.39" fill="#f2f0ed"/><polygon points="349.96 80.88 341.31 72.23 332.67 80.88 349.96 80.88" fill="#f2f0ed"/><circle cx="225.21" cy="213.34" r="4" fill="#f2f0ed"/><circle cx="42.79" cy="126.94" r="4" fill="#f2f0ed"/><circle cx="123.09" cy="275.89" r="4" fill="#f2f0ed"/><circle cx="94.41" cy="207.08" r="4" fill="#f2f0ed"/><circle cx="35.06" cy="212.9" r="4" fill="#f2f0ed"/><circle cx="49.98" cy="293.56" r="4" fill="#f2f0ed"/><circle cx="325.16" cy="254.93" r="4" fill="#f2f0ed"/><circle cx="318.89" cy="185.39" r="4" fill="#f2f0ed"/><circle cx="398.69" cy="230.95" r="4" fill="#f2f0ed"/><circle cx="428.73" cy="166.98" r="4" fill="#f2f0ed"/><circle cx="472.54" cy="81.24" r="4" fill="#f2f0ed"/><circle cx="433.36" cy="31.29" r="4" fill="#f2f0ed"/><circle cx="367.47" cy="67.86" r="4" fill="#f2f0ed"/><circle cx="325.16" cy="68.82" r="4" fill="#f2f0ed"/><circle cx="394.69" cy="103.39" r="4" fill="#f2f0ed"/><circle cx="472.54" cy="266.16" r="4" fill="#f2f0ed"/><circle cx="240.41" cy="78.87" r="4" fill="#f2f0ed"/><circle cx="261.73" cy="4.83" r="4" fill="#f2f0ed"/><circle cx="147.67" cy="59.27" r="4" fill="#f2f0ed"/><circle cx="97.01" cy="36.12" r="4" fill="#f2f0ed"/><circle cx="55.68" cy="4.2" r="4" fill="#f2f0ed"/><path d="M202.08,225l-8.84,8.84L184.4,225h17.67m8.45-3.5H176l17.29,17.29,17.29-17.29Z" fill="#f2f0ed"/><path d="M29.09,282l-8.84,8.84L11.41,282H29.09m8.45-3.5H3l17.29,17.29,17.29-17.29Z" fill="#f2f0ed"/><path d="M368,4.4l-8.84,8.84L350.35,4.4H368M376.47.9H341.9l17.29,17.29L376.47.9Z" fill="#f2f0ed"/><path d="M431.82,120,423,128.87,414.15,120h17.67m8.45-3.5H405.7L423,133.82l17.29-17.29Z" fill="#f2f0ed"/><path d="M79.63,113.16,70.79,122,62,113.16H79.63m8.45-3.5H53.5l17.29,17.29,17.29-17.29Z" fill="#f2f0ed"/><path d="M371.12,265.56l-8.84,8.84-8.84-8.84h17.68m8.45-3.5H345l17.29,17.29,17.29-17.29Z" fill="#f2f0ed"/><path d="M246.5,283.1l8.84,8.84H237.66l8.84-8.84m0-4.95-17.29,17.29h34.57L246.5,278.15Z" fill="#f2f0ed"/><path d="M80.46,7.46l8.84,8.84H71.62l8.84-8.84m0-4.95L63.17,19.8H97.74L80.46,2.51Z" fill="#f2f0ed"/><path d="M463.64,285.87l8.84,8.84H454.8l8.84-8.84m0-4.95-17.29,17.29h34.57l-17.29-17.29Z" fill="#f2f0ed"/><path d="M286.41,10.14,295.25,19H277.58l8.84-8.84m0-4.95L269.13,22.47H303.7L286.41,5.19Z" fill="#f2f0ed"/><path d="M119.09,216.35l8.84,8.84H110.25l8.84-8.84m0-4.95L101.8,228.68h34.57L119.09,211.4Z" fill="#f2f0ed"/><path d="M185.83,90.29A1.69,1.69,0,1,1,184.14,92a1.69,1.69,0,0,1,1.69-1.69m0-3.5A5.19,5.19,0,1,0,191,92a5.19,5.19,0,0,0-5.19-5.19Z" fill="#f2f0ed"/><path d="M186,4.4a1.69,1.69,0,1,1-1.69,1.69A1.69,1.69,0,0,1,186,4.4m0-3.5a5.19,5.19,0,1,0,5.19,5.19A5.19,5.19,0,0,0,186,.9Z" fill="#f2f0ed"/><path d="M6.58,28.11a1.69,1.69,0,1,1-1.69,1.69,1.69,1.69,0,0,1,1.69-1.69m0-3.5a5.19,5.19,0,1,0,5.19,5.19,5.19,5.19,0,0,0-5.19-5.19Z" fill="#f2f0ed"/><path d="M79.86,87.55a1.69,1.69,0,1,1-1.69,1.69,1.69,1.69,0,0,1,1.69-1.69m0-3.5A5.19,5.19,0,1,0,85,89.24a5.19,5.19,0,0,0-5.19-5.19Z" fill="#f2f0ed"/><path d="M5.19,168.7a1.69,1.69,0,1,1-1.69,1.69,1.69,1.69,0,0,1,1.69-1.69m0-3.5a5.19,5.19,0,1,0,5.19,5.19,5.19,5.19,0,0,0-5.19-5.19Z" fill="#f2f0ed"/><path d="M200.07,254.76a1.69,1.69,0,1,1-1.69,1.69,1.69,1.69,0,0,1,1.69-1.69m0-3.5a5.19,5.19,0,1,0,5.19,5.19,5.19,5.19,0,0,0-5.19-5.19Z" fill="#f2f0ed"/><path d="M367.47,246.55a1.69,1.69,0,1,1-1.69,1.69,1.69,1.69,0,0,1,1.69-1.69m0-3.5a5.19,5.19,0,1,0,5.19,5.19,5.19,5.19,0,0,0-5.19-5.19Z" fill="#f2f0ed"/><path d="M257.73,195.79a1.69,1.69,0,1,1-1.69,1.69,1.69,1.69,0,0,1,1.69-1.69m0-3.5a5.19,5.19,0,1,0,5.19,5.19,5.19,5.19,0,0,0-5.19-5.19Z" fill="#f2f0ed"/><path d="M461.85,129.2a1.69,1.69,0,1,1-1.69,1.69,1.69,1.69,0,0,1,1.69-1.69m0-3.5a5.19,5.19,0,1,0,5.19,5.19,5.19,5.19,0,0,0-5.19-5.19Z" fill="#f2f0ed"/><path d="M416.57,15.77a1.69,1.69,0,1,1-1.69,1.69,1.69,1.69,0,0,1,1.69-1.69m0-3.5a5.19,5.19,0,1,0,5.19,5.19,5.19,5.19,0,0,0-5.19-5.19Z" fill="#f2f0ed"/><path d="M248.54,47.21a1.69,1.69,0,1,1-1.69,1.69,1.69,1.69,0,0,1,1.69-1.69m0-3.5a5.19,5.19,0,1,0,5.19,5.19,5.19,5.19,0,0,0-5.19-5.19Z" fill="#f2f0ed"/><path d="M380.35,114.76a1.69,1.69,0,1,1-1.69,1.69,1.69,1.69,0,0,1,1.69-1.69m0-3.5a5.19,5.19,0,1,0,5.19,5.19,5.19,5.19,0,0,0-5.19-5.19Z" fill="#f2f0ed"/><path d="M473.73,199.79a1.69,1.69,0,1,1-1.69,1.69,1.69,1.69,0,0,1,1.69-1.69m0-3.5a5.19,5.19,0,1,0,5.19,5.19,5.19,5.19,0,0,0-5.19-5.19Z" fill="#f2f0ed"/><path d="M410.73,269A1.69,1.69,0,1,1,409,270.7a1.69,1.69,0,0,1,1.69-1.69m0-3.5a5.19,5.19,0,1,0,5.19,5.19,5.19,5.19,0,0,0-5.19-5.19Z" fill="#f2f0ed"/><path d="M80.39,232.58a1.69,1.69,0,1,1-1.69,1.69,1.69,1.69,0,0,1,1.69-1.69m0-3.5a5.19,5.19,0,1,0,5.19,5.19,5.19,5.19,0,0,0-5.19-5.19Z" fill="#f2f0ed"/><path d="M20.91,259.58a1.69,1.69,0,1,1-1.69,1.69,1.69,1.69,0,0,1,1.69-1.69m0-3.5a5.19,5.19,0,1,0,5.19,5.19,5.19,5.19,0,0,0-5.19-5.19Z" fill="#f2f0ed"/><path d="M206.64,203.67a1.69,1.69,0,1,1-1.69,1.69,1.69,1.69,0,0,1,1.69-1.69m0-3.5a5.19,5.19,0,1,0,5.19,5.19,5.19,5.19,0,0,0-5.19-5.19Z" fill="#f2f0ed"/><path d="M214.84,82.9A6.87,6.87,0,1,1,208,89.77a6.88,6.88,0,0,1,6.87-6.87m0-3.5a10.37,10.37,0,1,0,10.37,10.37A10.37,10.37,0,0,0,214.84,79.4Z" fill="#f2f0ed"/><path d="M25.25,42.5a6.87,6.87,0,1,1-6.87,6.87,6.88,6.88,0,0,1,6.87-6.87m0-3.5A10.37,10.37,0,1,0,35.62,49.38,10.37,10.37,0,0,0,25.25,39Z" fill="#f2f0ed"/><path d="M26.94,145a6.87,6.87,0,1,1-6.87,6.87A6.88,6.88,0,0,1,26.94,145m0-3.5a10.37,10.37,0,1,0,10.37,10.37,10.37,10.37,0,0,0-10.37-10.37Z" fill="#f2f0ed"/><path d="M225.21,238.53a6.87,6.87,0,1,1-6.87,6.87,6.88,6.88,0,0,1,6.87-6.87m0-3.5a10.37,10.37,0,1,0,10.37,10.37A10.37,10.37,0,0,0,225.21,235Z" fill="#f2f0ed"/><path d="M62.61,257.72a6.87,6.87,0,1,1-6.87,6.87,6.88,6.88,0,0,1,6.87-6.87m0-3.5A10.37,10.37,0,1,0,73,264.59a10.37,10.37,0,0,0-10.37-10.37Z" fill="#f2f0ed"/><path d="M372.66,209.32a6.87,6.87,0,1,1-6.87,6.87,6.88,6.88,0,0,1,6.87-6.87m0-3.5A10.37,10.37,0,1,0,383,216.2a10.37,10.37,0,0,0-10.37-10.37Z" fill="#f2f0ed"/><path d="M439.1,260.53a6.87,6.87,0,1,1-6.87,6.87,6.88,6.88,0,0,1,6.87-6.87m0-3.5a10.37,10.37,0,1,0,10.37,10.37A10.37,10.37,0,0,0,439.1,257Z" fill="#f2f0ed"/><path d="M393.4,59.31a6.87,6.87,0,1,1-6.87,6.87,6.88,6.88,0,0,1,6.87-6.87m0-3.5a10.37,10.37,0,1,0,10.37,10.37A10.37,10.37,0,0,0,393.4,55.81Z" fill="#f2f0ed"/><path d="M311.28,32.45a6.87,6.87,0,1,1-6.87,6.87,6.88,6.88,0,0,1,6.87-6.87m0-3.5a10.37,10.37,0,1,0,10.37,10.37A10.37,10.37,0,0,0,311.28,29Z" fill="#f2f0ed"/><path d="M127.09,32.45a6.87,6.87,0,1,1-6.87,6.87,6.88,6.88,0,0,1,6.87-6.87m0-3.5a10.37,10.37,0,1,0,10.37,10.37A10.37,10.37,0,0,0,127.09,29Z" fill="#f2f0ed"/><path d="M179.47,261.89v13.74H158.81V261.89h20.66m3.5-3.5H155.31v20.74H183V258.39Z" fill="#f2f0ed"/><path d="M83.31,51.58V65.32H62.65V51.58H83.31m3.5-3.5H59.15V68.82H86.81V48.08Z" fill="#f2f0ed"/><path d="M474,228.89v13.74H453.31V228.89H474m3.5-3.5H449.81v20.74h27.66V225.39Z" fill="#f2f0ed"/><path d="M219.41,22.08V35.83H198.76V22.08h20.66m3.5-3.5H195.26V39.33h27.66V18.58Z" fill="#f2f0ed"/><path d="M161.91,87.81v20.66H148.17V87.81h13.74m3.5-3.5H144.67V112h20.74V84.31Z" fill="#f2f0ed"/><path d="M306.06,64.34V85H292.32V64.34h13.74m3.5-3.5H288.82V88.5h20.74V60.84Z" fill="#f2f0ed"/><path d="M319.39,215.6v20.66H305.65V215.6h13.74m3.5-3.5H302.15v27.66h20.74V212.1Z" fill="#f2f0ed"/><path d="M65.33,172.13v20.66H51.59V172.13H65.33m3.5-3.5H48.09v27.66H68.83V168.63Z" fill="#f2f0ed"/><path d="M429.86,76V96.64H416.11V76h13.74m3.5-3.5H412.61v27.66h20.74V72.48Z" fill="#f2f0ed"/><rect x="194.54" y="287.51" width="6.91" height="10.37" fill="#f2f0ed"/><rect x="225.75" width="6.91" height="10.37" fill="#f2f0ed"/><rect x="332.2" y="13" width="6.91" height="10.37" fill="#f2f0ed"/><rect x="142.6" y="13.83" width="6.91" height="10.37" fill="#f2f0ed"/><rect x="440.91" y="138.24" width="6.91" height="10.37" fill="#f2f0ed"/><rect x="343.31" y="205.1" width="10.37" height="6.91" fill="#f2f0ed"/><rect x="377.85" y="26.34" width="10.37" height="6.91" fill="#f2f0ed"/><rect x="42.79" y="75.41" width="10.37" height="6.91" fill="#f2f0ed"/><rect x="415.91" y="283.71" width="10.37" height="6.91" fill="#f2f0ed"/><rect x="156.66" y="234.26" width="10.37" height="6.91" fill="#f2f0ed"/><rect x="62.61" y="212.74" width="10.37" height="6.91" fill="#f2f0ed"/><rect x="98.14" y="287.17" width="10.37" height="6.91" fill="#f2f0ed"/><rect x="7.66" y="2.63" width="10.37" height="6.91" fill="#f2f0ed"/><polygon points="270.25 229.2 263.97 229.2 268.41 224.76 265.93 222.28 261.5 226.72 261.5 220.45 258 220.45 258 226.72 253.56 222.28 251.08 224.76 255.52 229.2 249.25 229.2 249.25 232.7 255.52 232.7 251.08 237.13 253.56 239.61 258 235.17 258 241.45 261.5 241.45 261.5 235.17 265.93 239.61 268.41 237.13 263.97 232.7 270.25 232.7 270.25 229.2" fill="#f2f0ed"/><polygon points="108.92 258.81 102.64 258.81 107.08 254.37 104.6 251.89 100.17 256.33 100.17 250.06 96.67 250.06 96.67 256.33 92.23 251.89 89.75 254.37 94.19 258.81 87.92 258.81 87.92 262.31 94.19 262.31 89.75 266.74 92.23 269.22 96.67 264.78 96.67 271.06 100.17 271.06 100.17 264.78 104.6 269.22 107.08 266.74 102.64 262.31 108.92 262.31 108.92 258.81" fill="#f2f0ed"/><polygon points="351.81 286.04 345.54 286.04 349.97 281.6 347.5 279.13 343.06 283.57 343.06 277.29 339.56 277.29 339.56 283.57 335.13 279.13 332.65 281.6 337.09 286.04 330.81 286.04 330.81 289.54 337.09 289.54 332.65 293.98 335.13 296.45 339.56 292.02 339.56 298.29 343.06 298.29 343.06 292.02 347.5 296.45 349.97 293.98 345.54 289.54 351.81 289.54 351.81 286.04" fill="#f2f0ed"/><polygon points="475.26 160.59 468.99 160.59 473.43 156.15 470.95 153.68 466.51 158.12 466.51 151.84 463.01 151.84 463.01 158.12 458.58 153.68 456.1 156.15 460.54 160.59 454.26 160.59 454.26 164.09 460.54 164.09 456.1 168.53 458.58 171 463.01 166.56 463.01 172.84 466.51 172.84 466.51 166.56 470.95 171 473.43 168.53 468.99 164.09 475.26 164.09 475.26 160.59" fill="#f2f0ed"/><polygon points="22 119.88 15.72 119.88 20.16 115.44 17.69 112.97 13.25 117.4 13.25 111.13 9.75 111.13 9.75 117.4 5.31 112.97 2.84 115.44 7.28 119.88 1 119.88 1 123.38 7.28 123.38 2.84 127.82 5.31 130.29 9.75 125.85 9.75 132.13 13.25 132.13 13.25 125.85 17.69 130.29 20.16 127.82 15.72 123.38 22 123.38 22 119.88" fill="#f2f0ed"/><polygon points="356.82 106.29 350.55 106.29 354.98 101.85 352.51 99.37 348.07 103.81 348.07 97.54 344.57 97.54 344.57 103.81 340.13 99.37 337.66 101.85 342.1 106.29 335.82 106.29 335.82 109.79 342.1 109.79 337.66 114.22 340.13 116.7 344.57 112.26 344.57 118.54 348.07 118.54 348.07 112.26 352.51 116.7 354.98 114.22 350.55 109.79 356.82 109.79 356.82 106.29" fill="#f2f0ed"/><polygon points="475.26 13.59 468.99 13.59 473.43 9.15 470.95 6.67 466.51 11.11 466.51 4.83 463.01 4.83 463.01 11.11 458.58 6.67 456.1 9.15 460.54 13.59 454.26 13.59 454.26 17.09 460.54 17.09 456.1 21.52 458.58 24 463.01 19.56 463.01 25.84 466.51 25.84 466.51 19.56 470.95 24 473.43 21.52 468.99 17.09 475.26 17.09 475.26 13.59" fill="#f2f0ed"/><polygon points="177.54 31.41 171.26 31.41 175.7 26.98 173.22 24.5 168.79 28.94 168.79 22.66 165.29 22.66 165.29 28.94 160.85 24.5 158.38 26.98 162.81 31.41 156.54 31.41 156.54 34.91 162.81 34.91 158.38 39.35 160.85 41.83 165.29 37.39 165.29 43.66 168.79 43.66 168.79 37.39 173.22 41.83 175.7 39.35 171.26 34.91 177.54 34.91 177.54 31.41" fill="#f2f0ed"/><rect x="218.3" y="59.2" width="13.83" height="3.5" fill="#f2f0ed"/><rect x="223.46" y="54.03" width="3.5" height="13.83" fill="#f2f0ed"/><polygon points="42.33 98.39 37.16 98.39 37.16 93.23 33.66 93.23 33.66 98.39 28.5 98.39 28.5 101.89 33.66 101.89 33.66 107.06 37.16 107.06 37.16 101.89 42.33 101.89 42.33 98.39" fill="#f2f0ed"/><polygon points="351.92 237.84 346.75 237.84 346.75 232.68 343.25 232.68 343.25 237.84 338.08 237.84 338.08 241.34 343.25 241.34 343.25 246.5 346.75 246.5 346.75 241.34 351.92 241.34 351.92 237.84" fill="#f2f0ed"/><rect x="129.55" y="249.51" width="13.83" height="3.5" fill="#f2f0ed"/><rect x="134.72" y="244.34" width="3.5" height="13.83" fill="#f2f0ed"/><polygon points="458.2 95.64 453.04 95.64 453.04 90.47 449.54 90.47 449.54 95.64 444.37 95.64 444.37 99.14 449.54 99.14 449.54 104.3 453.04 104.3 453.04 99.14 458.2 99.14 458.2 95.64" fill="#f2f0ed"/><polygon points="321.81 7.79 316.64 7.79 316.64 2.63 313.14 2.63 313.14 7.79 307.98 7.79 307.98 11.29 313.14 11.29 313.14 16.45 316.64 16.45 316.64 11.29 321.81 11.29 321.81 7.79" fill="#f2f0ed"/><polygon points="433.67 235.4 428.5 235.4 428.5 230.24 425 230.24 425 235.4 419.83 235.4 419.83 238.9 425 238.9 425 244.07 428.5 244.07 428.5 238.9 433.67 238.9 433.67 235.4" fill="#f2f0ed"/><polygon points="226.93 272.33 224.46 269.86 220.81 273.51 217.15 269.86 214.68 272.33 218.33 275.99 214.68 279.64 217.15 282.11 220.81 278.46 224.46 282.11 226.93 279.64 223.28 275.99 226.93 272.33" fill="#f2f0ed"/><polygon points="129.22 111.3 126.74 108.82 123.09 112.47 119.44 108.82 116.96 111.3 120.61 114.95 116.96 118.6 119.44 121.08 123.09 117.42 126.74 121.08 129.22 118.6 125.56 114.95 129.22 111.3" fill="#f2f0ed"/><polygon points="34.62 184.6 32.15 182.13 28.5 185.78 24.84 182.13 22.37 184.6 26.02 188.25 22.37 191.91 24.84 194.38 28.5 190.73 32.15 194.38 34.62 191.91 30.97 188.25 34.62 184.6" fill="#f2f0ed"/><polygon points="84.72 281.27 82.25 278.79 78.59 282.44 74.94 278.79 72.47 281.27 76.12 284.92 72.47 288.57 74.94 291.05 78.59 287.39 82.25 291.05 84.72 288.57 81.07 284.92 84.72 281.27" fill="#f2f0ed"/><polygon points="57.81 31.03 55.34 28.56 51.68 32.21 48.03 28.56 45.56 31.03 49.21 34.68 45.56 38.34 48.03 40.81 51.68 37.16 55.34 40.81 57.81 38.34 54.16 34.68 57.81 31.03" fill="#f2f0ed"/><polygon points="451.98 180.28 449.51 177.8 445.86 181.46 442.2 177.8 439.73 180.28 443.38 183.93 439.73 187.58 442.2 190.06 445.86 186.41 449.51 190.06 451.98 187.58 448.33 183.93 451.98 180.28" fill="#f2f0ed"/><polygon points="380.06 91.3 377.59 88.83 373.94 92.48 370.28 88.83 367.81 91.3 371.46 94.95 367.81 98.61 370.28 101.08 373.94 97.43 377.59 101.08 380.06 98.61 376.41 94.95 380.06 91.3" fill="#f2f0ed"/><polygon points="284.03 39.01 281.56 36.53 277.91 40.19 274.25 36.53 271.78 39.01 275.43 42.66 271.78 46.31 274.25 48.79 277.91 45.14 281.56 48.79 284.03 46.31 280.38 42.66 284.03 39.01" fill="#f2f0ed"/><polygon points="397.71 5.89 395.24 3.41 391.59 7.07 387.94 3.41 385.46 5.89 389.11 9.54 385.46 13.19 387.94 15.67 391.59 12.02 395.24 15.67 397.71 13.19 394.06 9.54 397.71 5.89" fill="#f2f0ed"/><path d="M194.64,56l-4.14,4.14-8.21-8.21L164.91,69.27h43Zm-21.27,9.79,8.92-8.91L188,62.59l-3.18,3.18Zm21.27-4.85,4.85,4.85h-9.7Z" fill="#f2f0ed"/><path d="M437.81,200.85,433.67,205l-8.21-8.21-17.37,17.36h43Zm-21.27,9.79,8.92-8.91,5.74,5.73L428,210.64Zm21.27-4.85,4.85,4.85H433Z" fill="#f2f0ed"/><path d="M358.4,41.12l-4.14,4.14L346,37.06,328.67,54.42h43Zm-21.27,9.79L346,42l5.74,5.73-3.18,3.18Zm21.27-4.85,4.85,4.85h-9.7Z" fill="#f2f0ed"/><path d="M150.31,286.15l-4.14,4.14L138,282.09l-17.37,17.36h43ZM129,295.95,138,287l5.74,5.73-3.18,3.18Zm21.27-4.85,4.85,4.85h-9.7Z" fill="#f2f0ed"/><path d="M38.58,229.29l-4.14,4.14-8.21-8.21L8.85,242.58h43ZM17.3,239.08l8.92-8.92L32,235.9l-3.18,3.18Zm21.27-4.85,4.85,4.85h-9.7Z" fill="#f2f0ed"/><polygon points="381.59 279.76 381.59 283.26 387.36 283.26 379.04 291.59 381.51 294.06 389.84 285.74 389.84 291.51 393.34 291.51 393.34 279.76 381.59 279.76" fill="#f2f0ed"/><polygon points="113.37 1.72 113.37 5.22 119.15 5.22 110.82 13.55 113.3 16.02 121.62 7.7 121.62 13.47 125.12 13.47 125.12 1.72 113.37 1.72" fill="#f2f0ed"/><polygon points="276.02 73.49 267.7 65.17 273.47 65.17 273.47 61.67 261.72 61.67 261.72 73.42 265.22 73.42 265.22 67.64 273.55 75.97 276.02 73.49" fill="#f2f0ed"/><polygon points="15.09 212.98 6.76 204.65 12.54 204.65 12.54 201.15 0.79 201.15 0.79 212.9 4.29 212.9 4.29 207.12 12.62 215.45 15.09 212.98" fill="#f2f0ed"/><polygon points="300.56 181.7 286.42 167.56 272.27 181.7 275.1 184.53 284.42 175.21 284.42 200.39 288.42 200.39 288.42 175.21 297.73 184.53 300.56 181.7" fill="#ff645c"/><polygon points="259.98 257.4 259.98 263.17 251.65 254.85 249.18 257.32 257.5 265.65 251.73 265.65 251.73 269.15 263.48 269.15 263.48 257.4 259.98 257.4" fill="#f2f0ed"/><polygon points="419.82 41.1 419.82 46.87 411.5 38.55 409.02 41.02 417.35 49.35 411.57 49.35 411.57 52.85 423.32 52.85 423.32 41.1 419.82 41.1" fill="#f2f0ed"/><rect x="149.33" y="209.65" width="16" height="3.5" transform="translate(-103.4 173.16) rotate(-45)" fill="#f2f0ed"/><polygon points="161.67 218.8 149.92 218.8 149.92 207.05 153.42 207.05 153.42 215.3 161.67 215.3 161.67 218.8" fill="#f2f0ed"/><polygon points="27.8 74.98 25.33 72.5 17 80.83 17 75.05 13.5 75.05 13.5 86.8 25.25 86.8 25.25 83.3 19.48 83.3 27.8 74.98" fill="#f2f0ed"/><path d="M296.52,264.36a18,18,0,1,0,18,18A18,18,0,0,0,296.52,264.36Zm-6.63,30.33a6.67,6.67,0,0,1,13.25,0,14,14,0,0,1-13.25,0ZM292.74,281a3.78,3.78,0,1,1,3.78,3.78A3.79,3.79,0,0,1,292.74,281Zm13.88,11a10.71,10.71,0,0,0-4.49-5.63,7.78,7.78,0,1,0-11.21,0,10.71,10.71,0,0,0-4.49,5.63,14,14,0,1,1,20.19,0Z" fill="#f2f0ed"/><path d="M455.26,35.07a18,18,0,1,0,18,18A18,18,0,0,0,455.26,35.07ZM448.64,65.4a6.67,6.67,0,0,1,13.25,0,14,14,0,0,1-13.25,0Zm2.84-13.68a3.78,3.78,0,1,1,3.78,3.78A3.79,3.79,0,0,1,451.48,51.72Zm13.88,11a10.71,10.71,0,0,0-4.49-5.63,7.78,7.78,0,1,0-11.21,0,10.71,10.71,0,0,0-4.49,5.63,14,14,0,1,1,20.19,0Z" fill="#f2f0ed"/><path d="M114.41,60.87a18,18,0,1,0,18,18A18,18,0,0,0,114.41,60.87Zm-6.63,30.33a6.67,6.67,0,0,1,13.25,0,14,14,0,0,1-13.25,0Zm2.84-13.68a3.78,3.78,0,1,1,3.78,3.78A3.79,3.79,0,0,1,110.63,77.52Zm13.88,11A10.71,10.71,0,0,0,120,82.91a7.78,7.78,0,1,0-11.21,0,10.71,10.71,0,0,0-4.49,5.63,14,14,0,1,1,20.19,0Z" fill="#f2f0ed"/><path d="M322.41,101.34h-72v54h72Zm-4,4v40.91l-14-14a8,8,0,1,0-6.77,1.79l-5.83,5.83L271.74,119.8l-17.33,17.33V105.34Zm-19.23,24.84a4,4,0,1,1,4-4A4,4,0,0,1,299.19,130.18Zm-44.77,12.6,17.33-17.33L289,142.69l-8.65,8.65h-25.9Zm47.5-7.38,15.94,15.94H286Z" fill="#7c5cd1"/><path d="M150.41,135.34h-72v54h72Zm-4,4v40.91l-16.5-16.5L119.8,173.86,99.74,153.8,82.41,171.13V139.34Zm-64,37.44,17.33-17.33L117,176.69l-8.65,8.65H82.41Zm47.5-7.38,15.94,15.94H114Z" fill="#7c5cd1"/><path d="M404.41,139.35v46h-64v-46h64m4-4h-72v54h72v-54Z" fill="#7c5cd1"/><path d="M384.83,158.34a8,8,0,1,0-8-8A8,8,0,0,0,384.83,158.34Zm0-12a4,4,0,1,1-4,4A4,4,0,0,1,384.83,146.34Z" fill="#7c5cd1"/><path d="M408.41,135.35h-72v54h72Zm-68,4h64v40.8l-16.51-16.38L377.8,173.87l-20.06-20.06-17.33,17.3Zm0,37.42,17.32-17.3L375,176.69l-8.65,8.65h-25.9Zm47.5-7.36L404,185.35H372Z" fill="#7c5cd1"/></svg>