<svg xmlns="http://www.w3.org/2000/svg" viewBox="0 0 476.33 297.16"><defs><style>.cls-1{fill:#f2f0ed;}.cls-2,.cls-5{fill:none;stroke-miterlimit:10;stroke-width:4px;}.cls-2{stroke:#ff645c;}.cls-3{fill:#fff;}.cls-4{fill:#c99ef2;}.cls-5{stroke:#323233;}.cls-6{fill:#323233;}</style></defs><title>Asset 4</title><g id="Layer_2" data-name="Layer 2"><g id="Layer_1-2" data-name="Layer 1"><polygon class="cls-1" points="399.31 63.22 390.67 54.57 382.02 63.22 399.31 63.22"/><polygon class="cls-1" points="76.28 294.23 67.64 285.59 58.99 294.23 76.28 294.23"/><polygon class="cls-1" points="89.27 75.13 80.63 66.49 71.98 75.13 89.27 75.13"/><polygon class="cls-1" points="220.05 70.81 211.41 62.16 202.76 70.81 220.05 70.81"/><polygon class="cls-1" points="276.45 209.19 267.8 200.55 259.16 209.19 276.45 209.19"/><polygon class="cls-1" points="428.64 291.36 420 282.72 411.36 291.36 428.64 291.36"/><polygon class="cls-1" points="375.52 236.28 384.17 244.93 392.81 236.28 375.52 236.28"/><polygon class="cls-1" points="112.23 36.13 120.87 44.78 129.51 36.13 112.23 36.13"/><polygon class="cls-1" points="167.04 246.89 175.69 255.54 184.33 246.89 167.04 246.89"/><polygon class="cls-1" points="88.36 158.96 97 167.6 105.65 158.96 88.36 158.96"/><polygon class="cls-1" points="4.6 219.4 13.24 228.05 21.89 219.4 4.6 219.4"/><polygon class="cls-1" points="454.9 32.48 463.54 41.12 472.19 32.48 454.9 32.48"/><circle class="cls-1" cx="406.08" cy="123.51" r="4"/><circle class="cls-1" cx="411.35" cy="34.95" r="4"/><circle class="cls-1" cx="249.51" cy="223.72" r="4"/><circle class="cls-1" cx="271.8" cy="41.12" r="4"/><circle class="cls-1" cx="222.32" cy="46.69" r="4"/><circle class="cls-1" cx="466.71" cy="9.6" r="4"/><circle class="cls-1" cx="471.14" cy="195.27" r="4"/><circle class="cls-1" cx="363.83" cy="254.35" r="4"/><circle class="cls-1" cx="184.33" cy="291.36" r="4"/><circle class="cls-1" cx="110.83" cy="243.85" r="4"/><circle class="cls-1" cx="113.3" cy="17.13" r="4"/><circle class="cls-1" cx="71.64" cy="147.95" r="4"/><circle class="cls-1" cx="34.65" cy="83.03" r="4"/><circle class="cls-1" cx="168.66" cy="126.24" r="4"/><circle class="cls-1" cx="67.64" cy="212.21" r="4"/><circle class="cls-1" cx="4" cy="273.78" r="4"/><circle class="cls-1" cx="360.87" cy="167.28" r="4"/><path class="cls-1" d="M440.62,104.69l-8.84,8.84-8.84-8.84h17.67m8.45-3.5H414.5l17.29,17.29,17.29-17.29Z"/><path class="cls-1" d="M151.36,231.14,142.52,240l-8.84-8.84h17.68m8.45-3.5H125.23l17.29,17.29,17.29-17.29Z"/><path class="cls-1" d="M76.48,94.65l-8.84,8.84L58.8,94.65H76.48m8.45-3.5H50.35l17.29,17.29L84.93,91.15Z"/><path class="cls-1" d="M323.22,233.69l8.84,8.84H314.38l8.84-8.84m0-4.95L305.93,246h34.57l-17.29-17.29Z"/><path class="cls-1" d="M21.89,243.2,30.72,252H13l8.84-8.84m0-4.95L4.6,255.54H39.17L21.89,238.25Z"/><path class="cls-1" d="M252.17,83.34,261,92.18H243.34l8.84-8.84m0-4.95L234.89,95.68h34.57L252.17,78.39Z"/><path class="cls-1" d="M378,9.9l8.84,8.84H369.12L378,9.9M378,5,360.68,22.24h34.57L378,5Z"/><path class="cls-1" d="M379,178.57a1.69,1.69,0,1,1-1.69,1.69,1.69,1.69,0,0,1,1.69-1.69m0-3.5a5.19,5.19,0,1,0,5.19,5.19,5.19,5.19,0,0,0-5.19-5.19Z"/><path class="cls-1" d="M420,229.41a1.69,1.69,0,1,1-1.69,1.69,1.69,1.69,0,0,1,1.69-1.69m0-3.5a5.19,5.19,0,1,0,5.19,5.19,5.19,5.19,0,0,0-5.19-5.19Z"/><path class="cls-1" d="M295.9,257.85a1.69,1.69,0,1,1-1.69,1.69,1.69,1.69,0,0,1,1.69-1.69m0-3.5a5.19,5.19,0,1,0,5.19,5.19,5.19,5.19,0,0,0-5.19-5.19Z"/><path class="cls-1" d="M186.5,221a1.69,1.69,0,1,1-1.69,1.69A1.69,1.69,0,0,1,186.5,221m0-3.5a5.19,5.19,0,1,0,5.19,5.19,5.19,5.19,0,0,0-5.19-5.19Z"/><path class="cls-1" d="M126.69,154.25a1.69,1.69,0,1,1-1.69,1.69,1.69,1.69,0,0,1,1.69-1.69m0-3.5a5.19,5.19,0,1,0,5.19,5.19,5.19,5.19,0,0,0-5.19-5.19Z"/><path class="cls-1" d="M140.77,63.94a1.69,1.69,0,1,1-1.69,1.69,1.69,1.69,0,0,1,1.69-1.69m0-3.5A5.19,5.19,0,1,0,146,65.62a5.19,5.19,0,0,0-5.19-5.19Z"/><path class="cls-1" d="M202.53,9.94a1.69,1.69,0,1,1-1.69,1.69,1.69,1.69,0,0,1,1.69-1.69m0-3.5a5.19,5.19,0,1,0,5.19,5.19,5.19,5.19,0,0,0-5.19-5.19Z"/><path class="cls-1" d="M27.07,40.3A1.69,1.69,0,1,1,25.39,42a1.69,1.69,0,0,1,1.69-1.69m0-3.5A5.19,5.19,0,1,0,32.26,42a5.19,5.19,0,0,0-5.19-5.19Z"/><path class="cls-1" d="M57.84,257.74a1.69,1.69,0,1,1-1.69,1.69,1.69,1.69,0,0,1,1.69-1.69m0-3.5A5.19,5.19,0,1,0,63,259.43a5.19,5.19,0,0,0-5.19-5.19Z"/><path class="cls-1" d="M49.67,131.45A1.69,1.69,0,1,1,48,133.14a1.69,1.69,0,0,1,1.69-1.69m0-3.5a5.19,5.19,0,1,0,5.19,5.19A5.19,5.19,0,0,0,49.67,128Z"/><path class="cls-1" d="M464.38,85.35A1.69,1.69,0,1,1,462.7,87a1.69,1.69,0,0,1,1.69-1.69m0-3.5A5.19,5.19,0,1,0,469.57,87a5.19,5.19,0,0,0-5.19-5.19Z"/><path class="cls-1" d="M471.14,151.14a1.69,1.69,0,1,1-1.69,1.69,1.69,1.69,0,0,1,1.69-1.69m0-3.5a5.19,5.19,0,1,0,5.19,5.19,5.19,5.19,0,0,0-5.19-5.19Z"/><path class="cls-1" d="M312.09,162.68a1.69,1.69,0,1,1-1.69,1.69,1.69,1.69,0,0,1,1.69-1.69m0-3.5a5.19,5.19,0,1,0,5.19,5.19,5.19,5.19,0,0,0-5.19-5.19Z"/><path class="cls-1" d="M343.76,80.16a1.69,1.69,0,1,1-1.69,1.69,1.69,1.69,0,0,1,1.69-1.69m0-3.5a5.19,5.19,0,1,0,5.19,5.19,5.19,5.19,0,0,0-5.19-5.19Z"/><path class="cls-1" d="M308.91,9.94a1.69,1.69,0,1,1-1.69,1.69,1.69,1.69,0,0,1,1.69-1.69m0-3.5a5.19,5.19,0,1,0,5.19,5.19,5.19,5.19,0,0,0-5.19-5.19Z"/><path class="cls-1" d="M249.51,29.26a1.69,1.69,0,1,1-1.69,1.69,1.69,1.69,0,0,1,1.69-1.69m0-3.5a5.19,5.19,0,1,0,5.19,5.19,5.19,5.19,0,0,0-5.19-5.19Z"/><path class="cls-1" d="M216.14,85.88a1.69,1.69,0,1,1-1.69,1.69,1.69,1.69,0,0,1,1.69-1.69m0-3.5a5.19,5.19,0,1,0,5.19,5.19,5.19,5.19,0,0,0-5.19-5.19Z"/><path class="cls-1" d="M414.5,162.23a6.87,6.87,0,1,1-6.87,6.87,6.88,6.88,0,0,1,6.87-6.87m0-3.5a10.37,10.37,0,1,0,10.37,10.37,10.37,10.37,0,0,0-10.37-10.37Z"/><path class="cls-1" d="M356.87,41.84A6.87,6.87,0,1,1,350,48.71a6.88,6.88,0,0,1,6.87-6.87m0-3.5a10.37,10.37,0,1,0,10.37,10.37,10.37,10.37,0,0,0-10.37-10.37Z"/><path class="cls-1" d="M399.31,259.68a6.87,6.87,0,1,1-6.87,6.87,6.88,6.88,0,0,1,6.87-6.87m0-3.5a10.37,10.37,0,1,0,10.37,10.37,10.37,10.37,0,0,0-10.37-10.37Z"/><path class="cls-1" d="M159.81,269.44a6.87,6.87,0,1,1-6.87,6.87,6.88,6.88,0,0,1,6.87-6.87m0-3.5a10.37,10.37,0,1,0,10.37,10.37,10.37,10.37,0,0,0-10.37-10.37Z"/><path class="cls-1" d="M70.63,168.19a6.87,6.87,0,1,1-6.87,6.87,6.88,6.88,0,0,1,6.87-6.87m0-3.5A10.37,10.37,0,1,0,81,175.07a10.37,10.37,0,0,0-10.37-10.37Z"/><path class="cls-1" d="M51.4,50.19a6.87,6.87,0,1,1-6.87,6.87,6.88,6.88,0,0,1,6.87-6.87m0-3.5A10.37,10.37,0,1,0,61.77,57.06,10.37,10.37,0,0,0,51.4,46.69Z"/><path class="cls-1" d="M193.42,30.4a6.87,6.87,0,1,1-6.87,6.87,6.88,6.88,0,0,1,6.87-6.87m0-3.5a10.37,10.37,0,1,0,10.37,10.37A10.37,10.37,0,0,0,193.42,26.9Z"/><path class="cls-1" d="M364.33,205.34v13.74H343.67V205.34h20.66m3.5-3.5H340.17v20.74h27.66V201.84Z"/><path class="cls-1" d="M107.33,269.44v13.74H86.67V269.44h20.66m3.5-3.5H83.17v20.74h27.66V265.94Z"/><path class="cls-1" d="M325.79,48.38V62.12H305.13V48.38h20.66m3.5-3.5H301.63V65.62h27.66V44.88Z"/><path class="cls-1" d="M27,103V116.7H6.37V103H27m3.5-3.5H2.87V120.2H30.53V99.46Z"/><path class="cls-1" d="M445.7,48.41V69.07H432V48.41H445.7m3.5-3.5H428.45V72.57H449.2V44.91Z"/><path class="cls-1" d="M47.9,187v20.66H34.15V187H47.9m3.5-3.5H30.65v27.66H51.4V183.48Z"/><path class="cls-1" d="M163.2,18.75V39.41H149.46V18.75H163.2m3.5-3.5H146V42.91H166.7V15.25Z"/><path class="cls-1" d="M261.75,256.22v20.66H248V256.22h13.74m3.5-3.5H244.51v27.66h20.74V252.72Z"/><rect class="cls-1" x="459.8" y="269.78" width="6.91" height="10.37"/><rect class="cls-1" x="131.24" y="284.72" width="6.91" height="10.37"/><rect class="cls-1" x="37.57" y="159.19" width="6.91" height="10.37"/><rect class="cls-1" x="173.42" y="1.25" width="6.91" height="10.37"/><rect class="cls-1" x="4.13" y="25.76" width="6.91" height="10.37"/><rect class="cls-1" x="161.74" y="155.94" width="6.91" height="10.37"/><rect class="cls-1" x="454.01" y="116.06" width="10.37" height="6.91"/><rect class="cls-1" x="277.69" y="283.58" width="10.37" height="6.91"/><rect class="cls-1" x="233.15" y="55.63" width="10.37" height="6.91"/><rect class="cls-1" x="83.17" y="214.07" width="10.37" height="6.91"/><rect class="cls-1" x="105.65" y="74.02" width="10.37" height="6.91"/><rect class="cls-1" x="289.79" y="25.76" width="6.91" height="10.37"/><polygon class="cls-1" points="414.62 82.93 408.35 82.93 412.79 78.49 410.31 76.02 405.87 80.46 405.87 74.18 402.37 74.18 402.37 80.46 397.94 76.02 395.46 78.49 399.9 82.93 393.62 82.93 393.62 86.43 399.9 86.43 395.46 90.87 397.94 93.34 402.37 88.91 402.37 95.18 405.87 95.18 405.87 88.91 410.31 93.34 412.79 90.87 408.35 86.43 414.62 86.43 414.62 82.93"/><polygon class="cls-1" points="449.33 252.6 443.05 252.6 447.49 248.16 445.01 245.69 440.58 250.13 440.58 243.85 437.08 243.85 437.08 250.13 432.64 245.69 430.16 248.16 434.6 252.6 428.33 252.6 428.33 256.1 434.6 256.1 430.16 260.54 432.64 263.01 437.08 258.57 437.08 264.85 440.58 264.85 440.58 258.58 445.01 263.01 447.49 260.54 443.05 256.1 449.33 256.1 449.33 252.6"/><polygon class="cls-1" points="223.53 210.47 217.25 210.47 221.69 206.03 219.21 203.55 214.78 207.99 214.78 201.72 211.28 201.72 211.28 207.99 206.84 203.55 204.36 206.03 208.8 210.47 202.53 210.47 202.53 213.97 208.8 213.97 204.36 218.4 206.84 220.88 211.28 216.44 211.28 222.72 214.78 222.72 214.78 216.44 219.21 220.88 221.69 218.4 217.25 213.97 223.53 213.97 223.53 210.47"/><polygon class="cls-1" points="109.04 113.86 102.76 113.86 107.2 109.43 104.72 106.95 100.29 111.39 100.29 105.11 96.79 105.11 96.79 111.39 92.35 106.95 89.88 109.43 94.31 113.86 88.04 113.86 88.04 117.36 94.31 117.36 89.88 121.8 92.35 124.28 96.79 119.84 96.79 126.11 100.29 126.11 100.29 119.84 104.72 124.28 107.2 121.8 102.76 117.36 109.04 117.36 109.04 113.86"/><polygon class="cls-1" points="41.03 278.4 34.75 278.4 39.19 273.97 36.71 271.49 32.28 275.93 32.28 269.65 28.78 269.65 28.78 275.93 24.34 271.49 21.86 273.97 26.3 278.4 20.03 278.4 20.03 281.9 26.3 281.9 21.86 286.34 24.34 288.81 28.78 284.38 28.78 290.65 32.28 290.65 32.28 284.38 36.71 288.81 39.19 286.34 34.75 281.9 41.03 281.9 41.03 278.4"/><polygon class="cls-1" points="396.49 146.39 391.32 146.39 391.32 141.23 387.82 141.23 387.82 146.39 382.66 146.39 382.66 149.89 387.82 149.89 387.82 155.06 391.32 155.06 391.32 149.89 396.49 149.89 396.49 146.39"/><polygon class="cls-1" points="290.79 224.89 285.62 224.89 285.62 219.72 282.12 219.72 282.12 224.89 276.96 224.89 276.96 228.39 282.12 228.39 282.12 233.56 285.62 233.56 285.62 228.39 290.79 228.39 290.79 224.89"/><polygon class="cls-1" points="138.16 260.18 132.99 260.18 132.99 255.01 129.49 255.01 129.49 260.18 124.33 260.18 124.33 263.68 129.49 263.68 129.49 268.84 132.99 268.84 132.99 263.68 138.16 263.68 138.16 260.18"/><polygon class="cls-1" points="30.53 143.1 25.36 143.1 25.36 137.93 21.86 137.93 21.86 143.1 16.7 143.1 16.7 146.6 21.86 146.6 21.86 151.76 25.36 151.76 25.36 146.6 30.53 146.6 30.53 143.1"/><polygon class="cls-1" points="277.42 11.85 272.25 11.85 272.25 6.68 268.75 6.68 268.75 11.85 263.59 11.85 263.59 15.35 268.75 15.35 268.75 20.51 272.25 20.51 272.25 15.35 277.42 15.35 277.42 11.85"/><polygon class="cls-1" points="47.94 16.25 42.78 16.25 42.78 11.09 39.28 11.09 39.28 16.25 34.11 16.25 34.11 19.75 39.28 19.75 39.28 24.91 42.78 24.91 42.78 19.75 47.94 19.75 47.94 16.25"/><polygon class="cls-1" points="177.74 60.41 172.57 60.41 172.57 55.25 169.07 55.25 169.07 60.41 163.91 60.41 163.91 63.91 169.07 63.91 169.07 69.08 172.57 69.08 172.57 63.91 177.74 63.91 177.74 60.41"/><polygon class="cls-1" points="446.91 22.3 441.75 22.3 441.75 17.13 438.25 17.13 438.25 22.3 433.08 22.3 433.08 25.8 438.25 25.8 438.25 30.96 441.75 30.96 441.75 25.8 446.91 25.8 446.91 22.3"/><polygon class="cls-1" points="399.75 201.22 397.28 198.74 393.62 202.4 389.97 198.74 387.5 201.22 391.15 204.87 387.5 208.52 389.97 211 393.62 207.35 397.28 211 399.75 208.52 396.1 204.87 399.75 201.22"/><polygon class="cls-1" points="235.31 287.38 232.84 284.91 229.18 288.56 225.53 284.91 223.06 287.38 226.71 291.04 223.06 294.69 225.53 297.16 229.18 293.51 232.84 297.16 235.31 294.69 231.66 291.04 235.31 287.38"/><polygon class="cls-1" points="48.81 227.44 46.34 224.97 42.68 228.62 39.03 224.97 36.56 227.44 40.21 231.1 36.56 234.75 39.03 237.22 42.68 233.57 46.34 237.22 48.81 234.75 45.16 231.1 48.81 227.44"/><polygon class="cls-1" points="152.09 171.56 149.61 169.09 145.96 172.74 142.31 169.09 139.84 171.56 143.49 175.21 139.84 178.86 142.31 181.34 145.96 177.69 149.61 181.34 152.09 178.86 148.44 175.21 152.09 171.56"/><polygon class="cls-1" points="104.66 51.6 102.19 49.12 98.54 52.77 94.88 49.12 92.41 51.6 96.06 55.25 92.41 58.9 94.88 61.38 98.54 57.72 102.19 61.38 104.66 58.9 101.01 55.25 104.66 51.6"/><polygon class="cls-1" points="335.42 23.94 332.95 21.46 329.29 25.11 325.64 21.46 323.17 23.94 326.82 27.59 323.17 31.24 325.64 33.72 329.29 30.06 332.95 33.72 335.42 31.24 331.77 27.59 335.42 23.94"/><polygon class="cls-1" points="234.96 2.79 232.49 0.31 228.84 3.96 225.18 0.31 222.71 2.79 226.36 6.44 222.71 10.09 225.18 12.56 228.84 8.91 232.49 12.56 234.96 10.09 231.31 6.44 234.96 2.79"/><polygon class="cls-1" points="456.63 168.68 454.15 166.2 450.5 169.85 446.85 166.2 444.37 168.68 448.02 172.33 444.37 175.98 446.85 178.46 450.5 174.8 454.15 178.46 456.63 175.98 452.97 172.33 456.63 168.68"/><path class="cls-1" d="M343.76,132l-4.14,4.14-8.21-8.21L314,145.26h43Zm-21.27,9.79,8.92-8.91,5.74,5.73L334,141.76Zm21.27-4.85,4.85,4.85h-9.7Z"/><path class="cls-1" d="M440,190.3l-4.14,4.14-8.21-8.21-17.37,17.36h43Zm-21.27,9.79,8.92-8.92,5.74,5.73-3.18,3.18ZM440,195.25l4.85,4.85h-9.7Z"/><path class="cls-1" d="M212,257l-4.14,4.14-8.21-8.21-17.37,17.36h43Zm-21.27,9.79,8.92-8.91,5.74,5.73-3.18,3.18ZM212,261.9l4.85,4.85h-9.7Z"/><path class="cls-1" d="M142.91,126.21l-4.14,4.14-8.21-8.21L113.19,139.5h43ZM121.64,136l8.92-8.91,5.74,5.73L133.11,136Zm21.27-4.85,4.85,4.85h-9.7Z"/><polygon class="cls-1" points="434.48 136.2 434.48 139.7 440.26 139.7 431.93 148.03 434.41 150.5 442.73 142.18 442.73 147.95 446.23 147.95 446.23 136.2 434.48 136.2"/><polygon class="cls-1" points="14.56 61.47 14.56 64.97 20.33 64.97 12.01 73.29 14.48 75.77 22.81 67.44 22.81 73.22 26.31 73.22 26.31 61.47 14.56 61.47"/><polygon class="cls-1" points="219.18 233.2 219.18 236.7 224.96 236.7 216.63 245.02 219.11 247.5 227.43 239.17 227.43 244.95 230.93 244.95 230.93 233.2 219.18 233.2"/><polygon class="cls-1" points="466.09 227.01 457.77 218.68 463.54 218.68 463.54 215.18 451.79 215.18 451.79 226.93 455.29 226.93 455.29 221.16 463.62 229.48 466.09 227.01"/><polygon class="cls-1" points="83.18 248.27 74.85 239.94 80.63 239.94 80.63 236.44 68.88 236.44 68.88 248.19 72.38 248.19 72.38 242.42 80.7 250.75 83.18 248.27"/><polygon class="cls-1" points="418.92 5.25 418.92 11.03 410.59 2.7 408.12 5.18 416.44 13.51 410.67 13.51 410.67 17 422.42 17 422.42 5.25 418.92 5.25"/><polygon class="cls-1" points="134.99 94.79 134.99 100.57 126.67 92.24 124.19 94.72 132.52 103.04 126.74 103.04 126.74 106.54 138.49 106.54 138.49 94.79 134.99 94.79"/><polygon class="cls-1" points="377.43 274.89 374.95 272.42 366.62 280.74 366.62 274.97 363.12 274.97 363.12 286.72 374.87 286.72 374.87 283.22 369.1 283.22 377.43 274.89"/><polygon class="cls-1" points="282.01 61.2 279.54 58.73 271.21 67.05 271.21 61.28 267.71 61.28 267.71 73.03 279.46 73.03 279.46 69.53 273.69 69.53 282.01 61.2"/><polygon class="cls-1" points="20.14 170.65 17.66 168.17 9.34 176.5 9.34 170.72 5.84 170.72 5.84 182.47 17.59 182.47 17.59 178.97 11.81 178.97 20.14 170.65"/><path class="cls-1" d="M366.66,93.18a18,18,0,1,0,18,18A18,18,0,0,0,366.66,93.18ZM360,123.51a6.67,6.67,0,0,1,13.25,0,14,14,0,0,1-13.25,0Zm2.84-13.68a3.78,3.78,0,1,1,3.78,3.78A3.79,3.79,0,0,1,362.87,109.83Zm13.88,11a10.71,10.71,0,0,0-4.49-5.63,7.78,7.78,0,1,0-11.21,0,10.71,10.71,0,0,0-4.49,5.63,14,14,0,1,1,20.19,0Z"/><path class="cls-1" d="M329.29,259.93a18,18,0,1,0,18,18A18,18,0,0,0,329.29,259.93Zm-6.63,30.33a6.67,6.67,0,0,1,13.25,0,14,14,0,0,1-13.25,0Zm2.84-13.68a3.78,3.78,0,1,1,3.78,3.78A3.79,3.79,0,0,1,325.51,276.58Zm13.88,11A10.71,10.71,0,0,0,334.9,282a7.78,7.78,0,1,0-11.21,0,10.71,10.71,0,0,0-4.49,5.63,14,14,0,1,1,20.19,0Z"/><path class="cls-1" d="M115.09,176.38a18,18,0,1,0,18,18A18,18,0,0,0,115.09,176.38Zm-6.62,30.33a6.67,6.67,0,0,1,13.25,0,14,14,0,0,1-13.25,0ZM111.3,193a3.78,3.78,0,1,1,3.78,3.78A3.79,3.79,0,0,1,111.3,193Zm13.88,11a10.71,10.71,0,0,0-4.49-5.63,7.78,7.78,0,1,0-11.21,0,10.71,10.71,0,0,0-4.49,5.63,14,14,0,1,1,20.19,0Z"/><path class="cls-1" d="M81,0A18,18,0,1,0,99,18,18,18,0,0,0,81,0ZM74.37,30.33a6.67,6.67,0,0,1,13.25,0,14,14,0,0,1-13.25,0Zm2.84-13.68A3.78,3.78,0,1,1,81,20.43,3.79,3.79,0,0,1,77.21,16.65Zm13.88,11A10.71,10.71,0,0,0,86.6,22a7.78,7.78,0,1,0-11.21,0,10.71,10.71,0,0,0-4.49,5.63,14,14,0,1,1,20.19,0Z"/><line class="cls-2" x1="317.54" y1="82.78" x2="296.33" y2="103.99"/><polyline class="cls-2" points="299.54 82.78 317.54 82.78 317.54 100.78"/><line class="cls-2" x1="317.54" y1="211.59" x2="296.33" y2="190.37"/><polyline class="cls-2" points="317.54 193.59 317.54 211.59 299.54 211.59"/><line class="cls-2" x1="159.12" y1="211.59" x2="180.34" y2="190.37"/><polyline class="cls-2" points="177.13 211.59 159.13 211.59 159.13 193.59"/><line class="cls-2" x1="159.12" y1="82.78" x2="180.34" y2="103.99"/><polyline class="cls-2" points="159.13 100.78 159.13 82.78 177.13 82.78"/><rect class="cls-3" x="192" y="111.07" width="93.33" height="69.35"/><path class="cls-4" d="M193,112.32v52.92L219.4,139l26.27,25.5L258,152.1l25.63,24.73V112.32Zm61.32,26.27a7.73,7.73,0,1,1,7.73-7.73A7.73,7.73,0,0,1,254.32,138.6Z"/><circle class="cls-5" cx="254.88" cy="129.91" r="8"/><polyline class="cls-5" points="283.41 175.79 258.99 151.56 231.37 179.18"/><polyline class="cls-5" points="245.51 165.04 218.77 138.3 192.72 164.3"/><path class="cls-6" d="M282.33,113.91v64h-88v-64h88m4-4h-96v72h96v-72Z"/></g></g></svg>