<svg xmlns="http://www.w3.org/2000/svg" viewBox="0 0 1144.33 381.78"><defs><style>.cls-1{fill:none;}.cls-2{fill:#f2e3ff;}.cls-3{fill:#fff;}.cls-4{fill:#edeae6;}.cls-5,.cls-8{fill:#323233;}.cls-6{fill:#c99ef2;}.cls-7{fill:#c29ce6;}.cls-8{opacity:0.2;}</style></defs><title>Asset 2</title><g id="Layer_2" data-name="Layer 2"><g id="Layer_1-2" data-name="Layer 1"><rect class="cls-1" width="1144.33" height="380"/><path class="cls-2" d="M669.68,381.78c7.36-55,14.37-107.32,14.37-107.32H460.27l14.38,107.32Z"/><path class="cls-3" d="M613.22,381.78V354.67l-39-14.2-38.54,14v27.28Z"/><circle class="cls-4" cx="1134.25" cy="191.68" r="5"/><circle class="cls-4" cx="210.16" cy="253.43" r="5"/><path class="cls-4" d="M212.18,74.53a3.25,3.25,0,1,1-3.25,3.25,3.25,3.25,0,0,1,3.25-3.25m0-6.75a10,10,0,1,0,10,10,10,10,0,0,0-10-10Z"/><path class="cls-4" d="M1057,129.62a3.25,3.25,0,1,1-3.25,3.25,3.25,3.25,0,0,1,3.25-3.25m0-6.75a10,10,0,1,0,10,10,10,10,0,0,0-10-10Z"/><polygon class="cls-4" points="89.45 128.47 84.5 125.61 80.29 132.91 72.99 128.7 70.13 133.65 77.43 137.86 73.22 145.16 78.17 148.02 82.38 140.72 89.68 144.93 92.54 139.99 85.24 135.77 89.45 128.47"/><polygon class="cls-4" points="998.16 150.08 995.31 145.13 988.01 149.35 983.79 142.05 978.85 144.9 983.06 152.21 975.76 156.42 978.62 161.37 985.92 157.15 990.13 164.45 995.08 161.6 990.86 154.29 998.16 150.08"/><polygon class="cls-4" points="313.58 65.53 307.3 65.53 311.74 61.09 309.27 58.62 304.83 63.05 304.83 56.78 301.33 56.78 301.33 63.05 296.89 58.62 294.42 61.09 298.86 65.53 292.58 65.53 292.58 69.03 298.86 69.03 294.42 73.47 296.89 75.94 301.33 71.5 301.33 77.78 304.83 77.78 304.83 71.5 309.27 75.94 311.74 73.47 307.31 69.03 313.58 69.03 313.58 65.53"/><path class="cls-4" d="M186.84,103.88a22.5,22.5,0,1,0,27.55,15.91A22.52,22.52,0,0,0,186.84,103.88Zm1.81,38.76a8.34,8.34,0,0,1,16-4.29,17.45,17.45,0,0,1-16,4.29Zm-1-17.43a4.73,4.73,0,1,1,5.79,3.34A4.73,4.73,0,0,1,187.66,125.21ZM208,134a13.39,13.39,0,0,0-7.25-5.35,9.73,9.73,0,1,0-13.53,3.62,13.39,13.39,0,0,0-3.6,8.25A17.5,17.5,0,1,1,208,134Z"/><path class="cls-4" d="M1015.28,202.6a22.5,22.5,0,1,0,15.91,27.55A22.52,22.52,0,0,0,1015.28,202.6Zm-17.81,34.47a8.34,8.34,0,0,1,16,4.29,17.45,17.45,0,0,1-16-4.29Zm7.86-15.59a4.73,4.73,0,1,1,3.34,5.79A4.73,4.73,0,0,1,1005.33,221.48Zm13.19,17.8a13.39,13.39,0,0,0-3.6-8.25,9.73,9.73,0,1,0-13.53-3.62,13.39,13.39,0,0,0-7.25,5.35,17.5,17.5,0,1,1,24.38,6.53Z"/><path class="cls-3" d="M280.94,242.34l-6.94-12,9.44-34.9,34.46,8.68,4.39-16.39,33.54,8.35,1.32,2.29Zm31.67-64.18a7.5,7.5,0,1,1,2.75-10.25A7.5,7.5,0,0,1,312.61,178.15Z"/><path class="cls-2" d="M248.47,186.6l25.68,44.48,9.44-34.9,34.46,8.68,4.39-16.39L356,196.82,324.68,142.6Zm64.29-7.67a7.5,7.5,0,1,1,2.75-10.25A7.5,7.5,0,0,1,312.77,178.93Z"/><path class="cls-5" d="M309,182.43a10,10,0,1,1,8.64-15h0a10,10,0,0,1-8.64,15Zm0-15a5,5,0,1,0,4.34,2.5A5,5,0,0,0,309,167.43Z"/><polygon class="cls-5" points="315.85 222.56 311.02 221.27 320.73 185.02 353.27 193.61 351.99 198.45 324.27 191.13 315.85 222.56"/><polygon class="cls-5" points="277.37 229.11 272.54 227.81 281.86 193.11 318.52 202.93 317.23 207.76 285.39 199.23 277.37 229.11"/><path class="cls-5" d="M323.35,148.28l28.75,49.8-69.28,40-28.75-49.8,69.28-40m1.83-6.83-77.94,45L281,244.91l77.94-45-33.75-58.46Z"/><path class="cls-3" d="M668.67,193.75l-3.59-13.42,18.15-31.26,31,17.31,8.49-14.7L753,168.42l.68,2.55Zm47.2-53.8a7.5,7.5,0,1,1,5.3-9.19A7.5,7.5,0,0,1,715.87,139.95Z"/><path class="cls-6" d="M651.78,130.72l13.29,49.61,18.15-31.26,31,17.31,8.49-14.7L753,168.42l-16.2-60.48Zm64.09,9.23a7.5,7.5,0,1,1,5.3-9.19A7.5,7.5,0,0,1,715.87,139.95Z"/><path class="cls-5" d="M713.93,142.7a10,10,0,1,1,9.66-12.59h0a10,10,0,0,1-9.66,12.59Zm0-15a5,5,0,1,0,4.83,3.71A5,5,0,0,0,713.92,127.7Z"/><polygon class="cls-5" points="707.43 183.11 703.1 180.61 721.98 147.9 751.23 164.64 748.75 168.98 723.82 154.71 707.43 183.11"/><polygon class="cls-5" points="668.47 179.62 664.14 177.12 682.34 145.65 715.21 164.62 712.71 168.95 684.17 152.47 668.47 179.62"/><path class="cls-5" d="M734,113.08l14.88,55.54-77.27,20.71-14.88-55.54L734,113.08m3.54-6.12-86.93,23.29,17.47,65.2L755,172.16,737.55,107Z"/><path class="cls-3" d="M379.63,97A16.26,16.26,0,1,1,411,105.43l-19.54.61Z"/><circle class="cls-3" cx="402.35" cy="75.04" r="10.84"/><path class="cls-2" d="M409.46,48.51a30,30,0,0,0-30,49.13c0-.21.08-.42.14-.63a16.26,16.26,0,0,1,19.92-11.5,10.84,10.84,0,1,1,13.28-7.67,10.84,10.84,0,0,1-13.28,7.67A16.26,16.26,0,0,1,411,105.43c-.06.21-.13.41-.2.61a30,30,0,0,0-1.39-57.53Z"/><path class="cls-5" d="M402.37,88.39a13.41,13.41,0,0,1-3.47-.46,13.34,13.34,0,1,1,16.34-9.43h0a13.36,13.36,0,0,1-12.86,9.89Zm0-21.69a8.37,8.37,0,1,0,2.17.29A8.37,8.37,0,0,0,402.34,66.69Z"/><path class="cls-5" d="M413.46,106.07l-4.83-1.29A13.76,13.76,0,0,0,382,97.66l-4.83-1.29a18.76,18.76,0,1,1,36.24,9.71Z"/><path class="cls-5" d="M401.75,110a32.54,32.54,0,0,1-31.44-40.92A32.48,32.48,0,1,1,401.75,110Zm-.1-60a27.58,27.58,0,1,0,7.16.95A27.64,27.64,0,0,0,401.65,50Z"/><path class="cls-3" d="M306.46,323.21A16.26,16.26,0,1,1,337,312.09L321.37,323.8Z"/><circle class="cls-3" cx="312.47" cy="292.18" r="10.84" transform="translate(-111.08 232.06) rotate(-35)"/><path class="cls-6" d="M303.07,266.38a30,30,0,0,0,3.63,57.43c-.08-.2-.18-.39-.25-.59a16.26,16.26,0,0,1,9.72-20.84,10.84,10.84,0,1,1,6.48-13.89,10.84,10.84,0,0,1-6.48,13.89A16.26,16.26,0,0,1,337,312.09c.07.2.12.41.19.62a30,30,0,0,0-34.13-46.33Z"/><path class="cls-5" d="M312.48,305.53A13.34,13.34,0,1,1,325,287.62h0a13.34,13.34,0,0,1-12.52,17.9Zm0-21.69a8.34,8.34,0,1,0,7.83,5.49h0a8.36,8.36,0,0,0-7.83-5.49Z"/><path class="cls-5" d="M304.11,324.07a18.76,18.76,0,1,1,35.26-12.83l-4.7,1.71a13.76,13.76,0,0,0-25.86,9.41Z"/><path class="cls-5" d="M313.36,327.06a32.5,32.5,0,1,1,11.08-2A32.55,32.55,0,0,1,313.36,327.06Zm0-60A27.53,27.53,0,0,0,287.5,304h0a27.48,27.48,0,1,0,25.85-36.91Z"/><path class="cls-3" d="M745.77,262.2a16.26,16.26,0,0,1,31.41,8.42l-19.54.61Z"/><circle class="cls-3" cx="768.49" cy="240.23" r="10.84"/><path class="cls-2" d="M775.6,213.7a30,30,0,0,0-30,49.13c0-.21.08-.42.14-.63a16.26,16.26,0,0,1,19.92-11.5A10.84,10.84,0,1,1,779,243a10.84,10.84,0,0,1-13.28,7.67,16.26,16.26,0,0,1,11.5,19.92c-.06.21-.13.41-.2.61a30,30,0,0,0-1.39-57.53Z"/><path class="cls-5" d="M768.51,253.58a13.43,13.43,0,0,1-3.47-.46,13.27,13.27,0,1,1,3.47.46Zm0-21.69a8.37,8.37,0,1,0,2.17.29A8.37,8.37,0,0,0,768.48,231.89Z"/><path class="cls-5" d="M779.6,271.26,774.77,270a13.76,13.76,0,0,0-26.58-7.12l-4.83-1.29a18.76,18.76,0,1,1,36.24,9.71Z"/><path class="cls-5" d="M767.83,275.17a32.5,32.5,0,1,1,31.39-24.09A32.4,32.4,0,0,1,767.83,275.17Zm0-60a27.53,27.53,0,0,0-26.51,20.39h0A27.49,27.49,0,1,0,775,216.12,27.64,27.64,0,0,0,767.79,215.17Z"/><path class="cls-7" d="M536.68,237.24a62.24,62.24,0,0,0-3.62-14.91l4.68-1.77a67.25,67.25,0,0,1,3.91,16.1ZM528,212a64.31,64.31,0,0,0-9.47-12.1l3.54-3.53a69.31,69.31,0,0,1,10.21,13Zm-18.32-19.5a61.14,61.14,0,0,0-13.59-7.1l1.73-4.69a66.14,66.14,0,0,1,14.7,7.68Zm-62.23-2.26-2.6-4.27a64.05,64.05,0,0,1,12.1-5.76l1.65,4.72A59.07,59.07,0,0,0,447.47,190.21ZM485,182.48a54.56,54.56,0,0,0-15.24-.21l-.63-5a59.63,59.63,0,0,1,16.64.23Z"/><path class="cls-7" d="M531.55,168.9a112,112,0,0,0-3.61-15.19l4.77-1.5a117.06,117.06,0,0,1,3.77,15.87Zm-7.76-26.11a92,92,0,0,0-7.55-13.58l4.15-2.79a97,97,0,0,1,8,14.32ZM509.11,120a92.37,92.37,0,0,0-11.25-10.74l3.14-3.89a97.33,97.33,0,0,1,11.86,11.32Zm-20.79-17.52a107.43,107.43,0,0,0-13.83-7.29l2-4.58A112.35,112.35,0,0,1,491,98.23ZM463.49,91a89.24,89.24,0,0,0-15.14-3.59l.57-5A93,93,0,0,1,465,86.26Z"/><path class="cls-7" d="M596.94,237l-5-.16c.18-5.43.46-10.84.84-16.07l5,.37C597.39,226.33,597.11,231.67,596.94,237Zm1.9-27.74-5-.53c.58-5.42,1.29-10.8,2.1-16l4.94.78C600.1,198.66,599.4,204,598.83,209.3ZM603,181.85l-4.9-1c1.07-5.37,2.29-10.66,3.62-15.73l4.83,1.27C605.22,171.39,604,176.59,603,181.85ZM609.84,155l-4.76-1.52c1.67-5.23,3.52-10.36,5.49-15.22l4.63,1.88C613.28,144.91,611.47,149.91,609.84,155ZM620,129.35l-4.5-2.18c2.4-5,5-9.76,7.76-14.26l4.27,2.61C624.86,119.88,622.33,124.53,620,129.35Zm14.07-23.62-4-3a131.76,131.76,0,0,1,10.4-12.54l3.64,3.43A126.85,126.85,0,0,0,634.07,105.73ZM818.46,98c-4.3-3.18-8.69-6.2-13-9l2.7-4.21c4.43,2.85,8.91,5.94,13.3,9.18ZM652.54,85.56l-3.27-3.79A110.68,110.68,0,0,1,662.39,72l2.67,4.23A105.6,105.6,0,0,0,652.54,85.56Zm142.74-2.69c-4.65-2.65-9.37-5.1-14-7.29l2.13-4.53c4.77,2.24,9.6,4.75,14.37,7.47Zm-24.88-12c-5-1.95-10-3.65-14.92-5L756.84,61c5.08,1.44,10.26,3.19,15.38,5.2Zm-95.11-.3-2.16-4.51a104.35,104.35,0,0,1,15.26-5.89L689.82,65A99.3,99.3,0,0,0,675.29,70.59ZM744,63.11A129.43,129.43,0,0,0,728.47,61l.36-5A134.43,134.43,0,0,1,745,58.2Zm-42.82-.8-.87-4.92a112.81,112.81,0,0,1,16.26-1.64l.14,5A107.75,107.75,0,0,0,701.2,62.31Z"/><path class="cls-3" d="M813.12,117l12-6.94,34.9,9.44L851.36,154l16.39,4.39-8.35,33.54-2.29,1.32Zm64.18,31.67a7.5,7.5,0,1,1,10.25,2.75A7.5,7.5,0,0,1,877.3,148.66Z"/><path class="cls-2" d="M868.73,83.78l-44.48,25.68,34.9,9.44-8.68,34.46,16.39,4.39-8.35,33.54L912.73,160Zm7.67,64.29a7.5,7.5,0,1,1,10.25,2.75A7.5,7.5,0,0,1,876.41,148.07Z"/><path class="cls-5" d="M882.92,154.31a10,10,0,1,1,5-1.34h0A9.94,9.94,0,0,1,882.92,154.31Zm0-15a5,5,0,1,0,4.34,2.5A5,5,0,0,0,882.89,139.32Z"/><polygon class="cls-5" points="861.59 189.09 856.75 187.81 864.2 159.57 831.82 150.9 833.11 146.07 870.31 156.03 861.59 189.09"/><polygon class="cls-5" points="852.4 153.82 847.57 152.53 856.1 120.69 825.47 112.47 826.77 107.64 862.22 117.16 852.4 153.82"/><path class="cls-5" d="M867.05,89.37l40,69.28-49.8,28.75-40-69.28,49.8-28.75m1.83-6.83-58.46,33.75,45,77.94,58.46-33.75-45-77.94Z"/><polygon class="cls-8" points="332.16 183.06 332.53 215.23 339.67 211.1 332.16 183.06"/><path class="cls-3" d="M350.92,245.82l-3.59-13.42,18.15-31.26,31,17.31,8.49-14.7,30.24,16.74.68,2.55Zm47.2-53.8a7.5,7.5,0,1,1,5.3-9.19A7.5,7.5,0,0,1,398.12,192Z"/><path class="cls-6" d="M333.23,183.5l13.29,49.61,18.15-31.26,31,17.31,8.49-14.7,30.24,16.74-16.2-60.48Zm64.09,9.23a7.5,7.5,0,1,1,5.3-9.19A7.5,7.5,0,0,1,397.32,192.73Z"/><path class="cls-5" d="M395.38,195.48a10,10,0,1,1,2.59-.34A10,10,0,0,1,395.38,195.48Zm0-15a5,5,0,0,0-1.3.17,5,5,0,1,0,1.3-.17Z"/><polygon class="cls-5" points="388.51 236.53 384.18 234.03 403.44 200.68 433.1 217.66 430.62 222 405.27 207.49 388.51 236.53"/><polygon class="cls-5" points="349.75 232.71 345.42 230.21 363.8 198.43 396.67 217.4 394.17 221.73 365.62 205.25 349.75 232.71"/><path class="cls-5" d="M415.47,165.86l14.88,55.54-77.27,20.71L338.2,186.57l77.27-20.71m3.54-6.12L332.07,183l17.47,65.2,86.93-23.29L419,159.74Z"/><path class="cls-3" d="M786,250.46l8-11.38,35.62-6.19,6.69,34.9L853,264.84l6.61,33.93-1.51,2.16ZM857.57,252A7.5,7.5,0,1,1,868,250.19,7.5,7.5,0,0,1,857.57,252Z"/><path class="cls-6" d="M822.38,196.85l-29.46,42.07,35.62-6.19,6.69,34.9,16.71-2.95,6.61,33.93,35.91-51.29Zm34.13,55A7.5,7.5,0,1,1,867,250,7.5,7.5,0,0,1,856.51,251.87Z"/><path class="cls-5" d="M860.79,255.73a10,10,0,1,1,1.76-.15A10.11,10.11,0,0,1,860.79,255.73Zm0-15a5,5,0,1,0,2.86.9A5,5,0,0,0,860.81,240.73Z"/><polygon class="cls-5" points="855.49 296.2 850.31 267.46 817.29 273.28 816.42 268.35 854.35 261.67 860.41 295.31 855.49 296.2"/><polygon class="cls-5" points="832.26 268.1 826.53 235.64 795.3 241.13 794.43 236.2 830.59 229.85 837.18 267.23 832.26 268.1"/><path class="cls-5" d="M823.22,202.62l65.53,45.89-33,47.1-65.53-45.89,33-47.1m-1.23-7L783.27,251,857,302.57l38.72-55.29L822,195.66Z"/><polygon class="cls-8" points="783.27 250.95 783.27 271.23 795.62 259.59 783.27 250.95"/><ellipse class="cls-6" cx="572.16" cy="274.46" rx="111.89" ry="21.03"/><path class="cls-7" d="M559.45,243.83c-1.1-5.23-2-10.59-2.76-15.94l5-.68c.71,5.23,1.62,10.47,2.7,15.59Zm-4.08-28c-.45-5.37-.71-10.8-.78-16.16l5-.06c.07,5.23.32,10.55.76,15.8Zm4.4-28.08-5-.21c.23-5.45.67-10.88,1.3-16.14l5,.6C560.42,177.13,560,182.43,559.77,187.75Zm3-27.46-4.92-.91c1-5.46,2.26-10.78,3.71-15.81l4.8,1.39C565,149.82,563.8,155,562.81,160.29Zm7.35-26.5L565.5,132a109.32,109.32,0,0,1,7-14.8l4.34,2.48A104.27,104.27,0,0,0,570.16,133.78ZM661,117.25c-2.66-2.64-5.33-5.11-8-7.33l3.23-3.82c2.73,2.31,5.5,4.87,8.25,7.61ZM583.29,110l-3.91-3.12a57.54,57.54,0,0,1,12.06-11.5l2.85,4.11A52.54,52.54,0,0,0,583.29,110Zm60.43-7.17a67.78,67.78,0,0,0-13.65-7.11l1.75-4.68a72.78,72.78,0,0,1,14.66,7.63Zm-39.42-8.34-1.53-4.76a40.53,40.53,0,0,1,16.81-1.66l-.53,5A35.52,35.52,0,0,0,604.31,94.52Z"/><path class="cls-5" d="M686.56,274.46c0-17.26-68.41-23.53-114.39-23.53-30,0-58.3,2.2-79.58,6.2-23.1,4.34-34.81,10.17-34.81,17.33a6.44,6.44,0,0,0,.17,1.45l14.18,105.87h5l-13.27-99c17.78,11,70.56,15.25,108.26,15.25,30,0,58.3-2.2,79.58-6.2q20.16-3.79,28.68-9.06c-2.29,17.1-7.68,57.35-13.26,99.05h5c6.71-50.13,13.12-98,14.18-105.85A6.46,6.46,0,0,0,686.56,274.46Zm-35.73,12.41c-21,3.94-48.92,6.12-78.66,6.12s-57.67-2.17-78.66-6.12c-22.63-4.25-29.78-9.22-30.64-11.87l-.09-.64c.17-2.51,6.79-7.81,30.73-12.31,21-3.94,48.92-6.12,78.66-6.12s57.67,2.17,78.66,6.12c23.93,4.5,30.55,9.8,30.73,12.31l-.09.64C680.6,277.65,673.45,282.62,650.82,286.87Z"/><path class="cls-5" d="M574.21,337.81l-41,14.94v29h5V359.9l33.78,12.29v9.58h5V372l33.78-12.29v22h5V352.92ZM608,355.41l-33.58,12.22H574l-33.58-12.22,33.75-12.29Z"/></g></g></svg>