<?xml version="1.0" encoding="UTF-8" standalone="no"?>
<svg width="66px" height="66px" viewBox="0 0 66 66" version="1.1" xmlns="http://www.w3.org/2000/svg" xmlns:xlink="http://www.w3.org/1999/xlink">
    <g id="Page-1" stroke="none" stroke-width="1" fill="none" fill-rule="evenodd">
        <g id="home-hero" transform="translate(-141.000000, -57.000000)">
            <g id="Group" transform="translate(141.000000, 57.000000)">
                <path d="M40.75,4.36 C27.8949752,0.908064421 14.3024883,6.33913803 7.36578712,17.6991424 C0.429085934,29.0591467 1.80697881,43.6315065 10.75,53.49 C10.75,53.28 10.83,53.07 10.89,52.86 C12.0055445,48.6928125 14.7313471,45.1397257 18.4673764,42.9828815 C22.2034056,40.8260373 26.6434063,40.2422396 30.81,41.36 C25.0285854,39.8095287 21.598118,33.866518 23.1471452,28.0847163 C24.6961725,22.3029146 30.6383261,18.8709629 36.4205145,20.418546 C42.202703,21.966129 45.6361387,27.9074252 44.09,33.69 C43.3470233,36.4687405 41.53012,38.8382662 39.0393508,40.2768355 C36.5485815,41.7154048 33.588183,42.1050587 30.81,41.36 C34.9771875,42.4755445 38.5302743,45.2013471 40.6871185,48.9373764 C42.8439627,52.6734056 43.4277604,57.1134063 42.31,61.28 C42.25,61.49 42.18,61.69 42.11,61.89 C54.7699809,57.8192857 63.23925,45.8999181 62.9180384,32.6054585 C62.5968269,19.3109989 53.5618014,7.8145579 40.72,4.36 L40.75,4.36 Z" id="Shape" fill="#F9F2FF" fill-rule="nonzero"></path>
                <path d="M61.13,17.08 C53.3759008,3.65315925 37.2169263,-2.42638415 22.5353779,2.55942009 C7.85382954,7.54522433 -1.26121231,22.2077383 0.764714434,37.579847 C2.79064118,52.9519558 15.3932788,64.7522452 30.8652654,65.7640434 C46.3372521,66.7758416 60.3693558,56.7173442 64.38,41.74 C66.6342547,33.4158834 65.4639331,24.5358436 61.13,17.08 L61.13,17.08 Z M45.36,57.85 C45.6123469,52.2200383 43.3081108,46.7773371 39.09,43.04 C42.7555239,41.4057643 45.4888062,38.2059137 46.53,34.33 C48.1410132,28.3332446 45.4014302,22.017931 39.9219403,19.0970358 C34.4424504,16.1761405 27.6722261,17.422159 23.5917004,22.1025168 C19.5111748,26.7828746 19.1995333,33.6597474 22.84,38.69 C18.6328491,39.5515763 14.8936397,41.8253821 12.2035503,45.0719123 C11.3598632,46.0901147 10.6193701,47.2039968 10,48.4 C9.72,47.97 9.44,47.53 9.18,47.08 C4.27917964,38.5792563 4.27714967,28.1116953 9.17467256,19.6090514 C14.0721955,11.1064075 23.1277624,5.85602233 32.94,5.83 C35.3579458,5.83212518 37.7651601,6.15151813 40.1,6.78 C47.1430679,8.66662546 53.1481055,13.2740342 56.7938801,19.5885008 C60.4396547,25.9029674 61.427475,33.4071597 59.54,40.45 C57.51392,48.0007294 52.3542402,54.3357101 45.36,57.85 Z" id="Shape" fill="#7C5CD1" fill-rule="nonzero"></path>
                <path d="M31.48,38.94 C27.0347854,37.7520576 24.3914551,33.1884934 25.5727837,28.7415167 C26.7541124,24.2945399 31.3137394,21.644424 35.7624685,22.8191363 C40.2111977,23.9938485 42.8680933,28.5495284 41.7,33 C41.1343465,35.1419857 39.7406507,36.9713797 37.8257302,38.0854471 C35.9108097,39.1995144 33.6316499,39.5069238 31.49,38.94 L31.48,38.94 Z" id="Path" fill="#FFFFFF"></path>
                <path d="M25.87,59.88 C21.2132649,58.6434973 16.9663561,56.197471 13.56,52.79 C15.7870682,45.8023874 23.10943,41.7956287 30.1951992,43.6873046 C37.2809684,45.5789806 41.6319886,52.7021625 40.08,59.87 C35.4271343,61.1266851 30.5246298,61.1301351 25.87,59.88 Z" id="Path" fill="#FFFFFF"></path>
            </g>
        </g>
    </g>
</svg>