<svg xmlns="http://www.w3.org/2000/svg" width="53" height="53" viewBox="0 0 53 53"><title>quote</title><path d="M26.5,53A26.5,26.5,0,1,1,53,26.5,26.53,26.53,0,0,1,26.5,53Zm0-50A23.5,23.5,0,1,0,50,26.5,23.53,23.53,0,0,0,26.5,3Z" fill="#bf9de0"/><path d="M20.91,18.62c2.92,0,4.79,2.42,4.79,5.34,0,7.38-5.07,10.08-8.54,10.41V31a5.32,5.32,0,0,0,4.52-4.68,2.24,2.24,0,0,1-1.16.28,3.77,3.77,0,0,1-4-4A4.18,4.18,0,0,1,20.91,18.62Zm10.8,0c2.92,0,4.79,2.42,4.79,5.34C36.5,31.35,31.43,34,28,34.38V31a5.32,5.32,0,0,0,4.52-4.68,2.24,2.24,0,0,1-1.16.28,3.77,3.77,0,0,1-4-4A4.18,4.18,0,0,1,31.71,18.62Z" fill="#bf9de0"/></svg>