<svg xmlns="http://www.w3.org/2000/svg" viewBox="0 0 800 600"><defs><style>.cls-1{fill:#f9f2ff;}.cls-2{fill:#c99ef2;}.cls-3{fill:#7c5cd1;}.cls-4{fill:#323233;}.cls-5{fill:#fff;}</style></defs><title>bucket</title><g id="Bg"><rect class="cls-1" width="800" height="600"/></g><g id="Content"><path class="cls-2" d="M285,203.42l27,201.31a294.48,294.48,0,0,0,176.08,0c9-67,27-201.31,27-201.31Z"/><ellipse class="cls-3" cx="400" cy="203.42" rx="115" ry="21.61"/><path class="cls-4" d="M521,203.42c0-9.5-12.26-16.23-38.57-21.18-22.08-4.15-51.35-6.43-82.43-6.43s-60.35,2.28-82.43,6.43C291.26,187.18,279,193.91,279,203.42a10.44,10.44,0,0,0,.24,2.21l27.28,203.68,3.65,1.14a300.26,300.26,0,0,0,88.74,13.74H400a300.18,300.18,0,0,0,89.83-13.74l3.65-1.14.51-3.79c8.43-63,24.83-185.44,26.76-199.89A10.42,10.42,0,0,0,521,203.42Zm-197.2-10.1c20.86-3.55,47.92-5.51,76.2-5.51s55.35,2,76.2,5.51c21.73,3.7,30.16,8.07,32.37,10.1-2.21,2-10.65,6.4-32.37,10.1C455.35,217.07,428.28,219,400,219s-55.35-2-76.2-5.51c-21.73-3.7-30.16-8.07-32.37-10.1C293.64,201.39,302.07,197,323.8,193.31Zm158.82,206.8A288.13,288.13,0,0,1,400,412.2H399a288.23,288.23,0,0,1-81.55-12.08L293,217.89c6.11,2.55,14.26,4.77,24.58,6.71C339.65,228.74,368.92,231,400,231s60.35-2.28,82.43-6.43c10.33-1.94,18.48-4.16,24.58-6.71C502.16,254.1,489.82,346.21,482.61,400.12Z"/><path class="cls-5" d="M362.49,319.1v16.66l39.61,14.42,40.1-14.6V285.86l-40.1-14.6-39.61,14.42Z"/><path class="cls-4" d="M402.1,264.88l-45.61,16.6V340l45.61,16.6,46.1-16.78V281.66Zm23.34,21.26-23.12,9.37L379.13,286l23-8.36Zm-56.95,8.48L396.3,306v35.68l-27.81-10.12Zm39.81,46.92V306l27.9-11.3v36.66Z"/></g></svg>