<svg xmlns="http://www.w3.org/2000/svg" viewBox="0 0 800 600"><defs><style>.cls-1{fill:#f9f2ff;}.cls-2{fill:#fff;}.cls-3{fill:#c99ef2;}.cls-4{fill:#323233;}</style></defs><title>Asset 10</title><g id="Layer_2" data-name="Layer 2"><g id="Bg"><rect class="cls-1" width="800" height="600"/></g><g id="Content"><path class="cls-2" d="M265.12,389.29V346.82l78.36-78,78,75.68,36.69-36.7,76.07,73.39v8.07Zm182-121.55A22.93,22.93,0,1,1,470,244.81,22.93,22.93,0,0,1,447.11,267.74Z"/><path class="cls-3" d="M265.12,189.76V346.82l78.36-78,78,75.68,36.69-36.7,76.07,73.39V189.76Zm182,78A22.93,22.93,0,1,1,470,244.81,22.93,22.93,0,0,1,447.11,267.74Z"/><path class="cls-4" d="M445.4,274.05a27.95,27.95,0,1,1,27.95-27.95A28,28,0,0,1,445.4,274.05Zm0-43.9a15.95,15.95,0,1,0,15.95,15.95A16,16,0,0,0,445.4,230.15Z"/><path class="cls-4" d="M262.31,185.23V394.77H537.69V185.23Zm263.38,12V365.41l-69-68.38-37.06,36.9-73.3-73.3-72,71.78V197.23ZM274.31,349.36l72-71.77,64.81,64.81-40.53,40.37H274.31Zm113.28,33.41,69.11-68.82,69,68.35v.47Z"/></g></g></svg>