<svg xmlns="http://www.w3.org/2000/svg" viewBox="0 0 800 600"><defs><style>.cls-1{fill:#f9f2ff;}.cls-2{fill:#fff;}.cls-3{fill:#7c5cd1;}.cls-4,.cls-6{fill:#323233;}.cls-5{fill:#c99ef2;}.cls-6{opacity:0.2;}</style></defs><title>picture-x2</title><g id="Bg"><rect class="cls-1" width="800" height="600"/></g><g id="Content"><path class="cls-2" d="M167.65,315.05,176.77,281l79.57-45.68,46.26,77.43,37.3-21.54,45.22,75.18-1.73,6.47Zm172-58.36A19,19,0,1,1,363,243.24,19,19,0,0,1,339.66,256.7Z"/><path class="cls-3" d="M210.51,155.09,176.77,281l79.57-45.68,46.26,77.43,37.3-21.54,45.22,75.18,41.13-153.49ZM339.66,256.7A19,19,0,1,1,363,243.24,19,19,0,0,1,339.66,256.7Z"/><path class="cls-4" d="M336.67,262.38a24.2,24.2,0,0,0,29.66-17.12h0a24.22,24.22,0,1,0-29.66,17.12Zm-5.53-26.55a12.22,12.22,0,1,1,8.64,15A12.24,12.24,0,0,1,331.14,235.82Z"/><path class="cls-4" d="M208.51,149.6,163,319.56l222.75,59.68,45.54-170ZM217,164.3l199.56,53.47L381.33,349.25l-39.92-68.41-37.63,21.62-43-74.51-71.91,41.36ZM337.05,297.19l39.14,67.08L269.89,335.78Zm-152.59-11.5,71.89-41.35,37,64.11-39.91,22.94-75.8-20.31Z"/><path class="cls-2" d="M412.4,444.91l-6.12-34.72,52.81-75,74.65,50.62,24.71-35.28,72.75,49,1.16,6.6ZM543.64,319.33a19,19,0,1,1,15.44-22.05A19,19,0,0,1,543.64,319.33Z"/><path class="cls-5" d="M383.64,281.82l22.64,128.38,52.81-75,74.65,50.62,24.71-35.28,72.75,49L603.6,243Zm160,37.51a19,19,0,1,1,15.44-22.05A19,19,0,0,1,543.64,319.33Z"/><path class="cls-4" d="M539.11,326.11a24.22,24.22,0,1,0-23.84-20A24.24,24.24,0,0,0,539.11,326.11ZM537,289.85A12.22,12.22,0,1,1,527.09,304,12.25,12.25,0,0,1,537,289.85Z"/><path class="cls-4" d="M606.61,237.65l-227.1,40L410.06,451l227.1-40Zm-213.2,49.78,203.46-35.88,23.64,134-65.09-45.13-25,35.5L460,326.63,412.29,394.5ZM419.8,437.07l-4.56-25.89,47.68-67.86,60.64,42.46-26.48,37.66Zm138.59-79.95,63.83,44.25L513.82,420.49Z"/><polygon class="cls-6" points="379.16 277.63 379.16 377.63 393.16 350.63 379.16 277.63"/></g></svg>