<svg version="1.1" xmlns="http://www.w3.org/2000/svg" xmlns:xlink="http://www.w3.org/1999/xlink" width="416.2px" height="80.3px" viewBox="0 0 416.2 80.3">
  <style type="text/css">
    .st0{fill:#9D6C5A;stroke:#593C33;stroke-width:6;stroke-miterlimit:10;}
    .st1{fill:#FFFFFF;stroke:#593C33;stroke-width:6;stroke-miterlimit:10;}
    .st2{fill:#D66564;stroke:#7D2C2D;stroke-width:6;stroke-miterlimit:10;}
    .st3{fill:#4986A9;}
  </style>
  <rect x="11.4" y="31.6" class="st0" width="107.1" height="45.8"/>
  <polygon class="st1" points="34.2,49.9 54.7,29.3 13.7,29.3 "/>
  <polygon class="st1" points="59.7,55.2 82.5,32.3 36.8,32.3 "/>
  <path class="st2" d="M74.8,3c0.1,0.6,0.1,1.1,0.1,1.7c0,6-4.4,10.8-9.9,10.8c-5.5,0-9.9-4.8-9.9-10.8c0-0.6,0.1-1.1,0.1-1.7H3v28.6
  h124V3H74.8z"/>

  <g>
    <path class="st3" d="M164,50.1c0.2,3.6,3,6.8,8.4,6.8c4.8,0,8.2-2.3,8.3-6c0.1-2.5-1.1-4.7-6.8-6.4l-6.8-1.9 c-12.4-3.8-14.6-11.1-14.6-16.2c0-10.1,8.6-16.9,19.4-16.9c10.9,0,19.1,6.5,19.1,17.3h-12c0-3.8-2.5-6.4-7.3-6.4 c-4.2,0-7.3,2.3-7.3,5.6c0,1.5,0.6,4.2,6.1,5.7l6.7,2.1c13.7,3.9,15.6,11.6,15.5,17c-0.2,11.2-10.3,16.5-20.3,16.5 c-12.3,0-20.5-7.3-20.5-17.4H164z"/>
    <path class="st3" d="M210.6,66.7h-11.4v-59h11.4v26.8c1.6-4.7,7.1-6.8,10.7-6.8c10.1,0,15.3,6.7,15.3,18.3v20.8 c-1.9,0-9.5,0-11.4,0V46.3c0-5-3.6-7.6-7-7.6c-3.6,0-7.6,2-7.6,7.8V66.7z"/>
    <path class="st3" d="M269.2,28.5h11.4v38.2h-11.4v-5.2c-2,3.8-6.2,6.1-9.9,6.1c-8.6,0-15.1-5.3-15.1-16.2V28.5h11.4v20.4 c0,6.1,4.2,7.6,6.8,7.6c3.5,0,6.9-2,6.9-7.8V28.5z"/>
    <path class="st3" d="M289,66.7v-59h11.3v25.5c1.9-3.5,6.5-5.5,11.2-5.5c9.8,0,18.5,7.8,18.5,20.1c0,12-8.7,19.8-18.5,19.8 c-4.7,0-9.3-2-11.2-5.6v4.7H289z M309.4,56.7c4.8,0,8.8-3.6,8.8-9.3c0-5.5-4-9.1-8.8-9.1c-4.7,0-8.8,3.4-8.8,9.1 C300.6,52.9,304.7,56.7,309.4,56.7z"/>
    <path class="st3" d="M334,47.4c0-12,9-19.8,19.8-19.8c10.8,0,19.9,7.8,19.9,19.8c0,12-9.1,19.9-19.9,19.9 C343,67.3,334,59.5,334,47.4z M362.5,47.4c0-5.2-3.9-8.7-8.7-8.7c-4.7,0-8.6,3.5-8.6,8.7c0,5.3,3.9,8.8,8.6,8.8 C358.6,56.2,362.5,52.8,362.5,47.4z"/>
    <path class="st3" d="M376,28.5h13.3l5.7,8.4l5.7-8.4h13.2L401.2,46l15,20.7H403L394.9,55l-8.2,11.7h-13.2L388.6,46L376,28.5z"/>
  </g>
</svg>
