<svg xmlns="http://www.w3.org/2000/svg" viewBox="0 0 752.26 290.41" preserveAspectRatio="xMidYMax"><title>dome</title><g id="ca7960af-e15c-44c1-8ee9-4d632bee5348" data-name="Layer 2"><g id="5930fdb5-9caa-4220-bee8-532e12ffacbb" data-name="Content"><polygon points="614.06 129 604.42 119.36 594.78 129 614.06 129" fill="#bf9de0"/><polygon points="623.32 240.83 632.96 250.47 642.6 240.83 623.32 240.83" fill="#bf9de0"/><polygon points="148.21 72.69 157.85 82.33 167.49 72.69 148.21 72.69" fill="#bf9de0"/><polygon points="226.88 41.84 236.52 51.48 246.16 41.84 226.88 41.84" fill="#bf9de0"/><polygon points="91.14 230.03 81.5 220.39 71.86 230.03 91.14 230.03" fill="#bf9de0"/><polygon points="300.15 228.49 290.51 218.85 280.87 228.49 300.15 228.49" fill="#bf9de0"/><polygon points="416.62 224.64 406.98 215 397.33 224.64 416.62 224.64" fill="#bf9de0"/><circle cx="410.32" cy="130.54" r="11.57" fill="#bf9de0"/><circle cx="690.29" cy="257.03" r="11.57" fill="#bf9de0"/><circle cx="128.03" cy="272.46" r="11.57" fill="#bf9de0"/><rect x="610.85" y="174.5" width="30.85" height="23.14" fill="#bf9de0"/><rect x="327.79" y="189.16" width="23.14" height="30.85" fill="#bf9de0"/><rect x="573.06" y="142.11" width="11.57" height="7.71" fill="#bf9de0"/><rect x="481.28" y="270.14" width="7.71" height="11.57" fill="#bf9de0"/><rect x="343.22" y="101.23" width="7.71" height="11.57" fill="#bf9de0"/><rect x="416.1" y="59.2" width="7.71" height="11.57" fill="#bf9de0"/><polygon points="327.92 2.51 347.2 21.79 366.48 2.51 327.92 2.51" fill="#bf9de0"/><polygon points="518.42 239.29 537.71 258.57 556.99 239.29 518.42 239.29" fill="#bf9de0"/><polygon points="218.4 165.25 199.12 145.97 179.83 165.25 218.4 165.25" fill="#bf9de0"/><circle cx="521.77" cy="94.68" r="5.78" fill="#bf9de0"/><circle cx="461.61" cy="17.55" r="5.78" fill="#bf9de0"/><circle cx="686.05" cy="188.77" r="5.78" fill="#bf9de0"/><circle cx="521" cy="204.2" r="5.78" fill="#bf9de0"/><circle cx="241.8" cy="236.59" r="5.78" fill="#bf9de0"/><circle cx="112.22" cy="174.12" r="5.78" fill="#bf9de0"/><circle cx="337.43" cy="147.12" r="5.78" fill="#bf9de0"/><circle cx="204.77" cy="94.68" r="5.78" fill="#bf9de0"/><circle cx="276.5" cy="29.89" r="5.78" fill="#bf9de0"/><path d="M461,98.83l-12,12-12-12H461m7.24-3H429.73L449,115.11l19.28-19.28Z" fill="#bf9de0"/><path d="M138.65,226.86l-12,12-12-12h24.08m7.24-3H107.33l19.28,19.28,19.28-19.28Z" fill="#bf9de0"/><path d="M586.77,113.87l-12,12-12-12h24.08m7.24-3H555.45l19.28,19.28L594,110.87Z" fill="#bf9de0"/><path d="M358,161l12,12H346l12-12m0-4.24L338.72,176h38.56L358,156.76Z" fill="#bf9de0"/><path d="M687.33,216.54l12,12H675.29l12-12m0-4.24-19.28,19.28h38.56L687.33,212.3Z" fill="#bf9de0"/><path d="M113.5,110.1l12,12H101.46l12-12m0-4.24L94.22,125.14h38.56L113.5,105.86Z" fill="#bf9de0"/><path d="M435.6,161.31l-2.4,2.4-2.4-2.4h4.8m7.24-3H423.56l9.64,9.64,9.64-9.64Z" fill="#bf9de0"/><path d="M524.21,279.4l2.4,2.4h-4.8l2.4-2.4m0-4.24-9.64,9.64h19.28l-9.64-9.64Z" fill="#bf9de0"/><path d="M585.91,167.18l2.4,2.4h-4.8l2.4-2.4m0-4.24-9.64,9.64h19.28l-9.64-9.64Z" fill="#bf9de0"/><path d="M515.72,28l2.4,2.4h-4.8l2.4-2.4m0-4.24-9.64,9.64h19.28l-9.64-9.64Z" fill="#bf9de0"/><path d="M163.25,274l2.4,2.4h-4.8l2.4-2.4m0-4.24-9.64,9.64h19.28l-9.64-9.64Z" fill="#bf9de0"/><path d="M375.35,23.33l2.4,2.4H373l2.4-2.4m0-4.24-9.64,9.64H385l-9.64-9.64Z" fill="#bf9de0"/><path d="M231.12,98.15l2.4,2.4h-4.8l2.4-2.4m0-4.24-9.64,9.64h19.28l-9.64-9.64Z" fill="#bf9de0"/><path d="M33.68,213.07l2.4,2.4h-4.8l2.4-2.4m0-4.24L24,218.47H43.32l-9.64-9.64Z" fill="#bf9de0"/><path d="M107.8,144l-2.4,2.4L103,144h4.8m7.24-3H95.76l9.64,9.64L115,141Z" fill="#bf9de0"/><path d="M160.25,176.73l-2.4,2.4-2.4-2.4h4.8m7.24-3H148.21l9.64,9.64,9.64-9.64Z" fill="#bf9de0"/><path d="M713.17,275.54l2.4,2.4h-4.8l2.4-2.4m0-4.24-9.64,9.64h19.28l-9.64-9.64Z" fill="#bf9de0"/><path d="M690,162.93l2.4,2.4h-4.8l2.4-2.4m0-4.24-9.64,9.64h19.28L690,158.69Z" fill="#bf9de0"/><path d="M349.21,253.86l-2.4,2.4-2.4-2.4h4.8m7.24-3H337.17l9.64,9.64,9.64-9.64Z" fill="#bf9de0"/><path d="M659.44,246.53a2.78,2.78,0,1,1-2.78,2.78,2.79,2.79,0,0,1,2.78-2.78m0-3a5.78,5.78,0,1,0,5.78,5.78,5.78,5.78,0,0,0-5.78-5.78Z" fill="#bf9de0"/><path d="M662.91,128.14a2.78,2.78,0,1,1-2.78,2.78,2.79,2.79,0,0,1,2.78-2.78m0-3a5.78,5.78,0,1,0,5.78,5.78,5.78,5.78,0,0,0-5.78-5.78Z" fill="#bf9de0"/><path d="M510.2,260a2.78,2.78,0,1,1-2.78,2.78A2.79,2.79,0,0,1,510.2,260m0-3a5.78,5.78,0,1,0,5.78,5.78A5.78,5.78,0,0,0,510.2,257Z" fill="#bf9de0"/><path d="M279.2,101.53a2.78,2.78,0,1,1-2.78,2.78,2.79,2.79,0,0,1,2.78-2.78m0-3a5.78,5.78,0,1,0,5.78,5.78,5.78,5.78,0,0,0-5.78-5.78Z" fill="#bf9de0"/><path d="M71.34,201.41a2.78,2.78,0,1,1-2.78,2.78,2.79,2.79,0,0,1,2.78-2.78m0-3a5.78,5.78,0,1,0,5.78,5.78,5.78,5.78,0,0,0-5.78-5.78Z" fill="#bf9de0"/><path d="M209.4,38.67a2.78,2.78,0,1,1-2.78,2.78,2.79,2.79,0,0,1,2.78-2.78m0-3a5.78,5.78,0,1,0,5.78,5.78,5.78,5.78,0,0,0-5.78-5.78Z" fill="#bf9de0"/><path d="M162.35,208.35a2.78,2.78,0,1,1-2.78,2.78,2.79,2.79,0,0,1,2.78-2.78m0-3a5.78,5.78,0,1,0,5.78,5.78,5.78,5.78,0,0,0-5.78-5.78Z" fill="#bf9de0"/><path d="M604.68,145.49a2.78,2.78,0,1,1-2.78,2.78,2.79,2.79,0,0,1,2.78-2.78m0-3a5.78,5.78,0,1,0,5.78,5.78,5.78,5.78,0,0,0-5.78-5.78Z" fill="#bf9de0"/><path d="M368.28,233a2.78,2.78,0,1,1-2.78,2.78,2.79,2.79,0,0,1,2.78-2.78m0-3a5.78,5.78,0,1,0,5.78,5.78,5.78,5.78,0,0,0-5.78-5.78Z" fill="#bf9de0"/><path d="M572.29,85.34a2.78,2.78,0,1,1-2.78,2.78,2.79,2.79,0,0,1,2.78-2.78m0-3a5.78,5.78,0,1,0,5.78,5.78,5.78,5.78,0,0,0-5.78-5.78Z" fill="#bf9de0"/><path d="M387.57,150.51a2.78,2.78,0,1,1-2.78,2.78,2.79,2.79,0,0,1,2.78-2.78m0-3a5.78,5.78,0,1,0,5.78,5.78,5.78,5.78,0,0,0-5.78-5.78Z" fill="#bf9de0"/><path d="M5.78,279.31A2.78,2.78,0,1,1,3,282.1a2.79,2.79,0,0,1,2.78-2.78m0-3a5.78,5.78,0,1,0,5.78,5.78,5.78,5.78,0,0,0-5.78-5.78Z" fill="#bf9de0"/><path d="M408.39,38.67a2.78,2.78,0,1,1-2.78,2.78,2.79,2.79,0,0,1,2.78-2.78m0-3a5.78,5.78,0,1,0,5.78,5.78,5.78,5.78,0,0,0-5.78-5.78Z" fill="#bf9de0"/><path d="M495.55,98.45A8.57,8.57,0,1,1,487,107a8.58,8.58,0,0,1,8.57-8.57m0-3A11.57,11.57,0,1,0,507.11,107a11.57,11.57,0,0,0-11.57-11.57Z" fill="#bf9de0"/><path d="M584.24,193.31a8.57,8.57,0,1,1-8.57,8.57,8.58,8.58,0,0,1,8.57-8.57m0-3a11.57,11.57,0,1,0,11.57,11.57,11.57,11.57,0,0,0-11.57-11.57Z" fill="#bf9de0"/><path d="M265.32,245.38a8.57,8.57,0,1,1-8.57,8.57,8.58,8.58,0,0,1,8.57-8.57m0-3a11.57,11.57,0,1,0,11.57,11.57,11.57,11.57,0,0,0-11.57-11.57Z" fill="#bf9de0"/><path d="M50.9,230.72a8.57,8.57,0,1,1-8.57,8.57,8.58,8.58,0,0,1,8.57-8.57m0-3a11.57,11.57,0,1,0,11.57,11.57A11.57,11.57,0,0,0,50.9,227.72Z" fill="#bf9de0"/><path d="M456.6,215.3a8.57,8.57,0,1,1-8.57,8.57,8.58,8.58,0,0,1,8.57-8.57m0-3a11.57,11.57,0,1,0,11.57,11.57A11.57,11.57,0,0,0,456.6,212.3Z" fill="#bf9de0"/><path d="M165.82,135.08a8.57,8.57,0,1,1-8.57,8.57,8.58,8.58,0,0,1,8.57-8.57m0-3a11.57,11.57,0,1,0,11.57,11.57,11.57,11.57,0,0,0-11.57-11.57Z" fill="#bf9de0"/><path d="M338.59,65.67A8.57,8.57,0,1,1,330,74.24a8.58,8.58,0,0,1,8.57-8.57m0-3a11.57,11.57,0,1,0,11.57,11.57,11.57,11.57,0,0,0-11.57-11.57Z" fill="#bf9de0"/><path d="M577.77,268.51v17.14H552.92V268.51h24.85m3-3H549.92v23.14h30.85V265.51Z" fill="#bf9de0"/><path d="M312.45,45.61V62.75H287.6V45.61h24.85m3-3H284.6V65.75h30.85V42.61Z" fill="#bf9de0"/><path d="M524.55,47.16V72H507.41V47.16h17.14m3-3H504.41V75h23.14V44.16Z" fill="#bf9de0"/><path d="M201.39,179.82v24.85H184.25V179.82h17.14m3-3H181.25v30.85h23.14V176.82Z" fill="#bf9de0"/><path d="M455.91,260.8v24.85H438.77V260.8h17.14m3-3H435.77v30.85h23.14V257.8Z" fill="#bf9de0"/><path d="M88,155.91v24.85H70.87V155.91H88m3-3H67.87v30.85H91V152.91Z" fill="#bf9de0"/><path d="M638.7,268.51v17.14h-9.43V268.51h9.43m3-3H626.28v23.14H641.7V265.51Z" fill="#bf9de0"/><path d="M209.87,276.23v9.43H192.73v-9.43h17.14m3-3H189.73v15.43h23.14V273.23Z" fill="#bf9de0"/><path d="M263.09,209.13v9.43H246v-9.43h17.14m3-3H243v15.43h23.14V206.13Z" fill="#bf9de0"/><path d="M395,56.41v9.43H377.84V56.41H395m3-3H374.84V68.84H398V53.41Z" fill="#bf9de0"/><path d="M108.06,203.73v1.71h-5.57v-1.71h5.57m3-3H99.49v7.71h11.57v-7.71Z" fill="#bf9de0"/><path d="M447.43,74.92v1.71h-5.57V74.92h5.57m3-3H438.86v7.71h11.57V71.92Z" fill="#bf9de0"/><path d="M253.84,24v1.71h-5.57V24h5.57m3-3H245.27v7.71h11.57V21Z" fill="#bf9de0"/><path d="M181.34,86.49v1.71h-5.57V86.49h5.57m3-3H172.77v7.71h11.57V83.49Z" fill="#bf9de0"/><path d="M545.38,98.06v5.57h-1.71V98.06h1.71m3-3h-7.71v11.57h7.71V95.06Z" fill="#bf9de0"/><path d="M641.79,135.85v5.57h-1.71v-5.57h1.71m3-3h-7.71v11.57h7.71V132.85Z" fill="#bf9de0"/><path d="M331,30.19v5.57h-1.71V30.19H331m3-3h-7.71V38.76H334V27.19Z" fill="#bf9de0"/><path d="M135.06,88.81v5.57h-1.71V88.81h1.71m3-3h-7.71V97.38h7.71V85.81Z" fill="#bf9de0"/><path d="M432,205.27v5.57h-1.71v-5.57H432m3-3h-7.71v11.57H435V202.27Z" fill="#bf9de0"/><path d="M252.29,277.77v5.57h-1.71v-5.57h1.71m3-3h-7.71v11.57h7.71V274.77Z" fill="#bf9de0"/><path d="M300.88,253.09v1.71h-5.57v-1.71h5.57m3-3H292.31v7.71h11.57v-7.71Z" fill="#bf9de0"/><path d="M487.53,199.87v1.71H482v-1.71h5.57m3-3H479v7.71h11.57v-7.71Z" fill="#bf9de0"/><path d="M667.24,201.41v1.71h-5.57v-1.71h5.57m3-3H658.67v7.71h11.57v-7.71Z" fill="#bf9de0"/><path d="M574.69,59.5v1.71h-5.57V59.5h5.57m3-3H566.12v7.71h11.57V56.5Z" fill="#bf9de0"/><path d="M243,161.31V163h-5.57v-1.71H243m3-3H234.47V166H246v-7.71Z" fill="#bf9de0"/><path d="M384.18,117.34v1.71h-5.57v-1.71h5.57m3-3H375.61v7.71h11.57v-7.71Z" fill="#bf9de0"/><path d="M250,76.47V82h-1.71V76.47H250m3-3h-7.71V85H253V73.47Z" fill="#bf9de0"/><path d="M318.62,161.31v5.57h-1.71v-5.57h1.71m3-3h-7.71v11.57h7.71V158.31Z" fill="#bf9de0"/><path d="M102.66,280.08v5.57H101v-5.57h1.71m3-3H98v11.57h7.71V277.08Z" fill="#bf9de0"/><line x1="259.41" y1="181.34" x2="278.93" y2="200.85" fill="none" stroke="#bf9de0" stroke-miterlimit="10" stroke-width="3"/><polygon points="257.76 197.04 260.77 196.94 260.22 182.15 275.01 182.69 275.11 179.69 257.11 179.04 257.76 197.04" fill="#bf9de0"/><line x1="398.24" y1="102.91" x2="417.76" y2="83.4" fill="none" stroke="#bf9de0" stroke-miterlimit="10" stroke-width="3"/><polygon points="413.95 104.56 413.84 101.56 399.06 102.1 399.6 87.32 396.6 87.21 395.94 105.22 413.95 104.56" fill="#bf9de0"/><line x1="30.34" y1="284.16" x2="49.86" y2="264.65" fill="none" stroke="#bf9de0" stroke-miterlimit="10" stroke-width="3"/><polygon points="46.05 285.81 45.94 282.81 31.16 283.35 31.7 268.57 28.7 268.46 28.04 286.46 46.05 285.81" fill="#bf9de0"/><line x1="556.98" y1="202.55" x2="537.47" y2="222.06" fill="none" stroke="#bf9de0" stroke-miterlimit="10" stroke-width="3"/><polygon points="541.28 200.9 541.39 203.9 556.17 203.36 555.63 218.14 558.63 218.25 559.28 200.24 541.28 200.9" fill="#bf9de0"/><line x1="460.74" y1="154.37" x2="474.8" y2="168.43" fill="none" stroke="#bf9de0" stroke-miterlimit="10" stroke-width="3"/><polygon points="459.1 170.07 462.1 169.97 461.55 155.19 476.34 155.72 476.44 152.72 458.44 152.07 459.1 170.07" fill="#bf9de0"/><line x1="555.03" y1="69.53" x2="540.97" y2="83.59" fill="none" stroke="#bf9de0" stroke-miterlimit="10" stroke-width="3"/><polygon points="539.32 67.88 539.43 70.88 554.21 70.34 553.67 85.13 556.67 85.23 557.33 67.23 539.32 67.88" fill="#bf9de0"/><line x1="728.57" y1="244.61" x2="714.51" y2="258.67" fill="none" stroke="#bf9de0" stroke-miterlimit="10" stroke-width="3"/><polygon points="712.86 242.96 712.97 245.96 727.75 245.42 727.21 260.2 730.21 260.31 730.87 242.31 712.86 242.96" fill="#bf9de0"/><line x1="427.77" y1="240.75" x2="413.71" y2="254.81" fill="none" stroke="#bf9de0" stroke-miterlimit="10" stroke-width="3"/><polygon points="412.06 239.11 412.17 242.11 426.95 241.56 426.41 256.35 429.41 256.45 430.07 238.45 412.06 239.11" fill="#bf9de0"/><line x1="324.42" y1="116.58" x2="310.36" y2="130.64" fill="none" stroke="#bf9de0" stroke-miterlimit="10" stroke-width="3"/><polygon points="308.71 114.93 308.82 117.93 323.6 117.39 323.06 132.17 326.06 132.28 326.72 114.27 308.71 114.93" fill="#bf9de0"/><line x1="188.67" y1="224.56" x2="174.61" y2="238.62" fill="none" stroke="#bf9de0" stroke-miterlimit="10" stroke-width="3"/><polygon points="172.97 222.91 173.07 225.91 187.86 225.37 187.32 240.15 190.32 240.26 190.97 222.25 172.97 222.91" fill="#bf9de0"/><line x1="140.85" y1="204.69" x2="126.79" y2="190.63" fill="none" stroke="#bf9de0" stroke-miterlimit="10" stroke-width="3"/><polygon points="142.5 188.99 139.5 189.09 140.04 203.88 125.26 203.34 125.15 206.34 143.16 206.99 142.5 188.99" fill="#bf9de0"/><line x1="278.72" y1="287.22" x2="292.78" y2="273.16" fill="none" stroke="#bf9de0" stroke-miterlimit="10" stroke-width="3"/><polygon points="294.43 288.87 294.32 285.87 279.54 286.41 280.08 271.62 277.08 271.52 276.42 289.52 294.43 288.87" fill="#bf9de0"/><line x1="184.82" y1="117.54" x2="170.76" y2="103.48" fill="none" stroke="#bf9de0" stroke-miterlimit="10" stroke-width="3"/><polygon points="186.46 101.83 183.46 101.94 184 116.72 169.22 116.18 169.11 119.18 187.12 119.84 186.46 101.83" fill="#bf9de0"/><line x1="294.92" y1="14" x2="308.98" y2="28.06" fill="none" stroke="#bf9de0" stroke-miterlimit="10" stroke-width="3"/><polygon points="293.27 29.7 296.27 29.59 295.73 14.81 310.51 15.35 310.62 12.35 292.62 11.7 293.27 29.7" fill="#bf9de0"/><line x1="649.12" y1="223.98" x2="635.06" y2="209.91" fill="none" stroke="#bf9de0" stroke-miterlimit="10" stroke-width="3"/><polygon points="650.77 208.27 647.77 208.38 648.31 223.16 633.53 222.62 633.42 225.62 651.43 226.27 650.77 208.27" fill="#bf9de0"/><line x1="381.49" y1="213.18" x2="367.43" y2="199.12" fill="none" stroke="#bf9de0" stroke-miterlimit="10" stroke-width="3"/><polygon points="383.14 197.47 380.14 197.58 380.68 212.36 365.9 211.82 365.79 214.82 383.79 215.48 383.14 197.47" fill="#bf9de0"/><line x1="433.94" y1="20.36" x2="419.88" y2="6.3" fill="none" stroke="#bf9de0" stroke-miterlimit="10" stroke-width="3"/><polygon points="435.58 4.65 432.58 4.76 433.13 19.54 418.34 19 418.24 22 436.24 22.66 435.58 4.65" fill="#bf9de0"/><line x1="480" y1="60.16" x2="480" y2="83.3" fill="none" stroke="#bf9de0" stroke-miterlimit="10" stroke-width="3"/><line x1="468.44" y1="71.73" x2="491.57" y2="71.73" fill="none" stroke="#bf9de0" stroke-miterlimit="10" stroke-width="3"/><line x1="471.82" y1="79.91" x2="488.18" y2="63.55" fill="none" stroke="#bf9de0" stroke-miterlimit="10" stroke-width="3"/><line x1="471.82" y1="63.55" x2="488.18" y2="79.91" fill="none" stroke="#bf9de0" stroke-miterlimit="10" stroke-width="3"/><line x1="660.48" y1="151.17" x2="660.48" y2="174.31" fill="none" stroke="#bf9de0" stroke-miterlimit="10" stroke-width="3"/><line x1="648.91" y1="162.74" x2="672.05" y2="162.74" fill="none" stroke="#bf9de0" stroke-miterlimit="10" stroke-width="3"/><line x1="652.3" y1="170.92" x2="668.66" y2="154.56" fill="none" stroke="#bf9de0" stroke-miterlimit="10" stroke-width="3"/><line x1="652.3" y1="154.56" x2="668.66" y2="170.92" fill="none" stroke="#bf9de0" stroke-miterlimit="10" stroke-width="3"/><line x1="318.81" y1="266.86" x2="318.81" y2="290" fill="none" stroke="#bf9de0" stroke-miterlimit="10" stroke-width="3"/><line x1="307.24" y1="278.43" x2="330.38" y2="278.43" fill="none" stroke="#bf9de0" stroke-miterlimit="10" stroke-width="3"/><line x1="310.63" y1="286.61" x2="326.99" y2="270.25" fill="none" stroke="#bf9de0" stroke-miterlimit="10" stroke-width="3"/><line x1="310.63" y1="270.25" x2="326.99" y2="286.61" fill="none" stroke="#bf9de0" stroke-miterlimit="10" stroke-width="3"/><line x1="95.91" y1="241.41" x2="95.91" y2="264.55" fill="none" stroke="#bf9de0" stroke-miterlimit="10" stroke-width="3"/><line x1="84.34" y1="252.98" x2="107.48" y2="252.98" fill="none" stroke="#bf9de0" stroke-miterlimit="10" stroke-width="3"/><line x1="87.73" y1="261.16" x2="104.09" y2="244.8" fill="none" stroke="#bf9de0" stroke-miterlimit="10" stroke-width="3"/><line x1="87.73" y1="244.8" x2="104.09" y2="261.16" fill="none" stroke="#bf9de0" stroke-miterlimit="10" stroke-width="3"/><line x1="286.41" y1="155.03" x2="286.41" y2="178.16" fill="none" stroke="#bf9de0" stroke-miterlimit="10" stroke-width="3"/><line x1="274.84" y1="166.6" x2="297.98" y2="166.6" fill="none" stroke="#bf9de0" stroke-miterlimit="10" stroke-width="3"/><line x1="278.23" y1="174.78" x2="294.59" y2="158.42" fill="none" stroke="#bf9de0" stroke-miterlimit="10" stroke-width="3"/><line x1="278.23" y1="158.42" x2="294.59" y2="174.78" fill="none" stroke="#bf9de0" stroke-miterlimit="10" stroke-width="3"/><line x1="479.54" y1="44.43" x2="495.9" y2="28.07" fill="none" stroke="#bf9de0" stroke-miterlimit="10" stroke-width="3"/><line x1="479.54" y1="28.07" x2="495.9" y2="44.43" fill="none" stroke="#bf9de0" stroke-miterlimit="10" stroke-width="3"/><line x1="446.37" y1="197.91" x2="462.73" y2="181.55" fill="none" stroke="#bf9de0" stroke-miterlimit="10" stroke-width="3"/><line x1="446.37" y1="181.55" x2="462.73" y2="197.91" fill="none" stroke="#bf9de0" stroke-miterlimit="10" stroke-width="3"/><line x1="299.06" y1="98.42" x2="315.42" y2="82.06" fill="none" stroke="#bf9de0" stroke-miterlimit="10" stroke-width="3"/><line x1="299.06" y1="82.06" x2="315.42" y2="98.42" fill="none" stroke="#bf9de0" stroke-miterlimit="10" stroke-width="3"/><line x1="126.29" y1="158.58" x2="142.65" y2="142.22" fill="none" stroke="#bf9de0" stroke-miterlimit="10" stroke-width="3"/><line x1="126.29" y1="142.22" x2="142.65" y2="158.58" fill="none" stroke="#bf9de0" stroke-miterlimit="10" stroke-width="3"/><line x1="295.97" y1="204.08" x2="312.33" y2="187.72" fill="none" stroke="#bf9de0" stroke-miterlimit="10" stroke-width="3"/><line x1="295.97" y1="187.72" x2="312.33" y2="204.08" fill="none" stroke="#bf9de0" stroke-miterlimit="10" stroke-width="3"/><line x1="594.46" y1="272.73" x2="610.82" y2="256.37" fill="none" stroke="#bf9de0" stroke-miterlimit="10" stroke-width="3"/><line x1="594.46" y1="256.37" x2="610.82" y2="272.73" fill="none" stroke="#bf9de0" stroke-miterlimit="10" stroke-width="3"/><line x1="472.29" y1="124.18" x2="472.29" y2="139.6" fill="none" stroke="#bf9de0" stroke-miterlimit="10" stroke-width="3"/><line x1="464.58" y1="131.89" x2="480" y2="131.89" fill="none" stroke="#bf9de0" stroke-miterlimit="10" stroke-width="3"/><line x1="466.84" y1="137.34" x2="477.75" y2="126.43" fill="none" stroke="#bf9de0" stroke-miterlimit="10" stroke-width="3"/><line x1="466.84" y1="126.43" x2="477.75" y2="137.34" fill="none" stroke="#bf9de0" stroke-miterlimit="10" stroke-width="3"/><line x1="498.51" y1="218.27" x2="498.51" y2="233.7" fill="none" stroke="#bf9de0" stroke-miterlimit="10" stroke-width="3"/><line x1="490.8" y1="225.98" x2="506.23" y2="225.98" fill="none" stroke="#bf9de0" stroke-miterlimit="10" stroke-width="3"/><line x1="493.06" y1="231.44" x2="503.97" y2="220.53" fill="none" stroke="#bf9de0" stroke-miterlimit="10" stroke-width="3"/><line x1="493.06" y1="220.53" x2="503.97" y2="231.44" fill="none" stroke="#bf9de0" stroke-miterlimit="10" stroke-width="3"/><line x1="369.71" y1="80.98" x2="369.71" y2="96.41" fill="none" stroke="#bf9de0" stroke-miterlimit="10" stroke-width="3"/><line x1="362" y1="88.7" x2="377.42" y2="88.7" fill="none" stroke="#bf9de0" stroke-miterlimit="10" stroke-width="3"/><line x1="364.26" y1="94.15" x2="375.17" y2="83.24" fill="none" stroke="#bf9de0" stroke-miterlimit="10" stroke-width="3"/><line x1="364.26" y1="83.24" x2="375.17" y2="94.15" fill="none" stroke="#bf9de0" stroke-miterlimit="10" stroke-width="3"/><line x1="152.21" y1="106.44" x2="152.21" y2="121.86" fill="none" stroke="#bf9de0" stroke-miterlimit="10" stroke-width="3"/><line x1="144.5" y1="114.15" x2="159.92" y2="114.15" fill="none" stroke="#bf9de0" stroke-miterlimit="10" stroke-width="3"/><line x1="146.76" y1="119.6" x2="157.67" y2="108.7" fill="none" stroke="#bf9de0" stroke-miterlimit="10" stroke-width="3"/><line x1="146.76" y1="108.7" x2="157.67" y2="119.6" fill="none" stroke="#bf9de0" stroke-miterlimit="10" stroke-width="3"/><line x1="19.55" y1="249.12" x2="19.55" y2="264.55" fill="none" stroke="#bf9de0" stroke-miterlimit="10" stroke-width="3"/><line x1="11.84" y1="256.84" x2="27.26" y2="256.84" fill="none" stroke="#bf9de0" stroke-miterlimit="10" stroke-width="3"/><line x1="14.1" y1="262.29" x2="25.01" y2="251.38" fill="none" stroke="#bf9de0" stroke-miterlimit="10" stroke-width="3"/><line x1="14.1" y1="251.38" x2="25.01" y2="262.29" fill="none" stroke="#bf9de0" stroke-miterlimit="10" stroke-width="3"/><line x1="182.29" y1="249.89" x2="182.29" y2="265.32" fill="none" stroke="#bf9de0" stroke-miterlimit="10" stroke-width="3"/><line x1="174.58" y1="257.61" x2="190" y2="257.61" fill="none" stroke="#bf9de0" stroke-miterlimit="10" stroke-width="3"/><line x1="176.84" y1="263.06" x2="187.75" y2="252.15" fill="none" stroke="#bf9de0" stroke-miterlimit="10" stroke-width="3"/><line x1="176.84" y1="252.15" x2="187.75" y2="263.06" fill="none" stroke="#bf9de0" stroke-miterlimit="10" stroke-width="3"/><line x1="392.85" y1="240.64" x2="392.85" y2="256.06" fill="none" stroke="#bf9de0" stroke-miterlimit="10" stroke-width="3"/><line x1="385.14" y1="248.35" x2="400.56" y2="248.35" fill="none" stroke="#bf9de0" stroke-miterlimit="10" stroke-width="3"/><line x1="387.4" y1="253.8" x2="398.3" y2="242.9" fill="none" stroke="#bf9de0" stroke-miterlimit="10" stroke-width="3"/><line x1="387.4" y1="242.9" x2="398.3" y2="253.8" fill="none" stroke="#bf9de0" stroke-miterlimit="10" stroke-width="3"/><line x1="227.03" y1="183.56" x2="227.03" y2="198.99" fill="none" stroke="#bf9de0" stroke-miterlimit="10" stroke-width="3"/><line x1="219.31" y1="191.28" x2="234.74" y2="191.28" fill="none" stroke="#bf9de0" stroke-miterlimit="10" stroke-width="3"/><line x1="221.57" y1="196.73" x2="232.48" y2="185.82" fill="none" stroke="#bf9de0" stroke-miterlimit="10" stroke-width="3"/><line x1="221.57" y1="185.82" x2="232.48" y2="196.73" fill="none" stroke="#bf9de0" stroke-miterlimit="10" stroke-width="3"/><line x1="395.16" x2="395.16" y2="15.43" fill="none" stroke="#bf9de0" stroke-miterlimit="10" stroke-width="3"/><line x1="387.45" y1="7.71" x2="402.88" y2="7.71" fill="none" stroke="#bf9de0" stroke-miterlimit="10" stroke-width="3"/><line x1="389.71" y1="13.17" x2="400.62" y2="2.26" fill="none" stroke="#bf9de0" stroke-miterlimit="10" stroke-width="3"/><line x1="389.71" y1="2.26" x2="400.62" y2="13.17" fill="none" stroke="#bf9de0" stroke-miterlimit="10" stroke-width="3"/><line x1="273.3" y1="71.73" x2="273.3" y2="87.15" fill="none" stroke="#bf9de0" stroke-miterlimit="10" stroke-width="3"/><line x1="265.59" y1="79.44" x2="281.01" y2="79.44" fill="none" stroke="#bf9de0" stroke-miterlimit="10" stroke-width="3"/><line x1="267.85" y1="84.9" x2="278.76" y2="73.99" fill="none" stroke="#bf9de0" stroke-miterlimit="10" stroke-width="3"/><line x1="267.85" y1="73.99" x2="278.76" y2="84.9" fill="none" stroke="#bf9de0" stroke-miterlimit="10" stroke-width="3"/><line x1="744.55" y1="273.8" x2="744.55" y2="289.23" fill="none" stroke="#bf9de0" stroke-miterlimit="10" stroke-width="3"/><line x1="736.84" y1="281.52" x2="752.26" y2="281.52" fill="none" stroke="#bf9de0" stroke-miterlimit="10" stroke-width="3"/><line x1="739.1" y1="286.97" x2="750.01" y2="276.06" fill="none" stroke="#bf9de0" stroke-miterlimit="10" stroke-width="3"/><line x1="739.1" y1="276.06" x2="750.01" y2="286.97" fill="none" stroke="#bf9de0" stroke-miterlimit="10" stroke-width="3"/><line x1="612.66" y1="211.33" x2="612.66" y2="226.76" fill="none" stroke="#bf9de0" stroke-miterlimit="10" stroke-width="3"/><line x1="604.95" y1="219.04" x2="620.38" y2="219.04" fill="none" stroke="#bf9de0" stroke-miterlimit="10" stroke-width="3"/><line x1="607.21" y1="224.5" x2="618.12" y2="213.59" fill="none" stroke="#bf9de0" stroke-miterlimit="10" stroke-width="3"/><line x1="607.21" y1="213.59" x2="618.12" y2="224.5" fill="none" stroke="#bf9de0" stroke-miterlimit="10" stroke-width="3"/><line x1="709.84" y1="195.13" x2="709.84" y2="210.56" fill="none" stroke="#bf9de0" stroke-miterlimit="10" stroke-width="3"/><line x1="702.13" y1="202.85" x2="717.56" y2="202.85" fill="none" stroke="#bf9de0" stroke-miterlimit="10" stroke-width="3"/><line x1="704.39" y1="208.3" x2="715.3" y2="197.39" fill="none" stroke="#bf9de0" stroke-miterlimit="10" stroke-width="3"/><line x1="704.39" y1="197.39" x2="715.3" y2="208.3" fill="none" stroke="#bf9de0" stroke-miterlimit="10" stroke-width="3"/><line x1="598.78" y1="80.21" x2="598.78" y2="95.64" fill="none" stroke="#bf9de0" stroke-miterlimit="10" stroke-width="3"/><line x1="591.07" y1="87.93" x2="606.49" y2="87.93" fill="none" stroke="#bf9de0" stroke-miterlimit="10" stroke-width="3"/><line x1="593.33" y1="93.38" x2="604.23" y2="82.47" fill="none" stroke="#bf9de0" stroke-miterlimit="10" stroke-width="3"/><line x1="593.33" y1="82.47" x2="604.23" y2="93.38" fill="none" stroke="#bf9de0" stroke-miterlimit="10" stroke-width="3"/><line x1="546.33" y1="38.56" x2="546.33" y2="53.99" fill="none" stroke="#bf9de0" stroke-miterlimit="10" stroke-width="3"/><line x1="538.62" y1="46.28" x2="554.05" y2="46.28" fill="none" stroke="#bf9de0" stroke-miterlimit="10" stroke-width="3"/><line x1="540.88" y1="51.73" x2="551.79" y2="40.82" fill="none" stroke="#bf9de0" stroke-miterlimit="10" stroke-width="3"/><line x1="540.88" y1="40.82" x2="551.79" y2="51.73" fill="none" stroke="#bf9de0" stroke-miterlimit="10" stroke-width="3"/><line x1="520.83" y1="123.46" x2="531.73" y2="112.55" fill="none" stroke="#bf9de0" stroke-miterlimit="10" stroke-width="3"/><line x1="520.83" y1="112.55" x2="531.73" y2="123.46" fill="none" stroke="#bf9de0" stroke-miterlimit="10" stroke-width="3"/><line x1="436.76" y1="140.43" x2="447.67" y2="129.52" fill="none" stroke="#bf9de0" stroke-miterlimit="10" stroke-width="3"/><line x1="436.76" y1="129.52" x2="447.67" y2="140.43" fill="none" stroke="#bf9de0" stroke-miterlimit="10" stroke-width="3"/><line x1="44.18" y1="196.73" x2="55.09" y2="185.82" fill="none" stroke="#bf9de0" stroke-miterlimit="10" stroke-width="3"/><line x1="44.18" y1="185.82" x2="55.09" y2="196.73" fill="none" stroke="#bf9de0" stroke-miterlimit="10" stroke-width="3"/><line x1="315.67" y1="244.55" x2="326.58" y2="233.64" fill="none" stroke="#bf9de0" stroke-miterlimit="10" stroke-width="3"/><line x1="315.67" y1="233.64" x2="326.58" y2="244.55" fill="none" stroke="#bf9de0" stroke-miterlimit="10" stroke-width="3"/><line x1="213.86" y1="226.04" x2="224.77" y2="215.13" fill="none" stroke="#bf9de0" stroke-miterlimit="10" stroke-width="3"/><line x1="213.86" y1="215.13" x2="224.77" y2="226.04" fill="none" stroke="#bf9de0" stroke-miterlimit="10" stroke-width="3"/><line x1="358.09" y1="139.66" x2="369" y2="128.75" fill="none" stroke="#bf9de0" stroke-miterlimit="10" stroke-width="3"/><line x1="358.09" y1="128.75" x2="369" y2="139.66" fill="none" stroke="#bf9de0" stroke-miterlimit="10" stroke-width="3"/><line x1="258.59" y1="60.21" x2="269.5" y2="49.31" fill="none" stroke="#bf9de0" stroke-miterlimit="10" stroke-width="3"/><line x1="258.59" y1="49.31" x2="269.5" y2="60.21" fill="none" stroke="#bf9de0" stroke-miterlimit="10" stroke-width="3"/><line x1="204.6" y1="132.71" x2="215.51" y2="121.81" fill="none" stroke="#bf9de0" stroke-miterlimit="10" stroke-width="3"/><line x1="204.6" y1="121.81" x2="215.51" y2="132.71" fill="none" stroke="#bf9de0" stroke-miterlimit="10" stroke-width="3"/><line x1="176.07" y1="64.07" x2="186.97" y2="53.16" fill="none" stroke="#bf9de0" stroke-miterlimit="10" stroke-width="3"/><line x1="176.07" y1="53.16" x2="186.97" y2="64.07" fill="none" stroke="#bf9de0" stroke-miterlimit="10" stroke-width="3"/><line x1="145.22" y1="255.35" x2="156.12" y2="244.44" fill="none" stroke="#bf9de0" stroke-miterlimit="10" stroke-width="3"/><line x1="145.22" y1="244.44" x2="156.12" y2="255.35" fill="none" stroke="#bf9de0" stroke-miterlimit="10" stroke-width="3"/><line x1="62.69" y1="282.34" x2="73.6" y2="271.43" fill="none" stroke="#bf9de0" stroke-miterlimit="10" stroke-width="3"/><line x1="62.69" y1="271.43" x2="73.6" y2="282.34" fill="none" stroke="#bf9de0" stroke-miterlimit="10" stroke-width="3"/><line x1="475.32" y1="253.8" x2="486.23" y2="242.9" fill="none" stroke="#bf9de0" stroke-miterlimit="10" stroke-width="3"/><line x1="475.32" y1="242.9" x2="486.23" y2="253.8" fill="none" stroke="#bf9de0" stroke-miterlimit="10" stroke-width="3"/><line x1="351.15" y1="50.19" x2="362.05" y2="39.28" fill="none" stroke="#bf9de0" stroke-miterlimit="10" stroke-width="3"/><line x1="351.15" y1="39.28" x2="362.05" y2="50.19" fill="none" stroke="#bf9de0" stroke-miterlimit="10" stroke-width="3"/><line x1="621.86" y1="163.57" x2="632.77" y2="152.66" fill="none" stroke="#bf9de0" stroke-miterlimit="10" stroke-width="3"/><line x1="621.86" y1="152.66" x2="632.77" y2="163.57" fill="none" stroke="#bf9de0" stroke-miterlimit="10" stroke-width="3"/><line x1="661.2" y1="283.11" x2="672.11" y2="272.21" fill="none" stroke="#bf9de0" stroke-miterlimit="10" stroke-width="3"/><line x1="661.2" y1="272.21" x2="672.11" y2="283.11" fill="none" stroke="#bf9de0" stroke-miterlimit="10" stroke-width="3"/><polyline points="390.11 277.91 371.79 259.6 342.46 288.91 379.1 288.91" fill="none" stroke="#bf9de0" stroke-miterlimit="10" stroke-width="3"/><polygon points="419.59 288.91 399.35 268.68 379.1 288.91 419.59 288.91" fill="none" stroke="#bf9de0" stroke-miterlimit="10" stroke-width="3"/><polyline points="593.81 235.21 584.65 226.05 569.99 240.71 588.31 240.71" fill="none" stroke="#bf9de0" stroke-miterlimit="10" stroke-width="3"/><polygon points="608.55 240.71 598.43 230.59 588.31 240.71 608.55 240.71" fill="none" stroke="#bf9de0" stroke-miterlimit="10" stroke-width="3"/><polyline points="220.51 70.15 211.35 61 196.69 75.65 215.01 75.65" fill="none" stroke="#bf9de0" stroke-miterlimit="10" stroke-width="3"/><polygon points="235.25 75.65 225.13 65.54 215.01 75.65 235.25 75.65" fill="none" stroke="#bf9de0" stroke-miterlimit="10" stroke-width="3"/><polyline points="225.14 256.03 215.98 246.88 201.32 261.53 219.64 261.53" fill="none" stroke="#bf9de0" stroke-miterlimit="10" stroke-width="3"/><polygon points="239.88 261.53 229.76 251.42 219.64 261.53 239.88 261.53" fill="none" stroke="#bf9de0" stroke-miterlimit="10" stroke-width="3"/><polyline points="454.98 45.47 445.82 36.32 431.16 50.97 449.48 50.97" fill="none" stroke="#bf9de0" stroke-miterlimit="10" stroke-width="3"/><polygon points="469.72 50.97 459.6 40.86 449.48 50.97 469.72 50.97" fill="none" stroke="#bf9de0" stroke-miterlimit="10" stroke-width="3"/><polyline points="411.02 182.76 401.86 173.61 387.2 188.26 405.52 188.26" fill="none" stroke="#bf9de0" stroke-miterlimit="10" stroke-width="3"/><polygon points="425.76 188.26 415.64 178.14 405.52 188.26 425.76 188.26" fill="none" stroke="#bf9de0" stroke-miterlimit="10" stroke-width="3"/><polyline points="633.92 103.32 624.76 94.17 610.1 108.82 628.41 108.82" fill="none" stroke="#bf9de0" stroke-miterlimit="10" stroke-width="3"/><polygon points="648.66 108.82 638.54 98.7 628.41 108.82 648.66 108.82" fill="none" stroke="#bf9de0" stroke-miterlimit="10" stroke-width="3"/><circle cx="535.94" cy="148.44" r="5.78" fill="none" stroke="#bf9de0" stroke-miterlimit="10" stroke-width="3"/><polyline points="557.35 182.51 538.92 164.09 518.02 184.98" fill="none" stroke="#bf9de0" stroke-miterlimit="10" stroke-width="3"/><polyline points="529.17 173.84 509.83 154.5 490.47 173.86" fill="none" stroke="#bf9de0" stroke-miterlimit="10" stroke-width="3"/><path d="M555.68,137V183H492.27V137h63.41m3-3H489.27V186h69.41V134Z" fill="#bf9de0"/><path d="M555.68,137V183H492.27V137h63.41m3-3H489.27V186h69.41V134Z" fill="#bf9de0"/><polyline points="269.79 132.91 251.47 114.6 222.14 143.91 258.78 143.91" fill="none" stroke="#bf9de0" stroke-miterlimit="10" stroke-width="3"/><polygon points="299.27 143.91 279.03 123.68 258.78 143.91 299.27 143.91" fill="none" stroke="#bf9de0" stroke-miterlimit="10" stroke-width="3"/></g></g></svg>