<svg xmlns="http://www.w3.org/2000/svg" viewBox="0 0 481 250"><title>feature-gif</title><g id="2ad50772-9334-4f8a-9c8a-77943f32e71f" data-name="Layer 2"><g id="c8eb66fe-9882-4bfa-8348-78362ae40183" data-name="Content"><rect width="481" height="250" fill="#fff"/><path d="M244.5,61.45v50.43l25.66-25.07,25.07,25.07,12.64-12.64,24.63,23.9V61.45Zm58.65,32.63a7.5,7.5,0,1,1,7.5-7.5A7.5,7.5,0,0,1,303.15,94.08Z" fill="#f9f2ff"/><path d="M243.5,60.2v67.5h90V60.2Zm3,64.5V112.6l23.66-23.66,22.95,23L280.29,124.7Zm84,0h-46l23.34-23.34L330.5,124Zm0-5L307.87,97.13l-12.64,12.64L270.16,84.7,246.5,108.35V63.2h84Z" fill="#7c5cd1"/><path d="M303.15,95.58a9,9,0,1,0-9-9A9,9,0,0,0,303.15,95.58Zm0-15a6,6,0,1,1-6,6A6,6,0,0,1,303.15,80.58Z" fill="#7c5cd1"/><path d="M148.5,105.45v50.43l25.66-25.07,25.07,25.07,5.56-5.56a7.5,7.5,0,1,1,11-3.3l20.72,20.11V105.45Z" fill="#f9f2ff"/><path d="M147.5,104.2v67.5h90V104.2Zm87,3v56.55l-17-17a9,9,0,1,0-14.92,3.7l-3.33,3.33L174.16,128.7,150.5,152.35V107.2Zm-29.82,41.11a6,6,0,1,1,10.21-4.26s0,.05,0,.08l-3-3ZM150.5,156.6l23.66-23.66,22.95,23L184.29,168.7H150.5Zm38,12.11,23.34-23.34L234.5,168v.71Z" fill="#7c5cd1"/><polygon id="2f2e856b-a948-4ce6-9bff-854f582eafe0" data-name="SVGID" points="140.5 167.15 115.87 143.25 103.23 155.89 78.16 130.82 52.5 155.89 52.5 105.45 140.5 105.45 140.5 167.15" fill="#f9f2ff"/><path d="M51.5,104.2v67.5h90V104.2Zm87,3v56.55l-22.63-22.63-12.64,12.64L78.16,128.7,54.5,152.35V107.2Zm-84,49.39,23.66-23.66,22.95,23L88.29,168.7H54.5Zm38,12.11,23.34-23.34L138.5,168v.71Z" fill="#7c5cd1"/><polygon points="298.16 162.99 285.89 149.8 273.62 162.99 275.82 165.04 284.39 155.81 284.39 189.8 287.39 189.8 287.39 155.82 295.96 165.04 298.16 162.99" fill="#ff645c"/><path d="M340.5,105v51.36l25.63-25.5,25.5,24.75,12-12,24.88,24V105ZM400,130.45a7.5,7.5,0,1,1,7.5-7.5A7.5,7.5,0,0,1,400,130.45Z" fill="#f9f2ff"/><path d="M400,132a9,9,0,1,0-9-9A9,9,0,0,0,400,132Zm0-15a6,6,0,1,1-6,6A6,6,0,0,1,400,117Z" fill="#7c5cd1"/><path d="M429.81,166.88l-.31-.3V104.2h-90v51.11l-.31.31.31.31V171.7h90v-4.52ZM342.5,107.2h84v56.39l-22.63-22.46-12.64,12.64L366.16,128.7,342.5,152.32Zm0,49.36,23.66-23.62,23,23L376.29,168.7H342.5Zm38,12.14,23.34-23.34,22.63,22.46v.88Z" fill="#7c5cd1"/></g></g></svg>