<svg xmlns="http://www.w3.org/2000/svg" width="480.64" height="300.21" viewBox="0 0 480.64 300.21"><title>feature-exif</title><polygon points="308.56 192.98 299.91 184.34 291.27 192.98 308.56 192.98" fill="#f2f0ed"/><polygon points="213.7 128.95 205.05 120.3 196.41 128.95 213.7 128.95" fill="#f2f0ed"/><polygon points="64.33 74.14 55.68 65.5 47.04 74.14 64.33 74.14" fill="#f2f0ed"/><polygon points="121 274.06 112.36 265.42 103.72 274.06 121 274.06" fill="#f2f0ed"/><polygon points="423.03 297.34 414.39 288.7 405.74 297.34 423.03 297.34" fill="#f2f0ed"/><polygon points="392.63 191.99 401.28 200.64 409.92 191.99 392.63 191.99" fill="#f2f0ed"/><polygon points="462.57 2.72 471.21 11.36 479.85 2.72 462.57 2.72" fill="#f2f0ed"/><polygon points="12.1 126.58 20.74 135.22 29.38 126.58 12.1 126.58" fill="#f2f0ed"/><polygon points="191.05 231.96 199.69 240.6 208.33 231.96 191.05 231.96" fill="#f2f0ed"/><polygon points="155.75 62.26 164.4 70.9 173.04 62.26 155.75 62.26" fill="#f2f0ed"/><circle cx="325.99" cy="58.25" r="4" fill="#f2f0ed"/><circle cx="248.59" cy="7.68" r="4" fill="#f2f0ed"/><circle cx="252.59" cy="236.28" r="4" fill="#f2f0ed"/><circle cx="373.85" cy="123.5" r="4" fill="#f2f0ed"/><circle cx="426.71" cy="11.68" r="4" fill="#f2f0ed"/><circle cx="364.36" cy="249.96" r="4" fill="#f2f0ed"/><circle cx="315.59" cy="295.02" r="4" fill="#f2f0ed"/><circle cx="475.21" cy="139.7" r="4" fill="#f2f0ed"/><circle cx="196.41" cy="58.76" r="4" fill="#f2f0ed"/><circle cx="91.46" cy="21.77" r="4" fill="#f2f0ed"/><circle cx="4.36" cy="42.28" r="4" fill="#f2f0ed"/><circle cx="200.41" cy="5.09" r="4" fill="#f2f0ed"/><circle cx="151.84" cy="193" r="4" fill="#f2f0ed"/><circle cx="60.52" cy="296.13" r="4" fill="#f2f0ed"/><circle cx="73.2" cy="118.22" r="4" fill="#f2f0ed"/><path d="M257.93,57.11,249.09,66l-8.84-8.84h17.68m8.45-3.5H231.8L249.09,70.9l17.29-17.29Z" fill="#f2f0ed"/><path d="M55.88,33.92,47,42.75,38.2,33.92H55.88m8.45-3.5H29.75L47,47.7,64.33,30.42Z" fill="#f2f0ed"/><path d="M377.2,282.77l-8.84,8.84-8.84-8.84H377.2m8.45-3.5H351.07l17.29,17.29,17.29-17.29Z" fill="#f2f0ed"/><path d="M127.59,233.72l-8.84,8.84-8.84-8.84h17.68m8.45-3.5H101.47l17.29,17.29L136,230.22Z" fill="#f2f0ed"/><path d="M467,157.81l-8.84,8.84-8.84-8.84H467m8.45-3.5H440.88l17.29,17.29,17.29-17.29Z" fill="#f2f0ed"/><path d="M288.44,233.52l8.84,8.84H279.6l8.84-8.84m0-4.95-17.29,17.29h34.57l-17.29-17.29Z" fill="#f2f0ed"/><path d="M88.53,80.63l8.84,8.84H79.69l8.84-8.84m0-4.95L71.24,93h34.57L88.53,75.68Z" fill="#f2f0ed"/><path d="M27.65,200.49l8.84,8.84H18.82l8.84-8.84m0-4.95L10.37,212.83H44.94L27.65,195.54Z" fill="#f2f0ed"/><path d="M461.73,214.75l8.84,8.84H452.89l8.84-8.84m0-4.95-17.29,17.29H479L461.73,209.8Z" fill="#f2f0ed"/><path d="M414.39,34.52l8.84,8.84H405.55l8.84-8.84m0-4.95L397.1,46.86h34.57L414.39,29.57Z" fill="#f2f0ed"/><path d="M218.16,71.71a1.69,1.69,0,1,1-1.69,1.69,1.69,1.69,0,0,1,1.69-1.69m0-3.5a5.19,5.19,0,1,0,5.19,5.19,5.19,5.19,0,0,0-5.19-5.19Z" fill="#f2f0ed"/><path d="M110,64.71a1.69,1.69,0,1,1-1.69,1.69A1.69,1.69,0,0,1,110,64.71m0-3.5a5.19,5.19,0,1,0,5.19,5.19A5.19,5.19,0,0,0,110,61.21Z" fill="#f2f0ed"/><path d="M25.92,62.07a1.69,1.69,0,1,1-1.69,1.69,1.69,1.69,0,0,1,1.69-1.69m0-3.5a5.19,5.19,0,1,0,5.19,5.19,5.19,5.19,0,0,0-5.19-5.19Z" fill="#f2f0ed"/><path d="M118.75,137.82a1.69,1.69,0,1,1-1.69,1.69,1.69,1.69,0,0,1,1.69-1.69m0-3.5a5.19,5.19,0,1,0,5.19,5.19,5.19,5.19,0,0,0-5.19-5.19Z" fill="#f2f0ed"/><path d="M5.53,145a1.69,1.69,0,1,1-1.69,1.69A1.69,1.69,0,0,1,5.53,145m0-3.5a5.19,5.19,0,1,0,5.19,5.19,5.19,5.19,0,0,0-5.19-5.19Z" fill="#f2f0ed"/><path d="M62.63,220.34A1.69,1.69,0,1,1,60.95,222a1.69,1.69,0,0,1,1.69-1.69m0-3.5A5.19,5.19,0,1,0,67.82,222a5.19,5.19,0,0,0-5.19-5.19Z" fill="#f2f0ed"/><path d="M6.13,293.33A1.69,1.69,0,1,1,4.44,295a1.69,1.69,0,0,1,1.69-1.69m0-3.5A5.19,5.19,0,1,0,11.31,295a5.19,5.19,0,0,0-5.19-5.19Z" fill="#f2f0ed"/><path d="M320.77,121.82a1.69,1.69,0,1,1-1.69,1.69,1.69,1.69,0,0,1,1.69-1.69m0-3.5A5.19,5.19,0,1,0,326,123.5a5.19,5.19,0,0,0-5.19-5.19Z" fill="#f2f0ed"/><path d="M310.84,215.49a1.69,1.69,0,1,1-1.69,1.69,1.69,1.69,0,0,1,1.69-1.69m0-3.5a5.19,5.19,0,1,0,5.19,5.19,5.19,5.19,0,0,0-5.19-5.19Z" fill="#f2f0ed"/><path d="M250.82,289.21a1.69,1.69,0,1,1-1.69,1.69,1.69,1.69,0,0,1,1.69-1.69m0-3.5a5.19,5.19,0,1,0,5.19,5.19,5.19,5.19,0,0,0-5.19-5.19Z" fill="#f2f0ed"/><path d="M151.84,245.82a1.69,1.69,0,1,1-1.69,1.69,1.69,1.69,0,0,1,1.69-1.69m0-3.5A5.19,5.19,0,1,0,157,247.5a5.19,5.19,0,0,0-5.19-5.19Z" fill="#f2f0ed"/><path d="M366.36,190.32a1.69,1.69,0,1,1-1.69,1.69,1.69,1.69,0,0,1,1.69-1.69m0-3.5a5.19,5.19,0,1,0,5.19,5.19,5.19,5.19,0,0,0-5.19-5.19Z" fill="#f2f0ed"/><path d="M387,72.13a1.69,1.69,0,1,1-1.69,1.69A1.69,1.69,0,0,1,387,72.13m0-3.5a5.19,5.19,0,1,0,5.19,5.19A5.19,5.19,0,0,0,387,68.63Z" fill="#f2f0ed"/><path d="M335.07,4a1.69,1.69,0,1,1-1.69,1.69A1.69,1.69,0,0,1,335.07,4m0-3.5a5.19,5.19,0,1,0,5.19,5.19A5.19,5.19,0,0,0,335.07.49Z" fill="#f2f0ed"/><path d="M468.67,185.71A1.69,1.69,0,1,1,467,187.4a1.69,1.69,0,0,1,1.69-1.69m0-3.5a5.19,5.19,0,1,0,5.19,5.19,5.19,5.19,0,0,0-5.19-5.19Z" fill="#f2f0ed"/><path d="M440.35,241.15a1.69,1.69,0,1,1-1.69,1.69,1.69,1.69,0,0,1,1.69-1.69m0-3.5a5.19,5.19,0,1,0,5.19,5.19,5.19,5.19,0,0,0-5.19-5.19Z" fill="#f2f0ed"/><path d="M446.74,61.07a1.69,1.69,0,1,1-1.69,1.69,1.69,1.69,0,0,1,1.69-1.69m0-3.5a5.19,5.19,0,1,0,5.19,5.19,5.19,5.19,0,0,0-5.19-5.19Z" fill="#f2f0ed"/><path d="M298.76,48.15A6.87,6.87,0,1,1,291.88,55a6.88,6.88,0,0,1,6.87-6.87m0-3.5A10.37,10.37,0,1,0,309.13,55a10.37,10.37,0,0,0-10.37-10.37Z" fill="#f2f0ed"/><path d="M83.76,45.26a6.87,6.87,0,1,1-6.87,6.87,6.88,6.88,0,0,1,6.87-6.87m0-3.5A10.37,10.37,0,1,0,94.13,52.13,10.37,10.37,0,0,0,83.76,41.76Z" fill="#f2f0ed"/><path d="M57.37,140.63a6.87,6.87,0,1,1-6.87,6.87,6.88,6.88,0,0,1,6.87-6.87m0-3.5A10.37,10.37,0,1,0,67.74,147.5a10.37,10.37,0,0,0-10.37-10.37Z" fill="#f2f0ed"/><path d="M167.3,4.17A6.87,6.87,0,1,1,160.42,11a6.88,6.88,0,0,1,6.87-6.87m0-3.5A10.37,10.37,0,1,0,177.67,11,10.37,10.37,0,0,0,167.3.67Z" fill="#f2f0ed"/><path d="M120.37,192.13A6.87,6.87,0,1,1,113.5,199a6.88,6.88,0,0,1,6.87-6.87m0-3.5A10.37,10.37,0,1,0,130.74,199a10.37,10.37,0,0,0-10.37-10.37Z" fill="#f2f0ed"/><path d="M34.57,271.18A6.87,6.87,0,1,1,27.7,278a6.88,6.88,0,0,1,6.87-6.87m0-3.5A10.37,10.37,0,1,0,44.94,278a10.37,10.37,0,0,0-10.37-10.37Z" fill="#f2f0ed"/><path d="M420.51,131.39a6.87,6.87,0,1,1-6.87,6.87,6.88,6.88,0,0,1,6.87-6.87m0-3.5a10.37,10.37,0,1,0,10.37,10.37,10.37,10.37,0,0,0-10.37-10.37Z" fill="#f2f0ed"/><path d="M448.18,21.82a6.87,6.87,0,1,1-6.87,6.87,6.88,6.88,0,0,1,6.87-6.87m0-3.5a10.37,10.37,0,1,0,10.37,10.37,10.37,10.37,0,0,0-10.37-10.37Z" fill="#f2f0ed"/><path d="M468.67,247.28a6.87,6.87,0,1,1-6.87,6.87,6.88,6.88,0,0,1,6.87-6.87m0-3.5A10.37,10.37,0,1,0,479,254.15a10.37,10.37,0,0,0-10.37-10.37Z" fill="#f2f0ed"/><path d="M332.21,244.82a6.87,6.87,0,1,1-6.87,6.87,6.88,6.88,0,0,1,6.87-6.87m0-3.5a10.37,10.37,0,1,0,10.37,10.37,10.37,10.37,0,0,0-10.37-10.37Z" fill="#f2f0ed"/><path d="M178.95,251.28a6.87,6.87,0,1,1-6.87,6.87,6.88,6.88,0,0,1,6.87-6.87m0-3.5a10.37,10.37,0,1,0,10.37,10.37,10.37,10.37,0,0,0-10.37-10.37Z" fill="#f2f0ed"/><path d="M196.19,89.32v13.74H175.53V89.32h20.66m3.5-3.5H172v20.74h27.66V85.82Z" fill="#f2f0ed"/><path d="M136.54,9V22.75H115.88V9h20.66M140,5.5H112.38V26.25H140V5.5Z" fill="#f2f0ed"/><path d="M411.17,251.28V265H390.51V251.28h20.66m3.5-3.5H387v20.74h27.66V247.78Z" fill="#f2f0ed"/><path d="M476.05,83.69V97.43H455.4V83.69h20.66m3.5-3.5H451.9v20.74h27.66V80.19Z" fill="#f2f0ed"/><path d="M73.09,177.79v13.74H52.43V177.79H73.09m3.5-3.5H48.93V195H76.59V174.29Z" fill="#f2f0ed"/><path d="M397.34,3.5V17.24H376.68V3.5h20.66m3.5-3.5H373.18V20.74h27.66V0Z" fill="#f2f0ed"/><path d="M341.94,182.67v20.66H328.2V182.67h13.74m3.5-3.5H324.7v27.66h20.74V179.17Z" fill="#f2f0ed"/><path d="M154.71,274.63v20.66H141V274.63h13.74m3.5-3.5H137.46v27.66h20.74V271.13Z" fill="#f2f0ed"/><path d="M17.59,232.65v20.66H3.84V232.65H17.59m3.5-3.5H.34v27.66H21.09V229.15Z" fill="#f2f0ed"/><path d="M407.59,94.06v20.66H393.85V94.06h13.74m3.5-3.5H390.35v27.66h20.74V90.56Z" fill="#f2f0ed"/><path d="M228.32,15.76V36.42H214.57V15.76h13.74m3.5-3.5H211.07V39.92h20.74V12.26Z" fill="#f2f0ed"/><path d="M49.08,92.59v20.66H35.34V92.59H49.08m3.5-3.5H31.84v27.66H52.58V89.09Z" fill="#f2f0ed"/><rect x="293.97" y="1.77" width="6.91" height="10.37" fill="#f2f0ed"/><rect x="159.5" y="35.16" width="6.91" height="10.37" fill="#f2f0ed"/><rect x="27.65" y="155.77" width="6.91" height="10.37" fill="#f2f0ed"/><rect x="428.36" y="101.79" width="6.91" height="10.37" fill="#f2f0ed"/><rect x="331.61" y="278.04" width="6.91" height="10.37" fill="#f2f0ed"/><rect x="337.85" y="154.05" width="10.37" height="6.91" fill="#f2f0ed"/><rect x="372.86" y="37.6" width="10.37" height="6.91" fill="#f2f0ed"/><rect x="470.27" y="292.1" width="10.37" height="6.91" fill="#f2f0ed"/><rect x="260.44" y="257.33" width="10.37" height="6.91" fill="#f2f0ed"/><rect x="96.8" y="113.21" width="10.37" height="6.91" fill="#f2f0ed"/><rect x="86.28" y="209.38" width="10.37" height="6.91" fill="#f2f0ed"/><polygon points="168.24 129.7 161.97 129.7 166.4 125.27 163.93 122.79 159.49 127.23 159.49 120.95 155.99 120.95 155.99 127.23 151.55 122.79 149.08 125.27 153.52 129.7 147.24 129.7 147.24 133.2 153.52 133.2 149.08 137.64 151.55 140.12 155.99 135.68 155.99 141.95 159.49 141.95 159.49 135.68 163.93 140.12 166.4 137.64 161.97 133.2 168.24 133.2 168.24 129.7" fill="#f2f0ed"/><polygon points="66.18 248.21 59.91 248.21 64.35 243.77 61.87 241.3 57.43 245.74 57.43 239.46 53.93 239.46 53.93 245.74 49.5 241.3 47.02 243.77 51.46 248.21 45.18 248.21 45.18 251.71 51.46 251.71 47.02 256.15 49.5 258.62 53.93 254.19 53.93 260.46 57.43 260.46 57.43 254.19 61.87 258.62 64.35 256.15 59.91 251.71 66.18 251.71 66.18 248.21" fill="#f2f0ed"/><polygon points="366.08 58.2 359.81 58.2 364.24 53.76 361.77 51.29 357.33 55.73 357.33 49.45 353.83 49.45 353.83 55.73 349.39 51.29 346.92 53.76 351.36 58.2 345.08 58.2 345.08 61.7 351.36 61.7 346.92 66.14 349.39 68.61 353.83 64.18 353.83 70.45 357.33 70.45 357.33 64.18 361.77 68.61 364.24 66.14 359.81 61.7 366.08 61.7 366.08 58.2" fill="#f2f0ed"/><polygon points="398.05 221.34 391.77 221.34 396.21 216.9 393.74 214.43 389.3 218.86 389.3 212.59 385.8 212.59 385.8 218.86 381.36 214.43 378.89 216.9 383.32 221.34 377.05 221.34 377.05 224.84 383.32 224.84 378.89 229.28 381.36 231.75 385.8 227.31 385.8 233.59 389.3 233.59 389.3 227.31 393.74 231.75 396.21 229.28 391.77 224.84 398.05 224.84 398.05 221.34" fill="#f2f0ed"/><polygon points="283.11 84.75 277.95 84.75 277.95 79.59 274.45 79.59 274.45 84.75 269.28 84.75 269.28 88.25 274.45 88.25 274.45 93.42 277.95 93.42 277.95 88.25 283.11 88.25 283.11 84.75" fill="#f2f0ed"/><polygon points="428.28 168.08 423.12 168.08 423.12 162.92 419.62 162.92 419.62 168.08 414.45 168.08 414.45 171.58 419.62 171.58 419.62 176.75 423.12 176.75 423.12 171.58 428.28 171.58 428.28 168.08" fill="#f2f0ed"/><polygon points="479.12 50.09 473.96 50.09 473.96 44.93 470.46 44.93 470.46 50.09 465.29 50.09 465.29 53.59 470.46 53.59 470.46 58.76 473.96 58.76 473.96 53.59 479.12 53.59 479.12 50.09" fill="#f2f0ed"/><polygon points="73.2 7.34 68.03 7.34 68.03 2.18 64.53 2.18 64.53 7.34 59.37 7.34 59.37 10.84 64.53 10.84 64.53 16.01 68.03 16.01 68.03 10.84 73.2 10.84 73.2 7.34" fill="#f2f0ed"/><polygon points="15.03 177.42 9.87 177.42 9.87 172.26 6.37 172.26 6.37 177.42 1.2 177.42 1.2 180.92 6.37 180.92 6.37 186.09 9.87 186.09 9.87 180.92 15.03 180.92 15.03 177.42" fill="#f2f0ed"/><polygon points="288.86 283.21 283.69 283.21 283.69 278.05 280.19 278.05 280.19 283.21 275.03 283.21 275.03 286.71 280.19 286.71 280.19 291.88 283.69 291.88 283.69 286.71 288.86 286.71 288.86 283.21" fill="#f2f0ed"/><polygon points="164.66 218 159.49 218 159.49 212.83 155.99 212.83 155.99 218 150.83 218 150.83 221.5 155.99 221.5 155.99 226.66 159.49 226.66 159.49 221.5 164.66 221.5 164.66 218" fill="#f2f0ed"/><polygon points="356.57 224.5 354.09 222.03 350.44 225.68 346.79 222.03 344.31 224.5 347.96 228.15 344.31 231.81 346.79 234.28 350.44 230.63 354.09 234.28 356.57 231.81 352.92 228.15 356.57 224.5" fill="#f2f0ed"/><polygon points="202.54 285.33 200.06 282.86 196.41 286.51 192.76 282.86 190.28 285.33 193.94 288.98 190.28 292.63 192.76 295.11 196.41 291.46 200.06 295.11 202.54 292.63 198.88 288.98 202.54 285.33" fill="#f2f0ed"/><polygon points="456.98 124.24 454.51 121.77 450.85 125.42 447.2 121.77 444.73 124.24 448.38 127.89 444.73 131.54 447.2 134.02 450.85 130.37 454.51 134.02 456.98 131.54 453.33 127.89 456.98 124.24" fill="#f2f0ed"/><polygon points="358.46 21.58 355.99 19.1 352.34 22.75 348.68 19.1 346.21 21.58 349.86 25.23 346.21 28.88 348.68 31.36 352.34 27.7 355.99 31.36 358.46 28.88 354.81 25.23 358.46 21.58" fill="#f2f0ed"/><polygon points="96.01 139.01 93.54 136.54 89.89 140.19 86.23 136.54 83.76 139.01 87.41 142.67 83.76 146.32 86.23 148.79 89.89 145.14 93.54 148.79 96.01 146.32 92.36 142.67 96.01 139.01" fill="#f2f0ed"/><polygon points="93.59 249.04 91.12 246.56 87.46 250.22 83.81 246.56 81.34 249.04 84.99 252.69 81.34 256.34 83.81 258.82 87.46 255.16 91.12 258.82 93.59 256.34 89.94 252.69 93.59 249.04" fill="#f2f0ed"/><polygon points="196.41 27.41 193.94 24.94 190.28 28.59 186.63 24.94 184.16 27.41 187.81 31.07 184.16 34.72 186.63 37.2 190.28 33.54 193.94 37.2 196.41 34.72 192.76 31.07 196.41 27.41" fill="#f2f0ed"/><polygon points="12.25 84.65 9.78 82.17 6.13 85.83 2.48 82.17 0 84.65 3.65 88.3 0 91.95 2.48 94.43 6.13 90.77 9.78 94.43 12.25 91.95 8.6 88.3 12.25 84.65" fill="#f2f0ed"/><polygon points="426.64 221.59 424.17 219.12 420.51 222.77 416.86 219.12 414.39 221.59 418.04 225.24 414.39 228.9 416.86 231.37 420.51 227.72 424.17 231.37 426.64 228.9 422.99 225.24 426.64 221.59" fill="#f2f0ed"/><path d="M360.55,92.37l-4.14,4.14L348.2,88.3l-17.37,17.36h43Zm-21.27,9.79,8.92-8.92L353.93,99l-3.18,3.18Zm21.27-4.85,4.85,4.85h-9.7Z" fill="#f2f0ed"/><path d="M282.32,21.48l-4.14,4.14L270,17.41,252.59,34.78h43ZM261,31.28,270,22.36l5.74,5.73-3.18,3.18Zm21.27-4.85,4.85,4.85h-9.7Z" fill="#f2f0ed"/><path d="M453.75,269.93l-4.14,4.14-8.21-8.21L424,283.23h43Zm-21.27,9.79,8.92-8.92,5.74,5.73L444,279.73Zm21.27-4.85,4.85,4.85h-9.7Z" fill="#f2f0ed"/><path d="M147.9,156.34l-4.14,4.14-8.21-8.21-17.37,17.36h43Zm-21.27,9.79,8.92-8.92,5.74,5.73-3.18,3.18Zm21.27-4.85,4.85,4.85H143Z" fill="#f2f0ed"/><polygon points="297.61 260.19 297.61 263.69 303.38 263.69 295.05 272.01 297.53 274.49 305.86 266.16 305.86 271.94 309.36 271.94 309.36 260.19 297.61 260.19" fill="#f2f0ed"/><polygon points="413.06 63.75 413.06 67.25 418.84 67.25 410.51 75.58 412.99 78.05 421.31 69.73 421.31 75.5 424.81 75.5 424.81 63.75 413.06 63.75" fill="#f2f0ed"/><polygon points="12.08 8.45 12.08 11.95 17.86 11.95 9.53 20.27 12 22.75 20.33 14.42 20.33 20.2 23.83 20.2 23.83 8.45 12.08 8.45" fill="#f2f0ed"/><polygon points="357.34 133.36 349.01 125.04 354.79 125.04 354.79 121.54 343.04 121.54 343.04 133.29 346.54 133.29 346.54 127.51 354.86 135.84 357.34 133.36" fill="#f2f0ed"/><polygon points="94.61 293.66 86.29 285.33 92.06 285.33 92.06 281.83 80.31 281.83 80.31 293.58 83.81 293.58 83.81 287.81 92.14 296.13 94.61 293.66" fill="#f2f0ed"/><polygon points="136.42 42.93 136.42 48.71 128.09 40.38 125.62 42.86 133.95 51.18 128.17 51.18 128.17 54.68 139.92 54.68 139.92 42.93 136.42 42.93" fill="#f2f0ed"/><polygon points="321.6 21.5 321.6 27.27 313.28 18.94 310.8 21.42 319.13 29.75 313.35 29.75 313.35 33.24 325.1 33.24 325.1 21.5 321.6 21.5" fill="#f2f0ed"/><polygon points="445.81 191.64 443.33 189.17 435 197.49 435 191.72 431.5 191.72 431.5 203.47 443.25 203.47 443.25 199.97 437.48 199.97 445.81 191.64" fill="#f2f0ed"/><polygon points="105.77 164.96 103.29 162.49 94.96 170.81 94.96 165.03 91.46 165.03 91.46 176.78 103.21 176.78 103.21 173.28 97.44 173.28 105.77 164.96" fill="#f2f0ed"/><path d="M136.75,74.3a18,18,0,1,0,18,18A18,18,0,0,0,136.75,74.3Zm-6.63,30.33a6.67,6.67,0,0,1,13.25,0,14,14,0,0,1-13.25,0ZM133,91a3.78,3.78,0,1,1,3.78,3.78A3.79,3.79,0,0,1,133,91Zm13.88,11a10.71,10.71,0,0,0-4.49-5.63,7.78,7.78,0,1,0-11.21,0,10.71,10.71,0,0,0-4.49,5.63,14,14,0,1,1,20.19,0Z" fill="#f2f0ed"/><path d="M382.15,139.51a18,18,0,1,0,18,18A18,18,0,0,0,382.15,139.51Zm-6.63,30.33a6.67,6.67,0,0,1,13.25,0,14,14,0,0,1-13.25,0Zm2.84-13.68a3.78,3.78,0,1,1,3.78,3.78A3.79,3.79,0,0,1,378.36,156.16Zm13.88,11a10.71,10.71,0,0,0-4.49-5.63,7.78,7.78,0,1,0-11.21,0,10.71,10.71,0,0,0-4.49,5.63,14,14,0,1,1,20.19,0Z" fill="#f2f0ed"/><path d="M226.83,246.22a18,18,0,1,0,18,18A18,18,0,0,0,226.83,246.22Zm-6.63,30.33a6.67,6.67,0,0,1,13.25,0,14,14,0,0,1-13.25,0ZM223,262.87a3.78,3.78,0,1,1,3.78,3.78A3.79,3.79,0,0,1,223,262.87Zm13.88,11a10.71,10.71,0,0,0-4.49-5.63,7.78,7.78,0,1,0-11.21,0,10.71,10.71,0,0,0-4.49,5.63,14,14,0,1,1,20.19,0Z" fill="#f2f0ed"/><path d="M177.88,146.68v53.69l26.79-26.66,26.66,25.87L243.87,187l26,25.09V146.68Zm62.22,26.66a7.84,7.84,0,1,1,7.84-7.84A7.84,7.84,0,0,1,240.1,173.34Z" fill="#f9f2ff"/><circle cx="240.43" cy="165.02" r="8" fill="none" stroke="#7c5cd1" stroke-miterlimit="10" stroke-width="4"/><polyline points="271.08 213 244.54 186.66 215.64 215.56" fill="none" stroke="#7c5cd1" stroke-miterlimit="10" stroke-width="4"/><polyline points="231.06 200.15 204.31 173.41 176.68 201" fill="none" stroke="#7c5cd1" stroke-miterlimit="10" stroke-width="4"/><path d="M267.88,149v64h-88V149h88m4-4h-96v72h96V145Z" fill="#7c5cd1"/><path d="M267.88,149v64h-88V149h88m4-4h-96v72h96V145Z" fill="#7c5cd1"/><path d="M242.34,139.37c17.36,2.31,31.95-1.72,39.82-8.16.53-.44,1.33.36,1.58,1.58,3.54,17.85.38,33.3-5.57,42.41-.48.75-2.3.59-3.09-.21a227.35,227.35,0,0,1-21.33-19.36,177,177,0,0,1-12.92-14.89c-.37-.37-.39-.76-.07-1A2.05,2.05,0,0,1,242.34,139.37Z" fill="#fff" stroke="#7c5cd1" stroke-miterlimit="10" stroke-width="4"/><path d="M249.09,149.9c15,.39,27.29-7,31.94-17.08.31-.7,1.11.1,1.13,1.13.12,14.89-7.42,27-17.63,31.4" fill="none" stroke="#7c5cd1" stroke-miterlimit="10" stroke-width="4"/><rect x="296.45" y="78.38" width="6.93" height="62.4" rx="0.7" ry="0.7" transform="translate(117.09 -152.21) rotate(35)" fill="#bf9de0" stroke="#7c5cd1" stroke-miterlimit="10" stroke-width="4"/><line x1="238.95" y1="88.39" x2="238.95" y2="123.39" fill="none" stroke="#ff645c" stroke-miterlimit="10" stroke-width="4"/><line x1="221.45" y1="105.89" x2="256.45" y2="105.89" fill="none" stroke="#ff645c" stroke-miterlimit="10" stroke-width="4"/><line x1="226.57" y1="118.27" x2="251.32" y2="93.52" fill="none" stroke="#ff645c" stroke-miterlimit="10" stroke-width="4"/><line x1="226.57" y1="93.52" x2="251.32" y2="118.27" fill="none" stroke="#ff645c" stroke-miterlimit="10" stroke-width="4"/><line x1="310.84" y1="142.59" x2="310.84" y2="166.59" fill="none" stroke="#ff645c" stroke-miterlimit="10" stroke-width="4"/><line x1="298.84" y1="154.59" x2="322.84" y2="154.59" fill="none" stroke="#ff645c" stroke-miterlimit="10" stroke-width="4"/><line x1="302.35" y1="163.07" x2="319.33" y2="146.1" fill="none" stroke="#ff645c" stroke-miterlimit="10" stroke-width="4"/><line x1="302.35" y1="146.1" x2="319.33" y2="163.07" fill="none" stroke="#ff645c" stroke-miterlimit="10" stroke-width="4"/></svg>