<svg xmlns="http://www.w3.org/2000/svg" xmlns:xlink="http://www.w3.org/1999/xlink" viewBox="0 0 206.46 194.45"><defs><clipPath id="e993dc13-41a8-4dfd-b987-e480df7acc24"><rect id="0439a3a5-229f-481f-bd86-6f2a5f225386" data-name="SVGID" x="80.07" y="82.85" width="120" height="90" fill="#f9f2ff"/></clipPath><clipPath id="cc52431a-5ffd-44bf-a7ce-4f4107cb94a3"><rect id="902a2903-f25c-485d-92ec-0b50ce5c5caa" data-name="SVGID" x="-15" y="67.85" width="120" height="90" transform="translate(-67.85 157.85) rotate(-90)" fill="#f9f2ff"/></clipPath></defs><title>feature-orientation</title><g id="ac1cd27a-db14-44a2-bc4b-fa970946ac12" data-name="Layer 2"><g id="6701bc1c-f893-4388-8d90-e378a05e5582" data-name="Content"><rect id="e3ace707-c70f-426e-ba8a-5d8846a7d8fe" data-name="SVGID" x="80.07" y="82.85" width="120" height="90" fill="#f9f2ff"/><g clip-path="url(#e993dc13-41a8-4dfd-b987-e480df7acc24)"><polygon points="169.13 171.85 115.61 118.34 62.1 171.85 169.13 171.85" fill="#fff" stroke="#7c5cd1" stroke-miterlimit="10" stroke-width="3"/><polygon points="202.84 171.85 165.9 134.91 128.96 171.85 202.84 171.85" fill="#fff" stroke="#7c5cd1" stroke-miterlimit="10" stroke-width="3"/></g><circle cx="160.76" cy="107.85" r="10" fill="#fff" stroke="#7c5cd1" stroke-miterlimit="10" stroke-width="3"/><path d="M197.07,85.85v84h-114v-84h114m3-3h-120v90h120v-90Z" fill="#7c5cd1"/><rect id="e52c7b6f-d122-4606-857a-1b617f8030b1" data-name="SVGID" x="-15" y="67.85" width="120" height="90" transform="translate(-67.85 157.85) rotate(-90)" fill="#f9f2ff"/><g clip-path="url(#cc52431a-5ffd-44bf-a7ce-4f4107cb94a3)"><polygon points="89 83.8 35.48 137.31 89 190.83 89 83.8" fill="#fff" stroke="#7c5cd1" stroke-miterlimit="10" stroke-width="3"/><polygon points="89 50.08 52.06 87.03 89 123.97 89 50.08" fill="#fff" stroke="#7c5cd1" stroke-miterlimit="10" stroke-width="3"/></g><circle cx="25" cy="92.17" r="10" fill="#fff" stroke="#7c5cd1" stroke-miterlimit="10" stroke-width="3"/><path d="M87,55.85v114H3v-114H87m3-3H0v120H90v-120Z" fill="#7c5cd1"/><path d="M66.65,31.5A30,30,0,1,1,120,50.38" fill="none" stroke="#ff645c" stroke-miterlimit="10" stroke-width="3"/><polygon points="115.18 34.97 118.15 34.53 120.28 49.17 134.72 45.97 135.37 48.9 117.78 52.79 115.18 34.97" fill="#ff645c"/></g></g></svg>