<svg xmlns="http://www.w3.org/2000/svg" xmlns:xlink="http://www.w3.org/1999/xlink" viewBox="0 0 400.8 129.59"><defs><clipPath id="6a92f50d-4f95-4863-a581-7fea49a70b93"><rect id="ca6cd499-a6c3-4d62-83b2-40deeeaceb60" data-name="SVGID" x="17.1" y="44" width="90" height="67.5" fill="#f9f2ff"/></clipPath><clipPath id="04522714-ff7e-4195-b5b2-cc6b95b19500"><rect id="37200a0a-3b4a-4185-a3cf-176c5951cf91" data-name="SVGID" x="113.1" y="44" width="90" height="67.5" fill="#f9f2ff"/></clipPath><clipPath id="0f9749af-39a9-44c1-8efd-908e0add3202"><rect id="460d0e32-d894-452e-81a7-e14942fcb348" data-name="SVGID" x="305.1" y="44" width="90" height="67.5" fill="#f9f2ff"/></clipPath><clipPath id="5222b113-86be-49f8-8668-1940efa60cd8"><rect id="26a6cd84-1dea-4e5d-ab1e-437834ce092c" data-name="SVGID" x="209.1" width="90" height="67.5" fill="#f9f2ff"/></clipPath></defs><title>feature-gif</title><g id="8f29b7da-0460-4252-94b7-2d1c07e79eae" data-name="Layer 2"><g id="77e56eea-d850-4938-aac9-b7eec95c32ca" data-name="Content"><rect id="bc0a54bf-b76b-417a-903b-4a695ba9c12d" data-name="SVGID" x="17.1" y="44" width="90" height="67.5" fill="#f9f2ff"/><g clip-path="url(#6a92f50d-4f95-4863-a581-7fea49a70b93)"><polygon points="83.89 110.75 43.76 70.61 3.62 110.75 83.89 110.75" fill="#fff" stroke="#7c5cd1" stroke-miterlimit="10" stroke-width="3"/><polygon points="109.18 110.75 81.47 83.04 53.76 110.75 109.18 110.75" fill="#fff" stroke="#7c5cd1" stroke-miterlimit="10" stroke-width="3"/></g><rect id="5162726f-fd72-4879-83d0-8c23bc8b0e86" data-name="SVGID" x="113.1" y="44" width="90" height="67.5" fill="#f9f2ff"/><g clip-path="url(#04522714-ff7e-4195-b5b2-cc6b95b19500)"><circle cx="174.49" cy="83.86" r="7.5" fill="#fff" stroke="#7c5cd1" stroke-miterlimit="10" stroke-width="3"/><polygon points="179.89 110.75 139.76 70.61 99.62 110.75 179.89 110.75" fill="#fff" stroke="#7c5cd1" stroke-miterlimit="10" stroke-width="3"/><polygon points="205.18 110.75 177.47 83.04 149.76 110.75 205.18 110.75" fill="#fff" stroke="#7c5cd1" stroke-miterlimit="10" stroke-width="3"/></g><rect id="75132573-1ac4-4147-878f-a7e65b388cdb" data-name="SVGID" x="305.1" y="44" width="90" height="67.5" fill="#f9f2ff"/><g clip-path="url(#0f9749af-39a9-44c1-8efd-908e0add3202)"><polygon points="371.89 110.75 331.76 70.61 291.62 110.75 371.89 110.75" fill="#fff" stroke="#7c5cd1" stroke-miterlimit="10" stroke-width="3"/><polygon points="397.18 110.75 369.47 83.04 341.76 110.75 397.18 110.75" fill="#fff" stroke="#7c5cd1" stroke-miterlimit="10" stroke-width="3"/></g><circle cx="365.61" cy="62.75" r="7.5" fill="#fff" stroke="#7c5cd1" stroke-miterlimit="10" stroke-width="3"/><path d="M392.1,47v61.5h-84V47h84m3-3h-90v67.5h90V44Z" fill="#7c5cd1"/><rect id="1906a690-beeb-4b6a-a703-de8d63f5234c" data-name="SVGID" x="209.1" width="90" height="67.5" fill="#f9f2ff"/><g clip-path="url(#5222b113-86be-49f8-8668-1940efa60cd8)"><polygon points="275.89 66.75 235.76 26.61 195.62 66.75 275.89 66.75" fill="#fff" stroke="#7c5cd1" stroke-miterlimit="10" stroke-width="3"/><polygon points="301.18 66.75 273.47 39.04 245.76 66.75 301.18 66.75" fill="#fff" stroke="#7c5cd1" stroke-miterlimit="10" stroke-width="3"/></g><circle cx="268.61" cy="26.75" r="7.5" fill="#fff" stroke="#7c5cd1" stroke-miterlimit="10" stroke-width="3"/><path d="M296.1,3V64.5h-84V3h84m3-3h-90V67.5h90V0Z" fill="#7c5cd1"/><path d="M200.1,47v61.5h-84V47h84m3-3h-90v67.5h90V44Z" fill="#7c5cd1"/><path d="M104.1,47v61.5h-84V47h84m3-3h-90v67.5h90V44Z" fill="#7c5cd1"/><line x1="251.49" y1="92.84" x2="251.49" y2="129.59" fill="none" stroke="#ff645c" stroke-miterlimit="10" stroke-width="3"/><polygon points="239.22 102.78 241.42 104.83 251.49 94 261.56 104.83 263.76 102.78 251.49 89.59 239.22 102.78" fill="#ff645c"/></g></g></svg>