<svg xmlns="http://www.w3.org/2000/svg" width="479.24" height="297.93" viewBox="0 0 479.24 297.93"><title>feature-upload</title><polygon points="228.73 198.11 220.73 198.11 165.98 198.11 165.98 161.23 165.98 153.23 156.73 153.23 156.73 161.23 148.73 161.23 148.73 215.23 220.73 215.23 220.73 207.23 228.73 207.23 228.73 198.11" fill="#bf9de0"/><path d="M264,123.81l8.21,61.31a89.69,89.69,0,0,0,53.63,0c2.73-20.42,8.21-61.32,8.21-61.32Zm47.88,40.26-12.21,4.45-12.06-4.39V148.87l12.06-4.39,12.21,4.45Z" fill="#f9f2ff"/><polygon points="289.12 59.31 297.76 67.95 306.4 59.31 289.12 59.31" fill="#f2f0ed"/><polygon points="282.2 225.13 290.85 233.77 299.49 225.13 282.2 225.13" fill="#f2f0ed"/><polygon points="0 232.46 8.64 241.11 17.29 232.46 0 232.46" fill="#f2f0ed"/><polygon points="403.32 252.55 394.68 243.91 386.04 252.55 403.32 252.55" fill="#f2f0ed"/><polygon points="133.26 203.27 124.62 194.63 115.97 203.27 133.26 203.27" fill="#f2f0ed"/><polygon points="25.64 115.64 16.99 107 8.35 115.64 25.64 115.64" fill="#f2f0ed"/><polygon points="466.91 71.64 458.26 62.99 449.62 71.64 466.91 71.64" fill="#f2f0ed"/><polygon points="141.04 19.02 132.4 10.37 123.76 19.02 141.04 19.02" fill="#f2f0ed"/><circle cx="343.63" cy="99.53" r="4" fill="#f2f0ed"/><circle cx="426.97" cy="137.52" r="4" fill="#f2f0ed"/><circle cx="475.24" cy="34.71" r="4" fill="#f2f0ed"/><circle cx="355.72" cy="27.74" r="4" fill="#f2f0ed"/><circle cx="353.59" cy="163.41" r="4" fill="#f2f0ed"/><circle cx="467.01" cy="183.03" r="4" fill="#f2f0ed"/><circle cx="359.72" cy="235.84" r="4" fill="#f2f0ed"/><circle cx="227.38" cy="233.77" r="4" fill="#f2f0ed"/><circle cx="106.7" cy="224.72" r="4" fill="#f2f0ed"/><circle cx="404.24" cy="289.07" r="4" fill="#f2f0ed"/><circle cx="211.5" cy="67.83" r="4" fill="#f2f0ed"/><circle cx="274.05" cy="40.58" r="4" fill="#f2f0ed"/><circle cx="125.25" cy="90.41" r="4" fill="#f2f0ed"/><circle cx="63.54" cy="129.4" r="4" fill="#f2f0ed"/><path d="M367.72,185.53l8.84,8.84H358.88l8.84-8.84m0-4.95-17.29,17.29H385l-17.29-17.29Z" fill="#f2f0ed"/><path d="M236.73,37.7l8.84,8.84H227.89l8.84-8.84m0-4.95L219.44,50H254L236.73,32.75Z" fill="#f2f0ed"/><path d="M80.83,185.33l8.84,8.84H72l8.84-8.84m0-4.95L63.54,197.67H98.12L80.83,180.38Z" fill="#f2f0ed"/><path d="M381,106.78l-8.84-8.84h17.67L381,106.78m0,4.95,17.29-17.29H363.72L381,111.73Z" fill="#f2f0ed"/><path d="M92.81,85.32,84,76.49h17.67l-8.84,8.84m0,4.95L110.09,73H75.52L92.81,90.27Z" fill="#f2f0ed"/><path d="M238.58,263.41l-8.84-8.84h17.67l-8.84,8.84m0,4.95,17.29-17.29H221.29l17.29,17.29Z" fill="#f2f0ed"/><path d="M20.94,289.76l-8.84-8.84H29.78l-8.84,8.84m0,4.95,17.29-17.29H3.66l17.29,17.29Z" fill="#f2f0ed"/><path d="M460.26,161l-8.84-8.84h17.67L460.26,161m0,4.95,17.29-17.29H443l17.29,17.29Z" fill="#f2f0ed"/><path d="M333.59,14.07l-8.84-8.84h17.67l-8.84,8.84m0,4.95L350.88,1.73H316.3L333.59,19Z" fill="#f2f0ed"/><path d="M180.74,111.58a1.69,1.69,0,1,1-1.69,1.69,1.69,1.69,0,0,1,1.69-1.69m0-3.5a5.19,5.19,0,1,0,5.19,5.19,5.19,5.19,0,0,0-5.19-5.19Z" fill="#f2f0ed"/><path d="M132.4,143.33a1.69,1.69,0,1,1-1.69,1.69,1.69,1.69,0,0,1,1.69-1.69m0-3.5a5.19,5.19,0,1,0,5.19,5.19,5.19,5.19,0,0,0-5.19-5.19Z" fill="#f2f0ed"/><path d="M10.37,161.72a1.69,1.69,0,1,1-1.69,1.69,1.69,1.69,0,0,1,1.69-1.69m0-3.5a5.19,5.19,0,1,0,5.19,5.19,5.19,5.19,0,0,0-5.19-5.19Z" fill="#f2f0ed"/><path d="M325.09,38.21a1.69,1.69,0,1,1-1.69,1.69,1.69,1.69,0,0,1,1.69-1.69m0-3.5a5.19,5.19,0,1,0,5.19,5.19,5.19,5.19,0,0,0-5.19-5.19Z" fill="#f2f0ed"/><path d="M266.31,61.94a1.69,1.69,0,1,1-1.69,1.69,1.69,1.69,0,0,1,1.69-1.69m0-3.5a5.19,5.19,0,1,0,5.19,5.19,5.19,5.19,0,0,0-5.19-5.19Z" fill="#f2f0ed"/><path d="M165,7.82a1.69,1.69,0,1,1-1.69,1.69A1.69,1.69,0,0,1,165,7.82m0-3.5a5.19,5.19,0,1,0,5.19,5.19A5.19,5.19,0,0,0,165,4.32Z" fill="#f2f0ed"/><path d="M93.47,48.35A1.69,1.69,0,1,1,91.78,50a1.69,1.69,0,0,1,1.69-1.69m0-3.5A5.19,5.19,0,1,0,98.65,50a5.19,5.19,0,0,0-5.19-5.19Z" fill="#f2f0ed"/><path d="M409.18,45.54a1.69,1.69,0,1,1-1.69,1.69,1.69,1.69,0,0,1,1.69-1.69m0-3.5a5.19,5.19,0,1,0,5.19,5.19A5.19,5.19,0,0,0,409.18,42Z" fill="#f2f0ed"/><path d="M376.31,152.55a1.69,1.69,0,1,1-1.69,1.69,1.69,1.69,0,0,1,1.69-1.69m0-3.5a5.19,5.19,0,1,0,5.19,5.19,5.19,5.19,0,0,0-5.19-5.19Z" fill="#f2f0ed"/><path d="M442.74,175.17a1.69,1.69,0,1,1-1.69,1.69,1.69,1.69,0,0,1,1.69-1.69m0-3.5a5.19,5.19,0,1,0,5.19,5.19,5.19,5.19,0,0,0-5.19-5.19Z" fill="#f2f0ed"/><path d="M473.14,127.71a1.69,1.69,0,1,1-1.69,1.69,1.69,1.69,0,0,1,1.69-1.69m0-3.5a5.19,5.19,0,1,0,5.19,5.19,5.19,5.19,0,0,0-5.19-5.19Z" fill="#f2f0ed"/><path d="M443,92.76a1.69,1.69,0,1,1-1.69,1.69A1.69,1.69,0,0,1,443,92.76m0-3.5a5.19,5.19,0,1,0,5.19,5.19A5.19,5.19,0,0,0,443,89.26Z" fill="#f2f0ed"/><path d="M413.6,229a1.69,1.69,0,1,1-1.69,1.69A1.69,1.69,0,0,1,413.6,229m0-3.5a5.19,5.19,0,1,0,5.19,5.19,5.19,5.19,0,0,0-5.19-5.19Z" fill="#f2f0ed"/><path d="M307.81,206.54a1.69,1.69,0,1,1-1.69,1.69,1.69,1.69,0,0,1,1.69-1.69m0-3.5a5.19,5.19,0,1,0,5.19,5.19,5.19,5.19,0,0,0-5.19-5.19Z" fill="#f2f0ed"/><path d="M333.59,272.58a1.69,1.69,0,1,1-1.69,1.69,1.69,1.69,0,0,1,1.69-1.69m0-3.5a5.19,5.19,0,1,0,5.19,5.19,5.19,5.19,0,0,0-5.19-5.19Z" fill="#f2f0ed"/><path d="M274,269.87a1.69,1.69,0,1,1-1.69,1.69,1.69,1.69,0,0,1,1.69-1.69m0-3.5a5.19,5.19,0,1,0,5.19,5.19,5.19,5.19,0,0,0-5.19-5.19Z" fill="#f2f0ed"/><path d="M159.78,275.4a1.69,1.69,0,1,1-1.69,1.69,1.69,1.69,0,0,1,1.69-1.69m0-3.5a5.19,5.19,0,1,0,5.19,5.19,5.19,5.19,0,0,0-5.19-5.19Z" fill="#f2f0ed"/><path d="M45.54,223.78a1.69,1.69,0,1,1-1.69,1.69,1.69,1.69,0,0,1,1.69-1.69m0-3.5a5.19,5.19,0,1,0,5.19,5.19,5.19,5.19,0,0,0-5.19-5.19Z" fill="#f2f0ed"/><path d="M454.36,259.5a1.69,1.69,0,1,1-1.69,1.69,1.69,1.69,0,0,1,1.69-1.69m0-3.5a5.19,5.19,0,1,0,5.19,5.19,5.19,5.19,0,0,0-5.19-5.19Z" fill="#f2f0ed"/><path d="M318.19,80.4a6.87,6.87,0,1,1-6.87,6.87,6.88,6.88,0,0,1,6.87-6.87m0-3.5a10.37,10.37,0,1,0,10.37,10.37A10.37,10.37,0,0,0,318.19,76.9Z" fill="#f2f0ed"/><path d="M328.56,238.87a6.87,6.87,0,1,1-6.87,6.87,6.88,6.88,0,0,1,6.87-6.87m0-3.5a10.37,10.37,0,1,0,10.37,10.37,10.37,10.37,0,0,0-10.37-10.37Z" fill="#f2f0ed"/><path d="M423,69.6a6.87,6.87,0,1,1-6.87,6.87A6.88,6.88,0,0,1,423,69.6m0-3.5a10.37,10.37,0,1,0,10.37,10.37A10.37,10.37,0,0,0,423,66.1Z" fill="#f2f0ed"/><path d="M255.94,3.5a6.87,6.87,0,1,1-6.87,6.87,6.88,6.88,0,0,1,6.87-6.87m0-3.5a10.37,10.37,0,1,0,10.37,10.37A10.37,10.37,0,0,0,255.94,0Z" fill="#f2f0ed"/><path d="M125.25,46.39a6.87,6.87,0,1,1-6.87,6.87,6.88,6.88,0,0,1,6.87-6.87m0-3.5a10.37,10.37,0,1,0,10.37,10.37,10.37,10.37,0,0,0-10.37-10.37Z" fill="#f2f0ed"/><path d="M25.64,72a6.87,6.87,0,1,1-6.87,6.87A6.88,6.88,0,0,1,25.64,72m0-3.5A10.37,10.37,0,1,0,36,78.91,10.37,10.37,0,0,0,25.64,68.54Z" fill="#f2f0ed"/><path d="M114.24,163.77a6.87,6.87,0,1,1-6.87,6.87,6.88,6.88,0,0,1,6.87-6.87m0-3.5a10.37,10.37,0,1,0,10.37,10.37,10.37,10.37,0,0,0-10.37-10.37Z" fill="#f2f0ed"/><path d="M64.7,252.59a6.87,6.87,0,1,1-6.87,6.87,6.88,6.88,0,0,1,6.87-6.87m0-3.5a10.37,10.37,0,1,0,10.37,10.37A10.37,10.37,0,0,0,64.7,249.09Z" fill="#f2f0ed"/><path d="M436.3,201.31a6.87,6.87,0,1,1-6.87,6.87,6.88,6.88,0,0,1,6.87-6.87m0-3.5a10.37,10.37,0,1,0,10.37,10.37,10.37,10.37,0,0,0-10.37-10.37Z" fill="#f2f0ed"/><path d="M380.29,33.67V13H394V33.67H380.29m-3.5,3.5h20.74V9.51H376.79V37.17Z" fill="#f2f0ed"/><path d="M93.18,25V4.36h13.74V25H93.18m-3.5,3.5h20.74V.86H89.68V28.52Z" fill="#f2f0ed"/><path d="M30.86,156.43V135.77H44.61v20.66H30.86m-3.5,3.5H48.11V132.27H27.36v27.66Z" fill="#f2f0ed"/><path d="M253.84,229.83V209.17h13.74v20.66H253.84m-3.5,3.5h20.74V205.67H250.34v27.66Z" fill="#f2f0ed"/><path d="M150.51,76.39h20.66V90.13H150.51V76.39m-3.5-3.5V93.63h27.66V72.89Z" fill="#f2f0ed"/><path d="M398.08,162.74h20.66v13.74H398.08V162.74m-3.5-3.5V180h27.66V159.24Z" fill="#f2f0ed"/><path d="M292.36,280H313v13.74H292.36V280m-3.5-3.5v20.74h27.66V276.54Z" fill="#f2f0ed"/><path d="M127.26,238.87h20.66v13.74H127.26V238.87m-3.5-3.5v20.74h27.66V235.37Z" fill="#f2f0ed"/><rect x="402.72" y="195.08" width="6.91" height="10.37" fill="#f2f0ed"/><rect x="72.06" y="283.88" width="6.91" height="10.37" fill="#f2f0ed"/><rect x="412.87" y="1.71" width="6.91" height="10.37" fill="#f2f0ed"/><rect x="21.63" y="40.44" width="6.91" height="10.37" fill="#f2f0ed"/><rect x="411.23" y="103.73" width="10.37" height="6.91" fill="#f2f0ed"/><rect x="45.54" y="175.34" width="6.91" height="10.37" fill="#f2f0ed"/><rect x="96.87" y="105.19" width="10.37" height="6.91" fill="#f2f0ed"/><rect x="216.1" y="6.91" width="10.37" height="6.91" fill="#f2f0ed"/><polygon points="198.4 51.51 192.12 51.51 196.56 47.07 194.09 44.6 189.65 49.03 189.65 42.76 186.15 42.76 186.15 49.03 181.71 44.6 179.24 47.07 183.67 51.51 177.4 51.51 177.4 55.01 183.67 55.01 179.24 59.45 181.71 61.92 186.15 57.48 186.15 63.76 189.65 63.76 189.65 57.48 194.09 61.92 196.56 59.45 192.12 55.01 198.4 55.01 198.4 51.51" fill="#f2f0ed"/><polygon points="68.44 99.07 62.17 99.07 66.6 94.63 64.13 92.16 59.69 96.6 59.69 90.32 56.19 90.32 56.19 96.6 51.76 92.16 49.28 94.63 53.72 99.07 47.44 99.07 47.44 102.57 53.72 102.57 49.28 107.01 51.76 109.48 56.19 105.05 56.19 111.32 59.69 111.32 59.69 105.05 64.13 109.48 66.6 107.01 62.17 102.57 68.44 102.57 68.44 99.07" fill="#f2f0ed"/><polygon points="408.79 130.96 402.52 130.96 406.95 126.52 404.48 124.05 400.04 128.48 400.04 122.21 396.54 122.21 396.54 128.48 392.11 124.05 389.63 126.52 394.07 130.96 387.79 130.96 387.79 134.46 394.07 134.46 389.63 138.9 392.11 141.37 396.54 136.93 396.54 143.21 400.04 143.21 400.04 136.93 404.48 141.37 406.95 138.9 402.52 134.46 408.79 134.46 408.79 130.96" fill="#f2f0ed"/><polygon points="451.29 39.64 445.01 39.64 449.45 35.2 446.98 32.73 442.54 37.17 442.54 30.89 439.04 30.89 439.04 37.17 434.6 32.73 432.13 35.2 436.56 39.64 430.29 39.64 430.29 43.14 436.56 43.14 432.13 47.58 434.6 50.05 439.04 45.62 439.04 51.89 442.54 51.89 442.54 45.62 446.98 50.05 449.45 47.58 445.01 43.14 451.29 43.14 451.29 39.64" fill="#f2f0ed"/><polygon points="434.43 266.25 428.15 266.25 432.59 261.81 430.11 259.33 425.68 263.77 425.68 257.5 422.18 257.5 422.18 263.77 417.74 259.33 415.26 261.81 419.7 266.25 413.43 266.25 413.43 269.75 419.7 269.75 415.26 274.18 417.74 276.66 422.18 272.22 422.18 278.5 425.68 278.5 425.68 272.22 430.11 276.66 432.59 274.18 428.15 269.75 434.43 269.75 434.43 266.25" fill="#f2f0ed"/><polygon points="110.56 257.97 104.28 257.97 108.72 253.53 106.24 251.06 101.81 255.5 101.81 249.22 98.31 249.22 98.31 255.5 93.87 251.06 91.39 253.53 95.83 257.97 89.56 257.97 89.56 261.47 95.83 261.47 91.39 265.91 93.87 268.38 98.31 263.94 98.31 270.22 101.81 270.22 101.81 263.94 106.24 268.38 108.72 265.91 104.28 261.47 110.56 261.47 110.56 257.97" fill="#f2f0ed"/><rect x="384.81" y="64.35" width="13.83" height="3.5" fill="#f2f0ed"/><rect x="389.97" y="59.18" width="3.5" height="13.83" fill="#f2f0ed"/><rect x="144.48" y="32.96" width="13.83" height="3.5" fill="#f2f0ed"/><rect x="149.65" y="27.79" width="3.5" height="13.83" fill="#f2f0ed"/><rect x="464.86" y="207.98" width="13.83" height="3.5" fill="#f2f0ed"/><rect x="470.02" y="202.82" width="3.5" height="13.83" fill="#f2f0ed"/><rect x="291.74" y="250.8" width="13.83" height="3.5" fill="#f2f0ed"/><rect x="296.9" y="245.64" width="3.5" height="13.83" fill="#f2f0ed"/><rect x="67" y="218.97" width="13.83" height="3.5" fill="#f2f0ed"/><rect x="72.16" y="213.81" width="3.5" height="13.83" fill="#f2f0ed"/><polygon points="204.53 88.3 202.05 85.82 198.4 89.47 194.75 85.82 192.27 88.3 195.92 91.95 192.27 95.6 194.75 98.08 198.4 94.42 202.05 98.08 204.53 95.6 200.87 91.95 204.53 88.3" fill="#f2f0ed"/><polygon points="64.71 63.66 62.24 61.19 58.58 64.84 54.93 61.19 52.46 63.66 56.11 67.31 52.46 70.97 54.93 73.44 58.58 69.79 62.24 73.44 64.71 70.97 61.06 67.31 64.71 63.66" fill="#f2f0ed"/><polygon points="34.67 250.03 32.19 247.56 28.54 251.21 24.89 247.56 22.41 250.03 26.07 253.69 22.41 257.34 24.89 259.81 28.54 256.16 32.19 259.81 34.67 257.34 31.02 253.69 34.67 250.03" fill="#f2f0ed"/><polygon points="74.82 155.59 72.35 153.12 68.7 156.77 65.04 153.12 62.57 155.59 66.22 159.25 62.57 162.9 65.04 165.37 68.7 161.72 72.35 165.37 74.82 162.9 71.17 159.25 74.82 155.59" fill="#f2f0ed"/><polygon points="390.94 217.63 388.46 215.16 384.81 218.81 381.16 215.16 378.68 217.63 382.33 221.28 378.68 224.93 381.16 227.41 384.81 223.76 388.46 227.41 390.94 224.93 387.28 221.28 390.94 217.63" fill="#f2f0ed"/><polygon points="259.36 287.11 256.88 284.64 253.23 288.29 249.58 284.64 247.1 287.11 250.76 290.76 247.1 294.42 249.58 296.89 253.23 293.24 256.88 296.89 259.36 294.42 255.71 290.76 259.36 287.11" fill="#f2f0ed"/><polygon points="475.65 94.27 473.17 91.8 469.52 95.45 465.87 91.8 463.39 94.27 467.05 97.92 463.39 101.58 465.87 104.05 469.52 100.4 473.17 104.05 475.65 101.58 472 97.92 475.65 94.27" fill="#f2f0ed"/><polygon points="310.91 19.69 308.43 17.21 304.78 20.86 301.13 17.21 298.65 19.69 302.31 23.34 298.65 26.99 301.13 29.46 304.78 25.81 308.43 29.46 310.91 26.99 307.25 23.34 310.91 19.69" fill="#f2f0ed"/><path d="M144,112.61l-4.14,4.14-8.21-8.21-17.37,17.36h43Zm-21.27,9.79,8.92-8.92,5.74,5.73-3.18,3.18ZM144,117.56l4.85,4.85h-9.7Z" fill="#f2f0ed"/><path d="M459.77,231.63l-4.14,4.14-8.21-8.21L430,244.92h43Zm-21.27,9.79,8.92-8.92,5.74,5.73L450,241.42Zm21.27-4.85,4.85,4.85h-9.7Z" fill="#f2f0ed"/><path d="M215.71,279.67l-4.14,4.14-8.21-8.21L186,293h43Zm-21.27,9.79,8.92-8.92,5.74,5.73-3.18,3.18Zm21.27-4.85,4.85,4.85h-9.7Z" fill="#f2f0ed"/><path d="M462.57,5.49l-4.14,4.14-8.21-8.21L432.84,18.78h43Zm-21.27,9.79,8.92-8.92L456,12.1l-3.18,3.18Zm21.27-4.85,4.85,4.85h-9.7Z" fill="#f2f0ed"/><polygon points="442.01 112.34 442.01 115.84 447.78 115.84 439.46 124.17 441.93 126.64 450.26 118.31 450.26 124.09 453.76 124.09 453.76 112.34 442.01 112.34" fill="#f2f0ed"/><polygon points="119.11 277.35 119.11 280.85 124.89 280.85 116.56 289.17 119.04 291.65 127.36 283.32 127.36 289.1 130.87 289.1 130.87 277.35 119.11 277.35" fill="#f2f0ed"/><polygon points="343.2 208.97 339.7 208.97 339.7 214.75 331.37 206.42 328.9 208.9 337.22 217.22 331.45 217.22 331.45 220.72 343.2 220.72 343.2 208.97" fill="#f2f0ed"/><polygon points="98.62 134.27 95.12 134.27 95.12 140.05 86.79 131.72 84.32 134.2 92.64 142.52 86.87 142.52 86.87 146.02 98.62 146.02 98.62 134.27" fill="#f2f0ed"/><polygon points="354.63 131.94 358.13 131.94 358.13 126.16 366.46 134.49 368.94 132.01 360.61 123.69 366.38 123.69 366.38 120.19 354.63 120.19 354.63 131.94" fill="#f2f0ed"/><polygon points="189.74 27.16 193.24 27.16 193.24 21.39 201.56 29.71 204.04 27.24 195.71 18.91 201.49 18.91 201.49 15.41 189.74 15.41 189.74 27.16" fill="#f2f0ed"/><polygon points="469.2 296.22 469.2 292.72 463.42 292.72 471.75 284.39 469.27 281.92 460.95 290.24 460.95 284.47 457.45 284.47 457.45 296.22 469.2 296.22" fill="#f2f0ed"/><polygon points="18.64 21.84 18.64 18.34 12.87 18.34 21.2 10.02 18.72 7.54 10.39 15.87 10.39 10.09 6.89 10.09 6.89 21.84 18.64 21.84" fill="#f2f0ed"/><path d="M354.19,45.63a18,18,0,1,0,18,18A18,18,0,0,0,354.19,45.63ZM347.57,76a6.67,6.67,0,0,1,13.25,0,14,14,0,0,1-13.25,0Zm2.84-13.68a3.78,3.78,0,1,1,3.78,3.78A3.79,3.79,0,0,1,350.41,62.28Zm13.88,11a10.71,10.71,0,0,0-4.49-5.63,7.78,7.78,0,1,0-11.21,0,10.71,10.71,0,0,0-4.49,5.63,14,14,0,1,1,20.19,0Z" fill="#f2f0ed"/><path d="M55.91,11a18,18,0,1,0,18,18A18,18,0,0,0,55.91,11ZM49.29,41.29a6.67,6.67,0,0,1,13.25,0,14,14,0,0,1-13.25,0Zm2.84-13.68a3.78,3.78,0,1,1,3.78,3.78A3.79,3.79,0,0,1,52.13,27.61ZM66,38.63A10.71,10.71,0,0,0,61.52,33a7.78,7.78,0,1,0-11.21,0,10.71,10.71,0,0,0-4.49,5.63,14,14,0,1,1,20.19,0Z" fill="#f2f0ed"/><path d="M370.19,261.93a18,18,0,1,0,18,18A18,18,0,0,0,370.19,261.93Zm-6.62,30.33a6.67,6.67,0,0,1,13.25,0,14,14,0,0,1-13.25,0Zm2.84-13.68a3.78,3.78,0,1,1,3.78,3.78A3.79,3.79,0,0,1,366.41,278.58Zm13.88,11A10.71,10.71,0,0,0,375.8,284a7.78,7.78,0,1,0-11.21,0,10.71,10.71,0,0,0-4.49,5.63,14,14,0,1,1,20.19,0Z" fill="#f2f0ed"/><path d="M185.92,226.52a18,18,0,1,0,18,18A18,18,0,0,0,185.92,226.52Zm-6.62,30.33a6.67,6.67,0,0,1,13.25,0,14,14,0,0,1-13.25,0Zm2.84-13.68a3.78,3.78,0,1,1,3.78,3.78A3.79,3.79,0,0,1,182.14,243.17Zm13.88,11a10.71,10.71,0,0,0-4.49-5.63,7.78,7.78,0,1,0-11.21,0,10.71,10.71,0,0,0-4.49,5.63,14,14,0,1,1,20.19,0Z" fill="#f2f0ed"/><path d="M18.63,179.81a18,18,0,1,0,18,18A18,18,0,0,0,18.63,179.81ZM12,210.14a6.67,6.67,0,0,1,13.25,0,14,14,0,0,1-13.25,0Zm2.84-13.68a3.78,3.78,0,1,1,3.78,3.78A3.79,3.79,0,0,1,14.84,196.46Zm13.88,11a10.71,10.71,0,0,0-4.49-5.63,7.78,7.78,0,1,0-11.21,0,10.71,10.71,0,0,0-4.49,5.63,14,14,0,1,1,20.19,0Z" fill="#f2f0ed"/><path d="M166.73,147v39.69l19.8-19.7,19.7,19.12,9.27-9.27,19.22,18.55V147Zm46,19.7a5.8,5.8,0,1,1,5.8-5.8A5.8,5.8,0,0,1,212.72,166.75Z" fill="#f9f2ff"/><ellipse cx="299.02" cy="123.81" rx="35.03" ry="6.58" fill="#bf9de0"/><path d="M336,123.81c0-8.34-33.24-8.58-37-8.58s-37,.24-37,8.58c0,.09,0,.17,0,.26h0l8.38,62.58,1.22.38a91.64,91.64,0,0,0,27.08,4.19H299A91.61,91.61,0,0,0,326.44,187l1.22-.38.17-1.26C330.55,165,336,124.08,336,124.08h0C336,124,336,123.9,336,123.81Zm-37-4.58c19.81,0,30.81,2.88,32.83,4.58-2,1.7-13,4.58-32.83,4.58s-30.81-2.88-32.83-4.58C268.21,122.11,279.21,119.23,299,119.23Zm25,64.36a87.59,87.59,0,0,1-25,3.64h-.32A87.62,87.62,0,0,1,274,183.59l-7.39-55.17c9.27,3.83,29.48,4,32.39,4s23.12-.15,32.39-4C329.92,139.57,326.21,167.26,324,183.59Z" fill="#7c5cd1"/><path d="M299.66,142.35l-14.06,5.12v18.06l14.06,5.12,14.21-5.17V147.52Zm7,6.81-7,2.55-7-2.55,7-2.55ZM289.6,152.3l8.14,3v10.42l-8.14-3Zm12.14,13.33V155.2l8.14-3v10.42Z" fill="#7c5cd1"/><path d="M213.14,168.23a8,8,0,1,0-8-8A8,8,0,0,0,213.14,168.23Zm0-12a4,4,0,1,1-4,4A4,4,0,0,1,213.14,156.23Z" fill="#7c5cd1"/><path d="M236.73,145.23h-72v8h-8v8h-8v54h72v-8h8v-8h8Zm-68,41.42,17.32-17.3,17.23,17.23-8.65,8.65h-25.9Zm48,24.58h-64v-46h4v42h60Zm8-8h-64v-46h4v42h60Zm-24.44-8,15.94-15.94,16.06,15.94Zm32.44-5.2-16.51-16.38-10.11,10.11L186.06,163.7,168.73,181V149.23h64Z" fill="#7c5cd1"/><path d="M283.44,80.56v12.9a43.67,43.67,0,0,0-73.71,35.94l4-.41a39.66,39.66,0,0,1,67.17-32.44H267.44v4h20v-20Z" fill="#ff645c"/></svg>