<svg xmlns="http://www.w3.org/2000/svg" viewBox="0 0 481 250"><title>feature-orientation</title><g id="85b915da-8a20-4dfc-bb89-5dcf97b565ca" data-name="Layer 2"><g id="4600f0fa-d980-4595-bba3-5b7ac8de0775" data-name="Content"><rect width="481" height="250" fill="#fff"/><path d="M228.65,125V186.7L256,159.44l34,33,16-16,33.17,32V125Zm72.57,34a10,10,0,1,1,10-10A10,10,0,0,1,301.22,159Z" fill="#f9f2ff"/><path d="M275.19,87.08,263.6,89.64a31.5,31.5,0,1,0-58-17h3a28.5,28.5,0,1,1,51.92,16.22l-1.92-13.19-3,.44,2.6,17.83L275.84,90Z" fill="#ff645c"/><path d="M141.46,212.63h68.48l-34-34.17,33-34-16-16,32-33.17H141.46Zm34-79.35a10,10,0,1,1-10-10A10,10,0,0,1,175.46,133.28Z" fill="#f9f2ff"/><path d="M165.46,121.78a11.5,11.5,0,1,0,11.5,11.5A11.51,11.51,0,0,0,165.46,121.78Zm0,20a8.5,8.5,0,1,1,8.5-8.5A8.51,8.51,0,0,1,165.46,141.78Z" fill="#7c5cd1"/><path d="M301.22,160.46a11.5,11.5,0,1,0-11.5-11.5A11.51,11.51,0,0,0,301.22,160.46Zm0-20a8.5,8.5,0,1,1-8.5,8.5A8.51,8.51,0,0,1,301.22,140.46Z" fill="#7c5cd1"/><path d="M340.54,207.82V124H230.46V94h-6l-.06-.06-.06.06H140.46V214h68.86l.06.06.06-.06H340.54v-6l.06-.06ZM143.46,211V97h77.88L190.4,128.14,207.26,145l-33.43,33.43L206.33,211Zm84,0h-16.9l-32.5-32.54,31.31-31.31,18.09,18.09Zm0-50-32.83-32.83L225.57,97h1.89Zm3,50V187.14l25.61-25.58,31.31,31.31L269.3,211Zm107.07,0h-64l32.83-32.83,31.17,30.94Zm0-6.12L306.36,173.9l-16.85,16.85-33.43-33.43-25.61,25.58V127H337.54Z" fill="#7c5cd1"/></g></g></svg>