<svg xmlns="http://www.w3.org/2000/svg" xmlns:xlink="http://www.w3.org/1999/xlink" viewBox="0 0 205.29 170.46"><defs><clipPath id="dc196d2a-7a85-4894-b160-f23fa26c6a43"><rect id="43abd03b-c713-4189-9870-912fa13584b3" data-name="SVGID" x="21.59" y="79.96" width="120" height="90" fill="#f9f2ff"/></clipPath></defs><title>feature-exif</title><g id="90a5ea2b-4f38-4b64-9c6a-74b9b289876b" data-name="Layer 2"><g id="c9f98e83-312c-48fb-9c76-1a5586e4d7ba" data-name="Content"><rect id="f51aadcc-7fb4-4c67-8744-092c8aecde86" data-name="SVGID" x="21.59" y="79.96" width="120" height="90" fill="#f9f2ff"/><g clip-path="url(#dc196d2a-7a85-4894-b160-f23fa26c6a43)"><polygon points="110.65 168.96 57.14 115.44 3.62 168.96 110.65 168.96" fill="#fff" stroke="#7c5cd1" stroke-miterlimit="10" stroke-width="3"/><polygon points="144.37 168.96 107.42 132.01 70.48 168.96 144.37 168.96" fill="#fff" stroke="#7c5cd1" stroke-miterlimit="10" stroke-width="3"/></g><circle cx="102.28" cy="104.96" r="10" fill="#fff" stroke="#7c5cd1" stroke-miterlimit="10" stroke-width="3"/><path d="M138.59,83v84h-114V83h114m3-3h-120v90h120V80Z" fill="#7c5cd1"/><path d="M104.67,72.9c21.7,2.89,39.93-2.15,49.78-10.19.66-.55,1.66.45,2,2,4.43,22.31.47,41.63-7,53-.6.94-2.87.74-3.87-.26a284.19,284.19,0,0,1-26.66-24.2,221.22,221.22,0,0,1-16.15-18.61c-.46-.46-.49-1-.08-1.31A2.57,2.57,0,0,1,104.67,72.9Z" fill="#fff" stroke="#7c5cd1" stroke-miterlimit="10" stroke-width="3"/><path d="M113.11,86.06c18.73.49,34.11-8.71,39.92-21.36.39-.88,1.39.12,1.42,1.42.15,18.61-9.27,33.77-22,39.25" fill="none" stroke="#7c5cd1" stroke-miterlimit="10" stroke-width="3"/><rect x="172.3" y="-3.34" width="8.67" height="78" rx="0.7" ry="0.7" transform="translate(52.4 -94.86) rotate(35)" fill="#fff" stroke="#7c5cd1" stroke-miterlimit="10" stroke-width="3"/><line x1="100.43" y1="6.05" x2="100.43" y2="56.05" fill="none" stroke="#ff645c" stroke-miterlimit="10" stroke-width="3"/><line x1="75.43" y1="31.05" x2="125.43" y2="31.05" fill="none" stroke="#ff645c" stroke-miterlimit="10" stroke-width="3"/><line x1="82.75" y1="48.73" x2="118.1" y2="13.37" fill="none" stroke="#ff645c" stroke-miterlimit="10" stroke-width="3"/><line x1="82.75" y1="13.37" x2="118.1" y2="48.73" fill="none" stroke="#ff645c" stroke-miterlimit="10" stroke-width="3"/><line x1="190.29" y1="76.92" x2="190.29" y2="106.92" fill="none" stroke="#ff645c" stroke-miterlimit="10" stroke-width="3"/><line x1="175.29" y1="91.92" x2="205.29" y2="91.92" fill="none" stroke="#ff645c" stroke-miterlimit="10" stroke-width="3"/><line x1="179.69" y1="102.52" x2="200.9" y2="81.31" fill="none" stroke="#ff645c" stroke-miterlimit="10" stroke-width="3"/><line x1="179.69" y1="81.31" x2="200.9" y2="102.52" fill="none" stroke="#ff645c" stroke-miterlimit="10" stroke-width="3"/></g></g></svg>