<svg xmlns="http://www.w3.org/2000/svg" viewBox="0 0 481 250"><title>feature-upload</title><g id="29bf17db-00ac-45a6-a52b-94b93cae4865" data-name="Layer 2"><g id="de12f0f3-e7c7-45e3-ae0e-089a28acd391" data-name="Content"><rect width="481" height="250" fill="#fff"/><path d="M259.58,53.59l-3,.26,1.07,12a37.57,37.57,0,0,0-61.8,32.4l3-.31a34.58,34.58,0,0,1,57.47-29.29l-13.19.21.05,3,18-.29Z" fill="#ff645c"/><path d="M276.72,81.19,287,157.83a112.12,112.12,0,0,0,67,0c3.41-25.52,10.26-76.64,10.26-76.64Zm59.85,50.32-15.27,5.56-15.08-5.49V112.51L321.3,107l15.27,5.56Z" fill="#f9f2ff"/><path d="M321.3,105.42l-16.58,6v21.17l16.58,6,16.77-6.1v-21ZM333,112.87l-11.68,4.25-11.68-4.25,11.68-4.25Zm-25.26,2.5,12.17,4.43V135l-12.17-4.43Zm15.17,19.52V119.73l12.17-4.43v15.16Z" fill="#7c5cd1"/><ellipse cx="320.5" cy="81.19" rx="43.78" ry="8.23" fill="#bf9de0"/><path d="M365.78,81.19c0-7.7-29.62-9.73-45.28-9.73s-45.28,2-45.28,9.73c0,.07,0,.13,0,.2h0L285.5,158l.13.95.91.29a113.58,113.58,0,0,0,33.55,5.2h.41a113.56,113.56,0,0,0,34-5.2l.91-.29.13-.95c3.41-25.52,10.26-76.64,10.26-76.64h0C365.76,81.32,365.78,81.26,365.78,81.19Zm-76-4.34a174.73,174.73,0,0,1,30.68-2.38,174.73,174.73,0,0,1,30.68,2.38c9.43,1.77,11.51,3.79,11.59,4.31l0,.15c-.26.62-2.57,2.54-11.57,4.23a174.82,174.82,0,0,1-30.68,2.38,174.82,174.82,0,0,1-30.68-2.38c-9-1.69-11.31-3.62-11.57-4.23l0-.15C278.31,80.64,280.39,78.62,289.82,76.84Zm62.85,79.84a109.42,109.42,0,0,1-32.56,4.78,110.54,110.54,0,0,1-31.76-4.78l-9.56-71.34c8.34,4.31,29.36,5.58,41.71,5.58s33.37-1.27,41.71-5.58C360.51,98,355.5,135.47,352.66,156.68Z" fill="#7c5cd1"/><polygon points="207.5 180.35 199.5 180.35 127 180.35 127 130.21 127 122.21 117.5 122.21 117.5 130.21 109.5 130.21 109.5 197.71 199.5 197.71 199.5 189.71 207.5 189.71 207.5 180.35" fill="#bf9de0"/><path d="M126.5,115v51.36l25.63-25.5,25.5,24.75,12-12,24.88,24V115ZM186,140.46a7.5,7.5,0,1,1,7.5-7.5A7.5,7.5,0,0,1,186,140.46Z" fill="#f9f2ff"/><path d="M186,142a9,9,0,1,0-9-9A9,9,0,0,0,186,142Zm0-15a6,6,0,1,1-6,6A6,6,0,0,1,186,127Z" fill="#7c5cd1"/><path d="M215.5,114.21h-90v8h-8v8h-8v67.5h90v-8h8v-8h8Zm-87,52.36,23.66-23.62,23,23-12.81,12.81H128.5Zm68,28.14h-84v-61.5h5v56.5h79Zm8-8h-84v-61.5h5v56.5h79Zm8-8h-46l23.34-23.34,22.63,22.46Zm0-5.11-22.63-22.46-12.64,12.64L152.16,138.7,128.5,162.33V117.21h84Z" fill="#7c5cd1"/></g></g></svg>