<svg xmlns="http://www.w3.org/2000/svg" xmlns:xlink="http://www.w3.org/1999/xlink" viewBox="0 0 197.29 160.29"><defs><clipPath id="4ce92c5a-7718-48c0-b15e-fc031bf4b813"><rect id="24cde856-abd4-488b-8022-34347822326b" data-name="SVGID" x="38.64" y="35.14" width="120" height="90" fill="#f9f2ff"/></clipPath></defs><title>feature-transform</title><g id="8dc8c2ca-c203-41a1-87ea-950b03894b50" data-name="Layer 2"><g id="c222a62a-3b17-4113-b08a-aae1b8432c8b" data-name="Content"><rect id="5723dfe7-1696-495e-8e28-ed086195ded7" data-name="SVGID" x="38.64" y="35.14" width="120" height="90" fill="#f9f2ff"/><g clip-path="url(#4ce92c5a-7718-48c0-b15e-fc031bf4b813)"><polygon points="127.7 124.14 74.19 70.63 20.67 124.14 127.7 124.14" fill="#fff" stroke="#7c5cd1" stroke-miterlimit="10" stroke-width="3"/><polygon points="161.42 124.14 124.47 87.2 87.53 124.14 161.42 124.14" fill="#fff" stroke="#7c5cd1" stroke-miterlimit="10" stroke-width="3"/></g><circle cx="119.33" cy="60.14" r="10" fill="#fff" stroke="#7c5cd1" stroke-miterlimit="10" stroke-width="3"/><path d="M155.64,38.14v84h-114v-84h114m3-3h-120v90h120v-90Z" fill="#7c5cd1"/><line x1="2.3" y1="2.3" x2="28.29" y2="28.29" fill="none" stroke="#ff645c" stroke-miterlimit="10" stroke-width="3"/><polygon points="0.66 18.01 3.66 17.9 3.12 3.12 17.9 3.66 18 0.66 0 0 0.66 18.01" fill="#ff645c"/><line x1="194.99" y1="157.99" x2="169" y2="132" fill="none" stroke="#ff645c" stroke-miterlimit="10" stroke-width="3"/><polygon points="196.63 142.28 193.63 142.39 194.17 157.17 179.39 156.63 179.28 159.63 197.29 160.28 196.63 142.28" fill="#ff645c"/><line x1="2.3" y1="157.99" x2="28.29" y2="132" fill="none" stroke="#ff645c" stroke-miterlimit="10" stroke-width="3"/><polygon points="18.01 159.63 17.9 156.63 3.12 157.17 3.66 142.39 0.66 142.28 0 160.29 18.01 159.63" fill="#ff645c"/><line x1="194.99" y1="2.3" x2="169" y2="28.29" fill="none" stroke="#ff645c" stroke-miterlimit="10" stroke-width="3"/><polygon points="179.28 0.66 179.39 3.66 194.17 3.12 193.63 17.9 196.63 18 197.28 0 179.28 0.66" fill="#ff645c"/></g></g></svg>