<svg xmlns="http://www.w3.org/2000/svg" viewBox="0 0 481 250"><title>feature-transform</title><g id="7fa40b7a-d5e8-4e9b-99d5-83d6aa714059" data-name="Layer 2"><g id="93702e4c-1fcf-43ce-9156-a846678d0b93" data-name="Content"><rect width="481" height="250" fill="#fff"/><polygon points="159.75 48.51 159.86 45.51 141.86 44.86 142.51 62.86 145.51 62.76 145.05 50.17 169.08 74.2 171.2 72.08 147.18 48.05 159.75 48.51" fill="#ff645c"/><polygon points="321.14 204.49 339.14 205.14 338.49 187.14 335.49 187.24 335.95 199.83 311.92 175.8 309.8 177.92 333.82 201.94 321.25 201.49 321.14 204.49" fill="#ff645c"/><polygon points="169.08 175.8 145.06 199.82 145.51 187.25 142.51 187.14 141.86 205.14 159.86 204.49 159.76 201.49 147.17 201.95 171.2 177.92 169.08 175.8" fill="#ff645c"/><polygon points="311.92 74.2 335.94 50.18 335.49 62.76 338.49 62.86 339.14 44.86 321.14 45.51 321.24 48.51 333.83 48.05 309.8 72.08 311.92 74.2" fill="#ff645c"/><path d="M181.83,81v68.48l34.17-34,34,33,16-16,33.17,32V81Zm79.35,34a10,10,0,1,1,10-10A10,10,0,0,1,261.19,115Z" fill="#f9f2ff"/><path d="M261.19,116.5a11.5,11.5,0,1,0-11.5-11.5A11.51,11.51,0,0,0,261.19,116.5Zm0-20a8.5,8.5,0,1,1-8.5,8.5A8.51,8.51,0,0,1,261.19,96.5Z" fill="#7c5cd1"/><path d="M300.56,163.92l-.06-.06V80h-120v68.86l-.06.06.06.06v21h120v-6ZM183.5,83h114v77.88l-31.18-30.94-16.85,16.85L216,113.36l-32.54,32.5Zm0,67.1L216,117.6l31.31,31.31L229.26,167H183.5Zm50,16.9,32.83-32.83,31.17,30.94V167Z" fill="#7c5cd1"/></g></g></svg>