<?xml version="1.0" encoding="UTF-8" standalone="no"?>
<svg width="626px" height="286px" viewBox="0 0 626 286" version="1.1" xmlns="http://www.w3.org/2000/svg" xmlns:xlink="http://www.w3.org/1999/xlink">
    <!-- Generator: Sketch 42 (36781) - http://www.bohemiancoding.com/sketch -->
    <title>Home Hero Base</title>
    <desc>Created with Sketch.</desc>
    <defs></defs>
    <g id="Page-1" stroke="none" stroke-width="1" fill="none" fill-rule="evenodd">
        <g id="Home-Hero-Base" fill-rule="nonzero" fill="#EDEAE6">
            <g id="home-hero">
                <polygon id="Shape" points="480.46 237.06 489.1 245.71 497.74 237.06"></polygon>
                <circle id="Oval" cx="54.79" cy="65.8" r="4"></circle>
                <circle id="Oval" cx="51.87" cy="134.45" r="4"></circle>
                <circle id="Oval" cx="500.88" cy="33.01" r="4"></circle>
                <circle id="Oval" cx="614.12" cy="60.24" r="4"></circle>
                <circle id="Oval" cx="490.88" cy="281.13" r="4"></circle>
                <circle id="Oval" cx="118.76" cy="13.5" r="4"></circle>
                <path d="M594.81,119 C595.743361,119 596.5,119.756639 596.5,120.69 C596.5,121.623361 595.743361,122.38 594.81,122.38 C593.876639,122.38 593.12,121.623361 593.12,120.69 C593.12,119.756639 593.876639,119 594.81,119 L594.81,119 Z M594.81,115.5 C591.943642,115.5 589.62,117.823642 589.62,120.69 C589.62,123.556358 591.943642,125.88 594.81,125.88 C597.676358,125.88 600,123.556358 600,120.69 C600,119.313526 599.453198,117.99343 598.479884,117.020116 C597.50657,116.046802 596.186474,115.5 594.81,115.5 L594.81,115.5 Z" id="Shape"></path>
                <path d="M620.21,27 C621.143361,27 621.9,27.7566388 621.9,28.69 C621.9,29.6233612 621.143361,30.38 620.21,30.38 C619.276639,30.38 618.52,29.6233612 618.52,28.69 C618.52,27.7566388 619.276639,27 620.21,27 L620.21,27 Z M620.21,23.5 C617.343642,23.5 615.02,25.8236421 615.02,28.69 C615.02,31.5563579 617.343642,33.88 620.21,33.88 C623.076358,33.88 625.4,31.5563579 625.4,28.69 C625.4,25.8236421 623.076358,23.5 620.21,23.5 L620.21,23.5 Z" id="Shape"></path>
                <path d="M65.16,119.57 C66.0933612,119.57 66.85,120.326639 66.85,121.26 C66.85,122.193361 66.0933612,122.95 65.16,122.95 C64.2266388,122.95 63.47,122.193361 63.47,121.26 C63.47,120.326639 64.2266388,119.57 65.16,119.57 L65.16,119.57 Z M65.16,116.07 C62.2936421,116.07 59.97,118.393642 59.97,121.26 C59.97,124.126358 62.2936421,126.45 65.16,126.45 C68.0263579,126.45 70.35,124.126358 70.35,121.26 C70.35,118.393642 68.0263579,116.07 65.16,116.07 Z" id="Shape"></path>
                <path d="M467,217.78 C467.933361,217.78 468.69,218.536639 468.69,219.47 C468.69,220.403361 467.933361,221.16 467,221.16 C466.066639,221.16 465.31,220.403361 465.31,219.47 C465.31,218.536639 466.066639,217.78 467,217.78 L467,217.78 Z M467,214.28 C464.133642,214.28 461.81,216.603642 461.81,219.47 C461.81,222.336358 464.133642,224.66 467,224.66 C469.866358,224.66 472.19,222.336358 472.19,219.47 C472.19,216.603642 469.866358,214.28 467,214.28 Z" id="Shape"></path>
                <path d="M65.16,27.8 C68.9541962,27.8 72.03,30.8758038 72.03,34.67 C72.03,38.4641962 68.9541962,41.54 65.16,41.54 C61.3658038,41.54 58.29,38.4641962 58.29,34.67 C58.2955075,30.8780874 61.3680874,27.8055075 65.16,27.8 L65.16,27.8 Z M65.16,24.3 C59.4328071,24.3 54.79,28.9428071 54.79,34.67 C54.79,40.3971929 59.4328071,45.04 65.16,45.04 C70.8871929,45.04 75.53,40.3971929 75.53,34.67 C75.53,28.9428071 70.8871929,24.3 65.16,24.3 L65.16,24.3 Z" id="Shape"></path>
                <polygon id="Shape" points="109.88 41.39 107.4 38.92 103.75 42.57 100.1 38.92 97.62 41.39 101.28 45.04 97.62 48.7 100.1 51.17 103.75 47.52 107.4 51.17 109.88 48.7 106.23 45.04"></polygon>
                <polygon id="Shape" points="21 18.47 14.72 18.47 19.16 14.03 16.69 11.55 12.25 15.99 12.25 9.72 8.75 9.72 8.75 15.99 4.31 11.55 1.84 14.03 6.28 18.47 0 18.47 0 21.97 6.28 21.97 1.84 26.4 4.31 28.88 8.75 24.44 8.75 30.72 12.25 30.72 12.25 24.44 16.69 28.88 19.16 26.4 14.72 21.97 21 21.97"></polygon>
                <polygon id="Shape" points="464.31 255.42 458.04 255.42 462.47 250.98 460 248.51 455.56 252.94 455.56 246.67 452.06 246.67 452.06 252.94 447.62 248.51 445.15 250.98 449.59 255.42 443.31 255.42 443.31 258.92 449.59 258.92 445.15 263.36 447.62 265.83 452.06 261.39 452.06 267.67 455.56 267.67 455.56 261.39 460 265.83 462.47 263.36 458.04 258.92 464.31 258.92"></polygon>
                <polygon id="Shape" points="573.39 8.75 567.12 8.75 571.56 4.31 569.08 1.84 564.64 6.28 564.64 0 561.14 0 561.14 6.28 556.71 1.84 554.23 4.31 558.67 8.75 552.39 8.75 552.39 12.25 558.67 12.25 554.23 16.69 556.71 19.16 561.14 14.72 561.14 21 564.64 21 564.64 14.72 569.08 19.16 571.56 16.69 567.12 12.25 573.39 12.25"></polygon>
                <path d="M34.8,79.77 L30.66,83.91 L22.45,75.7 L5.07,93.07 L48.07,93.07 L34.8,79.77 Z M13.53,89.57 L22.45,80.66 L28.19,86.39 L25,89.57 L13.53,89.57 Z M34.8,84.72 L39.65,89.57 L30,89.57 L34.8,84.72 Z" id="Shape"></path>
                <path d="M595.95,73.2 L591.81,77.34 L583.6,69.13 L566.22,86.5 L609.22,86.5 L595.95,73.2 Z M574.67,83 L583.59,74.09 L589.33,79.82 L586.15,83 L574.67,83 Z M595.94,78.15 L600.8,83 L591.1,83 L595.94,78.15 Z" id="Shape"></path>
                <polygon id="Shape" points="574.96 38.15 574.96 41.65 580.74 41.65 572.41 49.97 574.89 52.45 583.21 44.12 583.21 49.9 586.71 49.9 586.71 38.15"></polygon>
                <path d="M95.08,70.33 C85.1388745,70.33 77.08,78.3888745 77.08,88.33 C77.08,98.2711255 85.1388745,106.33 95.08,106.33 C105.021125,106.33 113.08,98.2711255 113.08,88.33 C113.08,78.3888745 105.021125,70.33 95.08,70.33 Z M88.45,100.66 C88.8424828,97.2983224 91.6904884,94.7634824 95.075,94.7634824 C98.4595116,94.7634824 101.307517,97.2983224 101.7,100.66 C97.5628818,102.882316 92.5871182,102.882316 88.45,100.66 Z M91.29,87 C91.29,84.9123636 92.9823636,83.22 95.07,83.22 C97.1576364,83.22 98.85,84.9123636 98.85,87 C98.85,89.0876364 97.1576364,90.78 95.07,90.78 C92.984644,90.774505 91.295495,89.085356 91.29,87 L91.29,87 Z M105.17,98 C104.368024,95.6613406 102.781631,93.6721671 100.68,92.37 C103.633198,89.3021833 103.571373,84.4302159 100.541276,81.4383277 C97.5111798,78.4464395 92.6388202,78.4464395 89.6087238,81.4383277 C86.5786273,84.4302159 86.5168017,89.3021833 89.47,92.37 C87.3758646,93.6756291 85.7968663,95.6643899 85,98 C79.6931211,92.4770448 79.809663,83.714705 85.2615528,78.3348448 C90.7134426,72.9549847 99.4765574,72.9549847 104.928447,78.3348448 C110.380337,83.714705 110.496879,92.4770448 105.19,98 L105.17,98 Z" id="Shape"></path>
                <path d="M537.39,44.8 C527.448875,44.8 519.39,52.8588745 519.39,62.8 C519.39,72.7411255 527.448875,80.8 537.39,80.8 C547.331125,80.8 555.39,72.7411255 555.39,62.8 C555.39,52.8588745 547.331125,44.8 537.39,44.8 L537.39,44.8 Z M530.76,75.13 C531.152483,71.7683224 534.000488,69.2334824 537.385,69.2334824 C540.769512,69.2334824 543.617517,71.7683224 544.01,75.13 C539.872882,77.3523161 534.897118,77.3523161 530.76,75.13 L530.76,75.13 Z M533.6,61.45 C533.6,59.3623636 535.292364,57.67 537.38,57.67 C539.467636,57.67 541.16,59.3623636 541.16,61.45 C541.16,63.5376364 539.467636,65.23 537.38,65.23 C535.29855,65.2190231 533.615463,63.5314715 533.61,61.45 L533.6,61.45 Z M547.48,72.45 C546.676573,70.1202678 545.09429,68.1388823 543,66.84 C545.953198,63.7721833 545.891373,58.9002159 542.861276,55.9083277 C539.83118,52.9164395 534.95882,52.9164395 531.928724,55.9083277 C528.898627,58.9002159 528.836802,63.7721833 531.79,66.84 C529.688369,68.1421671 528.101976,70.1313406 527.3,72.47 C521.993121,66.9470448 522.109663,58.184705 527.561553,52.8048448 C533.013443,47.4249847 541.776557,47.4249847 547.228447,52.8048448 C552.680337,58.184705 552.796879,66.9470448 547.49,72.47 L547.48,72.45 Z" id="Shape"></path>
            </g>
        </g>
    </g>
</svg>