<svg xmlns="http://www.w3.org/2000/svg" width="625.39" height="354.46" viewBox="0 0 625.39 354.46"><title>home-hero</title><path d="M400.08,354.46c7.9-59,15.93-119,15.93-119H192.23l15.94,119Z" fill="#f9f2ff"/><ellipse cx="304.12" cy="235.49" rx="111.89" ry="21.03" fill="#bf9de0"/><path d="M158.27,164.5a9,9,0,1,1,3.29-12.29A9,9,0,0,1,158.27,164.5Zm-7.5-13a6,6,0,1,0,8.2,2.2A6,6,0,0,0,150.77,151.51Z" fill="#7c5cd1"/><path d="M93.23,170.88l25.68,44.48,9.44-34.9,34.46,8.68,4.39-16.39,33.54,8.35-31.31-54.22Zm64.29-7.67A7.5,7.5,0,1,1,160.27,153,7.5,7.5,0,0,1,157.52,163.21Z" fill="#f9f2ff"/><path d="M151.18,166.37a10,10,0,0,0,2.6.35,10,10,0,1,0-2.6-.35Zm-2.24-11a5,5,0,1,1,.5,3.79A5,5,0,0,1,148.94,155.42Z" fill="#7c5cd1"/><path d="M203.68,184.19l-33.75-58.46L92,170.73l33.75,58.46ZM169,175.41l27.35,7.22-34.65,20Zm-70.21-2.85,69.28-40,25.5,44.16-28.11-7.42-4.63,17.26-34.25-9.18-7.94,29.56Zm23.39,40.51,7.94-29.56,29.42,7.88-4,14.77-28,16.19Z" fill="#7c5cd1"/><path d="M380.73,194.89l-3.59-13.42,18.15-31.26,31,17.31,8.49-14.7L465,169.57l.68,2.55Zm47.2-53.8a7.5,7.5,0,1,1,5.3-9.19A7.5,7.5,0,0,1,427.93,141.1Z" fill="#fff"/><path d="M428.32,142.54a9,9,0,1,1,6.36-11A9,9,0,0,1,428.32,142.54Zm-3.88-14.49a6,6,0,1,0,7.35,4.24A6,6,0,0,0,424.43,128.06Z" fill="#7c5cd1"/><path d="M363.84,131.87l13.29,49.61,18.15-31.26,31,17.31,8.49-14.7L465,169.57l-16.2-60.48Zm64.09,9.23a7.5,7.5,0,1,1,5.3-9.19A7.5,7.5,0,0,1,427.93,141.1Z" fill="#f9f2ff"/><path d="M426,143.85a10,10,0,1,0-9.66-7.41A10,10,0,0,0,426,143.85ZM424.69,129a5,5,0,1,1-3.54,6.12A5,5,0,0,1,424.69,129Z" fill="#7c5cd1"/><path d="M467.08,173.31l-17.47-65.2L362.68,131.4l17.47,65.2Zm-31.2-17.45,24.55,14.05-38.64,10.35ZM368.8,134.94l77.27-20.71,13.2,49.26L434,149l-8.94,15.48L394.4,146.8l-15.32,26.5Zm12.11,45.18,15.32-26.49,26.38,15.23L415,182.1l-31.28,8.38Z" fill="#7c5cd1"/><path d="M534.64,109.61l-44.48,25.68,34.9,9.44-8.68,34.46,16.39,4.39-8.35,33.54,54.22-31.31Zm7.67,64.29a7.5,7.5,0,1,1,10.25,2.75A7.5,7.5,0,0,1,542.32,173.9Z" fill="#f9f2ff"/><path d="M548.83,180.15a10,10,0,1,0-8.68-5A9.94,9.94,0,0,0,548.83,180.15ZM544,168.85a5,5,0,1,1,.5,3.79A5,5,0,0,1,544,168.85Z" fill="#7c5cd1"/><path d="M579.79,186.31l-45-77.94-58.46,33.75,45,77.94ZM533,115.2l40,69.28L528.8,210l7.42-28.11L519,177.24,528.14,143,498.58,135Zm-40.51,23.39L522,146.52l-7.88,29.42-14.77-4-16.19-28Zm10.44,39.53,27.22,7.29-7.22,27.35Z" fill="#7c5cd1"/><path d="M288,232.67h-5a89.1,89.1,0,0,0-.76-11.63l5-.66A94.17,94.17,0,0,1,288,232.67ZM280,209.61a87.36,87.36,0,0,0-3.8-11l4.61-1.94a92.48,92.48,0,0,1,4,11.66Zm-9-21.45a88.26,88.26,0,0,0-6.57-9.63l3.94-3.08a93.35,93.35,0,0,1,6.94,10.18ZM256.6,169.85a88.33,88.33,0,0,0-8.86-7.58l3-4a93.3,93.3,0,0,1,9.36,8ZM238,155.94a87.65,87.65,0,0,0-10.53-5l1.83-4.65a92.62,92.62,0,0,1,11.13,5.26Zm-21.63-8.51a88,88,0,0,0-11.48-2l.54-5a93,93,0,0,1,12.13,2.14Z" fill="#7c5cd1"/><path d="M302.41,245c-.83-3.94-1.56-8-2.16-11.95l4.94-.75c.59,3.89,1.3,7.82,2.11,11.67Zm-3.66-24c-.38-4-.66-8.1-.81-12.11l5-.19c.15,3.92.42,7.9.79,11.83Zm4.08-24.16-5-.1c.08-4.07.28-8.15.61-12.14l5,.4C303.1,188.88,302.9,192.86,302.83,196.83Zm1.91-23.6-4.95-.72c.59-4.06,1.32-8.09,2.16-12l4.89,1.06C306,165.36,305.31,169.28,304.74,173.23Zm5-23.07L305,148.72c1.2-4,2.56-7.88,4-11.54l4.64,1.87C312.25,142.56,310.94,146.3,309.78,150.16Zm8.82-21.74-4.41-2.36a87.6,87.6,0,0,1,6.56-10.46l4,3A82.59,82.59,0,0,0,318.61,128.42Zm64.31-16.48a60.6,60.6,0,0,0-9.34-6.72l2.49-4.33a65.62,65.62,0,0,1,10.12,7.27Zm-50.5-2L329,106.28A46.72,46.72,0,0,1,339.34,99l2.27,4.45A41.73,41.73,0,0,0,332.41,110Zm30.75-9a30.66,30.66,0,0,0-11-.74l-.59-5a35.75,35.75,0,0,1,12.8.85Z" fill="#7c5cd1"/><polygon points="480.46 237.06 489.1 245.71 497.74 237.06 480.46 237.06" fill="#edeae6"/><circle cx="54.79" cy="65.8" r="4" fill="#edeae6"/><circle cx="51.87" cy="134.45" r="4" fill="#edeae6"/><circle cx="500.88" cy="33.01" r="4" fill="#edeae6"/><circle cx="614.12" cy="60.24" r="4" fill="#edeae6"/><circle cx="490.88" cy="281.13" r="4" fill="#edeae6"/><circle cx="118.76" cy="13.5" r="4" fill="#edeae6"/><path d="M594.81,119a1.69,1.69,0,1,1-1.69,1.69,1.69,1.69,0,0,1,1.69-1.69m0-3.5a5.19,5.19,0,1,0,5.19,5.19,5.19,5.19,0,0,0-5.19-5.19Z" fill="#edeae6"/><path d="M620.21,27a1.69,1.69,0,1,1-1.69,1.69A1.69,1.69,0,0,1,620.21,27m0-3.5a5.19,5.19,0,1,0,5.19,5.19,5.19,5.19,0,0,0-5.19-5.19Z" fill="#edeae6"/><path d="M65.16,119.57a1.69,1.69,0,1,1-1.69,1.69,1.69,1.69,0,0,1,1.69-1.69m0-3.5a5.19,5.19,0,1,0,5.19,5.19,5.19,5.19,0,0,0-5.19-5.19Z" fill="#edeae6"/><path d="M467,217.78a1.69,1.69,0,1,1-1.69,1.69,1.69,1.69,0,0,1,1.69-1.69m0-3.5a5.19,5.19,0,1,0,5.19,5.19,5.19,5.19,0,0,0-5.19-5.19Z" fill="#edeae6"/><path d="M65.16,27.8a6.87,6.87,0,1,1-6.87,6.87,6.88,6.88,0,0,1,6.87-6.87m0-3.5A10.37,10.37,0,1,0,75.53,34.67,10.37,10.37,0,0,0,65.16,24.3Z" fill="#edeae6"/><polygon points="109.88 41.39 107.4 38.92 103.75 42.57 100.1 38.92 97.62 41.39 101.28 45.04 97.62 48.7 100.1 51.17 103.75 47.52 107.4 51.17 109.88 48.7 106.23 45.04 109.88 41.39" fill="#edeae6"/><polygon points="21 18.47 14.72 18.47 19.16 14.03 16.69 11.55 12.25 15.99 12.25 9.72 8.75 9.72 8.75 15.99 4.31 11.55 1.84 14.03 6.28 18.47 0 18.47 0 21.97 6.28 21.97 1.84 26.4 4.31 28.88 8.75 24.44 8.75 30.72 12.25 30.72 12.25 24.44 16.69 28.88 19.16 26.4 14.72 21.97 21 21.97 21 18.47" fill="#edeae6"/><polygon points="464.31 255.42 458.04 255.42 462.47 250.98 460 248.51 455.56 252.94 455.56 246.67 452.06 246.67 452.06 252.94 447.62 248.51 445.15 250.98 449.59 255.42 443.31 255.42 443.31 258.92 449.59 258.92 445.15 263.36 447.62 265.83 452.06 261.39 452.06 267.67 455.56 267.67 455.56 261.39 460 265.83 462.47 263.36 458.04 258.92 464.31 258.92 464.31 255.42" fill="#edeae6"/><polygon points="573.39 8.75 567.12 8.75 571.56 4.31 569.08 1.84 564.64 6.28 564.64 0 561.14 0 561.14 6.28 556.71 1.84 554.23 4.31 558.67 8.75 552.39 8.75 552.39 12.25 558.67 12.25 554.23 16.69 556.71 19.16 561.14 14.72 561.14 21 564.64 21 564.64 14.72 569.08 19.16 571.56 16.69 567.12 12.25 573.39 12.25 573.39 8.75" fill="#edeae6"/><path d="M34.8,79.77l-4.14,4.14L22.45,75.7,5.07,93.07h43ZM13.53,89.57l8.92-8.91,5.74,5.73L25,89.57ZM34.8,84.72l4.85,4.85H30Z" fill="#edeae6"/><path d="M595.95,73.2l-4.14,4.14-8.21-8.21L566.22,86.5h43ZM574.67,83l8.92-8.91,5.74,5.73L586.15,83Zm21.27-4.85L600.8,83h-9.7Z" fill="#edeae6"/><polygon points="574.96 38.15 574.96 41.65 580.74 41.65 572.41 49.97 574.89 52.45 583.21 44.12 583.21 49.9 586.71 49.9 586.71 38.15 574.96 38.15" fill="#edeae6"/><path d="M95.08,70.33a18,18,0,1,0,18,18A18,18,0,0,0,95.08,70.33Zm-6.63,30.33a6.67,6.67,0,0,1,13.25,0,14,14,0,0,1-13.25,0ZM91.29,87a3.78,3.78,0,1,1,3.78,3.78A3.79,3.79,0,0,1,91.29,87Zm13.88,11a10.71,10.71,0,0,0-4.49-5.63,7.78,7.78,0,1,0-11.21,0A10.71,10.71,0,0,0,85,98a14,14,0,1,1,20.19,0Z" fill="#edeae6"/><path d="M537.39,44.8a18,18,0,1,0,18,18A18,18,0,0,0,537.39,44.8Zm-6.63,30.33a6.67,6.67,0,0,1,13.25,0,14,14,0,0,1-13.25,0Zm2.84-13.68a3.78,3.78,0,1,1,3.78,3.78A3.79,3.79,0,0,1,533.61,61.45Zm13.88,11A10.71,10.71,0,0,0,543,66.84a7.78,7.78,0,1,0-11.21,0,10.71,10.71,0,0,0-4.49,5.63,14,14,0,1,1,20.19,0Z" fill="#edeae6"/><path d="M181.75,43.36a30,30,0,0,0-30,49.13c0-.21.08-.42.14-.63a16.26,16.26,0,0,1,19.92-11.5,10.84,10.84,0,1,1,13.28-7.67,10.84,10.84,0,0,1-13.28,7.67,16.26,16.26,0,0,1,11.5,19.92c-.06.21-.13.41-.2.61a30,30,0,0,0-1.39-57.53Z" fill="#f9f2ff"/><path d="M202.13,56.08a32.5,32.5,0,1,0,3.25,24.66A32.28,32.28,0,0,0,202.13,56.08Zm-35.26,42.8a27.32,27.32,0,0,1-12.31-7.09,13.74,13.74,0,0,1,26.52,7.08A27.32,27.32,0,0,1,166.87,98.88Zm5.61-20.94A8.34,8.34,0,1,1,182.7,72,8.35,8.35,0,0,1,172.49,77.94Zm28.06,1.5a27.43,27.43,0,0,1-14.18,17.41,18.67,18.67,0,0,0-6.27-14.81,13.32,13.32,0,0,0,7.44-8.71h0a13.34,13.34,0,1,0-23.69,4.36A18.68,18.68,0,0,0,151,87.4c-.28-.43-.56-.87-.82-1.32a27.51,27.51,0,0,1,23.76-41.25,27.64,27.64,0,0,1,7.16.95,27.49,27.49,0,0,1,19.44,33.67Z" fill="#7c5cd1"/><path d="M279.64,167.79c-.52-3.87-1.15-7.65-1.87-11.24l4.9-1c.75,3.7,1.4,7.59,1.93,11.58Zm-4.7-22.66a111.37,111.37,0,0,0-3.88-11.06l4.62-1.91a116.52,116.52,0,0,1,4.06,11.55Zm-9-21.52a73.18,73.18,0,0,0-6.53-9.56l3.88-3.15a78.18,78.18,0,0,1,7,10.21Zm-14.57-17.79a55.15,55.15,0,0,0-9.46-6.46l2.37-4.4a60.16,60.16,0,0,1,10.32,7ZM231.31,95.09a41.69,41.69,0,0,0-10.67-1.64h-.41l-.23-5h.65a46.33,46.33,0,0,1,12,1.82Z" fill="#7c5cd1"/><path d="M336,233.68c-.35-4-.63-8.1-.81-12.08l5-.23c.18,3.91.45,7.9.79,11.87Zm3.9-24.19h-5v-.41c0-3.94.09-7.87.26-11.7l5,.23c-.17,3.75-.26,7.6-.26,11.45Zm1.1-23.72-5-.48c.39-4.06.9-8.11,1.49-12l4.94.75C341.83,177.84,341.34,181.8,341,185.78Zm3.58-23.42-4.89-1c.85-4,1.83-8,2.9-11.8l4.81,1.35C346.32,154.6,345.37,158.46,344.54,162.35Zm6.41-22.76-4.71-1.68c1.38-3.87,2.9-7.67,4.53-11.31l4.57,2C353.76,132.16,352.29,135.85,350.95,139.6Zm9.62-21.52-4.38-2.41c2-3.62,4.13-7.13,6.37-10.43l4.14,2.8C364.54,111.21,362.48,114.59,360.57,118.08Zm141-10.33c-2.36-3.23-4.83-6.33-7.34-9.2l3.76-3.3c2.62,3,5.18,6.2,7.63,9.55ZM373.74,98.66l-3.83-3.21a108.28,108.28,0,0,1,8.39-9l3.45,3.62A103.42,103.42,0,0,0,373.74,98.66ZM486,90.13a98.53,98.53,0,0,0-9-7.43l2.94-4a103.73,103.73,0,0,1,9.49,7.81Zm-95.32-7.52-3-4A88,88,0,0,1,398.15,72l2.36,4.41A83,83,0,0,0,390.69,82.61Zm76.43-6.11A76.79,76.79,0,0,0,456.5,71.8l1.67-4.71a81.84,81.84,0,0,1,11.3,5Zm-56-4.79L409.46,67a74.78,74.78,0,0,1,12-3.13l.85,4.93A69.76,69.76,0,0,0,411.12,71.71Zm34.2-2.87a67.05,67.05,0,0,0-11.5-1v-5a72.15,72.15,0,0,1,12.37,1.1Z" fill="#7c5cd1"/><path d="M205.14,354.46h6.05L196.5,244.77c5.79,3.29,15.07,6.11,27.95,8.54,21.31,4,49.61,6.21,79.67,6.21s58.36-2.21,79.67-6.21c12.88-2.42,22.16-5.25,27.95-8.54-2.59,19.35-8.69,64.85-14.69,109.69h6.05c7.23-54,14.56-108.7,15.72-117.36a7.18,7.18,0,0,0,.19-1.61c0-7.54-11.52-13.36-35.22-17.82-21.31-4-49.61-6.21-79.67-6.21s-58.36,2.21-79.67,6.21c-23.7,4.45-35.22,10.28-35.22,17.82a7.18,7.18,0,0,0,.19,1.61Zm20.42-130.89c21-3.94,48.86-6.11,78.56-6.11s57.61,2.17,78.56,6.11c28,5.26,30.15,11,30.31,11.83l0,.36c-.42,1.24-3.78,6.68-30.26,11.66-21,3.94-48.86,6.11-78.56,6.11s-57.61-2.17-78.56-6.11c-26.49-5-29.84-10.41-30.26-11.66l0-.36C195.41,234.6,197.58,228.83,225.55,223.57Z" fill="#7c5cd1"/><path d="M345.18,354.46V315.7l-39-14.2-38.54,14v38.94Z" fill="#fff"/><path d="M270.62,354.46V321.65l32.78,11.93v20.88h6V333.41l32.78-11.93v33h6V313.6l-42-15.29-41.54,15.12v41Zm35.54-49.77,32.29,11.75L306.16,328.2l-32.29-11.75Z" fill="#7c5cd1"/></svg>