<?xml version="1.0" encoding="UTF-8" standalone="no"?>
<svg width="90px" height="150px" viewBox="0 0 90 150" version="1.1" xmlns="http://www.w3.org/2000/svg" xmlns:xlink="http://www.w3.org/1999/xlink">
    <!-- Generator: Sketch 42 (36781) - http://www.bohemiancoding.com/sketch -->
    <title>Shape</title>
    <desc>Created with Sketch.</desc>
    <defs></defs>
    <g id="Page-1" stroke="none" stroke-width="1" fill="none" fill-rule="evenodd">
        <g id="home-hero" transform="translate(-297.000000, -95.000000)" fill-rule="nonzero" fill="#7C5CD1">
            <path d="M302.41,245 C301.58,241.06 300.85,237 300.25,233.05 L305.19,232.3 C305.78,236.19 306.49,240.12 307.3,243.97 L302.41,245 Z M298.75,221 C298.37,217 298.09,212.9 297.94,208.89 L302.94,208.7 C303.09,212.62 303.36,216.6 303.73,220.53 L298.75,221 Z M302.83,196.84 L297.83,196.74 C297.91,192.67 298.11,188.59 298.44,184.6 L303.44,185 C303.1,188.88 302.9,192.86 302.83,196.83 L302.83,196.84 Z M304.74,173.24 L299.79,172.52 C300.38,168.46 301.11,164.43 301.95,160.52 L306.84,161.58 C306,165.36 305.31,169.28 304.74,173.23 L304.74,173.24 Z M309.74,150.17 L305,148.72 C306.2,144.72 307.56,140.84 309,137.18 L313.64,139.05 C312.25,142.56 310.94,146.3 309.78,150.16 L309.74,150.17 Z M318.56,128.43 L314.15,126.07 C316.087923,122.43338 318.280033,118.938034 320.71,115.61 L324.71,118.61 C322.450191,121.733616 320.411873,125.011632 318.61,128.42 L318.56,128.43 Z M382.87,111.95 C379.976852,109.418833 376.849425,107.168693 373.53,105.23 L376.02,100.9 C379.616302,102.99684 383.004909,105.431145 386.14,108.17 L382.87,111.95 Z M332.37,109.95 L329,106.28 C332.100808,103.395937 335.579331,100.946842 339.34,99 L341.61,103.45 C338.260697,105.20636 335.165694,107.409868 332.41,110 L332.37,109.95 Z M363.12,100.95 C359.528167,100.040706 355.801259,99.7899866 352.12,100.21 L351.53,95.21 C355.813017,94.7192491 360.149483,95.0072175 364.33,96.06 L363.12,100.95 Z" id="Shape"></path>
        </g>
    </g>
</svg>