<?xml version="1.0" encoding="UTF-8" standalone="no"?>
<svg width="84px" height="93px" viewBox="0 0 84 93" version="1.1" xmlns="http://www.w3.org/2000/svg" xmlns:xlink="http://www.w3.org/1999/xlink">
    <!-- Generator: Sketch 42 (36781) - http://www.bohemiancoding.com/sketch -->
    <title>Shape</title>
    <desc>Created with Sketch.</desc>
    <defs></defs>
    <g id="Page-1" stroke="none" stroke-width="1" fill="none" fill-rule="evenodd">
        <g id="home-hero" transform="translate(-204.000000, -140.000000)" fill-rule="nonzero" fill="#7C5CD1">
            <path d="M288,232.67 L283,232.67 C283.000755,228.780901 282.746879,224.895926 282.24,221.04 L287.24,220.38 C287.761185,224.455699 288.015061,228.56114 288,232.67 Z M280,209.61 C278.979245,205.862945 277.709762,202.188126 276.2,198.61 L280.81,196.67 C282.401172,200.46338 283.737473,204.358697 284.81,208.33 L280,209.61 Z M271,188.16 C269.024619,184.808718 266.829833,181.591703 264.43,178.53 L268.37,175.45 C270.904984,178.686805 273.223365,182.087543 275.31,185.63 L271,188.16 Z M256.6,169.85 C253.816839,167.130951 250.857058,164.598769 247.74,162.27 L250.74,158.27 C254.032751,160.727657 257.159558,163.400142 260.1,166.27 L256.6,169.85 Z M238,155.94 C234.604839,154.041519 231.087061,152.37116 227.47,150.94 L229.3,146.29 C233.122543,147.794568 236.840754,149.551782 240.43,151.55 L238,155.94 Z M216.37,147.43 C212.591725,146.510425 208.756652,145.842294 204.89,145.43 L205.43,140.43 C209.516181,140.874497 213.5684,141.589398 217.56,142.57 L216.37,147.43 Z" id="Shape"></path>
        </g>
    </g>
</svg>