<?xml version="1.0" encoding="UTF-8" standalone="no"?>
<svg width="91px" height="68px" viewBox="0 0 91 68" version="1.1" xmlns="http://www.w3.org/2000/svg" xmlns:xlink="http://www.w3.org/1999/xlink">
    <!-- Generator: Sketch 42 (36781) - http://www.bohemiancoding.com/sketch -->
    <title>Group</title>
    <desc>Created with Sketch.</desc>
    <defs></defs>
    <g id="Page-1" stroke="none" stroke-width="1" fill="none" fill-rule="evenodd">
        <g id="feature-webhooks" transform="translate(-115.000000, -91.000000)" fill-rule="nonzero">
            <g id="7d2c766f-14b5-45d5-9770-4cab49655a0f">
                <g id="65a93c3e-b3e7-424a-b035-f13c127a5f72">
                    <g id="Group" transform="translate(115.000000, 91.000000)">
                        <path d="M1.5,1 L1.5,52.36 L27.13,26.86 L52.63,51.61 L64.63,39.61 L89.51,63.61 L89.51,1 L1.5,1 Z M61,26.5 C56.8578644,26.5 53.5,23.1421356 53.5,19 C53.5,14.8578644 56.8578644,11.5 61,11.5 C65.1421356,11.5 68.5,14.8578644 68.5,19 C68.5,23.1421356 65.1421356,26.5 61,26.5 Z" id="Shape" fill="#F9F2FF"></path>
                        <path d="M61,28 C56.0294373,28 52,23.9705627 52,19 C52,14.0294373 56.0294373,10 61,10 C65.9705627,10 70,14.0294373 70,19 C70,23.9705627 65.9705627,28 61,28 L61,28 Z M61,13 C57.6862915,13 55,15.6862915 55,19 C55,22.3137085 57.6862915,25 61,25 C64.3137085,25 67,22.3137085 67,19 C67,15.6862915 64.3137085,13 61,13 Z" id="Shape" fill="#7C5CD1"></path>
                        <path d="M90.5,0.25 L0.5,0.25 L0.5,67.75 L90.5,67.75 L90.5,0.25 Z M3.5,3.25 L87.5,3.25 L87.5,59.64 L64.87,37.18 L52.23,49.82 L27.16,24.75 L3.5,48.37 L3.5,3.25 Z M3.5,52.61 L27.16,29 L50.16,52 L37.34,64.82 L3.5,64.82 L3.5,52.61 Z M41.5,64.75 L64.84,41.41 L87.47,63.87 L87.47,64.75 L41.5,64.75 Z" id="Shape" fill="#7C5CD1"></path>
                    </g>
                </g>
            </g>
        </g>
    </g>
</svg>