<svg xmlns="http://www.w3.org/2000/svg" viewBox="0 0 64.68 40"><title>logo-mark</title><g id="e9694939-3bf6-4b74-9c43-f15bbff1b472" data-name="Layer 2"><g id="676ed455-d8a0-449d-bd19-5ef8be375519" data-name="Content"><rect x="5.67" y="15.72" width="53.28" height="22.79" fill="#bf9de0"/><path d="M60.45,40H4.18V14.23H60.45ZM7.16,37h50.3V17.21H7.16Z" fill="#373738"/><polygon points="17.02 24.83 27.21 14.58 6.82 14.58 17.02 24.83" fill="#fff"/><path d="M17,26.94,3.23,13.08H30.8ZM10.41,16.07,17,22.71l6.61-6.64Z" fill="#373738"/><polygon points="29.7 27.46 41.05 16.07 18.31 16.07 29.7 27.46" fill="#fff"/><path d="M29.7,29.58l-15-15H44.64Zm-7.79-12,7.79,7.79,7.75-7.79Z" fill="#373738"/><path d="M37.21,1.49a4.83,4.83,0,0,1,0,.85,5.14,5.14,0,0,1-4.93,5.37,5.14,5.14,0,0,1-4.93-5.37c0-.3,0-.55,0-.85h-26V15.72H63.18V1.49Z" fill="#7c5cd1"/><path d="M64.68,17.21H0V0H29V1.49c0,.2,0,.38,0,.56s0,.19,0,.29a3.68,3.68,0,0,0,3.43,3.88,3.68,3.68,0,0,0,3.43-3.88,3.49,3.49,0,0,0,0-.6L35.45,0H64.68ZM3,14.23H61.69V3h-23A6.61,6.61,0,0,1,32.34,9.2,6.61,6.61,0,0,1,25.95,3H3Z" fill="#373738"/></g></g></svg>