<svg xmlns="http://www.w3.org/2000/svg" viewBox="0 0 106.58 24.15"><title>logo</title><g id="28ca5352-1757-4c49-8f5d-d0fecc918652" data-name="Layer 2"><g id="44f48339-8dd3-41c1-a5aa-2258de992427" data-name="Content"><path d="M4.88,17.1c.08,1.45,1.21,2.74,3.39,2.74,1.94,0,3.31-.93,3.35-2.42,0-1-.44-1.9-2.74-2.58l-2.74-.77C1.13,12.54.24,9.6.24,7.54.24,3.47,3.71.73,8.06.73s7.7,2.62,7.7,7H10.93c0-1.53-1-2.58-2.94-2.58C6.29,5.12,5,6,5,7.38c0,.6.24,1.69,2.46,2.3l2.7.85c5.52,1.57,6.29,4.68,6.25,6.86C16.37,21.9,12.3,24,8.27,24,3.31,24,0,21.09,0,17H4.88Z" fill="#ff645c"/><path d="M23.67,23.79h-4.6V0h4.6V10.81c.65-1.9,2.86-2.74,4.31-2.74,4.07,0,6.17,2.7,6.17,7.38v8.39h-4.6V15.57a2.95,2.95,0,1,0-5.89.08Z" fill="#ff645c"/><path d="M47.3,8.39h4.6v15.4H47.3v-2.1a4.71,4.71,0,0,1-4,2.46c-3.47,0-6.09-2.14-6.09-6.53V8.39h4.6v8.23a2.72,2.72,0,0,0,2.74,3.06c1.41,0,2.78-.81,2.78-3.15V8.39Z" fill="#ff645c"/><path d="M55.28,23.79V0h4.56V10.28a5.1,5.1,0,0,1,4.52-2.22c4,0,7.46,3.15,7.46,8.11s-3.51,8-7.46,8a5,5,0,0,1-4.52-2.26v1.9Zm8.23-4A3.53,3.53,0,0,0,67.06,16,3.55,3.55,0,1,0,60,16,3.6,3.6,0,0,0,63.51,19.76Z" fill="#ff645c"/><path d="M73.43,16a8,8,0,0,1,16,0,8,8,0,1,1-16,0Zm11.49,0a3.49,3.49,0,1,0-7,0,3.49,3.49,0,1,0,7,0Z" fill="#ff645c"/><polygon points="90.37 8.39 95.73 8.39 98.03 11.78 100.33 8.39 105.65 8.39 100.53 15.44 106.58 23.79 101.25 23.79 97.99 19.07 94.68 23.79 89.36 23.79 95.45 15.44 90.37 8.39" fill="#ff645c"/></g></g></svg>