<?xml version="1.0" encoding="UTF-8" standalone="no"?>
<svg width="65px" height="80px" viewBox="0 0 65 80" version="1.1" xmlns="http://www.w3.org/2000/svg" xmlns:xlink="http://www.w3.org/1999/xlink">
    <!-- Generator: Sketch 42 (36781) - http://www.bohemiancoding.com/sketch -->
    <title>Shape</title>
    <desc>Created with Sketch.</desc>
    <defs></defs>
    <g id="Page-1" stroke="none" stroke-width="1" fill="none" fill-rule="evenodd">
        <g id="home-hero" transform="translate(-220.000000, -88.000000)" fill-rule="nonzero" fill="#7C5CD1">
            <path d="M279.64,167.79 C279.12,163.92 278.49,160.14 277.77,156.55 L282.67,155.55 C283.42,159.25 284.07,163.14 284.6,167.13 L279.64,167.79 Z M274.94,145.13 C273.841694,141.377785 272.546568,137.686007 271.06,134.07 L275.68,132.16 C277.234798,135.936193 278.590002,139.791513 279.74,143.71 L274.94,145.13 Z M265.94,123.61 C264.019215,120.255886 261.835717,117.059218 259.41,114.05 L263.29,110.9 C265.889534,114.112961 268.230203,117.526994 270.29,121.11 L265.94,123.61 Z M251.37,105.82 C248.449458,103.344126 245.279026,101.179116 241.91,99.36 L244.28,94.96 C247.953194,96.9295467 251.411769,99.2754795 254.6,101.96 L251.37,105.82 Z M231.31,95.09 C227.839441,94.083212 224.252712,93.5319247 220.64,93.45 L220.23,93.45 L220,88.45 L220.65,88.45 C224.712503,88.527828 228.747115,89.1397442 232.65,90.27 L231.31,95.09 Z" id="Shape"></path>
        </g>
    </g>
</svg>