<?xml version="1.0" encoding="UTF-8" standalone="no"?>
<svg width="172px" height="172px" viewBox="0 0 172 172" version="1.1" xmlns="http://www.w3.org/2000/svg" xmlns:xlink="http://www.w3.org/1999/xlink">
    <!-- Generator: Sketch 42 (36781) - http://www.bohemiancoding.com/sketch -->
    <title>Shape</title>
    <desc>Created with Sketch.</desc>
    <defs></defs>
    <g id="Page-1" stroke="none" stroke-width="1" fill="none" fill-rule="evenodd">
        <g id="home-hero" transform="translate(-334.000000, -62.000000)" fill-rule="nonzero" fill="#7C5CD1">
            <path d="M336,233.68 C335.65,229.68 335.37,225.58 335.19,221.6 L340.19,221.37 C340.37,225.28 340.64,229.27 340.98,233.24 L336,233.68 Z M339.9,209.49 L334.9,209.49 L334.9,209.08 C334.9,205.14 334.99,201.21 335.16,197.38 L340.16,197.61 C339.99,201.36 339.9,205.21 339.9,209.06 L339.9,209.49 Z M341,185.77 L336,185.29 C336.39,181.23 336.9,177.18 337.49,173.29 L342.43,174.04 C341.83,177.84 341.34,181.8 341,185.78 L341,185.77 Z M344.58,162.35 L339.69,161.35 C340.54,157.35 341.52,153.35 342.59,149.55 L347.4,150.9 C346.32,154.6 345.37,158.46 344.54,162.35 L344.58,162.35 Z M350.99,139.59 L346.28,137.91 C347.66,134.04 349.18,130.24 350.81,126.6 L355.38,128.6 C353.76,132.16 352.29,135.85 350.95,139.6 L350.99,139.59 Z M360.61,118.07 L356.23,115.66 C358.23,112.04 360.36,108.53 362.6,105.23 L366.74,108.03 C364.54,111.21 362.48,114.59 360.57,118.08 L360.61,118.07 Z M501.61,107.74 C499.25,104.51 496.78,101.41 494.27,98.54 L498.03,95.24 C500.65,98.24 503.21,101.44 505.66,104.79 L501.61,107.74 Z M373.74,98.66 L369.91,95.45 C372.533819,92.2934001 375.335007,89.2885502 378.3,86.45 L381.75,90.07 C378.919434,92.7792867 376.245122,95.6472437 373.74,98.66 L373.74,98.66 Z M486,90.13 C483.149442,87.4776807 480.144172,84.996663 477,82.7 L479.94,78.7 C483.254917,81.1134759 486.423811,83.7213858 489.43,86.51 L486,90.13 Z M390.68,82.61 L387.68,78.61 C391.01047,76.1635665 394.509128,73.954767 398.15,72 L400.51,76.41 C397.095919,78.2448464 393.814556,80.3165831 390.69,82.61 L390.68,82.61 Z M467.11,76.5 C463.696941,74.6679652 460.15015,73.0968135 456.5,71.8 L458.17,67.09 C462.057287,68.4695199 465.834718,70.1409496 469.47,72.09 L467.11,76.5 Z M411.11,71.71 L409.46,67 C413.366438,65.6262149 417.380237,64.5792824 421.46,63.87 L422.31,68.8 C418.505903,69.4586868 414.76305,70.4320291 411.12,71.71 L411.11,71.71 Z M445.31,68.84 C441.512541,68.1766976 437.664953,67.8421247 433.81,67.84 L433.81,62.84 C437.957285,62.8504615 442.095945,63.2184911 446.18,63.94 L445.31,68.84 Z" id="Shape"></path>
        </g>
    </g>
</svg>