<svg xmlns="http://www.w3.org/2000/svg" width="68.22" height="70" viewBox="0 0 68.22 70"><title>plan-upload</title><polygon points="29.18 30.61 29.18 34.11 36.95 34.11 25.8 45.26 28.27 47.74 39.43 36.58 39.43 44.36 42.93 44.36 42.93 30.61 29.18 30.61" fill="#ff645c"/><path d="M68.22,8c0-7.65-28.41-8-34.11-8S0,.39,0,8c0,.09,0,.18,0,.26H0l7.7,57.47,1.22.38A84.11,84.11,0,0,0,33.8,70h.31a84.14,84.14,0,0,0,25.17-3.85l1.22-.38.17-1.26C63.18,45.79,68.2,8.3,68.2,8.3h0C68.19,8.21,68.22,8.12,68.22,8ZM34.11,4C51.65,4,61.7,6.49,63.92,8c-2.22,1.54-12.27,4-29.81,4S6.51,9.58,4.3,8C6.51,6.49,16.57,4,34.11,4ZM56.88,62.7A80.13,80.13,0,0,1,34.12,66h-.3a80.12,80.12,0,0,1-22.48-3.3L4.62,12.55c8.29,3.3,25.23,3.52,29.48,3.52s21.19-.22,29.48-3.52C62.2,22.95,58.86,47.87,56.88,62.7Z" fill="#7c5cd1"/></svg>