<svg xmlns="http://www.w3.org/2000/svg" width="98.58" height="85.5" viewBox="0 0 98.58 85.5"><title>plan-transform</title><path d="M77.29,64.75h-56v-44h56Zm-52-4h48v-36h-48Z" fill="#7c5cd1"/><polygon points="84.95 0 84.95 3.5 92.61 3.5 81.6 14.51 84.07 16.99 95.08 5.97 95.08 13.63 98.58 13.63 98.58 0 84.95 0" fill="#ff645c"/><polygon points="16.99 14.51 5.97 3.5 13.63 3.5 13.63 0 0 0 0 13.63 3.5 13.63 3.5 5.97 14.51 16.99 16.99 14.51" fill="#ff645c"/><polygon points="16.99 70.99 14.51 68.51 3.5 79.53 3.5 71.87 0 71.87 0 85.5 13.63 85.5 13.63 82 5.97 82 16.99 70.99" fill="#ff645c"/><polygon points="95.08 71.87 95.08 79.53 84.07 68.51 81.6 70.99 92.61 82 84.95 82 84.95 85.5 98.58 85.5 98.58 71.87 95.08 71.87" fill="#ff645c"/></svg>